<svg height="20" viewBox="0 0 18.394 20" width="18.394" xmlns="http://www.w3.org/2000/svg">
    <g id="accept" transform="translate(-1460 -1166.366)">
        <g data-name="Group 1618" id="Group_1618" transform="translate(1460 1166.366)">
            <g data-name="Group 1612" id="Group_1612" transform="translate(8.803)">
                <g data-name="Group 1608" id="Group_1608">
                    <path
                        d="M2457.908,1806.623c-.231-.071-.564-.188-.914-.323a2.3,2.3,0,0,1-1.5-2.148V1791.5a1.165,1.165,0,0,1,1.241-1.067h.058a1.246,1.246,0,0,1,1.187,1.112c.007.067.015.146.024.237.042.423.106,1.063.2,1.879a29.644,29.644,0,0,0,2.346,8.643c.219.494.4.939.587,1.419.12.313-.763.764-1.548,1.453C2458.847,1805.831,2458.172,1806.7,2457.908,1806.623Zm-1.171-15.411c-.266,0-.464.153-.464.29v12.65a1.528,1.528,0,0,0,1,1.423c.419.162.812.3,1.255.422s.755-.272,1.189-.683c.4-.375.87-.835.713-1.262-.117-.318-.318-.814-.591-1.432a30.426,30.426,0,0,1-2.408-8.869c-.094-.822-.16-1.49-.2-1.89-.009-.091-.017-.17-.023-.236a.465.465,0,0,0-.445-.414Z"
                        data-name="Path 3510" fill="#c8d921" id="Path_3510"
                        transform="translate(-2455.496 -1790.435)" />
                </g>
                <g data-name="Group 1609" id="Group_1609" transform="translate(1.657 10.08)">
                    <path
                        d="M2643.273,2933.682a.388.388,0,0,1-.388-.388v-2.641a.388.388,0,0,1,.777,0v2.641A.388.388,0,0,1,2643.273,2933.682Z"
                        data-name="Path 3511" fill="#c8d921" id="Path_3511"
                        transform="translate(-2642.885 -2930.264)" />
                </g>
                <g data-name="Group 1610" id="Group_1610" transform="translate(1.988 12.497)">
                    <path
                        d="M2683.184,3211.146a1.15,1.15,0,0,1-.814-.36.376.376,0,0,1-.026-.029l-1.714-2.1,0,0a1.173,1.173,0,0,1,.06-1.615l0,0,3.132-3.054a1.226,1.226,0,0,1,1.541-.119l2.1,1.325.016.011a1.026,1.026,0,0,1,.453.753.973.973,0,0,1-.267.755l-3.724,4.13a.378.378,0,0,1-.038.036A1.11,1.11,0,0,1,2683.184,3211.146Zm-.252-.9a.305.305,0,0,0,.451.042l3.711-4.116.014-.014a.192.192,0,0,0,.05-.147.254.254,0,0,0-.119-.179l-2.094-1.32,0,0a.463.463,0,0,0-.575.017l0,0-3.131,3.053a.415.415,0,0,0,0,.58Z"
                        data-name="Path 3513" fill="#c8d921" id="Path_3513"
                        transform="translate(-2680.333 -3203.642)" />
                </g>
                <g data-name="Group 1611" id="Group_1611" transform="translate(6.033 13.497)">
                    <path
                        d="M3138.1,3318.955a.389.389,0,0,1-.287-.65l1.295-1.424a.388.388,0,1,1,.575.522l-1.295,1.424A.387.387,0,0,1,3138.1,3318.955Z"
                        data-name="Path 3514" fill="#c8d921" id="Path_3514"
                        transform="translate(-3137.708 -3316.754)" />
                </g>
            </g>
            <g data-name="Group 1617" id="Group_1617" transform="translate(0)">
                <g data-name="Group 1613" id="Group_1613" transform="translate(3.971)">
                    <path
                        d="M1853.8,1803.623c.125-.332.318-.8.548-1.317a29.647,29.647,0,0,0,2.346-8.643c.093-.816.157-1.456.2-1.879l.024-.237a1.246,1.246,0,0,1,1.187-1.112h.058a1.165,1.165,0,0,1,1.241,1.067v12.65a2.3,2.3,0,0,1-1.5,2.148c-.39.15-.759.278-1.188.407-.154.046-.834-.764-1.659-1.559C1854.447,1804.555,1853.661,1804,1853.8,1803.623Zm2.408,2.418a12.826,12.826,0,0,0,1.417-.466,1.528,1.528,0,0,0,1-1.423V1791.5c0-.137-.2-.29-.464-.29h-.027a.465.465,0,0,0-.444.414c-.007.066-.015.145-.024.236-.04.4-.106,1.068-.2,1.89a30.426,30.426,0,0,1-2.408,8.869c-.26.587-.454,1.065-.629,1.536-.11.295.528.4.876.87C1855.6,1805.432,1855.666,1806.178,1856.211,1806.041Z"
                        data-name="Path 3516" fill="#c8d921" id="Path_3516"
                        transform="translate(-1853.786 -1790.435)" />
                </g>
                <g data-name="Group 1614" id="Group_1614" transform="translate(7.157 10.08)">
                    <path
                        d="M2269.666,2933.682a.388.388,0,0,1-.388-.388v-2.641a.388.388,0,0,1,.777,0v2.641A.388.388,0,0,1,2269.666,2933.682Z"
                        data-name="Path 3517" fill="#c8d921" id="Path_3517"
                        transform="translate(-2269.277 -2930.264)" />
                </g>
                <g data-name="Group 1615" id="Group_1615" transform="translate(0 12.497)">
                    <path
                        d="M1464.752,3211.145a1.111,1.111,0,0,1-.72-.277.41.41,0,0,1-.038-.037l-3.724-4.13a.973.973,0,0,1-.267-.755,1.026,1.026,0,0,1,.453-.753l.016-.011,2.1-1.325a1.226,1.226,0,0,1,1.541.119l3.131,3.054,0,0a1.173,1.173,0,0,1,.06,1.615l0,0-1.714,2.1a.376.376,0,0,1-.026.029A1.151,1.151,0,0,1,1464.752,3211.145Zm-.2-.854a.3.3,0,0,0,.451-.042l1.7-2.083a.415.415,0,0,0,0-.579l-3.131-3.053,0,0a.463.463,0,0,0-.575-.017l0,0-2.093,1.32a.254.254,0,0,0-.119.179.191.191,0,0,0,.05.147l.014.015Zm2.453-1.883h0Z"
                        data-name="Path 3519" fill="#c8d921" id="Path_3519"
                        transform="translate(-1460 -3203.642)" />
                </g>
                <g data-name="Group 1616" id="Group_1616" transform="translate(1.486 13.497)">
                    <path
                        d="M1629.74,3318.955a.388.388,0,0,1-.288-.127l-1.295-1.424a.388.388,0,1,1,.575-.522l1.295,1.424a.388.388,0,0,1-.287.65Z"
                        data-name="Path 3520" fill="#c8d921" id="Path_3520"
                        transform="translate(-1628.056 -3316.754)" />
                </g>
            </g>
        </g>
    </g>
</svg>
