<svg xmlns="http://www.w3.org/2000/svg" width="12.462" height="18" viewBox="0 0 12.462 18">
  <path id="address" d="M391.885,141.577a.346.346,0,0,0,.692,0c0-1.567,1.178-3.019,2.426-4.557,1.36-1.676,2.766-3.409,2.766-5.481a5.539,5.539,0,1,0-11.077,0c0,2.072,1.406,3.805,2.766,5.481C390.706,138.558,391.885,140.01,391.885,141.577Zm.346-14.885a4.852,4.852,0,0,1,4.846,4.846c0,1.826-1.328,3.463-2.612,5.045a14.113,14.113,0,0,0-2.234,3.339A14.113,14.113,0,0,0,390,136.584c-1.284-1.583-2.612-3.219-2.612-5.045A4.852,4.852,0,0,1,392.231,126.692Zm0,6.923a2.077,2.077,0,1,0-2.077-2.077A2.079,2.079,0,0,0,392.231,133.615Zm0-3.462a1.385,1.385,0,1,1-1.385,1.385A1.386,1.386,0,0,1,392.231,130.154Zm6.194,13.345-2.077-4.154a.346.346,0,0,0-.309-.191h-1.621a.346.346,0,0,0,0,.692h1.408l1.731,3.462H386.906l1.731-3.462h1.408a.346.346,0,0,0,0-.692h-1.621a.346.346,0,0,0-.309.191l-2.077,4.154a.346.346,0,0,0,.309.5h11.769a.346.346,0,0,0,.309-.5Z" transform="translate(-386 -126)" fill="#1a1a1a"/>
</svg>
