<svg height="20.168" viewBox="0 0 16.423 20.168" width="16.423" xmlns="http://www.w3.org/2000/svg">
    <g id="apple-11" transform="translate(0.027)">
        <path d="M13.688,205.786a4.555,4.555,0,0,1,2.18-3.837,4.712,4.712,0,0,0-3.688-2c-1.569-.161-3.063.925-3.861.925s-2.027-.9-3.328-.876a4.938,4.938,0,0,0-4.175,2.528c-1.776,3.08-.453,7.654,1.282,10.157.849,1.224,1.856,2.6,3.185,2.552,1.28-.051,1.761-.827,3.3-.827s1.978.827,3.328.8c1.375-.027,2.246-1.251,3.087-2.479a11.243,11.243,0,0,0,1.394-2.871,4.449,4.449,0,0,1-2.708-4.075" data-name="Path 201234"
            id="Path_201234"
            transform="translate(0 -195.069)" />
        <path d="M338.551,3.221A4.442,4.442,0,0,0,339.6,0a4.517,4.517,0,0,0-2.971,1.53,4.213,4.213,0,0,0-1.068,3.119,3.742,3.742,0,0,0,2.988-1.428" data-name="Path 201235"
            id="Path_201235"
            transform="translate(-327.4)" />
    </g>
</svg>
