<svg height="595.28" viewBox="0 0 841.89 595.28" width="841.89" xmlns="http://www.w3.org/2000/svg">
    <defs>
        <clipPath id="clip-path">
            <rect data-name="Rectangle 9889" fill="none" height="346.774" id="Rectangle_9889"
                transform="translate(246.183 120.452)" width="346.774" />
        </clipPath>
        <clipPath id="clip-アートボード_1">
            <rect height="595.28" width="841.89" />
        </clipPath>
    </defs>
    <g clip-path="url(#clip-アートボード_1)" data-name="アートボード 1" id="アートボード_1">
        <rect fill="#fff" height="595.28" width="841.89" />
        <rect data-name="Rectangle 9887" fill="#8e8e8f" height="595.275" id="Rectangle_9887"
            transform="translate(0.088 -0.141)" width="841.89" />
        <rect data-name="Rectangle 9888" fill="#fff" height="346.775" id="Rectangle_9888"
            transform="translate(246.183 120.452)" width="346.774" />
        <g data-name="Group 56534" id="Group_56534">
            <g clip-path="url(#clip-path)" data-name="Group 56533" id="Group_56533">
                <g data-name="Group 56532" id="Group_56532">
                    <g data-name="Group 56527" id="Group_56527">
                        <g data-name="Group 56525" id="Group_56525">
                            <path
                                d="M427.31,564.905a185.1,185.1,0,0,0-9.035-67.225,304.053,304.053,0,0,0,68.587-55.952c18.069-20.006,31.253-40.971,39.463-62.492,28.643-29.427,65.449-12.247,67.013-11.495a4.61,4.61,0,0,0,4.019-8.3c-.387-.191-34.813-16.436-65.844,3.618a147.54,147.54,0,0,0-1.433-80.24,4.6,4.6,0,1,0-8.83,2.609c32.963,111.943-81.135,188.22-106.172,203.389a172.465,172.465,0,0,0-23.691-42.4c-3.43-4.472-6.948-8.874-10.465-13.264-6.718-8.387-13.261-16.579-19.033-25.111a123.177,123.177,0,0,0,37.539-30.316c18.131-21.632,37.651-60.33,27.662-121.9a4.611,4.611,0,0,0-9.1,1.481c16.032,98.731-45.306,135.284-61.046,142.933a107.549,107.549,0,0,1-11.561-26.429c-6.86-24.707-10.082-72.2,9.1-101.861a4.607,4.607,0,1,0-7.734-5.008C325.9,299.17,329.2,349.973,336.49,376.281c6.852,24.692,22.3,43.987,37.241,62.646,3.469,4.335,6.951,8.675,10.329,13.1,20.522,26.821,32.736,62.4,33.928,98.321-.128,4.113-.136,8.2,0,12.247-1.342,36.546-14.064,70.158-36.208,95.315a4.6,4.6,0,0,0,3.46,7.651A4.572,4.572,0,0,0,388.7,664c16.672-18.937,27.965-41.972,33.9-66.652,5.969,25.13,17.44,47.927,33.893,66.628a4.6,4.6,0,0,0,3.465,1.562,4.545,4.545,0,0,0,3.04-1.147,4.6,4.6,0,0,0,.418-6.505C441.6,633.1,429.058,600.542,427.31,564.905Z"
                                data-name="Path 201576" fill="#c08d4e" id="Path_201576" />
                            <path
                                d="M363.982,503.528a4.421,4.421,0,0,0-.888-1,138.93,138.93,0,0,0-11.913-12.086C313.727,456.82,257.13,406,273.416,326.009a4.607,4.607,0,0,0-9.03-1.834c-17.349,85.158,41.622,138.1,80.637,173.128,2.274,2.047,4.419,4.137,6.486,6.258a143.384,143.384,0,0,1-47.575,2.581c-38.881-4.8-66.7-26.744-82.663-65.24a4.611,4.611,0,1,0-8.516,3.54c15.418,37.154,39.841,55.845,64.474,64.643-14.573,7.224-36.61,23.431-38.739,55.98a4.607,4.607,0,0,0,4.294,4.9c.107,0,.205,0,.306,0a4.609,4.609,0,0,0,4.6-4.3c2.607-39.808,38.9-51.1,43.978-52.483a134.944,134.944,0,0,0,28.435,2.932,156.029,156.029,0,0,0,38.419-4.8c34.7,41.781,32.63,95.492-6.953,144.124a4.611,4.611,0,1,0,7.155,5.819C401.333,608.911,402.74,548.739,363.982,503.528Z"
                                data-name="Path 201577" fill="#c08d4e" id="Path_201577" />
                            <path
                                d="M629.122,477.745a4.617,4.617,0,0,0-5.458,3.556c-4.089,19.372-20.228,28.924-49.338,29.219-3.438.033-6.929.019-10.446.005-8.784-.024-17.978-.033-27.164.672a4.065,4.065,0,0,0-.686.053c-13.479,1.09-26.913,3.788-38.976,10.421C502.437,494.037,525.8,417,619.824,404.492a4.61,4.61,0,0,0-1.217-9.139C505.666,410.369,488.519,513.174,486.575,528.829c-19.315,15.844-30.25,39.657-29.279,64.129.912,23.314,10.439,48.507,26.146,69.133a4.612,4.612,0,0,0,7.339-5.589c-14.584-19.153-23.433-42.45-24.281-63.91-.874-22.163,9.331-43.765,27.282-57.783,12.4-9.678,27.336-13.158,42.967-14.4,3.168.333,26.655,3.31,40.1,20.222,8.48,10.675,11.424,24.936,8.773,42.4a4.587,4.587,0,0,0,3.851,5.25,4.383,4.383,0,0,0,.7.061,4.618,4.618,0,0,0,4.55-3.92c3.07-20.137-.541-36.815-10.713-49.583a58.785,58.785,0,0,0-18.577-15.1c3.009.011,6.024.017,8.987-.011,33.605-.331,53.21-12.622,58.258-36.528A4.612,4.612,0,0,0,629.122,477.745Z"
                                data-name="Path 201578" fill="#c08d4e" id="Path_201578" />
                        </g>
                        <path
                            d="M512.033,555.542c-11.4-5.149-16.6-18.295-16.6-18.295s13.3-4.811,24.7.339,16.6,18.3,16.6,18.3-13.293,4.8-24.7-.345"
                            data-name="Path 201579" fill="#c8d921" id="Path_201579" />
                        <path
                            d="M372.966,486.829c-12.244-2.547-20.165-14.256-20.165-14.256s11.944-7.575,24.191-5.025S397.159,481.8,397.159,481.8s-11.938,7.573-24.193,5.025"
                            data-name="Path 201580" fill="#c8d921" id="Path_201580" />
                        <path
                            d="M341.779,446.2c-12.244-2.55-20.168-14.256-20.168-14.256s11.944-7.579,24.185-5.026,20.171,14.259,20.171,14.259-11.944,7.573-24.188,5.023"
                            data-name="Path 201581" fill="#c8d921" id="Path_201581" />
                        <path
                            d="M295.707,410.973c.869-12.48,11.4-21.908,11.4-21.908s9.118,10.806,8.251,23.288-11.41,21.9-11.41,21.9-9.113-10.8-8.238-23.28"
                            data-name="Path 201582" fill="#c8d921" id="Path_201582" />
                        <path
                            d="M313.142,379.892c-8.282-9.388-7.6-23.507-7.6-23.507s14.1,1.1,22.368,10.475,7.6,23.508,7.6,23.508-14.089-1.1-22.364-10.476"
                            data-name="Path 201583" fill="#c8d921" id="Path_201583" />
                        <path
                            d="M306.055,323.02c-2.542-12.242,5.042-24.172,5.042-24.172s11.706,7.934,14.237,20.189c2.536,12.231-5.048,24.153-5.048,24.153s-11.7-7.943-14.231-20.17"
                            data-name="Path 201584" fill="#c8d921" id="Path_201584" />
                        <path
                            d="M278.9,363.6c2.269-12.3,13.777-20.5,13.777-20.5s7.864,11.757,5.6,24.062-13.774,20.5-13.774,20.5-7.86-11.753-5.6-24.059"
                            data-name="Path 201585" fill="#c8d921" id="Path_201585" />
                        <path
                            d="M353.9,282.391c6.721-10.559,20.474-13.831,20.474-13.831s2.867,13.836-3.84,24.4c-6.71,10.55-20.466,13.829-20.466,13.829s-2.869-13.837,3.832-24.4"
                            data-name="Path 201586" fill="#c8d921" id="Path_201586" />
                        <path
                            d="M354.641,365.827c2.246-12.309,13.753-20.509,13.753-20.509s7.868,11.747,5.611,24.049c-2.239,12.313-13.751,20.515-13.751,20.515s-7.868-11.747-5.613-24.055"
                            data-name="Path 201587" fill="#c8d921" id="Path_201587" />
                        <path
                            d="M352.517,321.546c7.891-9.7,21.936-11.358,21.936-11.358s1.246,14.075-6.652,23.764c-7.894,9.707-21.925,11.366-21.925,11.366s-1.252-14.078,6.641-23.772"
                            data-name="Path 201588" fill="#c8d921" id="Path_201588" />
                        <path
                            d="M382.573,339.123c.514-12.487,10.777-22.206,10.777-22.206s9.409,10.533,8.893,23.015c-.509,12.5-10.763,22.228-10.763,22.228s-9.432-10.542-8.907-23.037"
                            data-name="Path 201589" fill="#c8d921" id="Path_201589" />
                        <path
                            d="M394.489,291.493c-4.845-11.536.306-24.7.306-24.7s13.01,5.533,17.855,17.059-.306,24.7-.306,24.7-13.009-5.532-17.855-17.063"
                            data-name="Path 201590" fill="#c8d921" id="Path_201590" />
                        <path
                            d="M455.45,543.055c-7.745,9.833-21.758,11.7-21.758,11.7s-1.454-14.056,6.281-23.884,21.761-11.692,21.761-11.692,1.453,14.055-6.284,23.879"
                            data-name="Path 201591" fill="#c8d921" id="Path_201591" />
                        <path
                            d="M447.981,511.414c-12.5.344-22.912-9.224-22.912-9.224s9.867-10.126,22.379-10.465,22.911,9.221,22.911,9.221-9.872,10.123-22.378,10.468"
                            data-name="Path 201592" fill="#c8d921" id="Path_201592" />
                        <path
                            d="M442.457,458.028c-5.457,11.263-18.74,16.1-18.74,16.1s-4.439-13.419,1.01-24.674,18.728-16.1,18.728-16.1,4.449,13.427-1,24.679"
                            data-name="Path 201593" fill="#c8d921" id="Path_201593" />
                        <path
                            d="M417.6,430.684c-5.452,11.265-18.735,16.1-18.735,16.1s-4.441-13.417,1.009-24.68S418.6,406,418.6,406s4.441,13.428-1.006,24.683"
                            data-name="Path 201594" fill="#c8d921" id="Path_201594" />
                        <path
                            d="M415.477,399.27c-11.931,3.78-24.565-2.542-24.565-2.542s6.682-12.452,18.6-16.235,24.573,2.539,24.573,2.539-6.7,12.458-18.612,16.238"
                            data-name="Path 201595" fill="#c8d921" id="Path_201595" />
                        <path
                            d="M444.19,363.171c-11.927,3.783-24.57-2.533-24.57-2.533s6.693-12.455,18.615-16.243,24.571,2.541,24.571,2.541-6.692,12.453-18.616,16.235"
                            data-name="Path 201596" fill="#c8d921" id="Path_201596" />
                        <path
                            d="M458.848,323.978c-8.973,8.692-23.109,8.692-23.109,8.692s.407-14.1,9.383-22.814,23.114-8.715,23.114-8.715-.416,14.13-9.388,22.837"
                            data-name="Path 201597" fill="#c8d921" id="Path_201597" />
                        <path
                            d="M458.881,287.823c-4.7,8.757-15.4,12.161-15.4,12.161s-3.087-10.806,1.613-19.561S460.5,268.269,460.5,268.269s3.086,10.8-1.62,19.554"
                            data-name="Path 201598" fill="#c8d921" id="Path_201598" />
                        <path
                            d="M470.52,412.525c5.92,11.02,2.04,24.617,2.04,24.617s-13.472-4.269-19.4-15.289-2.044-24.625-2.044-24.625,13.477,4.286,19.4,15.3"
                            data-name="Path 201599" fill="#c8d921" id="Path_201599" />
                        <path
                            d="M494.908,383.366c5.449,11.249,1.014,24.68,1.014,24.68s-13.285-4.835-18.743-16.1-1.012-24.677-1.012-24.677,13.283,4.834,18.741,16.1"
                            data-name="Path 201600" fill="#c8d921" id="Path_201600" />
                        <path
                            d="M512.545,347.877c3.627,11.974-2.86,24.526-2.86,24.526s-12.372-6.843-15.993-18.82,2.867-24.518,2.867-24.518,12.359,6.835,15.986,18.812"
                            data-name="Path 201601" fill="#c8d921" id="Path_201601" />
                        <path
                            d="M518.609,304.229c5.5,8.829,3.009,20.31,3.009,20.31s-11.413-2.826-16.912-11.653-3.012-20.319-3.012-20.319,11.411,2.829,16.915,11.662"
                            data-name="Path 201602" fill="#c8d921" id="Path_201602" />
                        <path
                            d="M496.63,475.085c-1.214,12.455-12.009,21.586-12.009,21.586s-8.814-11.052-7.593-23.5,12.015-21.586,12.015-21.586,8.814,11.053,7.587,23.5"
                            data-name="Path 201603" fill="#c8d921" id="Path_201603" />
                        <path
                            d="M532.982,499.538c-9.937,7.6-23.979,5.926-23.979,5.926s2.08-13.98,12.017-21.572c9.954-7.6,23.986-5.926,23.986-5.926s-2.08,13.988-12.024,21.572"
                            data-name="Path 201604" fill="#c8d921" id="Path_201604" />
                        <path
                            d="M561.062,461.563c-9.945,7.594-23.98,5.921-23.98,5.921s2.077-13.979,12.015-21.569,23.986-5.925,23.986-5.925-2.08,13.983-12.021,21.573"
                            data-name="Path 201605" fill="#c8d921" id="Path_201605" />
                        <path
                            d="M593.37,439.351c-12.268-2.447-20.287-14.084-20.287-14.084s11.875-7.677,24.138-5.231,20.288,14.086,20.288,14.086-11.872,7.672-24.139,5.229"
                            data-name="Path 201606" fill="#c8d921" id="Path_201606" />
                        <path
                            d="M608.509,490.03c-6.215,10.856-19.8,14.77-19.8,14.77s-3.521-13.7,2.692-24.552,19.8-14.774,19.8-14.774,3.518,13.7-2.694,24.556"
                            data-name="Path 201607" fill="#c8d921" id="Path_201607" />
                        <path
                            d="M578.606,490.03c-6.215,10.856-19.8,14.77-19.8,14.77s-3.514-13.7,2.7-24.552,19.8-14.774,19.8-14.774,3.514,13.7-2.7,24.556"
                            data-name="Path 201608" fill="#c8d921" id="Path_201608" />
                        <path
                            d="M587.932,395.11c-9.938,7.6-23.975,5.917-23.975,5.917s2.08-13.977,12.02-21.569,23.974-5.926,23.974-5.926-2.074,13.98-12.019,21.578"
                            data-name="Path 201609" fill="#c8d921" id="Path_201609" />
                        <path
                            d="M525.754,429.38c-2.605,12.239-14.344,20.113-14.344,20.113s-7.532-11.973-4.919-24.213,14.338-20.1,14.338-20.1,7.523,11.962,4.925,24.2"
                            data-name="Path 201610" fill="#c8d921" id="Path_201610" />
                        <path
                            d="M563.339,336.993c-7.2,10.236-21.088,12.855-21.088,12.855s-2.223-13.958,4.979-24.172,21.094-12.845,21.094-12.845,2.22,13.955-4.985,24.162"
                            data-name="Path 201611" fill="#c8d921" id="Path_201611" />
                        <path
                            d="M554.769,392.664c2.53,12.249-5.077,24.163-5.077,24.163s-11.691-7.939-14.212-20.2,5.084-24.168,5.084-24.168,11.687,7.939,14.2,20.2"
                            data-name="Path 201612" fill="#c8d921" id="Path_201612" />
                        <path
                            d="M350.79,547.993c8.8-8.893,8.934-23.031,8.934-23.031s-14.138.289-22.936,9.178-8.932,23.023-8.932,23.023,14.133-.273,22.934-9.17"
                            data-name="Path 201613" fill="#c8d921" id="Path_201613" />
                        <path
                            d="M301.108,543.243c7.972-9.64,6.846-23.728,6.846-23.728s-14.053,1.533-22.02,11.173c-7.986,9.633-6.852,23.728-6.852,23.728s14.045-1.533,22.026-11.173"
                            data-name="Path 201614" fill="#c8d921" id="Path_201614" />
                        <path
                            d="M290.394,483.167c2.84,12.179,14.742,19.826,14.742,19.826s7.284-12.107,4.445-24.3-14.74-19.826-14.74-19.826-7.286,12.115-4.447,24.3"
                            data-name="Path 201615" fill="#c8d921" id="Path_201615" />
                        <path
                            d="M257.513,473.787c2.844,12.182,14.739,19.82,14.739,19.82s7.289-12.115,4.449-24.3-14.734-19.817-14.734-19.817-7.289,12.115-4.454,24.294"
                            data-name="Path 201616" fill="#c8d921" id="Path_201616" />
                        <path
                            d="M228.873,444.912c2.839,12.179,14.725,19.817,14.725,19.817s7.295-12.11,4.458-24.3-14.734-19.821-14.734-19.821-7.3,12.111-4.449,24.3"
                            data-name="Path 201617" fill="#c8d921" id="Path_201617" />
                        <path
                            d="M247.4,519.831c10.32-.631,18.189-9.278,18.189-9.278s-8.866-7.607-19.187-6.967-18.191,9.273-18.191,9.273,8.871,7.62,19.189,6.972"
                            data-name="Path 201618" fill="#c8d921" id="Path_201618" />
                        <path
                            d="M597.86,537.22c9.992,2.659,20.193-3.048,20.193-3.048s-6.01-10.023-16-12.685-20.19,3.051-20.19,3.051,6,10.02,16,12.682"
                            data-name="Path 201619" fill="#c8d921" id="Path_201619" />
                        <path
                            d="M262.918,400.347c-2.79-12.2-14.646-19.881-14.646-19.881s-7.338,12.072-4.548,24.272,14.644,19.889,14.644,19.889,7.338-12.088,4.55-24.28"
                            data-name="Path 201620" fill="#c8d921" id="Path_201620" />
                        <path
                            d="M331.707,529.356a5.854,5.854,0,1,1-5.851-5.859,5.852,5.852,0,0,1,5.851,5.859"
                            data-name="Path 201621" fill="#ffe900" id="Path_201621" />
                        <g data-name="Group 56526" id="Group_56526">
                            <path d="M491.986,315.858a7.3,7.3,0,1,1-7.3-7.3,7.3,7.3,0,0,1,7.3,7.3"
                                data-name="Path 201622" fill="#e89d72" id="Path_201622" />
                            <path d="M584.663,339.527a7.3,7.3,0,1,1-7.3-7.3,7.3,7.3,0,0,1,7.3,7.3"
                                data-name="Path 201623" fill="#ffe900" id="Path_201623" />
                            <path
                                d="M468.236,372.414a8.283,8.283,0,1,1-8.284-8.289,8.282,8.282,0,0,1,8.284,8.289"
                                data-name="Path 201624" fill="#f3ceb4" id="Path_201624" />
                            <path d="M295.393,331.331a6.81,6.81,0,1,1-6.8-6.8,6.8,6.8,0,0,1,6.8,6.8"
                                data-name="Path 201625" fill="#ffe900" id="Path_201625" />
                            <path
                                d="M280.462,439.831a8.283,8.283,0,1,1-8.289-8.281,8.285,8.285,0,0,1,8.289,8.281"
                                data-name="Path 201626" fill="#f3ceb4" id="Path_201626" />
                            <path
                                d="M603.575,453.74a8.282,8.282,0,1,1-8.278-8.281,8.282,8.282,0,0,1,8.278,8.281"
                                data-name="Path 201627" fill="#e89d72" id="Path_201627" />
                            <path
                                d="M337.682,410.716a4.708,4.708,0,1,1-4.709-4.706,4.707,4.707,0,0,1,4.709,4.706"
                                data-name="Path 201628" fill="#6b8828" id="Path_201628" />
                            <path
                                d="M237.624,488.9a4.706,4.706,0,1,1-4.707-4.711,4.7,4.7,0,0,1,4.707,4.711"
                                data-name="Path 201629" fill="#6b8828" id="Path_201629" />
                            <path
                                d="M542.592,535.213a5.858,5.858,0,1,1-5.863-5.857,5.856,5.856,0,0,1,5.863,5.857"
                                data-name="Path 201630" fill="#f3ceb4" id="Path_201630" />
                            <path
                                d="M479.941,516.117a5.856,5.856,0,1,1-5.856-5.859,5.859,5.859,0,0,1,5.856,5.859"
                                data-name="Path 201631" fill="#f3ceb4" id="Path_201631" />
                            <path
                                d="M403.011,519.176a5.856,5.856,0,1,1-5.852-5.866,5.855,5.855,0,0,1,5.852,5.866"
                                data-name="Path 201632" fill="#f3ceb4" id="Path_201632" />
                            <path
                                d="M609.435,549.759a5.86,5.86,0,1,1-5.86-5.852,5.864,5.864,0,0,1,5.86,5.852"
                                data-name="Path 201633" fill="#f3ceb4" id="Path_201633" />
                            <path
                                d="M352.069,462.024a8.281,8.281,0,1,1-8.273-8.284,8.276,8.276,0,0,1,8.273,8.284"
                                data-name="Path 201634" fill="#e89d72" id="Path_201634" />
                            <path
                                d="M439.17,413.624a5.586,5.586,0,1,1-5.584-5.581,5.582,5.582,0,0,1,5.584,5.581"
                                data-name="Path 201635" fill="#6b8828" id="Path_201635" />
                        </g>
                    </g>
                    <g data-name="Group 56529" id="Group_56529">
                        <g data-name="Group 56528" id="Group_56528">
                            <path
                                d="M500.459,230.551c1.077.161,3.039.686,3.764-.215,1.112-1.377-4.349-2.987-4.349-2.987s4.308,1.27,3.22-.6c-.821-1.375-11.616-4.631-16.5-5.438-.085-.064-.176-.121-.266-.177-1.273-1.7-2.7-3.482-4.244-5.245-.187-.216-.383-.439-.577-.658,6.1-1.4,9.568-3.972,10.1-5.29.739-1.725-3.574-1.608-5.3-1.651,1.755-.043,7.418-1.372,8.8-3.472.976-1.475-3.107-1-5.353-.8,2.41-.589,6.592-1.867,6.791-3.7.2-1.92-3.108-.8-6.119-.586,2.531-.4,8.251-3.116,8.032-4.486-.3-1.873-3.112-.688-5.411-.712,2.67-.707,7.351-3.491,6.652-5.579-.547-1.627-3.739-.09-5.354.766a15.015,15.015,0,0,0,5.761-5.546c1.982-3.848-4.468-1.141-4.468-1.141s3.756-1.864,4.632-4.934-4.739-.188-4.739-.188,4.949-3.116,5.633-6.7c.476-2.553-4.025.379-5.562,1.306,1.1-.862,4.942-5.015,4.983-7.686.065-4.153-5.868,1.4-5.868,1.4s5.359-6.568,4.78-9.249c-.711-3.317-6.45,2.025-7.505,2.864,1.02-.843,5.983-8.383,4.657-9.47-2.684-2.184-7.565,5.207-8.218,6.23.252-.444,1.121-2.265,1.054-6.576-.188-11.375-3.44,1.076-8.2,6.481-1.843,2.1-4.157,4.346-6.4,6.575.492-2.107.805-4.787.062-6.287-1.842-3.725-4.586,3.923-4.586,3.923s1.777-8.3.055-10.413c-2.148-2.629-4.826,4.737-5.384,5.958.519-1.216,1.506-10.185-.176-10.539-3.4-.722-4.353,8.069-4.484,9.278.032-.516-.024-2.52-2.053-6.33-5.351-10.04-2.563,2.524-4.345,9.507-2.069,8.116-7.2,19.281-4.953,23.118,1.856,3.189,10.788,6.932,9.716,16.813-5.906-3.577-7.141-9.565-14.02-9.9-3.288-.161-7.049.813-8.981,3.846-1.44,2.24-2.294,5.6-1.668,8.013a9.985,9.985,0,0,0-1.6,1.569,17.909,17.909,0,0,0-2.1,2.976s.527-.344,1.249-.806a20.622,20.622,0,0,1,3.772-.9,3.734,3.734,0,0,0,.795-.192c2.76,1.333,3.865,1.74,5.245,3.311,2.457,2.816.092,7.362,3.26,12.834a32.1,32.1,0,0,0,1.9,2.926c9.634,14.808,30.2,11.528,35.109,10.463.246,0,.5-.017.74-.017,1.614,4.127,1.655,7.331,3.352,8.558,1.371,1,1.661-.09,1.675-1.131a3.755,3.755,0,0,0,2.408,2.8c1.541.493,1.211-1.347.763-2.758.494,1.23,1.793,3.131,3.262,3.147.892.01.722-1.256-.3-3.21a6.285,6.285,0,0,0,2.241,2.333c2.159,1.065,1-2.229.323-3.628.481.849,1.9,2.368,2.924,2.472,1.348.127.437-2.72-.476-3.96.449.567,2.288,2.092,3.237,1.893.849-.182.15-1.646-1.05-2.962,1.05.835,2.8,1.2,3.083.657.431-.86-1.236-2.216-2.659-3.111.928.627,2.919,1.111,3.416.22C505.438,232.158,502.159,230.951,500.459,230.551Z"
                                data-name="Path 201636" fill="#c8d921" id="Path_201636" />
                        </g>
                    </g>
                    <g data-name="Group 56531" id="Group_56531">
                        <g data-name="Group 56530" id="Group_56530">
                            <path
                                d="M340.885,230.551c-1.079.161-3.033.686-3.774-.215-1.1-1.377,4.351-2.987,4.351-2.987s-4.3,1.27-3.206-.6c.812-1.375,11.6-4.631,16.492-5.438a1.994,1.994,0,0,1,.267-.177c1.266-1.7,2.7-3.482,4.245-5.249.194-.212.374-.435.568-.654-6.1-1.4-9.555-3.972-10.1-5.29-.728-1.725,3.594-1.608,5.313-1.651-1.76-.043-7.4-1.372-8.812-3.479-.981-1.468,3.105-.994,5.374-.792-2.43-.586-6.609-1.865-6.8-3.7-.213-1.92,3.113-.8,6.122-.585-2.533-.406-8.265-3.117-8.046-4.487.3-1.873,3.123-.688,5.419-.712-2.67-.707-7.354-3.491-6.647-5.579.547-1.627,3.726-.091,5.347.766a14.938,14.938,0,0,1-5.759-5.546c-1.979-3.848,4.463-1.141,4.463-1.141s-3.747-1.864-4.619-4.934,4.739-.188,4.739-.188-4.966-3.116-5.63-6.7c-.486-2.553,4.02.379,5.554,1.306-1.107-.862-4.952-5.015-4.977-7.686-.074-4.153,5.862,1.4,5.862,1.4s-5.359-6.568-4.794-9.248c.719-3.318,6.461,2.024,7.508,2.863-1.014-.843-5.974-8.383-4.649-9.47,2.7-2.184,7.557,5.207,8.222,6.23-.266-.444-1.113-2.265-1.047-6.576.193-11.375,3.427,1.076,8.2,6.482,1.842,2.1,4.157,4.345,6.4,6.574-.491-2.107-.8-4.787-.07-6.29,1.839-3.722,4.594,3.926,4.594,3.926s-1.779-8.3-.049-10.413c2.142-2.629,4.829,4.737,5.381,5.958-.514-1.217-1.5-10.185.167-10.537,3.389-.724,4.367,8.067,4.493,9.276-.041-.516.027-2.52,2.05-6.33,5.349-10.04,2.563,2.524,4.343,9.507,2.071,8.116,7.191,19.281,4.958,23.119-1.865,3.188-10.785,6.931-9.722,16.812,5.9-3.575,7.144-9.565,14.026-9.9,3.286-.161,7.046.813,8.975,3.846,1.444,2.24,2.3,5.6,1.67,8.013a9.188,9.188,0,0,1,1.583,1.569,16.554,16.554,0,0,1,2.113,2.976s-.52-.344-1.249-.806a20.574,20.574,0,0,0-3.766-.9,3.728,3.728,0,0,1-.8-.192c-2.749,1.333-3.856,1.74-5.241,3.311-2.447,2.816-.1,7.362-3.261,12.834a34.612,34.612,0,0,1-1.9,2.926c-9.634,14.809-30.187,11.528-35.114,10.463-.241,0-.487-.017-.746-.017-1.605,4.127-1.641,7.333-3.327,8.558-1.372,1-1.678-.09-1.681-1.131a3.8,3.8,0,0,1-2.418,2.8c-1.542.491-1.217-1.347-.76-2.758-.489,1.23-1.793,3.13-3.274,3.147-.875.01-.722-1.256.311-3.21a6.271,6.271,0,0,1-2.238,2.333c-2.162,1.065-1.009-2.229-.334-3.628-.467.849-1.891,2.368-2.922,2.472-1.333.127-.431-2.72.479-3.96-.44.567-2.291,2.092-3.239,1.893-.844-.182-.144-1.646,1.039-2.96-1.039.833-2.785,1.2-3.05.655-.454-.86,1.213-2.216,2.634-3.111-.924.629-2.9,1.111-3.4.22C335.911,232.158,339.183,230.951,340.885,230.551Z"
                                data-name="Path 201637" fill="#c8d921" id="Path_201637" />
                        </g>
                    </g>
                </g>
            </g>
        </g>
    </g>
</svg>
