<svg xmlns="http://www.w3.org/2000/svg" width="20.955" height="33.163" viewBox="0 0 20.955 33.163">
  <g id="Baby" transform="translate(-431.369 -1027.491)">
    <g id="Group_1226" data-name="Group 1226" transform="translate(431.869 1028.001)">
      <g id="Group_1221" data-name="Group 1221" transform="translate(0 0)">
        <g id="Group_1220" data-name="Group 1220">
          <path id="Path_2463" data-name="Path 2463" d="M463.969,1078.79a2.3,2.3,0,0,0,2.492.063" transform="translate(-457.911 -1069.205)" fill="none" stroke="#000" stroke-linecap="round" stroke-linejoin="round" stroke-width="1"/>
          <path id="Path_2464" data-name="Path 2464" d="M494.469,1078.79a2.3,2.3,0,0,1-2.492.063" transform="translate(-480.633 -1069.205)" fill="none" stroke="#000" stroke-linecap="round" stroke-linejoin="round" stroke-width="1"/>
          <path id="Path_2465" data-name="Path 2465" d="M450.09,1051.789a5.253,5.253,0,0,0,10.021,0c.338.051,1.02.025,1.642-1.666.491-1.336.056-2.261-.844-2.156.495-5.39-2.649-6.621-5.808-6.621s-6.3,1.231-5.808,6.621c-.9-.105-1.335.819-.844,2.156C449.069,1051.815,449.752,1051.841,450.09,1051.789Z" transform="translate(-445.153 -1038.828)" fill="none" stroke="#000" stroke-linecap="round" stroke-linejoin="round" stroke-width="1"/>
          <path id="Path_2466" data-name="Path 2466" d="M435.873,1056.981c-2.387-.8-3.461-4.23-3.111-7.943-1.038-1.5-1.333-5.255,0-7.953-1.667-13.047,10.436-16.242,15.366-10,2.076.791,3.425,3.989,3.182,7.345a18.855,18.855,0,0,1,0,8.237C452.842,1061.378,438.256,1062.723,435.873,1056.981Z" transform="translate(-431.869 -1028.001)" fill="none" stroke="#000" stroke-linecap="round" stroke-linejoin="round" stroke-width="1"/>
          <path id="Path_2467" data-name="Path 2467" d="M455.146,1083.238c-1.34,6.845-10.647,13.9-18.548,10.611" transform="translate(-435.706 -1072.813)" fill="none" stroke="#000" stroke-linecap="round" stroke-linejoin="round" stroke-width="1"/>
          <path id="Path_2468" data-name="Path 2468" d="M468.519,1126.883c-1.945,6.371-8.174,11.536-15.436,10.316" transform="translate(-449.079 -1108.221)" fill="none" stroke="#000" stroke-linecap="round" stroke-linejoin="round" stroke-width="1"/>
          <path id="Path_2469" data-name="Path 2469" d="M440.642,1096.676c-1,.708-2.97,1.034-4.044.121" transform="translate(-435.706 -1083.715)" fill="none" stroke="#000" stroke-linecap="round" stroke-linejoin="round" stroke-width="1"/>
          <path id="Path_2470" data-name="Path 2470" d="M514.585,1044.322a4.171,4.171,0,0,1-.8,2.628" transform="translate(-498.326 -1041.242)" fill="none" stroke="#000" stroke-linecap="round" stroke-linejoin="round" stroke-width="1"/>
        </g>
      </g>
    </g>
  </g>
</svg>
