<svg height="44.999" viewBox="0 0 45.202 44.999" width="45.202" xmlns="http://www.w3.org/2000/svg">
    <g id="booking_received" transform="translate(-165 -134.001)">
        <g data-name="Group 56573" id="Group_56573" transform="translate(0 -10)">
            <g data-name="Group 56571" id="Group_56571" transform="translate(0 8)">
                <path d="M-4935.089,1018a7.7,7.7,0,0,0,.192,1.146v0h-24.439a5.671,5.671,0,0,1-5.665-5.666V989.067a5.671,5.671,0,0,1,5.665-5.665h.2v-.683a2.738,2.738,0,0,1,2.734-2.735,2.738,2.738,0,0,1,2.734,2.735v.683h17.973v-.683a2.738,2.738,0,0,1,2.735-2.735,2.738,2.738,0,0,1,2.735,2.735v.683h.2a5.671,5.671,0,0,1,5.666,5.665v21.2a7.646,7.646,0,0,0-1.563-.5V994.733h-37.507v18.753a4.107,4.107,0,0,0,4.1,4.1h24.22c0,.034,0,.068,0,.1q-.01-.2-.01-.394a7.683,7.683,0,0,1,7.661-7.686,7.683,7.683,0,0,1,7.662,7.686,7.683,7.683,0,0,1-7.662,7.686A7.682,7.682,0,0,1-4935.089,1018Zm1.317-.707a6.33,6.33,0,0,0,6.312,6.332,6.33,6.33,0,0,0,6.312-6.332,6.329,6.329,0,0,0-6.312-6.332A6.329,6.329,0,0,0-4933.772,1017.3Zm-1.319.686a.031.031,0,0,0,0-.007A.031.031,0,0,1-4935.091,1017.983Zm-.018-.245c0-.011,0-.022,0-.033C-4935.109,1017.716-4935.109,1017.727-4935.108,1017.738Zm-28.329-28.671v4.1h37.507v-4.1a4.106,4.106,0,0,0-4.1-4.1h-.2v.684a2.738,2.738,0,0,1-2.735,2.734,2.738,2.738,0,0,1-2.735-2.734v-.684h-17.973v.684a2.737,2.737,0,0,1-2.734,2.734,2.737,2.737,0,0,1-2.734-2.734v-.684h-.2A4.106,4.106,0,0,0-4963.437,989.067Zm29.3-6.349v2.93a1.173,1.173,0,0,0,1.171,1.172,1.173,1.173,0,0,0,1.172-1.172v-2.93a1.173,1.173,0,0,0-1.172-1.173A1.173,1.173,0,0,0-4934.134,982.719Zm-23.442,0v2.93a1.173,1.173,0,0,0,1.172,1.172,1.174,1.174,0,0,0,1.172-1.172v-2.93a1.174,1.174,0,0,0-1.172-1.173A1.173,1.173,0,0,0-4957.577,982.719Zm17.826,28.326a1.173,1.173,0,0,1,1.172-1.172,1.173,1.173,0,0,1,1.172,1.172,1.174,1.174,0,0,1-1.172,1.173A1.174,1.174,0,0,1-4939.75,1011.044Zm-6.1,0a1.173,1.173,0,0,1,1.171-1.172,1.174,1.174,0,0,1,1.173,1.172,1.175,1.175,0,0,1-1.173,1.173A1.174,1.174,0,0,1-4945.855,1011.044Zm-6.106,0a1.174,1.174,0,0,1,1.173-1.172,1.173,1.173,0,0,1,1.172,1.172,1.174,1.174,0,0,1-1.172,1.173A1.175,1.175,0,0,1-4951.961,1011.044Zm-5.161,1.149a1.245,1.245,0,0,1-.22-.067,1.2,1.2,0,0,1-.2-.108,1.1,1.1,0,0,1-.179-.146,1.077,1.077,0,0,1-.146-.178,1.064,1.064,0,0,1-.109-.2,1.064,1.064,0,0,1-.065-.219,1.109,1.109,0,0,1-.024-.229,1.1,1.1,0,0,1,.024-.229,1.075,1.075,0,0,1,.065-.219,1.065,1.065,0,0,1,.109-.2.987.987,0,0,1,.146-.177,1.175,1.175,0,0,1,.828-.344,1.169,1.169,0,0,1,.828.344,1.07,1.07,0,0,1,.148.177,1.238,1.238,0,0,1,.107.2,1.18,1.18,0,0,1,.065.219,1.084,1.084,0,0,1,.025.229,1.085,1.085,0,0,1-.025.229,1.189,1.189,0,0,1-.065.219,1.311,1.311,0,0,1-.107.2,1.109,1.109,0,0,1-.148.178,1.173,1.173,0,0,1-.828.344A1.162,1.162,0,0,1-4957.122,1012.193Zm24.055-.138c-.02-.012-.04-.023-.058-.036a1.074,1.074,0,0,1-.177-.147,1.172,1.172,0,0,1-.345-.829,1.211,1.211,0,0,1,.024-.229,1.115,1.115,0,0,1,.066-.219,1.03,1.03,0,0,1,.108-.2.974.974,0,0,1,.147-.178.99.99,0,0,1,.177-.147,1.131,1.131,0,0,1,.2-.107,1.208,1.208,0,0,1,.22-.067,1.1,1.1,0,0,1,.224-.023,1.185,1.185,0,0,1,.833.343,1.026,1.026,0,0,1,.146.178,1.074,1.074,0,0,1,.107.2c.012.027.021.055.031.083a7.718,7.718,0,0,0-1.7,1.376h0Zm.364-4.747a1.2,1.2,0,0,1-.22-.066,1.142,1.142,0,0,1-.2-.108,1.153,1.153,0,0,1-.177-.146,1.172,1.172,0,0,1-.345-.829,1.212,1.212,0,0,1,.024-.229,1.078,1.078,0,0,1,.066-.219,1.092,1.092,0,0,1,.108-.2,1.027,1.027,0,0,1,.147-.177.992.992,0,0,1,.177-.147,1.114,1.114,0,0,1,.2-.107,1.109,1.109,0,0,1,.22-.067,1.123,1.123,0,0,1,.226-.023,1.181,1.181,0,0,1,.832.344,1.066,1.066,0,0,1,.146.177,1.11,1.11,0,0,1,.107.2,1.06,1.06,0,0,1,.067.219,1.154,1.154,0,0,1,.022.229,1.179,1.179,0,0,1-.343.829,1.176,1.176,0,0,1-.828.344A1.141,1.141,0,0,1-4932.7,1007.308Zm-7.048-1.148a1.173,1.173,0,0,1,1.172-1.172,1.173,1.173,0,0,1,1.172,1.172,1.174,1.174,0,0,1-1.172,1.173A1.174,1.174,0,0,1-4939.75,1006.16Zm-6.1,0a1.173,1.173,0,0,1,1.171-1.172,1.174,1.174,0,0,1,1.173,1.172,1.175,1.175,0,0,1-1.173,1.173A1.174,1.174,0,0,1-4945.855,1006.16Zm-6.106,0a1.174,1.174,0,0,1,1.173-1.172,1.173,1.173,0,0,1,1.172,1.172,1.174,1.174,0,0,1-1.172,1.173A1.175,1.175,0,0,1-4951.961,1006.16Zm-5.161,1.149a1.245,1.245,0,0,1-.22-.067,1.1,1.1,0,0,1-.2-.108,1.052,1.052,0,0,1-.179-.146,1.074,1.074,0,0,1-.146-.178,1.1,1.1,0,0,1-.109-.2,1.113,1.113,0,0,1-.065-.221,1.108,1.108,0,0,1-.024-.229,1.1,1.1,0,0,1,.024-.229,1.075,1.075,0,0,1,.065-.219,1.065,1.065,0,0,1,.109-.2,1.043,1.043,0,0,1,.146-.177,1.175,1.175,0,0,1,.828-.344,1.169,1.169,0,0,1,.828.344,1.126,1.126,0,0,1,.148.177,1.24,1.24,0,0,1,.107.2,1.181,1.181,0,0,1,.065.219,1.085,1.085,0,0,1,.025.229,1.084,1.084,0,0,1-.025.229,1.274,1.274,0,0,1-.065.221,1.3,1.3,0,0,1-.107.2,1.111,1.111,0,0,1-.148.178,1.173,1.173,0,0,1-.828.344A1.162,1.162,0,0,1-4957.122,1007.309Zm24.419-4.883a1.189,1.189,0,0,1-.22-.067,1.138,1.138,0,0,1-.2-.108,1.1,1.1,0,0,1-.177-.146,1.035,1.035,0,0,1-.147-.178,1.064,1.064,0,0,1-.108-.2,1.1,1.1,0,0,1-.066-.219,1.212,1.212,0,0,1-.024-.229,1.211,1.211,0,0,1,.024-.229,1.078,1.078,0,0,1,.066-.219,1.092,1.092,0,0,1,.108-.2,1.03,1.03,0,0,1,.147-.177.99.99,0,0,1,.177-.147,1.131,1.131,0,0,1,.2-.107,1.1,1.1,0,0,1,.22-.067,1.118,1.118,0,0,1,.226-.023,1.181,1.181,0,0,1,.832.344,1.066,1.066,0,0,1,.146.177,1.11,1.11,0,0,1,.107.2,1.058,1.058,0,0,1,.067.219,1.153,1.153,0,0,1,.022.229,1.179,1.179,0,0,1-.343.829,1.177,1.177,0,0,1-.828.344A1.159,1.159,0,0,1-4932.7,1002.426Zm-7.048-1.149a1.173,1.173,0,0,1,1.172-1.172,1.173,1.173,0,0,1,1.172,1.172,1.174,1.174,0,0,1-1.172,1.173A1.174,1.174,0,0,1-4939.75,1001.276Zm-6.1,0a1.173,1.173,0,0,1,1.171-1.172,1.174,1.174,0,0,1,1.173,1.172,1.175,1.175,0,0,1-1.173,1.173A1.174,1.174,0,0,1-4945.855,1001.276Zm-6.106,0a1.174,1.174,0,0,1,1.173-1.172,1.173,1.173,0,0,1,1.172,1.172,1.174,1.174,0,0,1-1.172,1.173A1.175,1.175,0,0,1-4951.961,1001.276Zm-5.161,1.149a1.245,1.245,0,0,1-.22-.067,1.094,1.094,0,0,1-.2-.108,1.021,1.021,0,0,1-.179-.146,1.179,1.179,0,0,1-.345-.829,1.1,1.1,0,0,1,.024-.229,1.075,1.075,0,0,1,.065-.219,1.028,1.028,0,0,1,.109-.2,1.04,1.04,0,0,1,.146-.178,1.175,1.175,0,0,1,.828-.344,1.169,1.169,0,0,1,.828.344,1.039,1.039,0,0,1,.148.178,1.272,1.272,0,0,1,.107.2,1.18,1.18,0,0,1,.065.219,1.084,1.084,0,0,1,.025.229,1.175,1.175,0,0,1-.346.829,1.173,1.173,0,0,1-.828.344A1.162,1.162,0,0,1-4957.122,1002.426Z" data-name="Union 45"
                    fill="#ff9d00"
                    id="Union_45" transform="translate(5130 -843.982)" />
            </g>
        </g>
        <g id="layer1" transform="translate(198.412 -124.795)">
            <path d="M3.8,292.362l0,6.089L2.344,297a.441.441,0,1,0-.623.623l2.209,2.211a.442.442,0,0,0,.626,0l2.209-2.211A.442.442,0,1,0,6.138,297L4.68,298.46l0-6.1a.442.442,0,1,0-.884,0Z"
                fill="#ff9d00"
                id="path9425" stroke="#ff9d00" stroke-width="0.2" transform="translate(0 0)" />
        </g>
    </g>
</svg>
