<svg height="37.3" viewBox="0 0 17.945 37.3" width="17.945" xmlns="http://www.w3.org/2000/svg">
    <path
        d="M5.165,37A13.612,13.612,0,0,1,.393,35.771a.664.664,0,0,1-.38-.74c.312-1.463,2.072-4.9,3.487-7.657h0v0c.811-1.581,1.511-2.947,1.677-3.443a.057.057,0,0,1,0-.006,5.89,5.89,0,0,0,.1-2.543h0c-.031-.4-.068-.86-.1-1.375a4.956,4.956,0,0,1,.059-1.037,5.062,5.062,0,0,1,.291-1.07,4.333,4.333,0,0,1,.542-.991,3.708,3.708,0,0,1,.248-.3c-.29-.076-.552-.151-.768-.216-.3-.09-.6-.187-.865-.281-.247-.086-.464-.168-.626-.237a1.009,1.009,0,0,1-.641-1.274l0-.007.008-.023c.193-.569,1.171-3.445,1.5-4.455l0-.01a2.628,2.628,0,0,1,.587-1.07,8.855,8.855,0,0,1,0-1.061,9.566,9.566,0,0,1,.135-1.136A10.7,10.7,0,0,1,5.931,5.67c.1-.33.215-.668.348-1.006a2.786,2.786,0,0,1-.123-.9,1.9,1.9,0,0,1,.1-.517,2.212,2.212,0,0,1,.222-.458,3.151,3.151,0,0,1,.577-.662.513.513,0,0,1,.33-.893A1.456,1.456,0,0,1,8.946,0a1.452,1.452,0,0,1,1.56,1.244.513.513,0,0,1,.27.841,5.66,5.66,0,0,1,.366.466,3.69,3.69,0,0,1,.31.529,2.519,2.519,0,0,1,.177.508,2.019,2.019,0,0,1-.083,1.174c.029.081.058.161.085.242a10.407,10.407,0,0,1,.522,4.086,2.626,2.626,0,0,1,.663,1.013l0,.012c.353,1.08,1.471,4.294,1.517,4.431h0a.04.04,0,0,1,0,.009,1.007,1.007,0,0,1-.641,1.273,16.39,16.39,0,0,1-1.565.54c-.288.086-.654.188-1.053.285a4.274,4.274,0,0,1,.968,3.453,8.675,8.675,0,0,0,.036,3.813,51.085,51.085,0,0,0,2.408,4.691h0A40.41,40.41,0,0,1,17.6,34.956a.664.664,0,0,1-.445.793,18.573,18.573,0,0,1-3.722.9h-.015a4.508,4.508,0,0,1-1.135-.181h0c-.239-.06-.512-.128-.842-.18a7.942,7.942,0,0,0-1.219-.087c-.3,0-.626.014-.97.04a10.076,10.076,0,0,0-1.742.358,9.07,9.07,0,0,1-2.26.4Zm.253-17.012c.027.509.063.963.1,1.364v.005A6.038,6.038,0,0,1,5.4,24c-.173.516-.842,1.822-1.688,3.474l0,0C2.3,30.228.551,33.647.246,35.08a.427.427,0,0,0,.244.474,13.386,13.386,0,0,0,4.68,1.207l.084,0a8.843,8.843,0,0,0,2.19-.392h0l.006,0h0A10.29,10.29,0,0,1,9.235,36c.351-.027.685-.041.993-.041a8.087,8.087,0,0,1,1.249.09c.339.053.619.123.866.185h0a4.419,4.419,0,0,0,1.079.174h.014a19.177,19.177,0,0,0,3.649-.888.427.427,0,0,0,.287-.509,40.458,40.458,0,0,0-3.087-6.286h0a51.228,51.228,0,0,1-2.423-4.72,8.839,8.839,0,0,1-.05-3.929,4.19,4.19,0,0,0-.123-1.829,4.478,4.478,0,0,0-.865-1.534c-.214.049-.434.094-.655.134l-.487.737.31-.113.006,0a.227.227,0,0,1,.069-.01.241.241,0,0,1,.23.169.227.227,0,0,1,.01.076V18.4a.24.24,0,0,1-.23.246H10.07a.268.268,0,0,1-.069-.01l-.006,0L9.359,18.4l-.18,1.144a.12.12,0,0,1-.117.1H8.525a.12.12,0,0,1-.117-.1L8.227,18.4l-.643.234-.006,0a.268.268,0,0,1-.069.01H7.5a.239.239,0,0,1-.167-.076.248.248,0,0,1-.064-.169v-.692a.245.245,0,0,1,.011-.076.241.241,0,0,1,.23-.169.217.217,0,0,1,.068.01l.006,0,.331.12-.487-.737c-.29-.056-.576-.121-.845-.188A4.538,4.538,0,0,0,5.418,19.987Zm3.208-.58H8.96l.16-1.016a.437.437,0,0,1-.288.108H8.715a.437.437,0,0,1-.243-.074Zm-1.12-1.7v.7l0,.007.772-.281a.44.44,0,0,1,0-.066v-.017a.44.44,0,0,1,0-.065l-.772-.28Zm2.564.7,0-.006v-.7l-.8.293a.441.441,0,0,1,0,.054v.017a.441.441,0,0,1,0,.055Zm-1.558-.363v.017a.2.2,0,0,0,.2.2h.118a.2.2,0,0,0,.2-.2v-.017a.2.2,0,0,0-.2-.2H8.715A.2.2,0,0,0,8.512,18.043Zm.32-.439a.439.439,0,0,1,.343.166l.135-.049,1.512-2.287a6.92,6.92,0,0,1-1.956.281,8.036,8.036,0,0,1-2.1-.293l1.525,2.308.09.033a.438.438,0,0,1,.336-.157ZM7.243,16.577l-.2-.3a3.056,3.056,0,0,0-.257.195C6.938,16.51,7.09,16.545,7.243,16.577Zm3.111,0q.149-.029.3-.062-.072-.08-.149-.16Zm.559-.122c.483-.114.925-.239,1.253-.339.564-.171,1.1-.358,1.441-.5a.781.781,0,0,0,.506-.99c-.118-.341-1.167-3.356-1.514-4.419l0,0a2.314,2.314,0,0,0-.633-.958.12.12,0,0,1-.019-.016,2.18,2.18,0,0,0-.649-.362.5.5,0,0,1-.007.064,6.378,6.378,0,0,0,.306,2.021,19.064,19.064,0,0,0,1,2.545h0c.159.354.286.634.354.818a.589.589,0,0,1-.318.818l0,0-1.867.821-.131.2Q10.783,16.3,10.913,16.45ZM5.16,10.171c-.342,1.049-1.392,4.138-1.511,4.486v0a.779.779,0,0,0,.5.989c.321.136.832.315,1.366.48.265.081.609.181.992.278a3.342,3.342,0,0,1,.372-.3q0-.033,0-.067l-.037-.056-1.725-.817a.588.588,0,0,1-.318-.819c.067-.184.194-.463.353-.815v0A18.227,18.227,0,0,0,6.188,10.9,7.683,7.683,0,0,0,6.406,8.76a1.717,1.717,0,0,0-.667.382.119.119,0,0,1-.032.031,2.4,2.4,0,0,0-.548,1Zm.218,3.455c-.151.336-.283.625-.347.8a.356.356,0,0,0,.2.523L6.6,15.6l-.21-.317a.119.119,0,0,1,0-.137l0,0-.007-.02a.817.817,0,0,1,.063-.646.882.882,0,0,1,.243-.282c-.01-.042-.021-.083-.032-.125a1.353,1.353,0,0,0-.305-.515h0l-.091-.116a1.741,1.741,0,0,1-.34-1.064C5.742,12.82,5.545,13.255,5.378,13.626Zm5.829,1.656-.2.3,1.529-.672a.356.356,0,0,0,.194-.523c-.065-.176-.2-.466-.347-.8s-.322-.713-.488-1.109a1.771,1.771,0,0,1-.406.94v0h0c-.033.048-.071.1-.108.157a1.593,1.593,0,0,0-.257.546,2.459,2.459,0,0,1-.083.276.9.9,0,0,1,.189.555.922.922,0,0,1-.021.2A.119.119,0,0,1,11.207,15.282Zm-2.34.194H8.9a.787.787,0,0,0-.1-1.138.848.848,0,0,0-.261-.147.9.9,0,0,0-.3-.05l-.069,0a.905.905,0,0,0-.33.089.856.856,0,0,0-.26.2.808.808,0,0,0-.166.274.783.783,0,0,0,.051.639A7.469,7.469,0,0,0,8.867,15.476Zm.468-.6a1.015,1.015,0,0,1-.137.592,6.671,6.671,0,0,0,1.079-.141.773.773,0,0,0,.073-.129.843.843,0,0,0-.46-1.1.9.9,0,0,0-.365-.077.875.875,0,0,0-.333.066A.826.826,0,0,0,9,14.2,1.022,1.022,0,0,1,9.335,14.876Zm-2.147.406a1.025,1.025,0,0,1-.047-.241,1,1,0,0,1,.056-.415,1.04,1.04,0,0,1,.21-.352l0,0a.658.658,0,0,0-.17-.022.665.665,0,0,0-.205.032.649.649,0,0,0-.376.309.579.579,0,0,0-.006.554Q6.922,15.221,7.188,15.282Zm3.394-.028q.194-.051.385-.115a.678.678,0,0,0,.026-.184.631.631,0,0,0-.5-.632A1.043,1.043,0,0,1,10.582,15.254Zm.268-1.033c.018-.057.031-.105.041-.149a1.8,1.8,0,0,1,.291-.625c.037-.056.074-.109.109-.16h0v0a1.4,1.4,0,0,0,.364-.942,3.538,3.538,0,0,0-.055-.35c-.04-.208-.112-.49-.186-.787h0l-.057-.227q-.016-.06-.031-.119a.112.112,0,0,1,0-.018,5.841,5.841,0,0,1-.268-1.961c0-.01,0-.04.006-.091l-.124-.033-.31.777a2.88,2.88,0,0,1-.673,1.081h0v0c-.1.114-.21.245-.328.394s-.229.32-.321.464c-.173.27-.268.418-.409.418-.12,0-.226-.116-.477-.4v0c-.127-.145-.271-.309-.43-.464a2.75,2.75,0,0,1-1-1.551l-.134-.8H6.829c-.077.01-.13.017-.193.03A4.269,4.269,0,0,1,6.6,9.931c-.043.31-.1.628-.159.931a.118.118,0,0,1,0,.034l-.015.058c-.024.124-.049.245-.073.362h0l0,.013h0c-.036.178-.07.347-.1.485-.051.284-.079.472-.084.526a1.494,1.494,0,0,0,.289.95l.078.1,0,0h0l.007.01a1.566,1.566,0,0,1,.349.6l.016.064.054-.019q.045-.014.091-.024a.865.865,0,0,1,.238-.454.788.788,0,0,1,1.014-.1A.893.893,0,0,1,9,13.144a.846.846,0,0,1,.407.1.794.794,0,0,1,.2.155.86.86,0,0,1,.28-.046l.072,0a.871.871,0,0,1,.582.285.8.8,0,0,1,.208.515A.826.826,0,0,1,10.85,14.221ZM7.5,14.048a.852.852,0,0,1,.115.045,1.125,1.125,0,0,1,.122-.071,1.109,1.109,0,0,1,.387-.112.823.823,0,0,1,.028-.138.851.851,0,0,1,.031-.089.56.56,0,0,0-.327-.108.558.558,0,0,0-.39.16.623.623,0,0,0-.166.277A.923.923,0,0,1,7.5,14.048Zm3,.037a.581.581,0,0,0-.139-.283.63.63,0,0,0-.425-.207l-.052,0a.646.646,0,0,0-.212.036.637.637,0,0,0-.187.1.589.589,0,0,0-.063.059q.052,0,.105,0a1.127,1.127,0,0,1,.459.1,1.142,1.142,0,0,1,.307.2.813.813,0,0,1,.1-.006A.8.8,0,0,1,10.5,14.085Zm-1.875-.117a1.078,1.078,0,0,1,.185.085q.038-.034.08-.064a1.063,1.063,0,0,1,.194-.111l.008,0a.783.783,0,0,1,.055-.11.847.847,0,0,1,.188-.217l.045-.034a.55.55,0,0,0-.09-.061A.609.609,0,0,0,9,13.38a.644.644,0,0,0-.323.088.633.633,0,0,0-.293.37.6.6,0,0,0-.017.071A1.15,1.15,0,0,1,8.624,13.968ZM7.22,9.427a2.522,2.522,0,0,0,.934,1.423c.167.163.313.33.443.479h0a2.95,2.95,0,0,0,.3.313,2.163,2.163,0,0,0,.212-.3h0c.09-.14.2-.315.334-.481s.234-.286.335-.4h0a2.657,2.657,0,0,0,.628-1l0-.008.3-.747c-.154-.03-.321-.055-.5-.075h0c-.021,0-.211-.029-.285-.05a.827.827,0,0,1-.656-.643c-.013-.084-.028-.167-.044-.248a1.284,1.284,0,0,1-.38.059,1.3,1.3,0,0,1-.452-.083c-.018.089-.035.179-.049.271a.8.8,0,0,1-.711.647H7.61l-.4.046H7.2l-.113.008ZM9.492,7.894a.612.612,0,0,0,.485.452c.044.013.177.032.252.043a3.681,3.681,0,0,1,1.7.524,10.14,10.14,0,0,0-.519-3.831v0a4.88,4.88,0,0,1-.608.88,4.685,4.685,0,0,1-.211.426,3.809,3.809,0,0,1-.488.688,2.36,2.36,0,0,1-.595.485l-.067.035C9.458,7.691,9.476,7.792,9.492,7.894ZM6.1,5.936A10.5,10.5,0,0,0,5.864,7a9.285,9.285,0,0,0-.113,1.042c-.013.263-.014.526,0,.787a2.122,2.122,0,0,1,.705-.33l.014,0,.018,0a3.656,3.656,0,0,1,.7-.106l.4-.044c.382-.077.492-.287.518-.449.018-.114.038-.227.062-.336L8.1,7.521a2.549,2.549,0,0,1-.638-.574,4.224,4.224,0,0,1-.567-.933A5.953,5.953,0,0,1,6.4,5.019C6.285,5.328,6.185,5.635,6.1,5.936ZM8.833,7.5c.294,0,.874-.14,1.454-1.081a4.356,4.356,0,0,0,.291-.561c.27-.957.117-1.1-.135-1.346a1.881,1.881,0,0,1-.563-.882,1.772,1.772,0,0,0-.178-.01,1.128,1.128,0,0,0-.953.535,1.643,1.643,0,0,1-.372.365,1.311,1.311,0,0,1-.634.147h0c-.3.018-.55.034-.7.283a.777.777,0,0,0-.094.553c.045.133.1.266.153.395l.007.012a.118.118,0,0,1,.014.035l.01.023a4.388,4.388,0,0,0,.21.4,3.609,3.609,0,0,0,.246.364,2.4,2.4,0,0,0,.58.555,1.546,1.546,0,0,0,.152.087h0A.115.115,0,0,1,8.37,7.4,1.123,1.123,0,0,0,8.833,7.5ZM9.909,3.4a.238.238,0,0,1,.122.053.23.23,0,0,1,.073.109,1.661,1.661,0,0,0,.5.784,1.086,1.086,0,0,1,.3.394.867.867,0,0,1,.054.277,1.887,1.887,0,0,1-.029.389,2.386,2.386,0,0,0,.514-1.323,1.824,1.824,0,0,0-.049-.459,2.253,2.253,0,0,0-.172-.473,3.5,3.5,0,0,0-.3-.5c-.1-.138-.213-.283-.343-.431a.51.51,0,0,1-.645-.25.509.509,0,0,1-.643-.1.51.51,0,0,1-.76.009.509.509,0,0,1-.665.076.511.511,0,0,1-.586.29,3.042,3.042,0,0,0-.551.6,2.027,2.027,0,0,0-.232.439,1.623,1.623,0,0,0-.1.5,2.387,2.387,0,0,0,.085.716,4.386,4.386,0,0,0,.238.675.985.985,0,0,1,.125-.329.967.967,0,0,1,.887-.4,1.124,1.124,0,0,0,.522-.111,1.429,1.429,0,0,0,.315-.315,2.053,2.053,0,0,1,.421-.416A1.227,1.227,0,0,1,9.7,3.388,1.873,1.873,0,0,1,9.909,3.4Zm.484-1.38a.276.276,0,0,0,0-.552.272.272,0,0,0-.206.1.51.51,0,0,1-.065.218A.274.274,0,0,0,10.393,2.02ZM7.126,1.744a.274.274,0,1,0,.54-.068l0-.015a.274.274,0,0,0-.536.083Zm2.551.061a.274.274,0,0,0,.206-.094.511.511,0,0,1,.065-.22.274.274,0,0,0-.534-.039.517.517,0,0,1,0,.156A.274.274,0,0,0,9.677,1.805Zm-.769,0a.275.275,0,0,0,.263-.2.518.518,0,0,1,0-.156.273.273,0,0,0-.515-.03.514.514,0,0,1,0,.216A.274.274,0,0,0,8.908,1.805Zm-.752,0a.274.274,0,0,0,.252-.167.515.515,0,0,1,0-.216A.274.274,0,0,0,7.89,1.6l0,.017A.275.275,0,0,0,8.157,1.805Zm-.468-.484a.511.511,0,0,1,.843-.138.51.51,0,0,1,.76.009.51.51,0,0,1,.842.11.507.507,0,0,1,.135-.055A1.22,1.22,0,0,0,8.946.238a1.209,1.209,0,0,0-1.324,1.04v0A.511.511,0,0,1,7.689,1.321Zm1.117,15.9c-.486,0-1.048-.323-1.044-.726,0-.141.069-.334.389-.451a2.031,2.031,0,0,1,.668-.1c.5,0,1.036.257,1.032.659a.554.554,0,0,1-.373.481,1.591,1.591,0,0,1-.656.135Zm-.573-.955c-.155.057-.233.134-.234.23,0,.233.414.483.809.487a1.368,1.368,0,0,0,.569-.112c.108-.05.236-.138.238-.268,0-.236-.419-.417-.8-.419H8.795A1.7,1.7,0,0,0,8.233,16.261Z"
        id="エステ_1" stroke="#000" stroke-miterlimit="10" stroke-width="0.3"
        transform="translate(0.158 0.15)" />
</svg>
