<svg xmlns="http://www.w3.org/2000/svg" width="19.001" height="16.001" viewBox="0 0 19.001 16.001">
  <path id="business_type" d="M-3754.832,8978h-7.259a.277.277,0,0,1-.29-.263v-1.054a.278.278,0,0,1,.29-.264h.291v-.789a.278.278,0,0,1,.291-.264h.291v-4.474h.58v4.474h4.355v-4.474h.581v4.474h.291a.278.278,0,0,1,.29.264v.789h.291a.278.278,0,0,1,.29.264v.79h.581V8963h.581v14.738a.278.278,0,0,1-.291.263Zm-6.968-.526h6.677v-.526h-6.677Zm.581-1.054h5.516v-.525h-5.516Zm-8.71,1.58h-1.161a.278.278,0,0,1-.291-.263V8963h.581v14.475h.58v-1.843a.278.278,0,0,1,.291-.264h.34a.718.718,0,0,1-.05-.263.8.8,0,0,1,.608-.752,1.142,1.142,0,0,1,1.134-.826,1.142,1.142,0,0,1,1.134.826.876.876,0,0,1,.172.068.859.859,0,0,1,.173-.068,1.143,1.143,0,0,1,1.135-.826,1.142,1.142,0,0,1,1.134.826.8.8,0,0,1,.608.752.718.718,0,0,1-.05.263h.34a.278.278,0,0,1,.29.264v2.106a.278.278,0,0,1-.29.263Zm.291-.526h6.1V8975.9h-6.1Zm5.226-2.106a.277.277,0,0,0,.291-.263.278.278,0,0,0-.291-.263.277.277,0,0,1-.29-.264.557.557,0,0,0-.581-.526.556.556,0,0,0-.581.526.278.278,0,0,1-.291.264.278.278,0,0,0-.291.263.278.278,0,0,0,.291.263Zm-2.562,0a.718.718,0,0,1-.05-.263.722.722,0,0,1,.048-.26l-.048,0h0a.3.3,0,0,1-.206-.078.25.25,0,0,1-.085-.186.557.557,0,0,0-.581-.526.556.556,0,0,0-.581.526.278.278,0,0,1-.29.264.278.278,0,0,0-.291.263.277.277,0,0,0,.291.263Zm9.531-1.315V8973h.581v1.053Zm-6.968-.525v-2.633h.581v2.633Zm-4.935,0v-2.633h.58v2.633Zm11.9-3.336a1.36,1.36,0,0,1-1.016.441,1.36,1.36,0,0,1-1.016-.441,1.36,1.36,0,0,1-1.016.441,1.252,1.252,0,0,1-1.307-1.186v-.132a2.913,2.913,0,0,1,1.1-2.109,3.518,3.518,0,0,1,2.186-.783h.057c.021,0,.042,0,.062,0s.07,0,.1,0a3.187,3.187,0,0,1,3.173,2.875v.145a1.252,1.252,0,0,1-1.306,1.186A1.36,1.36,0,0,1-3757.445,8970.191Zm1.017-.086a.712.712,0,0,0,.711-.526h-1.423A.712.712,0,0,0-3756.429,8970.105Zm-2.033,0a.713.713,0,0,0,.711-.526h-1.423A.712.712,0,0,0-3758.461,8970.105Zm-2.032,0a.712.712,0,0,0,.711-.526h-1.422A.712.712,0,0,0-3760.494,8970.105Zm4.761-1.054a2.579,2.579,0,0,0-1.874-1.98,4.81,4.81,0,0,1,.446,1.98Zm-2.008,0c-.05-1.269-.453-2.052-.7-2.1h-.048c-.244.05-.647.833-.7,2.1Zm-2.023,0a4.818,4.818,0,0,1,.446-1.98,2.837,2.837,0,0,0-1,.525,2.424,2.424,0,0,0-.873,1.455Zm-5.812,1.14a1.36,1.36,0,0,1-1.016.441,1.36,1.36,0,0,1-1.016-.441,1.36,1.36,0,0,1-1.016.441,1.252,1.252,0,0,1-1.307-1.186v-.132a2.915,2.915,0,0,1,1.1-2.109,3.519,3.519,0,0,1,2.186-.783h.058c.021,0,.042,0,.062,0s.07,0,.1,0a3.188,3.188,0,0,1,3.173,2.875v.145a1.252,1.252,0,0,1-1.306,1.186A1.36,1.36,0,0,1-3765.575,8970.191Zm1.017-.086a.712.712,0,0,0,.711-.526h-1.423A.713.713,0,0,0-3764.558,8970.105Zm-2.033,0a.712.712,0,0,0,.711-.526h-1.422A.712.712,0,0,0-3766.591,8970.105Zm-2.032,0a.712.712,0,0,0,.711-.526h-1.422A.712.712,0,0,0-3768.623,8970.105Zm4.761-1.054a2.579,2.579,0,0,0-1.873-1.98,4.814,4.814,0,0,1,.446,1.98Zm-2.007,0c-.05-1.269-.453-2.053-.7-2.1h-.048c-.244.05-.647.833-.7,2.1Zm-2.023,0a4.818,4.818,0,0,1,.446-1.98,2.837,2.837,0,0,0-1,.525,2.426,2.426,0,0,0-.873,1.455Zm-1.747-3.157a.278.278,0,0,1-.291-.264v-2.1a.277.277,0,0,1,.291-.263h14.516a.277.277,0,0,1,.291.263v2.1a.278.278,0,0,1-.291.264Zm.291-.526h13.936v-1.579h-13.936Zm11.613-.526v-.525h1.161v.525Zm-1.742,0v-.525h1.161v.525Zm-1.742,0v-.525h1.161v.525Zm-1.742,0v-.525h1.161v.525Zm-1.741,0v-.525h1.161v.525Zm-1.743,0v-.525h1.162v.525Zm-1.741,0v-.525h1.161v.525Z" transform="translate(3771.881 -8962.5)" stroke="rgba(0,0,0,0)" stroke-miterlimit="10" stroke-width="1"/>
</svg>
