<svg height="17.543" viewBox="0 0 16.849 17.543" width="16.849" xmlns="http://www.w3.org/2000/svg">
    <g id="business_trip" transform="translate(-159.736 -2190.268)">
        <path d="M451.168,2193.68a2.462,2.462,0,0,0,.18.34l0,0,1.907,2.869a.236.236,0,0,0,.393,0l1.907-2.869,0,0a2.466,2.466,0,0,0,.18-.34,2.415,2.415,0,0,0,.194-.833c0-.042,0-.084,0-.126a2.483,2.483,0,0,0-4.966,0c0,.042,0,.084,0,.126A2.416,2.416,0,0,0,451.168,2193.68Zm4.3-.959c0,.034,0,.068,0,.1a1.944,1.944,0,0,1-.156.671,1.971,1.971,0,0,1-.144.272l-1.709,2.572-1.709-2.572a1.977,1.977,0,0,1-.144-.272,1.943,1.943,0,0,1-.156-.671c0-.034,0-.068,0-.1a2.011,2.011,0,0,1,4.022,0Z" data-name="Path 2666"
            id="Path_2666"
            transform="translate(-279.782)" />
        <path d="M475.568,2216.1a1.56,1.56,0,1,0-1.577-1.56A1.57,1.57,0,0,0,475.568,2216.1Zm1.106-1.56a1.106,1.106,0,1,1-1.106-1.088A1.1,1.1,0,0,1,476.674,2214.543Z" data-name="Path 2667"
            id="Path_2667"
            transform="translate(-301.897 -21.822)" />
        <path d="M164.969,2413.633a2.8,2.8,0,0,0,.2-.388,2.752,2.752,0,0,0,.221-.949c0-.048,0-.1,0-.144a2.832,2.832,0,0,0-5.663,0q0,.073,0,.144a2.753,2.753,0,0,0,.221.949,2.8,2.8,0,0,0,.2.388l0,0,2.2,3.315a.236.236,0,0,0,.393,0l2.2-3.315Zm-.045-1.361a2.283,2.283,0,0,1-.183.787,2.326,2.326,0,0,1-.169.32l-2,3.017-2-3.017a2.282,2.282,0,0,1-.352-1.107c0-.04,0-.08,0-.12a2.36,2.36,0,0,1,4.719,0C164.927,2412.192,164.926,2412.231,164.924,2412.271Z" data-name="Path 2668"
            id="Path_2668"
            transform="translate(0 -210.47)" />
        <path d="M188.115,2435.6a1.765,1.765,0,1,0,1.786,1.765A1.778,1.778,0,0,0,188.115,2435.6Zm0,3.059a1.293,1.293,0,1,1,1.314-1.293A1.305,1.305,0,0,1,188.115,2438.656Z" data-name="Path 2669"
            id="Path_2669"
            transform="translate(-25.547 -235.681)" />
        <path d="M273.451,2368.841h-3.876a.664.664,0,0,1,0-1.328h2.306a2.318,2.318,0,0,0,2.315-2.315v-.346h-.472v.346a1.846,1.846,0,0,1-1.844,1.844h-2.306a1.136,1.136,0,1,0,0,2.271h3.876a2.323,2.323,0,0,1,2.32,2.32v.037a2.323,2.323,0,0,1-2.32,2.321h-7.432a.236.236,0,0,0-.236.236v.616l-1.659-1.15,1.659-1.15v.5a.236.236,0,0,0,.236.236h7.432a1.614,1.614,0,0,0,1.612-1.613v-.037a1.614,1.614,0,0,0-1.612-1.613h-3.876a1.844,1.844,0,1,1,0-3.687h2.306a1.137,1.137,0,0,0,1.136-1.136v-.346h-.472v.346a.665.665,0,0,1-.664.664h-2.306a2.315,2.315,0,1,0,0,4.631h3.876a1.142,1.142,0,0,1,1.14,1.14v.037a1.142,1.142,0,0,1-1.14,1.141h-7.2v-.719a.236.236,0,0,0-.37-.194l-2.309,1.6a.236.236,0,0,0,0,.388l2.309,1.6a.236.236,0,0,0,.37-.194v-.831h7.2a2.8,2.8,0,0,0,2.792-2.792v-.037A2.8,2.8,0,0,0,273.451,2368.841Z" data-name="Path 2670"
            id="Path_2670"
            transform="translate(-99.658 -167.718)" />
    </g>
</svg>
