<svg xmlns="http://www.w3.org/2000/svg" width="33.45" height="32" viewBox="0 0 33.45 32">
  <g id="monthly" transform="translate(0 -11.089)">
    <path id="Path_201229" data-name="Path 201229" d="M15.379,27.8a.491.491,0,1,0,.78.476.5.5,0,0,0-.78-.476Zm-.239,2.338a.49.49,0,1,0,.784.468.494.494,0,0,0-.784-.468ZM14.9,32.471a.49.49,0,1,0,.784.469.5.5,0,0,0-.784-.469Zm1.55,6.96a.49.49,0,1,0,.718.49A.5.5,0,0,0,16.454,39.43Zm.637-6.96a.49.49,0,1,0,.784.469.5.5,0,0,0-.784-.469ZM14.673,34.8a.49.49,0,1,0,.78.475A.495.495,0,0,0,14.673,34.8ZM17.566,27.8a.491.491,0,1,0,.78.476.5.5,0,0,0-.78-.476ZM16.86,34.8a.49.49,0,1,0,.78.475A.495.495,0,0,0,16.86,34.8Zm-.236,2.335a.49.49,0,1,0,.78.476.495.495,0,0,0-.78-.476Zm.7-7a.49.49,0,1,0,.784.468.494.494,0,0,0-.784-.468Zm.536-4.712a.49.49,0,1,0,.723.48A.5.5,0,0,0,17.864,25.424Zm-3.6,14.008a.49.49,0,1,0,.72.491.5.5,0,0,0-.72-.491Zm.172-2.294a.49.49,0,1,0,.78.476A.495.495,0,0,0,14.437,37.138Zm1.475-10.794a.49.49,0,1,0-.473-.364.5.5,0,0,0,.473.364ZM8.953,28.051a1.516,1.516,0,1,0,1.516,1.516A1.518,1.518,0,0,0,8.953,28.051Zm0,2.051a.535.535,0,1,1,.535-.535A.536.536,0,0,1,8.953,30.1Zm5.134-11.46a1.125,1.125,0,0,0-.83-.367H11.68a.49.49,0,0,0,0,.981h1.578a.142.142,0,0,1,.141.153L11.88,35.191l-.872-.868a.884.884,0,0,0-1.247,0l-.808.808L6.764,32.944a.884.884,0,0,0-1.248,0l-1.9,1.9,1.6-15.44a.163.163,0,0,1,.163-.147H9.718a.49.49,0,0,0,0-.981H5.382A1.141,1.141,0,0,0,4.243,19.3L2.5,36.12h0L2.137,39.6a1.144,1.144,0,0,0,1.138,1.26H11.3a1.117,1.117,0,0,0,1.117-1.017l.087-.9h0L14.375,19.5a1.125,1.125,0,0,0-.288-.86ZM11.441,39.749a.141.141,0,0,1-.141.128H3.275a.163.163,0,0,1-.162-.179l.343-3.308L6.14,33.707l2.466,2.466h0l2.9,2.9Zm.187-1.941L9.646,35.826l.739-.739,1.373,1.366ZM26.314,27.8a.491.491,0,1,0,.78.476A.5.5,0,0,0,26.314,27.8Zm-2.187,0a.491.491,0,1,0,.78.476.5.5,0,0,0-.78-.476Zm.295-2.373a.49.49,0,1,0,.725.483.5.5,0,0,0-.725-.483Zm-.534,4.711a.49.49,0,1,0,.784.468.494.494,0,0,0-.784-.468Zm1.49,7a.49.49,0,1,0,.773.485A.495.495,0,0,0,25.378,37.133ZM23.421,34.8a.49.49,0,1,0,.78.475.495.495,0,0,0-.78-.475Zm.232-2.332a.49.49,0,1,0,.784.469.5.5,0,0,0-.784-.469ZM25.608,34.8a.49.49,0,1,0,.78.475.495.495,0,0,0-.78-.475Zm7.83,5.487-2.5-24.673a2.535,2.535,0,0,0-2.388-2.283h-.011c-.043,0-.087,0-.131,0H27.129v-.75a1.493,1.493,0,0,0-1.491-1.491h-.225a1.493,1.493,0,0,0-1.491,1.491v.75H9.315v-.75a1.493,1.493,0,0,0-1.491-1.491H7.6A1.493,1.493,0,0,0,6.107,12.58v.75H5.04a2.536,2.536,0,0,0-2.53,2.287L.013,40.29a2.543,2.543,0,0,0,2.528,2.8H30.91a2.543,2.543,0,0,0,2.527-2.8ZM24.9,12.58a.511.511,0,0,1,.51-.51h.225a.511.511,0,0,1,.51.51v.75H24.9v-.75Zm-17.814,0a.511.511,0,0,1,.51-.51h.225a.511.511,0,0,1,.51.51v.75H7.088v-.75ZM32.067,41.593a1.544,1.544,0,0,1-1.157.515h-2.8a2.543,2.543,0,0,0,.521-1.326l.642-6.866a.49.49,0,1,0-.976-.091l-.642,6.866A1.556,1.556,0,0,1,26.1,42.108H2.542a1.563,1.563,0,0,1-1.553-1.72l2.5-24.673A1.558,1.558,0,0,1,5.04,14.311H6.107v1.442A1.493,1.493,0,0,0,7.6,17.244a.49.49,0,0,0,0-.981.511.511,0,0,1-.51-.51V14.311H23.921v1.442a1.493,1.493,0,0,0,1.491,1.491.49.49,0,0,0,0-.981.511.511,0,0,1-.51-.51V14.311H28.41a1.575,1.575,0,0,1,1.4.866c.017.035.034.07.048.106l0,.007a1.568,1.568,0,0,1,.1.728L28.491,31.8a.49.49,0,1,0,.976.091l1.025-10.965,1.969,19.465a1.545,1.545,0,0,1-.395,1.2Zm-5.454-16.17a.49.49,0,1,0,.721.481.5.5,0,0,0-.721-.481Zm-.774,7.048a.49.49,0,1,0,.784.468.495.495,0,0,0-.784-.468Zm.236-2.335a.49.49,0,1,0,.784.468.494.494,0,0,0-.784-.468Zm-2.89,7a.49.49,0,1,0,.78.476A.495.495,0,0,0,23.185,37.138Zm-3.671-7a.49.49,0,1,0,.784.468.494.494,0,0,0-.784-.468Zm-.236,2.335a.49.49,0,1,0,.784.468.495.495,0,0,0-.784-.468Zm-.634,6.958a.49.49,0,1,0,.714.5A.5.5,0,0,0,18.645,39.428ZM19.753,27.8a.491.491,0,1,0,.78.476.5.5,0,0,0-.78-.476Zm-.936,9.336a.49.49,0,1,0,.773.485.495.495,0,0,0-.773-.485Zm1.236-11.711a.49.49,0,1,0,.721.482A.5.5,0,0,0,20.052,25.423ZM19.047,34.8a.49.49,0,1,0,.78.475.495.495,0,0,0-.78-.475ZM21,37.138a.49.49,0,1,0,.78.476.495.495,0,0,0-.78-.476Zm.7-7a.49.49,0,1,0,.784.468.495.495,0,0,0-.784-.468ZM21.94,27.8a.491.491,0,1,0,.78.476.5.5,0,0,0-.78-.476ZM21.234,34.8a.49.49,0,1,0,.78.475.495.495,0,0,0-.78-.475Zm.232-2.332a.49.49,0,1,0,.784.469.5.5,0,0,0-.784-.469Zm.767-7.044a.49.49,0,1,0,.728.478A.5.5,0,0,0,22.232,25.426Z" transform="translate(0)"/>
    <path id="Path_201234" data-name="Path 201234" d="M-6.853-5.235V-7.7c-.458.352-.616.4-.774.4a.273.273,0,0,1-.2-.091.292.292,0,0,1-.088-.21.237.237,0,0,1,.087-.2,1.919,1.919,0,0,1,.306-.168A1.473,1.473,0,0,0-7.1-8.218a1.639,1.639,0,0,0,.3-.327q.151-.211.2-.26a.236.236,0,0,1,.173-.049.277.277,0,0,1,.23.111.485.485,0,0,1,.087.306v3.1q0,.544-.371.544a.34.34,0,0,1-.265-.111A.474.474,0,0,1-6.853-5.235ZM-2.382-5c.135-.145.449-.09.675-.09a.172.172,0,0,0,.195-.195v-.968h-1.98A3.122,3.122,0,0,1-3.785-5.24a1.85,1.85,0,0,1-.538.676.276.276,0,0,1-.389-.389,2.4,2.4,0,0,0,.343-.5,2.366,2.366,0,0,0,.276-.838A8.945,8.945,0,0,0-4.017-7.62v-.817c-.014-.293-.024-.428.173-.63a.819.819,0,0,1,.614-.179h1.539a.807.807,0,0,1,.641.179.728.728,0,0,1,.14.63V-6.26l.016,1.106a.689.689,0,0,1-.176.517.594.594,0,0,1-.322.133,2.437,2.437,0,0,1-.856,0A.284.284,0,0,1-2.382-5Zm-.957-1.9a3.539,3.539,0,0,0,1.75,0c.169-.135.246-.337,0-.484a3.846,3.846,0,0,0-1.75,0A.268.268,0,0,0-3.339-6.893ZM-1.589-8.6a3.906,3.906,0,0,0-1.75,0,.3.3,0,0,0,0,.5,3.71,3.71,0,0,0,1.75,0C-1.4-8.232-1.343-8.475-1.589-8.6Z" transform="translate(25.86 28.089)"/>
  </g>
</svg>
