<svg height="32" viewBox="0 0 28.797 32" width="28.797" xmlns="http://www.w3.org/2000/svg">
    <g id="weekly" transform="translate(-25.626 0)">
        <path
            d="M44.78,26.106a.468.468,0,0,0,.618-.24l2.291-5.213A.469.469,0,0,0,47.26,20H44.393a.469.469,0,1,0,0,.938h2.149l-2,4.555a.469.469,0,0,0,.24.618Zm.195-11.1a.469.469,0,0,0-.64.172l-5.8,10.044a.469.469,0,1,0,.812.469l5.8-10.044A.469.469,0,0,0,44.975,15.008Zm-8.882.058a1.915,1.915,0,0,0-3.765-.7.469.469,0,1,0,.92.181.983.983,0,0,1,1.947.164l-.021.162a3.29,3.29,0,0,1-.525,1.047c-.9,1.287-1.439,1.991-1.727,2.369-.347.454-.463.607-.38.877a.5.5,0,0,0,.324.327c.062.021,2.243.043,3.045.033a.469.469,0,0,0-.012-.937c-.716.009-1.483.014-2.037.013.318-.42.816-1.089,1.555-2.144a4.144,4.144,0,0,0,.676-1.395ZM54.423,4.489a2.35,2.35,0,0,0-2.347-2.347h-2V1.425A1.427,1.427,0,0,0,48.646,0h-.215a1.427,1.427,0,0,0-1.425,1.425v.717H33.043V1.425A1.427,1.427,0,0,0,31.618,0H31.4a1.427,1.427,0,0,0-1.425,1.425v.717h-2a2.35,2.35,0,0,0-2.347,2.347V19.577a.469.469,0,0,0,.938,0v-9.8H47.992a.469.469,0,1,0,0-.937H26.563V4.489A1.411,1.411,0,0,1,27.973,3.08h2V4.458A1.427,1.427,0,0,0,31.4,5.883a.469.469,0,1,0,0-.937.488.488,0,0,1-.488-.488V3.08H47.006V4.458a1.427,1.427,0,0,0,1.425,1.425.469.469,0,1,0,0-.937.488.488,0,0,1-.488-.488V3.08h4.133a1.411,1.411,0,0,1,1.409,1.409V8.841H50a.469.469,0,0,0,0,.938h3.484V21.911a1.071,1.071,0,0,1-1.07,1.07H49.286a2.01,2.01,0,0,0-2.008,2.008v3.129a1.071,1.071,0,0,1-1.07,1.07H27.973a1.411,1.411,0,0,1-1.409-1.409V21.452a.469.469,0,1,0-.938,0v8.2A2.346,2.346,0,0,0,27.97,32H52.079a2.346,2.346,0,0,0,2.344-2.344ZM32.106,2.142H30.915V1.425A.488.488,0,0,1,31.4.938h.215a.488.488,0,0,1,.488.488Zm17.029,0H47.943V1.425a.488.488,0,0,1,.488-.488h.215a.488.488,0,0,1,.488.488Zm-.918,25.975V24.988a1.071,1.071,0,0,1,1.07-1.07h3.129a2,2,0,0,0,.473-.057L48.159,28.59A2,2,0,0,0,48.216,28.117Zm5.269,1.539a1.408,1.408,0,0,1-1.406,1.406H27.97a1.408,1.408,0,0,1-1.406-1.406v0a2.335,2.335,0,0,0,1.409.472H46.978a2.331,2.331,0,0,0,1.66-.687l4.848-4.848v5.066Zm-13.124-15.9a.874.874,0,0,0-.573-.791.816.816,0,0,0-.9.339c-.322.395-1.926,3.294-2.245,3.871a.469.469,0,0,0,.41.7h2.365c0,.426-.006.836-.009,1.2a.469.469,0,0,0,.465.473h0a.469.469,0,0,0,.469-.465c0-.217.006-.664.01-1.21h.26a.469.469,0,1,0,0-.937h-.254C40.373,15.527,40.378,13.96,40.361,13.754Zm-.935,3.176H37.851c.629-1.129,1.264-2.243,1.583-2.76C39.437,14.713,39.434,15.8,39.427,16.93Z"
            data-name="Path 201228" id="Path_201228" transform="translate(0 0)" />
    </g>
</svg>
