<svg height="32" viewBox="0 0 28.797 32" width="28.797" xmlns="http://www.w3.org/2000/svg">
    <g id="yearly" transform="translate(-25.626)">
        <path
            d="M36.2,17.535a2.108,2.108,0,0,0-4.176-.408.469.469,0,1,0,.92.181,1.17,1.17,0,1,1,1.148,1.4.469.469,0,0,0,0,.938,1.17,1.17,0,1,1-1.159,1.334,1.2,1.2,0,0,1-.011-.164.469.469,0,0,0-.937,0A2.106,2.106,0,0,0,34.1,22.92a2.106,2.106,0,0,0,1.323-3.746,2.1,2.1,0,0,0,.785-1.639Zm17.749-6.168a.469.469,0,0,0,.469-.469V4.489a2.35,2.35,0,0,0-2.347-2.347h-2V1.425A1.427,1.427,0,0,0,48.646,0h-.215a1.427,1.427,0,0,0-1.425,1.425v.717H33.043V1.425A1.427,1.427,0,0,0,31.618,0H31.4a1.427,1.427,0,0,0-1.425,1.425v.717h-2a2.35,2.35,0,0,0-2.347,2.347V29.656A2.346,2.346,0,0,0,27.97,32h5.048a.469.469,0,0,0,0-.938H27.97a1.408,1.408,0,0,1-1.406-1.406v0a2.335,2.335,0,0,0,1.409.472H46.978a2.331,2.331,0,0,0,1.66-.687l4.848-4.848v5.066a1.408,1.408,0,0,1-1.406,1.406H34.892a.469.469,0,0,0,0,.938H52.079a2.346,2.346,0,0,0,2.344-2.344V12.774a.469.469,0,0,0-.937,0v9.137a1.071,1.071,0,0,1-1.07,1.07H49.286a2.01,2.01,0,0,0-2.008,2.008v3.129a1.071,1.071,0,0,1-1.07,1.07H27.973a1.411,1.411,0,0,1-1.409-1.409v-18H53.485V10.9a.469.469,0,0,0,.469.469Zm-5.738,16.75V24.988a1.071,1.071,0,0,1,1.07-1.07h3.129a2,2,0,0,0,.473-.057L48.159,28.59A2,2,0,0,0,48.216,28.117ZM47.943,1.425a.488.488,0,0,1,.488-.488h.215a.488.488,0,0,1,.488.488v.717H47.943Zm-17.029,0A.488.488,0,0,1,31.4.938h.215a.488.488,0,0,1,.488.488v.717H30.915ZM26.563,8.841V4.489A1.411,1.411,0,0,1,27.973,3.08h2V4.458A1.427,1.427,0,0,0,31.4,5.883a.469.469,0,1,0,0-.937.488.488,0,0,1-.488-.488V3.08H47.006V4.458a1.427,1.427,0,0,0,1.425,1.425.469.469,0,0,0,0-.937.488.488,0,0,1-.488-.488V3.08h4.133a1.411,1.411,0,0,1,1.409,1.409V8.841H26.563Zm19.1,13.149h-.031a1.49,1.49,0,0,1-1.477-1.281,1.527,1.527,0,0,1-.014-.208.469.469,0,0,0-.937,0,2.453,2.453,0,0,0,.023.338,2.428,2.428,0,0,0,2.4,2.089h.05a2.435,2.435,0,0,0,2.375-2.3,2.408,2.408,0,0,0-.664-1.8,2.439,2.439,0,0,0-1.761-.757,3.865,3.865,0,0,0-.743.062l.283-1.71h2.009a.469.469,0,0,0,0-.938H44.775a.469.469,0,0,0-.462.392l-.477,2.877a.469.469,0,0,0,.677.494l.061-.029a2.2,2.2,0,0,1,1.058-.211,1.491,1.491,0,0,1,1.488,1.57A1.494,1.494,0,0,1,45.663,21.99Zm-5.142-5.5a.469.469,0,0,0-.56-.751A6.911,6.911,0,0,0,37.5,20.234a2.322,2.322,0,1,0,1.516-1.821A5.936,5.936,0,0,1,40.521,16.491Zm-.727,2.725A1.384,1.384,0,1,1,38.424,20.4c0-.005,0-.01,0-.015v-.006A1.386,1.386,0,0,1,39.793,19.216Z"
            data-name="Path 201230" id="Path_201230" />
    </g>
</svg>
