<svg height="18.157" viewBox="0 0 18.836 18.157" width="18.836" xmlns="http://www.w3.org/2000/svg">
    <g id="calendar" transform="translate(-1273.5 -137.25)">
        <g data-name="Group 80" id="Group_80" transform="translate(1273.5 137.25)">
            <path
                d="M1289.71,216.794h-13.584a2.629,2.629,0,0,1-2.626-2.626V204.75h18.836v9.418A2.629,2.629,0,0,1,1289.71,216.794Zm-15.486-11.32v8.694a1.9,1.9,0,0,0,1.9,1.9h13.584a1.9,1.9,0,0,0,1.9-1.9v-8.694Z"
                data-name="Path 412" id="Path_412" transform="translate(-1273.5 -198.637)" />
            <path
                d="M1289.71,138.835h-.09v-.317a1.268,1.268,0,0,0-2.536,0v.317h-8.332v-.317a1.268,1.268,0,1,0-2.536,0v.317h-.091a2.629,2.629,0,0,0-2.626,2.626v2.626h18.836v-2.626A2.629,2.629,0,0,0,1289.71,138.835Zm-1.9-.317a.543.543,0,0,1,1.087,0v1.358a.543.543,0,0,1-1.087,0v-1.358Zm-10.867,0a.543.543,0,1,1,1.087,0v1.358a.543.543,0,1,1-1.087,0v-1.358Zm14.671,4.845h-17.387v-1.9a1.9,1.9,0,0,1,1.9-1.9h.091v.317a1.268,1.268,0,1,0,2.536,0v-.317h8.332v.317a1.268,1.268,0,0,0,2.536,0v-.317h.09a1.9,1.9,0,0,1,1.9,1.9Z"
                data-name="Path 413" id="Path_413" transform="translate(-1273.5 -137.25)" />
        </g>
        <g data-name="Group 81" id="Group_81" transform="translate(1276.715 146.578)">
            <path
                d="M1309.543,241.337a.563.563,0,0,1-.208-.042.54.54,0,0,1-.176-.118.545.545,0,0,1-.159-.384.522.522,0,0,1,.011-.106.481.481,0,0,1,.031-.1.5.5,0,0,1,.05-.094.513.513,0,0,1,.068-.082.542.542,0,0,1,.768,0,.491.491,0,0,1,.068.082.551.551,0,0,1,.05.094.536.536,0,0,1,.031.1.505.505,0,0,1,.011.106.544.544,0,0,1-.543.543Z"
                data-name="Path 414" id="Path_414" transform="translate(-1309 -240.25)" />
            <path
                d="M1345.91,240.793a.543.543,0,0,1,.544-.543h0a.544.544,0,0,1,.543.543h0a.544.544,0,0,1-.543.543h0A.543.543,0,0,1,1345.91,240.793Zm-2.83,0a.544.544,0,0,1,.543-.543h0a.544.544,0,0,1,.543.543h0a.544.544,0,0,1-.543.543h0A.544.544,0,0,1,1343.08,240.793Zm-2.83,0a.544.544,0,0,1,.543-.543h0a.544.544,0,0,1,.543.543h0a.544.544,0,0,1-.543.543h0A.544.544,0,0,1,1340.25,240.793Z"
                data-name="Path 415" id="Path_415" transform="translate(-1337.42 -240.25)" />
            <path
                d="M1434.543,241.34a.52.52,0,0,1-.106-.011.539.539,0,0,1-.2-.081.555.555,0,0,1-.15-.15.545.545,0,0,1-.081-.2.522.522,0,0,1,0-.212.546.546,0,0,1,.081-.2.555.555,0,0,1,.15-.15.539.539,0,0,1,.2-.081.546.546,0,0,1,.49.149.5.5,0,0,1,.068.082.537.537,0,0,1,.05.094.481.481,0,0,1,.031.1.514.514,0,0,1,.011.106.544.544,0,0,1-.543.543Z"
                data-name="Path 416" id="Path_416" transform="translate(-1422.68 -240.253)" />
        </g>
        <g data-name="Group 82" id="Group_82" transform="translate(1276.715 148.842)">
            <path
                d="M1309.543,266.337a.562.562,0,0,1-.208-.042.545.545,0,0,1-.244-.2.517.517,0,0,1-.05-.093.506.506,0,0,1-.031-.1.516.516,0,0,1,0-.212.482.482,0,0,1,.031-.1.5.5,0,0,1,.05-.094.517.517,0,0,1,.068-.082.542.542,0,0,1,.768,0,.494.494,0,0,1,.068.082.554.554,0,0,1,.05.094.538.538,0,0,1,.031.1.511.511,0,0,1,0,.212.567.567,0,0,1-.031.1.576.576,0,0,1-.05.093.492.492,0,0,1-.068.082A.544.544,0,0,1,1309.543,266.337Z"
                data-name="Path 417" id="Path_417" transform="translate(-1309 -265.25)" />
            <path
                d="M1345.91,265.793a.543.543,0,0,1,.544-.543h0a.544.544,0,0,1,.543.543h0a.544.544,0,0,1-.543.543h0A.543.543,0,0,1,1345.91,265.793Zm-2.83,0a.544.544,0,0,1,.543-.543h0a.544.544,0,0,1,.543.543h0a.544.544,0,0,1-.543.543h0A.544.544,0,0,1,1343.08,265.793Zm-2.83,0a.544.544,0,0,1,.543-.543h0a.544.544,0,0,1,.543.543h0a.544.544,0,0,1-.543.543h0A.544.544,0,0,1,1340.25,265.793Z"
                data-name="Path 418" id="Path_418" transform="translate(-1337.42 -265.25)" />
            <path
                d="M1434.543,266.34a.521.521,0,0,1-.106-.011.537.537,0,0,1-.2-.081.492.492,0,0,1-.082-.068.544.544,0,0,1-.159-.384.53.53,0,0,1,.011-.106.546.546,0,0,1,.231-.346.54.54,0,0,1,.2-.081.546.546,0,0,1,.49.148.5.5,0,0,1,.068.082.539.539,0,0,1,.05.094.482.482,0,0,1,.031.1.513.513,0,0,1,.011.106.544.544,0,0,1-.543.543Z"
                data-name="Path 419" id="Path_419" transform="translate(-1422.68 -265.253)" />
        </g>
        <g data-name="Group 83" id="Group_83" transform="translate(1276.715 151.106)">
            <path
                d="M1309.543,291.337a.519.519,0,0,1-.106-.011.512.512,0,0,1-.1-.031.571.571,0,0,1-.093-.05.506.506,0,0,1-.083-.068.512.512,0,0,1-.068-.082.5.5,0,0,1-.05-.094.481.481,0,0,1-.031-.1.516.516,0,0,1,0-.212.481.481,0,0,1,.031-.1.5.5,0,0,1,.05-.094.514.514,0,0,1,.068-.082.542.542,0,0,1,.768,0,.491.491,0,0,1,.068.082.549.549,0,0,1,.05.094.537.537,0,0,1,.031.1.511.511,0,0,1,0,.212.536.536,0,0,1-.031.1.555.555,0,0,1-.05.094.489.489,0,0,1-.068.082A.543.543,0,0,1,1309.543,291.337Z"
                data-name="Path 420" id="Path_420" transform="translate(-1309 -290.25)" />
            <path
                d="M1345.91,290.793a.543.543,0,0,1,.544-.543h0a.544.544,0,0,1,.543.543h0a.544.544,0,0,1-.543.543h0A.543.543,0,0,1,1345.91,290.793Zm-2.83,0a.544.544,0,0,1,.543-.543h0a.544.544,0,0,1,.543.543h0a.544.544,0,0,1-.543.543h0A.544.544,0,0,1,1343.08,290.793Zm-2.83,0a.544.544,0,0,1,.543-.543h0a.544.544,0,0,1,.543.543h0a.544.544,0,0,1-.543.543h0A.544.544,0,0,1,1340.25,290.793Z"
                data-name="Path 421" id="Path_421" transform="translate(-1337.42 -290.25)" />
            <path
                d="M1434.543,291.343a.519.519,0,0,1-.106-.011.54.54,0,0,1-.2-.081.491.491,0,0,1-.082-.068.544.544,0,0,1-.159-.384.531.531,0,0,1,.011-.106.545.545,0,0,1,.081-.2.556.556,0,0,1,.15-.15.539.539,0,0,1,.2-.081.549.549,0,0,1,.49.149.5.5,0,0,1,.068.082.536.536,0,0,1,.05.094.483.483,0,0,1,.031.1.514.514,0,0,1,.011.106.544.544,0,0,1-.543.543Z"
                data-name="Path 422" id="Path_422" transform="translate(-1422.68 -290.257)" />
        </g>
    </g>
</svg>
