<svg height="45" viewBox="0 0 45.202 45" width="45.202" xmlns="http://www.w3.org/2000/svg">
    <path d="M-4935.089,1018a7.649,7.649,0,0,0,.192,1.146h-24.438a5.671,5.671,0,0,1-5.665-5.666V989.067a5.67,5.67,0,0,1,5.665-5.665h.2v-.683a2.738,2.738,0,0,1,2.734-2.736,2.738,2.738,0,0,1,2.734,2.736v.683h17.973v-.683a2.739,2.739,0,0,1,2.735-2.736,2.738,2.738,0,0,1,2.735,2.736v.683h.2a5.672,5.672,0,0,1,5.666,5.665v21.2a7.622,7.622,0,0,0-1.564-.5V994.732h-37.507v18.753a4.107,4.107,0,0,0,4.1,4.1h24.219c0,.008,0,.017,0,.025,0-.105-.007-.211-.007-.317a7.683,7.683,0,0,1,7.661-7.687,7.682,7.682,0,0,1,7.662,7.687,7.682,7.682,0,0,1-7.662,7.686A7.683,7.683,0,0,1-4935.089,1018Zm1.317-.707a6.33,6.33,0,0,0,6.311,6.332,6.331,6.331,0,0,0,6.313-6.332,6.329,6.329,0,0,0-6.312-6.332A6.328,6.328,0,0,0-4933.771,1017.3Zm-1.337.441c0-.011,0-.022,0-.034C-4935.11,1017.716-4935.109,1017.727-4935.109,1017.738Zm-28.329-28.672v4.1h37.507v-4.1a4.107,4.107,0,0,0-4.1-4.1h-.2v.684a2.738,2.738,0,0,1-2.735,2.735,2.739,2.739,0,0,1-2.735-2.735v-.684h-17.973v.684a2.738,2.738,0,0,1-2.734,2.735,2.738,2.738,0,0,1-2.734-2.735v-.684h-.2A4.107,4.107,0,0,0-4963.437,989.067Zm29.3-6.347v2.929a1.174,1.174,0,0,0,1.171,1.173,1.174,1.174,0,0,0,1.172-1.173v-2.929a1.174,1.174,0,0,0-1.172-1.174A1.174,1.174,0,0,0-4934.134,982.719Zm-23.442,0v2.929a1.173,1.173,0,0,0,1.171,1.173,1.174,1.174,0,0,0,1.172-1.173v-2.929a1.174,1.174,0,0,0-1.172-1.174A1.173,1.173,0,0,0-4957.576,982.719Zm32.12,37.58-1.979-1.986-1.98,1.986a.7.7,0,0,1-.989,0,.7.7,0,0,1,0-.993l1.979-1.985-1.979-1.986a.7.7,0,0,1,0-.993.7.7,0,0,1,.989,0l1.98,1.986,1.979-1.986a.7.7,0,0,1,.989,0,.7.7,0,0,1,0,.993l-1.979,1.986,1.979,1.985a.7.7,0,0,1,0,.993.7.7,0,0,1-.495.206A.7.7,0,0,1-4925.457,1020.3Zm-14.293-9.254a1.172,1.172,0,0,1,1.171-1.173,1.174,1.174,0,0,1,1.173,1.173,1.174,1.174,0,0,1-1.173,1.172A1.172,1.172,0,0,1-4939.75,1011.044Zm-6.1,0a1.172,1.172,0,0,1,1.171-1.173,1.174,1.174,0,0,1,1.172,1.173,1.174,1.174,0,0,1-1.172,1.172A1.172,1.172,0,0,1-4945.854,1011.044Zm-6.107,0a1.175,1.175,0,0,1,1.174-1.173,1.173,1.173,0,0,1,1.171,1.173,1.173,1.173,0,0,1-1.171,1.172A1.175,1.175,0,0,1-4951.961,1011.044Zm-5.16,1.149a1.255,1.255,0,0,1-.22-.066,1.187,1.187,0,0,1-.2-.108,1.1,1.1,0,0,1-.179-.146,1.038,1.038,0,0,1-.146-.178,1.054,1.054,0,0,1-.109-.2,1.168,1.168,0,0,1-.065-.219,1.136,1.136,0,0,1-.025-.228,1.148,1.148,0,0,1,.025-.229,1.1,1.1,0,0,1,.065-.218,1.124,1.124,0,0,1,.109-.2,1.03,1.03,0,0,1,.146-.178,1.18,1.18,0,0,1,.829-.344,1.172,1.172,0,0,1,.827.344,1.084,1.084,0,0,1,.148.178,1.2,1.2,0,0,1,.106.2,1.079,1.079,0,0,1,.066.218,1.128,1.128,0,0,1,.025.229,1.107,1.107,0,0,1-.025.228,1.077,1.077,0,0,1-.066.219,1.333,1.333,0,0,1-.106.2,1.159,1.159,0,0,1-.148.178,1.172,1.172,0,0,1-.827.344A1.1,1.1,0,0,1-4957.122,1012.193Zm24.057-.137h0c-.02-.012-.04-.024-.059-.036a1.12,1.12,0,0,1-.177-.147,1.176,1.176,0,0,1-.345-.829,1.23,1.23,0,0,1,.025-.229,1.087,1.087,0,0,1,.066-.218,1.03,1.03,0,0,1,.107-.2,1.074,1.074,0,0,1,.147-.178.993.993,0,0,1,.177-.146,1.112,1.112,0,0,1,.2-.107,1.208,1.208,0,0,1,.219-.067,1.126,1.126,0,0,1,.225-.022,1.19,1.19,0,0,1,.833.343,1,1,0,0,1,.145.178,1.159,1.159,0,0,1,.108.2c.011.027.021.055.031.082a7.7,7.7,0,0,0-1.7,1.377Zm.362-4.747a1.135,1.135,0,0,1-.219-.066,1.2,1.2,0,0,1-.2-.108,1.088,1.088,0,0,1-.177-.146,1.176,1.176,0,0,1-.345-.829,1.206,1.206,0,0,1,.025-.228,1.008,1.008,0,0,1,.066-.219,1.067,1.067,0,0,1,.107-.2.969.969,0,0,1,.147-.177.947.947,0,0,1,.177-.147,1.089,1.089,0,0,1,.2-.107,1.156,1.156,0,0,1,.219-.067,1.147,1.147,0,0,1,.226-.022,1.18,1.18,0,0,1,.833.344.984.984,0,0,1,.145.177,1.109,1.109,0,0,1,.108.2,1.07,1.07,0,0,1,.067.219,1.145,1.145,0,0,1,.022.228,1.182,1.182,0,0,1-.343.829,1.176,1.176,0,0,1-.829.344A1.164,1.164,0,0,1-4932.7,1007.309Zm-7.047-1.149a1.171,1.171,0,0,1,1.171-1.171,1.173,1.173,0,0,1,1.173,1.171,1.174,1.174,0,0,1-1.173,1.172A1.172,1.172,0,0,1-4939.75,1006.16Zm-6.1,0a1.171,1.171,0,0,1,1.171-1.171,1.173,1.173,0,0,1,1.172,1.171,1.174,1.174,0,0,1-1.172,1.172A1.172,1.172,0,0,1-4945.854,1006.16Zm-6.107,0a1.174,1.174,0,0,1,1.174-1.171,1.172,1.172,0,0,1,1.171,1.171,1.173,1.173,0,0,1-1.171,1.172A1.175,1.175,0,0,1-4951.961,1006.16Zm-5.16,1.149a1.158,1.158,0,0,1-.22-.066,1.138,1.138,0,0,1-.2-.108.994.994,0,0,1-.179-.146,1.038,1.038,0,0,1-.146-.178,1.067,1.067,0,0,1-.109-.2,1.138,1.138,0,0,1-.065-.219,1.157,1.157,0,0,1-.025-.229,1.125,1.125,0,0,1,.025-.228,1.09,1.09,0,0,1,.065-.219,1.124,1.124,0,0,1,.109-.2,1.047,1.047,0,0,1,.146-.177,1.175,1.175,0,0,1,.829-.344,1.166,1.166,0,0,1,.827.344,1.085,1.085,0,0,1,.148.177,1.2,1.2,0,0,1,.106.2,1.066,1.066,0,0,1,.066.219,1.106,1.106,0,0,1,.025.228,1.128,1.128,0,0,1-.025.229,1.152,1.152,0,0,1-.066.219,1.381,1.381,0,0,1-.106.2,1.159,1.159,0,0,1-.148.178,1.172,1.172,0,0,1-.827.344A1.1,1.1,0,0,1-4957.122,1007.309Zm24.419-4.883a1.219,1.219,0,0,1-.219-.066,1.2,1.2,0,0,1-.2-.108,1.1,1.1,0,0,1-.177-.146,1.071,1.071,0,0,1-.147-.178,1.106,1.106,0,0,1-.107-.2,1.072,1.072,0,0,1-.066-.219,1.206,1.206,0,0,1-.025-.228,1.206,1.206,0,0,1,.025-.228,1.007,1.007,0,0,1,.066-.219,1.032,1.032,0,0,1,.107-.2,1.023,1.023,0,0,1,.147-.178.993.993,0,0,1,.177-.146,1.108,1.108,0,0,1,.2-.107,1.156,1.156,0,0,1,.219-.067,1.147,1.147,0,0,1,.226-.022,1.184,1.184,0,0,1,.833.343,1.042,1.042,0,0,1,.145.178,1.071,1.071,0,0,1,.108.2,1.047,1.047,0,0,1,.067.219,1.146,1.146,0,0,1,.022.228,1.184,1.184,0,0,1-.343.829,1.176,1.176,0,0,1-.829.344A1.106,1.106,0,0,1-4932.7,1002.425Zm-7.047-1.149a1.171,1.171,0,0,1,1.171-1.171,1.173,1.173,0,0,1,1.173,1.171,1.174,1.174,0,0,1-1.173,1.173A1.172,1.172,0,0,1-4939.75,1001.277Zm-6.1,0a1.171,1.171,0,0,1,1.171-1.171,1.173,1.173,0,0,1,1.172,1.171,1.174,1.174,0,0,1-1.172,1.173A1.172,1.172,0,0,1-4945.854,1001.277Zm-6.107,0a1.173,1.173,0,0,1,1.174-1.171,1.172,1.172,0,0,1,1.171,1.171,1.173,1.173,0,0,1-1.171,1.173A1.175,1.175,0,0,1-4951.961,1001.277Zm-5.16,1.149a1.26,1.26,0,0,1-.22-.066,1.138,1.138,0,0,1-.2-.108,1.039,1.039,0,0,1-.179-.146,1.176,1.176,0,0,1-.345-.829,1.126,1.126,0,0,1,.025-.228,1.09,1.09,0,0,1,.065-.219,1.125,1.125,0,0,1,.109-.2,1.089,1.089,0,0,1,.146-.178,1.179,1.179,0,0,1,.829-.343,1.17,1.17,0,0,1,.827.343,1.156,1.156,0,0,1,.148.178,1.337,1.337,0,0,1,.106.2,1.067,1.067,0,0,1,.066.219,1.107,1.107,0,0,1,.025.228,1.174,1.174,0,0,1-.345.829,1.171,1.171,0,0,1-.827.344A1.106,1.106,0,0,1-4957.122,1002.425Z"
        id="cancel_popup"
        transform="translate(4965 -979.983)" />
</svg>
