<svg height="14.849" viewBox="0 0 14.977 14.849" width="14.977" xmlns="http://www.w3.org/2000/svg">
    <g id="cancel" transform="translate(-2696.147 -4679.408)">
        <path
            d="M2360.407,7442.565a.743.743,0,0,1-.515-.205.761.761,0,0,1,.017-1.1l5.645-5.646-5.63-5.633a.749.749,0,0,1,.024-1.056.757.757,0,0,1,.521-.211.71.71,0,0,1,.5.194l5.648,5.648,5.629-5.631a.748.748,0,0,1,1.074,1.039l-5.648,5.65,5.663,5.663a.747.747,0,0,1,.024,1.056.723.723,0,0,1-.526.225.825.825,0,0,1-.569-.24l-5.648-5.648-5.665,5.663A.742.742,0,0,1,2360.407,7442.565Z"
            data-name="Subtraction 35" fill="#d9d9d9" id="Subtraction_35" stroke="rgba(0,0,0,0)"
            stroke-miterlimit="10" stroke-width="1" transform="translate(337.05 -2748.809)" />
    </g>
</svg>
