<svg height="17.578" viewBox="0 0 25.831 17.578" width="25.831" xmlns="http://www.w3.org/2000/svg">
    <g id="chat" transform="translate(0.15 -82.619)">
        <g data-name="Group 22282" id="Group_22282" transform="translate(0 82.769)">
            <path d="M19.643,90.488c0-4.663-4.915-7.719-9.822-7.719C4.9,82.769,0,85.84,0,90.488A6.791,6.791,0,0,0,2.169,95.33a.211.211,0,0,1,.053.207A11.265,11.265,0,0,1,.316,99.15a.555.555,0,0,0,.438.9H.768a9.09,9.09,0,0,0,6.007-2.113.214.214,0,0,1,.2-.054,12.345,12.345,0,0,0,2.845.329C14.747,98.206,19.643,95.137,19.643,90.488ZM7.149,97.15a.958.958,0,0,0-.9.249,8.375,8.375,0,0,1-5.1,1.881,11.653,11.653,0,0,0,1.791-3.546.959.959,0,0,0-.253-.939A5.971,5.971,0,0,1,.748,90.488c0-3.844,4.07-6.971,9.074-6.971S18.9,86.644,18.9,90.488s-4.07,6.971-9.074,6.971A11.6,11.6,0,0,1,7.149,97.15Z" data-name="Path 81338"
                fill="#ff8000"
                id="Path_81338" stroke="#ff8000" stroke-width="0.3"
                transform="translate(0 -82.769)" />
            <path d="M332.733,154.546a5.771,5.771,0,0,0,3.482-5.024c0-2.889-2.611-5.357-6.209-5.869a.374.374,0,0,0-.105.74c3.226.459,5.567,2.616,5.567,5.129a5.043,5.043,0,0,1-3.072,4.357.924.924,0,0,0-.487,1.016,7.788,7.788,0,0,0,.881,2.188,4.4,4.4,0,0,1-3.31-1.886.923.923,0,0,0-.8-.459h-.03a8.9,8.9,0,0,1-1.234-.086.374.374,0,0,0-.1.741,9.658,9.658,0,0,0,1.338.093h.031a.173.173,0,0,1,.15.085c1.013,1.755,3.341,2.2,4.3,2.315a.543.543,0,0,0,.52-.832,7.427,7.427,0,0,1-1.007-2.314A.176.176,0,0,1,332.733,154.546Z" data-name="Path 81339"
                fill="#ff8000"
                id="Path_81339" stroke="#ff8000" stroke-width="0.3"
                transform="translate(-310.685 -140.613)" />
            <path d="M55.561,210.733a1.3,1.3,0,1,0,1.3,1.3A1.3,1.3,0,0,0,55.561,210.733Zm0,1.844a.548.548,0,1,1,.548-.548A.549.549,0,0,1,55.561,212.577Z" data-name="Path 81340"
                fill="#ff8000"
                id="Path_81340" stroke="#ff8000" stroke-width="0.3"
                transform="translate(-51.559 -204.352)" />
            <path d="M129.714,210.733a1.3,1.3,0,1,0,1.3,1.3A1.3,1.3,0,0,0,129.714,210.733Zm0,1.844a.548.548,0,1,1,.548-.548A.549.549,0,0,1,129.714,212.577Z" data-name="Path 81341"
                fill="#ff8000"
                id="Path_81341" stroke="#ff8000" stroke-width="0.3"
                transform="translate(-122.014 -204.352)" />
            <path d="M203.866,210.733a1.3,1.3,0,1,0,1.3,1.3A1.3,1.3,0,0,0,203.866,210.733Zm0,1.844a.548.548,0,1,1,.548-.548A.549.549,0,0,1,203.866,212.577Z" data-name="Path 81342"
                fill="#ff8000"
                id="Path_81342" stroke="#ff8000" stroke-width="0.3"
                transform="translate(-192.469 -204.352)" />
            <path d="M278.02,210.733a1.3,1.3,0,1,0,1.3,1.3A1.3,1.3,0,0,0,278.02,210.733Zm0,1.844a.548.548,0,1,1,.548-.548A.549.549,0,0,1,278.02,212.577Z" data-name="Path 81343"
                fill="#ff8000"
                id="Path_81343" stroke="#ff8000" stroke-width="0.3"
                transform="translate(-262.925 -204.352)" />
        </g>
    </g>
</svg>
