<svg xmlns="http://www.w3.org/2000/svg" width="10.494" height="16.589" viewBox="0 0 10.494 16.589">
  <g id="child" transform="translate(-431.443 -1027.592)">
    <path id="Path_2463" data-name="Path 2463" d="M463.969,1078.79a1.127,1.127,0,0,0,1.22.031" transform="translate(-29.134 -46.097)" fill="none" stroke="#000" stroke-linecap="round" stroke-linejoin="round" stroke-width="0.6"/>
    <path id="Path_2464" data-name="Path 2464" d="M493.2,1078.79a1.127,1.127,0,0,1-1.22.031" transform="translate(-54.555 -46.097)" fill="none" stroke="#000" stroke-linecap="round" stroke-linejoin="round" stroke-width="0.6"/>
    <path id="Path_2465" data-name="Path 2465" d="M449.147,1046.458a2.571,2.571,0,0,0,4.905,0c.166.025.5.012.8-.815.24-.654.028-1.107-.413-1.055.242-2.638-1.3-3.241-2.843-3.241s-3.085.6-2.843,3.241c-.441-.052-.653.4-.413,1.055C448.648,1046.471,448.982,1046.484,449.147,1046.458Z" transform="translate(-14.862 -12.113)" fill="none" stroke="#000" stroke-linecap="round" stroke-linejoin="round" stroke-width="0.6"/>
    <path id="Path_2466" data-name="Path 2466" d="M433.829,1042.187c-1.169-.391-1.694-2.07-1.523-3.888a4.521,4.521,0,0,1,0-3.893c-.816-6.387,5.109-7.95,7.522-4.9,1.016.387,1.677,1.953,1.557,3.6a9.231,9.231,0,0,1,0,4.032C442.135,1044.339,435,1045,433.829,1042.187Z" fill="none" stroke="#000" stroke-linecap="round" stroke-linejoin="round" stroke-width="0.6"/>
    <path id="Path_2467" data-name="Path 2467" d="M445.677,1083.238c-.656,3.35-5.212,6.806-9.079,5.194" transform="translate(-4.292 -50.134)" fill="none" stroke="#000" stroke-linecap="round" stroke-linejoin="round" stroke-width="0.6"/>
    <path id="Path_2468" data-name="Path 2468" d="M460.639,1126.883a6.921,6.921,0,0,1-7.556,5.05" transform="translate(-19.254 -89.747)" fill="none" stroke="#000" stroke-linecap="round" stroke-linejoin="round" stroke-width="0.6"/>
    <path id="Path_2469" data-name="Path 2469" d="M438.578,1096.676a1.8,1.8,0,0,1-1.98.059" transform="translate(-4.292 -62.33)" fill="none" stroke="#000" stroke-linecap="round" stroke-linejoin="round" stroke-width="0.6"/>
    <path id="Path_2470" data-name="Path 2470" d="M514.177,1044.322a2.042,2.042,0,0,1-.39,1.286" transform="translate(-74.35 -14.813)" fill="none" stroke="#000" stroke-linecap="round" stroke-linejoin="round" stroke-width="0.6"/>
  </g>
</svg>
