<svg height="16.001" viewBox="0 0 14.77 16.001" width="14.77" xmlns="http://www.w3.org/2000/svg">
    <path
        d="M387.385,212.462a6.765,6.765,0,0,0-5.251,11.035l-.736,1.052a.923.923,0,0,0,1.513,1.059l.588-.839a6.746,6.746,0,0,0,7.774,0l.588.839a.923.923,0,1,0,1.513-1.059l-.736-1.052a6.765,6.765,0,0,0-5.251-11.035Zm-4.979,12.793a.308.308,0,1,1-.5-.353l.654-.933q.217.222.455.423Zm10.463-.353a.308.308,0,0,1-.5.353l-.6-.863q.237-.2.455-.423Zm-5.483.484a6.154,6.154,0,1,1,6.154-6.154A6.161,6.161,0,0,1,387.385,225.386Zm.592-6a.6.6,0,0,0,.023-.157.613.613,0,0,0-.308-.53v-4.086a.308.308,0,0,0-.615,0V218.7a.613.613,0,0,0,.308,1.145.6.6,0,0,0,.157-.023l2.395,2.395a.308.308,0,1,0,.435-.435Zm-7.036-4.857,4.134-2.894a.308.308,0,0,0,.076-.429,2.831,2.831,0,1,0-4.638,3.248.307.307,0,0,0,.428.075Zm-.291-2.084a2.218,2.218,0,0,1,2.178-1.832,2.257,2.257,0,0,1,.39.034,2.2,2.2,0,0,1,1.236.671l-3.6,2.517A2.194,2.194,0,0,1,380.65,212.448Zm14.076-.107a2.831,2.831,0,0,0-5.108-1.132.308.308,0,0,0,.076.429l4.134,2.895a.307.307,0,0,0,.428-.075A2.814,2.814,0,0,0,394.726,212.341Zm-.814,1.5-3.6-2.518a2.216,2.216,0,0,1,3.6,2.518Z"
        fill="#1a1a1a" id="clock" transform="translate(-380 -210)" />
</svg>
