<svg xmlns="http://www.w3.org/2000/svg" width="27.575" height="27.575" viewBox="0 0 27.575 27.575">
  <g id="sending" transform="translate(13.782 0.289) rotate(45)">
    <path id="Path_199715" data-name="Path 199715" d="M15.435,10.55a.308.308,0,0,0,.391-.19l3.219-9.32a.783.783,0,0,0-1-1L.449,6.124A.668.668,0,0,0,.375,7.354l7.644,3.716,3.716,7.644a.667.667,0,0,0,1.231-.074l2.86-8.281a.308.308,0,0,0-.582-.2l-2.86,8.281a.051.051,0,0,1-.1.006L8.621,10.9l4.862-4.862,4.863-4.862-3.1,8.981a.308.308,0,0,0,.19.391ZM.65,6.705,17.911.743,8.186,10.468.644,6.8a.051.051,0,0,1,.006-.1Zm0,0" fill="#c8d921" stroke="#c8d921" stroke-width="0.4"/>
  </g>
</svg>
