<svg height="17.999" viewBox="0 0 17.999 17.999" width="17.999" xmlns="http://www.w3.org/2000/svg">
    <g id="corona" transform="translate(-1.999 -1.999)">
        <path
            d="M11,20a1.2,1.2,0,0,1-.727-2.156l-.09-1.505a5.258,5.258,0,0,1-1.147-.309l-.83,1.26a1.2,1.2,0,1,1-1.257-.726l.676-1.348a5.373,5.373,0,0,1-.842-.842l-1.347.676a1.2,1.2,0,1,1-.726-1.257l1.26-.83a5.258,5.258,0,0,1-.31-1.147l-1.505-.09a1.2,1.2,0,1,1,0-1.454l1.505-.09a5.258,5.258,0,0,1,.309-1.147L4.708,8.2a1.2,1.2,0,1,1,.727-1.254l1.348.676a5.373,5.373,0,0,1,.842-.842L6.949,5.435a1.2,1.2,0,1,1,1.257-.726l.83,1.26a5.229,5.229,0,0,1,1.147-.31l.09-1.505a1.2,1.2,0,1,1,1.454,0l.09,1.505a5.229,5.229,0,0,1,1.147.309l.83-1.26a1.2,1.2,0,1,1,1.257.726l-.676,1.348a5.373,5.373,0,0,1,.842.842l1.346-.675a1.2,1.2,0,1,1,.726,1.257l-1.26.83a5.258,5.258,0,0,1,.31,1.147l1.505.09a1.2,1.2,0,1,1,0,1.454l-1.505.09a5.258,5.258,0,0,1-.309,1.147l1.26.83a1.2,1.2,0,1,1-.726,1.257l-1.348-.676a5.373,5.373,0,0,1-.842.842l.675,1.346a1.2,1.2,0,1,1-1.257.726l-.83-1.26a5.258,5.258,0,0,1-1.147.31l-.09,1.505A1.2,1.2,0,0,1,11,20ZM8.923,15.355a.3.3,0,0,1,.124.027,4.663,4.663,0,0,0,1.452.392.3.3,0,0,1,.268.28l.114,1.929a.3.3,0,0,1-.161.284.6.6,0,1,0,.557,0,.3.3,0,0,1-.161-.284l.114-1.929a.3.3,0,0,1,.268-.28,4.663,4.663,0,0,0,1.452-.392.3.3,0,0,1,.375.108l1.065,1.617a.3.3,0,0,1,0,.328.592.592,0,0,0-.012.62.6.6,0,1,0,.494-.9.3.3,0,0,1-.282-.165l-.867-1.728a.3.3,0,0,1,.092-.377,4.767,4.767,0,0,0,1.067-1.067.3.3,0,0,1,.377-.092l1.728.867a.3.3,0,0,1,.165.282.6.6,0,1,0,.9-.5.592.592,0,0,0-.619.013.3.3,0,0,1-.328,0L15.49,13.327a.3.3,0,0,1-.108-.375,4.65,4.65,0,0,0,.392-1.451.3.3,0,0,1,.281-.268l1.929-.114a.3.3,0,0,1,.284.161.6.6,0,1,0,0-.557.3.3,0,0,1-.284.161l-1.929-.114a.3.3,0,0,1-.281-.268,4.65,4.65,0,0,0-.392-1.451.3.3,0,0,1,.108-.375l1.617-1.065a.3.3,0,0,1,.328,0,.593.593,0,0,0,.62.013.6.6,0,1,0-.9-.495.3.3,0,0,1-.165.282l-1.728.867a.3.3,0,0,1-.377-.092,4.767,4.767,0,0,0-1.067-1.067.3.3,0,0,1-.092-.377l.867-1.728a.3.3,0,0,1,.282-.165.6.6,0,1,0-.5-.9.592.592,0,0,0,.013.619.3.3,0,0,1,0,.328L13.326,6.508a.3.3,0,0,1-.375.108A4.65,4.65,0,0,0,11.5,6.224a.3.3,0,0,1-.268-.28l-.114-1.929a.3.3,0,0,1,.161-.284.6.6,0,1,0-.557,0,.3.3,0,0,1,.161.284l-.114,1.929a.3.3,0,0,1-.268.28,4.65,4.65,0,0,0-1.451.392.3.3,0,0,1-.375-.108L7.609,4.891a.3.3,0,0,1,0-.328.592.592,0,0,0,.012-.62.6.6,0,1,0-.494.9.3.3,0,0,1,.282.165l.867,1.728a.3.3,0,0,1-.092.377A4.767,4.767,0,0,0,7.117,8.181a.3.3,0,0,1-.377.092L5.012,7.406a.3.3,0,0,1-.165-.282.6.6,0,1,0-.9.5.593.593,0,0,0,.619-.013.3.3,0,0,1,.328,0L6.508,8.671a.3.3,0,0,1,.108.375A4.65,4.65,0,0,0,6.224,10.5a.3.3,0,0,1-.281.268l-1.929.114a.3.3,0,0,1-.284-.161.6.6,0,1,0,0,.557.3.3,0,0,1,.284-.161l1.929.114a.3.3,0,0,1,.281.268,4.65,4.65,0,0,0,.392,1.451.3.3,0,0,1-.108.375L4.891,14.389a.3.3,0,0,1-.328,0,.592.592,0,0,0-.62-.013.6.6,0,1,0,.9.495.3.3,0,0,1,.165-.282l1.728-.867a.3.3,0,0,1,.377.092,4.767,4.767,0,0,0,1.067,1.067.3.3,0,0,1,.092.377l-.867,1.728a.3.3,0,0,1-.282.165.6.6,0,1,0,.495.9.592.592,0,0,0-.013-.619.3.3,0,0,1,0-.328l1.065-1.617A.3.3,0,0,1,8.923,15.355Z"
            data-name="Path 202287" id="Path_202287" transform="translate(0 0)" />
        <path
            d="M29.2,21.4a1.2,1.2,0,1,1,1.2-1.2A1.2,1.2,0,0,1,29.2,21.4Zm0-1.8a.6.6,0,1,0,.6.6A.6.6,0,0,0,29.2,19.6Z"
            data-name="Path 202288" id="Path_202288" transform="translate(-18.201 -11.901)" />
        <path
            d="M24.2,35.4a1.2,1.2,0,1,1,1.2-1.2A1.2,1.2,0,0,1,24.2,35.4Zm0-1.8a.6.6,0,1,0,.6.6A.6.6,0,0,0,24.2,33.6Z"
            data-name="Path 202289" id="Path_202289" transform="translate(-14.701 -21.701)" />
        <path
            d="M36.5,30A1.5,1.5,0,1,1,38,28.5,1.5,1.5,0,0,1,36.5,30Zm0-2.4a.9.9,0,1,0,.9.9A.9.9,0,0,0,36.5,27.6Z"
            data-name="Path 202290" id="Path_202290" transform="translate(-23.101 -17.501)" />
        <path
            d="M20.9,27.8a.9.9,0,1,1,.9-.9A.9.9,0,0,1,20.9,27.8Zm0-1.2a.3.3,0,1,0,.3.3A.3.3,0,0,0,20.9,26.6Z"
            data-name="Path 202291" id="Path_202291" transform="translate(-12.601 -16.801)" />
        <path
            d="M33.9,39.8a.9.9,0,1,1,.9-.9A.9.9,0,0,1,33.9,39.8Zm0-1.2a.3.3,0,1,0,.3.3A.3.3,0,0,0,33.9,38.6Z"
            data-name="Path 202292" id="Path_202292" transform="translate(-21.701 -25.201)" />
    </g>
</svg>
