<svg height="15.218" viewBox="0 0 14.733 15.218" width="14.733" xmlns="http://www.w3.org/2000/svg">
    <g id="cost" transform="translate(-2430.871 -4689)">
        <path
            d="M2433.617,4694.408a.6.6,0,0,1-.435-.169l-.328-.328a.6.6,0,0,1-.169-.433,1.137,1.137,0,0,1,.357-.765l.257-.258.354.354-.258.257a.646.646,0,0,0-.21.412.122.122,0,0,0,.023.08l.328.328a.131.131,0,0,0,.081.022h0a.632.632,0,0,0,.409-.209l.258-.26a.545.545,0,0,0,.2-.5l-.247-.78a1.018,1.018,0,0,1,.379-1.014,1.163,1.163,0,0,1,.552-.31.649.649,0,0,1,.62.144l.328.328a.588.588,0,0,1,.17.435,1.128,1.128,0,0,1-.358.764l-.257.258-.354-.354.258-.259a.635.635,0,0,0,.211-.41.125.125,0,0,0-.023-.081l-.329-.328a.188.188,0,0,0-.154-.01.735.735,0,0,0-.336.2.534.534,0,0,0-.222.521l.248.785a1.045,1.045,0,0,1-.346.983l-.243.245a1.129,1.129,0,0,1-.762.356Z"
            data-name="Path 202314" id="Path_202314" />
        <rect data-name="Rectangle 9916" height="0.5" id="Rectangle_9916"
            transform="translate(2435.599 4691.14) rotate(-45)" width="1.095" />
        <rect data-name="Rectangle 9917" height="0.5" id="Rectangle_9917"
            transform="translate(2432.244 4694.498) rotate(-45)" width="1.096" />
        <path
            d="M2433.052,4696.226a2.175,2.175,0,0,1-1.581-.6,2.443,2.443,0,0,1-.513-2.339,5.6,5.6,0,0,1,1.544-2.66h0c1.664-1.664,3.905-2.129,5-1.036s.631,3.336-1.031,5a5.605,5.605,0,0,1-2.659,1.547A3.572,3.572,0,0,1,2433.052,4696.226Zm-.2-5.246a5.091,5.091,0,0,0-1.41,2.416,1.729,1.729,0,0,0,2.256,2.253,5.09,5.09,0,0,0,2.414-1.412c1.467-1.468,1.93-3.394,1.032-4.293s-2.824-.431-4.292,1.036Z"
            data-name="Path 202315" id="Path_202315" />
        <path
            d="M2434.083,4697.259a2.171,2.171,0,0,1-1.581-.6l-1.032-1.032.354-.354,1.032,1.033a1.966,1.966,0,0,0,1.878.378,5.524,5.524,0,0,0,3.823-3.829,1.966,1.966,0,0,0-.379-1.877l-1.032-1.033.354-.353,1.032,1.032a2.445,2.445,0,0,1,.513,2.34,6.019,6.019,0,0,1-4.2,4.208A3.542,3.542,0,0,1,2434.083,4697.259Z"
            data-name="Path 202316" id="Path_202316" />
        <path
            d="M2443.19,4699.387a.943.943,0,0,1-.75-.5l-.169-.279.428-.259.168.277c.136.223.31.276.344.256l.352-.214a.449.449,0,0,0-.068-.425c-.132-.218-.256-.288-.347-.286l-.758.048a.954.954,0,0,1-.8-.52l-.158-.258a.8.8,0,0,1,.1-1.113l.351-.214a.8.8,0,0,1,1.032.424l.168.278-.428.259-.168-.277c-.133-.219-.309-.285-.344-.256l-.352.214c-.035.021-.065.205.068.426l.168.275a.466.466,0,0,0,.371.264l.719-.048a.924.924,0,0,1,.807.526.8.8,0,0,1-.1,1.111l-.352.214A.543.543,0,0,1,2443.19,4699.387Z"
            data-name="Path 202317" id="Path_202317" />
        <rect data-name="Rectangle 9918" height="0.971" id="Rectangle_9918"
            transform="matrix(0.855, -0.519, 0.519, 0.855, 2443.302, 4699.122)" width="0.5" />
        <rect data-name="Rectangle 9919" height="0.971" id="Rectangle_9919"
            transform="matrix(0.855, -0.519, 0.519, 0.855, 2441.117, 4695.524)" width="0.5" />
        <path
            d="M2443.7,4701.124a2.737,2.737,0,0,1-1.2-.307,5,5,0,0,1-1.978-1.9h0c-1.091-1.8-1.013-3.844.173-4.564s3.039.157,4.13,1.952a5,5,0,0,1,.776,2.632,2.2,2.2,0,0,1-.949,1.932A1.814,1.814,0,0,1,2443.7,4701.124Zm-2.044-6.534a1.332,1.332,0,0,0-.7.187c-.951.577-.953,2.318-.005,3.877h0a4.482,4.482,0,0,0,1.771,1.714,1.509,1.509,0,0,0,2.38-1.444,4.482,4.482,0,0,0-.7-2.362A3.664,3.664,0,0,0,2441.658,4694.59Z"
            data-name="Path 202318" id="Path_202318" />
        <path
            d="M2442.594,4701.8a2.723,2.723,0,0,1-1.2-.307,5,5,0,0,1-1.978-1.9c-1.108-1.827-1.032-3.832.173-4.566l1.107-.671.26.427-1.107.672c-.95.577-.953,2.318-.005,3.878a4.484,4.484,0,0,0,1.771,1.714,1.72,1.72,0,0,0,1.67.069l1.107-.672.26.428-1.107.672A1.812,1.812,0,0,1,2442.594,4701.8Z"
            data-name="Path 202319" id="Path_202319" />
        <path
            d="M2434.115,4701.732a.817.817,0,0,1-.346-.072.536.536,0,0,1-.285-.305l-.127-.355a.761.761,0,0,1,.584-.877l.282-.1.167.471-.281.1c-.214.077-.287.217-.279.242l.126.352c.012.026.154.084.367,0l.281-.1a.4.4,0,0,0,.294-.273l.091-.654c.023-.164.137-.466.638-.645a.975.975,0,0,1,.725.009.531.531,0,0,1,.282.3l.128.358c.119.338-.132.714-.584.876l-.28.1-.169-.471.28-.1c.217-.077.29-.215.282-.238l-.127-.357a.417.417,0,0,0-.368,0c-.215.077-.3.177-.312.244l-.1.693a.9.9,0,0,1-.632.64l-.26.1A1.117,1.117,0,0,1,2434.115,4701.732Z"
            data-name="Path 202320" id="Path_202320" />
        <rect data-name="Rectangle 9920" height="0.5" id="Rectangle_9920"
            transform="translate(2436.375 4699.854) rotate(-19.744)" width="0.893" />
        <rect data-name="Rectangle 9921" height="0.5" id="Rectangle_9921"
            transform="translate(2432.731 4701.156) rotate(-19.639)" width="0.893" />
        <path
            d="M2434.179,4703.086a2.421,2.421,0,0,1-2.44-1.311c-.433-1.212.7-2.73,2.534-3.383h0a4.581,4.581,0,0,1,2.525-.213,1.858,1.858,0,0,1,1.134,3.173,4.608,4.608,0,0,1-2.089,1.435A4.976,4.976,0,0,1,2434.179,4703.086Zm1.773-4.5a4.547,4.547,0,0,0-1.511.275h0c-1.57.562-2.572,1.793-2.232,2.745.335.937,1.923,1.26,3.466.709a4.109,4.109,0,0,0,1.863-1.272,1.367,1.367,0,0,0-.85-2.378A3.3,3.3,0,0,0,2435.952,4698.587Z"
            data-name="Path 202321" id="Path_202321" />
        <path
            d="M2434.55,4704.218a2.379,2.379,0,0,1-2.411-1.321l-.4-1.122.47-.168.4,1.122c.341.951,1.9,1.27,3.467.71a4.1,4.1,0,0,0,1.862-1.272,1.566,1.566,0,0,0,.37-1.474l-.4-1.122.47-.168.4,1.122a2.039,2.039,0,0,1-.445,1.949,4.608,4.608,0,0,1-2.089,1.436A5.077,5.077,0,0,1,2434.55,4704.218Z"
            data-name="Path 202322" id="Path_202322" />
    </g>
</svg>
