<svg xmlns="http://www.w3.org/2000/svg" width="19.087" height="27.571" viewBox="0 0 19.087 27.571">
  <path id="current_location" d="M395.013,149.859a.53.53,0,1,0,1.06,0c0-2.4,1.8-4.624,3.716-6.98,2.083-2.567,4.237-5.222,4.237-8.4a8.483,8.483,0,1,0-16.967,0c0,3.174,2.154,5.829,4.237,8.4C393.209,145.235,395.013,147.46,395.013,149.859Zm.53-22.8a7.431,7.431,0,0,1,7.423,7.423c0,2.8-2.033,5.3-4,7.728a21.617,21.617,0,0,0-3.422,5.115,21.615,21.615,0,0,0-3.422-5.115c-1.967-2.424-4-4.93-4-7.728A7.431,7.431,0,0,1,395.544,127.06Zm0,10.6a3.181,3.181,0,1,0-3.181-3.181A3.184,3.184,0,0,0,395.544,137.665Zm0-5.3a2.121,2.121,0,1,1-2.121,2.121A2.123,2.123,0,0,1,395.544,132.362Zm9.488,20.441-3.181-6.363a.53.53,0,0,0-.474-.293h-2.483a.53.53,0,0,0,0,1.06h2.156l2.651,5.3H387.388l2.651-5.3h2.156a.53.53,0,0,0,0-1.06h-2.484a.53.53,0,0,0-.474.293l-3.181,6.363a.53.53,0,0,0,.474.767h18.027a.53.53,0,0,0,.474-.767Z" transform="translate(-386 -126)" fill="#fff"/>
</svg>
