<svg xmlns="http://www.w3.org/2000/svg" width="14.044" height="18.59" viewBox="0 0 14.044 18.59">
  <g id="delete_2_" data-name="delete (2)" transform="translate(0 0)">
    <path id="Path_201308" data-name="Path 201308" d="M33.436,145a.275.275,0,0,0-.275.275v10.576a1.927,1.927,0,0,1-1.925,1.925H23.682a1.927,1.927,0,0,1-1.925-1.925V145.275a.275.275,0,0,0-.55,0v10.576a2.478,2.478,0,0,0,2.475,2.475h7.553a2.478,2.478,0,0,0,2.475-2.475V145.275a.275.275,0,0,0-.275-.275Zm0,0" transform="translate(-20.437 -139.735)"/>
    <path id="Path_201309" data-name="Path 201309" d="M13.035,1.467H9.759L9.3.557A1,1,0,0,0,8.4,0H5.642a1,1,0,0,0-.9.557l-.455.909H1.009A1.009,1.009,0,0,0,0,2.475V3.5A1.01,1.01,0,0,0,1.009,4.51H13.036A1.01,1.01,0,0,0,14.044,3.5V2.475a1.01,1.01,0,0,0-1.008-1.008ZM5.232.8A.456.456,0,0,1,5.642.55H8.4A.456.456,0,0,1,8.812.8l.332.663H4.9Zm8.262,2.7a.459.459,0,0,1-.458.458H1.009A.459.459,0,0,1,.55,3.5V2.475a.459.459,0,0,1,.458-.458H13.036a.459.459,0,0,1,.458.458Zm0,0" transform="translate(0)"/>
    <path id="Path_201310" data-name="Path 201310" d="M260.54,212.869v-6.857a1.008,1.008,0,0,0-2.017,0v6.857a1.008,1.008,0,0,0,2.017,0Zm-1.467,0v-6.857a.458.458,0,1,1,.917,0v6.857a.458.458,0,0,1-.917,0Zm0,0" transform="translate(-249.136 -197.56)"/>
    <path id="Path_201311" data-name="Path 201311" d="M74.728,212.869v-6.857a1.008,1.008,0,0,0-2.017,0v6.857a1.008,1.008,0,0,0,2.017,0Zm-1.467,0v-6.857a.458.458,0,1,1,.917,0v6.857a.458.458,0,0,1-.917,0Zm0,0" transform="translate(-70.071 -197.56)"/>
    <path id="Path_201312" data-name="Path 201312" d="M167.634,212.869v-6.857a1.008,1.008,0,0,0-2.017,0v6.857a1.008,1.008,0,0,0,2.017,0Zm-1.467,0v-6.857a.458.458,0,1,1,.917,0v6.857a.458.458,0,0,1-.917,0Zm0,0" transform="translate(-159.603 -197.56)"/>
  </g>
</svg>
