<svg height="15.426" viewBox="0 0 14.434 15.426" width="14.434" xmlns="http://www.w3.org/2000/svg">
    <g id="edit_button" transform="matrix(0.995, 0.105, -0.105, 0.995, -38.103, -4.438)">
        <g data-name="Group 53858" id="Group_53858" transform="translate(40.043 3.817)">
            <g data-name="Group 53857" id="Group_53857" transform="translate(0)">
                <path
                    d="M46.752,131.351a.219.219,0,0,0-.308.033l-6.011,7.445,0,0,0,.006-.011.016,0,.007a.217.217,0,0,0-.011.023v0a.223.223,0,0,0-.008.023l0,.008c0,.007,0,.014,0,.02v0l-.34,3.019a.367.367,0,0,0,.482.389l2.88-.969,0,0,.019-.008.007,0,.021-.012h0l.021-.016.006-.005.014-.014.005-.006,0,0,1.1-1.366a.219.219,0,0,0-.341-.275l-.966,1.2-1.2-.966-1.2-.967,5.874-7.275A.219.219,0,0,0,46.752,131.351Zm-4.919,8.89,1.057.853-2.4.806.283-2.513Z"
                    data-name="Path 199615" id="Path_199615" stroke="#000" stroke-width="0.3"
                    transform="translate(-40.043 -131.302)" />
            </g>
        </g>
        <g data-name="Group 53860" id="Group_53860" transform="translate(45.097 0)">
            <g data-name="Group 53859" id="Group_53859" transform="translate(0 0)">
                <path
                    d="M221.065,1.59l-1.732-1.4a.864.864,0,0,0-1.214.129l-1.285,1.592-1.721,2.126a.219.219,0,1,0,.341.275l1.584-1.956,1.2.966,1.2.966-6.538,8.1a.219.219,0,1,0,.341.275L219.91,4.4,221.195,2.8A.864.864,0,0,0,221.065,1.59Zm-.211.939L219.706,3.95l-1.2-.966-1.2-.966L218.46.6a.426.426,0,0,1,.6-.064l1.732,1.4A.426.426,0,0,1,220.854,2.529Z"
                    data-name="Path 199616" id="Path_199616" stroke="#000" stroke-width="0.3"
                    transform="translate(-213.883 0)" />
            </g>
        </g>
    </g>
</svg>
