<svg height="18.54" viewBox="0 0 17.114 18.54" width="17.114" xmlns="http://www.w3.org/2000/svg">
    <path d="M229.114,138.886a.356.356,0,0,0-.357-.357c-.586,0-1.284-.256-1.284-1.477,0-6.824-1.157-11.053-6.917-11.053s-6.917,4.229-6.917,11.053c0,1.221-.7,1.477-1.284,1.477a.356.356,0,0,0-.357.357,2.742,2.742,0,0,0,1.382,2.3,7.012,7.012,0,0,0-.669,3,.357.357,0,0,0,.713,0,6.309,6.309,0,0,1,.6-2.7,3.874,3.874,0,0,0,1.256.2,4.029,4.029,0,0,0,2.606-.979l2.387,2.984a.357.357,0,0,0,.557,0l2.386-2.982a4.041,4.041,0,0,0,2.608.977,3.874,3.874,0,0,0,1.256-.2,6.309,6.309,0,0,1,.6,2.7.357.357,0,0,0,.713,0,7.012,7.012,0,0,0-.669-3A2.742,2.742,0,0,0,229.114,138.886Zm-8.557,4.013-2.172-2.715a2.824,2.824,0,0,0,.508-1.045,3.567,3.567,0,0,0,3.324,0,2.793,2.793,0,0,0,.51,1.052Zm-.009-4.064a3.03,3.03,0,0,1-1.69-.533.169.169,0,0,0-.015-.011,4.523,4.523,0,0,1-1.851-3.734.357.357,0,0,0-.357-.357c-.422,0-.535-.56-.535-.891,0-.42.115-.535.535-.535a7,7,0,0,0,5.374-2.186,2.693,2.693,0,0,0,2.469,2.186c.42,0,.535.115.535.535,0,.331-.113.891-.535.891a.357.357,0,0,0-.357.357C224.122,136.876,222.485,138.835,220.548,138.835Zm2.32-.109a5.252,5.252,0,0,0,1.959-3.866,1.512,1.512,0,0,0,.9-1.551,1.116,1.116,0,0,0-1.248-1.248c-1.271,0-1.956-1.47-1.956-2.852a.357.357,0,1,0-.713,0c0,1.292-2.308,2.852-5.174,2.852a1.116,1.116,0,0,0-1.248,1.248,1.49,1.49,0,0,0,.9,1.553,5.259,5.259,0,0,0,1.957,3.869,2.908,2.908,0,0,1-2.958,2.243,2.417,2.417,0,0,1-2.54-1.764,1.941,1.941,0,0,0,1.608-2.158c0-7.634,1.623-10.34,6.2-10.34s6.2,2.706,6.2,10.34a1.941,1.941,0,0,0,1.608,2.158,2.417,2.417,0,0,1-2.54,1.764A2.9,2.9,0,0,1,222.868,138.726Z"
        fill="#1a1a1a"
        id="female" transform="translate(-212 -126)" />
</svg>
