<svg height="18.408" viewBox="0 0 15.462 18.408" width="15.462" xmlns="http://www.w3.org/2000/svg">
    <g id="rating" transform="translate(-0.521 2.053)">
        <path d="M-772.652,2735.133a1.077,1.077,0,0,1-.5-.124l-.157-.083a7.3,7.3,0,0,1,.059-.751.91.91,0,0,0-.017-.354l.58.3a.067.067,0,0,0,.033.01.068.068,0,0,0,.04-.015.064.064,0,0,0,.028-.068l-.2-1.156a1.064,1.064,0,0,1,.307-.944l.84-.818a.066.066,0,0,0,.017-.072.062.062,0,0,0-.056-.048l-1.161-.168a1.068,1.068,0,0,1-.8-.584l-.519-1.051a.062.062,0,0,0-.062-.039.065.065,0,0,0-.063.038l-.519,1.052a1.069,1.069,0,0,1-.8.583l-1.16.168a.064.064,0,0,0-.057.048.062.062,0,0,0,.018.071l.84.819a1.066,1.066,0,0,1,.307.944l-.2,1.156a.062.062,0,0,0,.027.068.069.069,0,0,0,.04.015.07.07,0,0,0,.032-.009l.492-.259v1.126l-.027.014a1.068,1.068,0,0,1-.5.124,1.061,1.061,0,0,1-.626-.2,1.06,1.06,0,0,1-.424-1.043l.2-1.156a.071.071,0,0,0-.02-.062l-.84-.818a1.062,1.062,0,0,1-.27-1.094,1.06,1.06,0,0,1,.86-.726l1.161-.168a.071.071,0,0,0,.052-.038l.519-1.052a1.061,1.061,0,0,1,.957-.595,1.06,1.06,0,0,1,.956.595l.519,1.052a.07.07,0,0,0,.053.038l1.16.168a1.062,1.062,0,0,1,.861.726,1.063,1.063,0,0,1-.27,1.094l-.84.818a.07.07,0,0,0-.021.062l.2,1.156a1.061,1.061,0,0,1-.425,1.043A1.055,1.055,0,0,1-772.652,2735.133Z" data-name="Subtraction 37"
            fill="#ffc107"
            id="Subtraction_37" stroke="#fff" stroke-width="0.4"
            transform="translate(782.478 -2730.03)" />
        <path d="M2114.981,1037.621a.31.31,0,0,1-.31-.31v-.573a1.737,1.737,0,0,1,.232-.8c.168-.321.461-.908.9-1.884a1.093,1.093,0,0,0,.1-.458v-3.564a.519.519,0,0,0-1.031,0,.31.31,0,0,1-.619,0v-.31a.519.519,0,0,0-1.033,0,.31.31,0,0,1-.619,0v-.31a.519.519,0,0,0-1.031,0v.065a.31.31,0,0,1-.62,0v-4.4c0-.252-.283-.464-.619-.464s-.619.213-.619.464v7.893a.31.31,0,0,1-.536.213l-1.331-1.424a1,1,0,0,0-1.135-.254.163.163,0,0,0-.089.117.2.2,0,0,0,.037.165l3.261,3.981a1.858,1.858,0,0,1,.413,1.174v.364a.31.31,0,0,1-.619,0v-.364a1.237,1.237,0,0,0-.273-.782l-3.26-3.981a.82.82,0,0,1-.162-.691.782.782,0,0,1,.449-.552,1.611,1.611,0,0,1,1.832.4l.8.851v-7.11a1.249,1.249,0,0,1,2.476,0v3.369a1.172,1.172,0,0,1,.516-.119,1.147,1.147,0,0,1,.973.525,1.165,1.165,0,0,1,.679-.216,1.147,1.147,0,0,1,.973.526,1.165,1.165,0,0,1,.678-.215,1.112,1.112,0,0,1,1.135,1.084v3.564a1.709,1.709,0,0,1-.157.715c-.449.988-.748,1.586-.919,1.914a1.177,1.177,0,0,0-.162.508v.573A.31.31,0,0,1,2114.981,1037.621Z" data-name="Path 3358"
            fill="#ffc107"
            id="Path_3358" transform="translate(-2102.087 -1021.267)" />
        <path d="M55.95,40.924l-.131-.762a.046.046,0,0,1,.013-.041l.554-.54a.7.7,0,0,0-.39-1.2l-.765-.111a.046.046,0,0,1-.035-.025l-.342-.693a.7.7,0,0,0-1.261,0l-.342.693a.046.046,0,0,1-.035.025l-.765.111a.7.7,0,0,0-.39,1.2l.554.54a.046.046,0,0,1,.013.041l-.131.762a.7.7,0,0,0,1.02.741l.684-.36a.046.046,0,0,1,.043,0l.684.36a.7.7,0,0,0,1.02-.741Zm-.576-1.273a.7.7,0,0,0-.2.622l.131.762a.046.046,0,0,1-.067.048l-.684-.36a.7.7,0,0,0-.654,0l-.684.36a.046.046,0,0,1-.067-.048l.131-.762a.7.7,0,0,0-.2-.622l-.554-.54a.046.046,0,0,1,.025-.078l.765-.111a.7.7,0,0,0,.529-.385l.342-.693a.046.046,0,0,1,.082,0l.342.693a.7.7,0,0,0,.529.385l.765.111a.046.046,0,0,1,.025.078Z" data-name="Path 202334"
            fill="#ffc107"
            id="Path_202334" stroke="#fff" stroke-width="0.1"
            transform="translate(-40.671 -35.984)" />
        <path d="M55.95,40.924l-.131-.762a.046.046,0,0,1,.013-.041l.554-.54a.7.7,0,0,0-.39-1.2l-.765-.111a.046.046,0,0,1-.035-.025l-.342-.693a.7.7,0,0,0-1.261,0l-.342.693a.046.046,0,0,1-.035.025l-.765.111a.7.7,0,0,0-.39,1.2l.554.54a.046.046,0,0,1,.013.041l-.131.762a.7.7,0,0,0,1.02.741l.684-.36a.046.046,0,0,1,.043,0l.684.36a.7.7,0,0,0,1.02-.741Zm-.576-1.273a.7.7,0,0,0-.2.622l.131.762a.046.046,0,0,1-.067.048l-.684-.36a.7.7,0,0,0-.654,0l-.684.36a.046.046,0,0,1-.067-.048l.131-.762a.7.7,0,0,0-.2-.622l-.554-.54a.046.046,0,0,1,.025-.078l.765-.111a.7.7,0,0,0,.529-.385l.342-.693a.046.046,0,0,1,.082,0l.342.693a.7.7,0,0,0,.529.385l.765.111a.046.046,0,0,1,.025.078Z" data-name="Path 202335"
            fill="#ffc107"
            id="Path_202335" stroke="#fff" stroke-width="0.1"
            transform="translate(-51.271 -35.984)" />
    </g>
</svg>
