<svg height="23.459" viewBox="0 0 14.211 23.459" width="14.211" xmlns="http://www.w3.org/2000/svg">
    <g id="gps" transform="translate(-964.844 -290.069)">
        <path d="M971.506,310.05a.445.445,0,0,0,.888.051.392.392,0,0,0,0-.051c0-2.008,1.512-3.873,3.113-5.847,1.744-2.152,3.549-4.374,3.549-7.029a7.106,7.106,0,0,0-14.211,0c0,2.658,1.8,4.877,3.549,7.029C969.994,306.176,971.506,308.039,971.506,310.05Zm.445-19.1a6.224,6.224,0,0,1,6.217,6.217c0,2.343-1.7,4.447-3.351,6.472a18.1,18.1,0,0,0-2.869,4.285,18.093,18.093,0,0,0-2.869-4.285c-1.648-2.03-3.351-4.13-3.351-6.472a6.224,6.224,0,0,1,6.223-6.218Zm0,8.882a2.665,2.665,0,1,0-2.665-2.665,2.665,2.665,0,0,0,2.665,2.665Zm0-4.447a1.776,1.776,0,1,1-1.776,1.776,1.776,1.776,0,0,1,1.776-1.776Z" data-name="Path 2634"
            fill="#1a1a1a"
            id="Path_2634" transform="translate(0 0)" />
        <path d="M974.383,484.5c-3.86,0-6.883-1.531-6.883-3.486,0-1.369,1.488-2.576,3.883-3.149,0,0,.481-.145.573.259s-.385.523-.385.523c-1.984.474-3.266,1.4-3.266,2.366,0,1.3,2.443,2.682,6.079,2.682s6.079-1.387,6.079-2.682c0-.974-1.362-1.937-3.39-2.4a.434.434,0,0,1-.333-.492c.078-.384.511-.293.511-.293,2.478.56,4.018,1.778,4.018,3.18C981.266,482.969,978.243,484.5,974.383,484.5Z" data-name="Path 202258"
            id="Path_202258"
            transform="translate(-2.418 -170.972)" />
    </g>
</svg>
