<svg height="454.918" viewBox="0 0 504.227 454.918" width="504.227"
    xmlns="http://www.w3.org/2000/svg">
    <g data-name="Group 10" id="Group_10" transform="translate(-168.93 -69.656)">
        <g data-name="Group 1" id="Group_1">
            <path d="M224.928,451.689a97.076,97.076,0,0,1-4.206,8.977q-1.13,2.135-5.022,9.416-2.889,5.463-4.709,9.354a46.38,46.38,0,0,1-3.955,6.466l-5.524,7.974a43.123,43.123,0,0,0-4.52,7.6q-.252.753-.942,2.511-.881,2.259-2.26,2.7a19.1,19.1,0,0,1-3.7.188q0-2.388,5.649-10.924l7.346-11.175a16.923,16.923,0,0,0-3.955-.375q-9.921,0-15.318,3.64-2.576,1.7-6.341,6.9-2.824,3.831-5.525,3.642h-.815a10.472,10.472,0,0,1,2.887-5.713l7.785-8.726a42.386,42.386,0,0,1-7.785-4.206q-5.085-3.514-5.085-6.529a9.829,9.829,0,0,1,.44-1.884l1.569-1.129q1.883.752,4.709,4.143,5.586,6.655,7.407,6.654,2.2,0,5.274-4.834.125-.189,5.775-9.417,3.327-5.4,5.4-6.215a6.85,6.85,0,0,1,.628,2.511q0,3.2-3.139,7.158-8.414,10.609-8.663,11.425a3.924,3.924,0,0,0,2.008,1.256,42.642,42.642,0,0,1,5.776-.565q7.281-.438,9.354-1.884,2.574-1.82,5.273-7.784.5-1.129,5.022-11.551,2.888-6.719,5.023-9.292l1.821-.376Z" data-name="Path 1"
                fill="#474645"
                id="Path_1" />
            <path d="M253.115,494.44q-1.884,2.072-8.914,3.139a67.136,67.136,0,0,1-10.108.754q-10.609,0-10.609-6.09,0-7.469,11.049-12.807a48.4,48.4,0,0,1,7.972-3.076q4.017.942,5.337,1.381,2.825.942,2.825,4.709,0,3.328-4.269,5.274a17.374,17.374,0,0,1-7.283,1.631q-5.776,0-8.286-1.757-3.141,1.508-3.139,3.892,0,4.208,7.659,4.206,2.824,0,6.592-.377Q250.792,494.442,253.115,494.44Zm-6.466-12.053a6.049,6.049,0,0,0-4.583-2.009,7.517,7.517,0,0,0-3.516.816q-.063.063-3.2,1.758a5.8,5.8,0,0,0,5.148,3.014A7.254,7.254,0,0,0,246.649,482.387Z" data-name="Path 2"
                fill="#474645"
                id="Path_2" />
            <path d="M291.912,499.086q-1.381,3.014-3.265,3.014-2.135,0-4.708-3.139a22.255,22.255,0,0,1-3.265-5.148q-5.273,2.511-7.156,3.264a21.8,21.8,0,0,1-7.471,1.82q-4.961,0-4.96-5.021,0-8.1,8.79-14.44a55.022,55.022,0,0,1,7.784-4.457q5.838-2.824,8.287-2.825a4.222,4.222,0,0,1,3.2,1.821,5.661,5.661,0,0,1,1.507,3.578q0,3.453-2.731,9.072t-2.731,6.5q0,3.014.942,4.144Q286.889,498.208,291.912,499.086Zm-2.261-21.219q0-2.261-3.892-2.26a16.429,16.429,0,0,0-9.479,2.574,44.337,44.337,0,0,0-7.282,6.4q-4.773,5.086-4.771,8.036a3,3,0,0,0,1.506,2.7,5.96,5.96,0,0,0,3.2.817,12.862,12.862,0,0,0,9.354-3.83,89.21,89.21,0,0,0,5.336-7.219q2.7-3.893,5.211-3.893A7.925,7.925,0,0,0,289.651,477.867Zm2.072,22.475v-.189h.126v-.188h-.126v-.376h.251v.125h-.125v.126h.125v.5Z" data-name="Path 3"
                fill="#474645"
                id="Path_3" />
            <path d="M321.731,458.029q0,.377-4.207,8.1l-8.161,15q-5.085,9.416-5.587,10.923l-1.255,4.018q-1.069,2.511-2.763,2.511a6.252,6.252,0,0,1-2.134-.439l-.691-1.13q.69-3.264,4.709-9.857l7.972-13.121a53.805,53.805,0,0,0,6.09-12.743q.25-1.068,1.067-3.768a5.425,5.425,0,0,1,2.448-2.824,2.623,2.623,0,0,1,1.727,1.224A3.662,3.662,0,0,1,321.731,458.029Z" data-name="Path 4"
                fill="#474645"
                id="Path_4" />
            <path d="M334.411,480.5q0,1.005-3.515,9.981-.439,1.131-1.318,3.328a3.674,3.674,0,0,1-1.947,2.134,10.012,10.012,0,0,1-2.825.251,7.269,7.269,0,0,0-.157-1.256,7.208,7.208,0,0,1-.156-1.254,5.912,5.912,0,0,1,1.067-3.077,26.755,26.755,0,0,0,1.632-2.825q.5-1.569,1.946-5.524a10.97,10.97,0,0,1,3.39-4.646Q334.412,479.5,334.411,480.5Zm5.9-17.265q0,2.26-3.014,2.261-2.763,0-2.762-2.261a10.026,10.026,0,0,1,.722-3.138,12.252,12.252,0,0,0,.785-3.014q.627.378,2.385,3.579a12.628,12.628,0,0,0,1.13,1.13A1.974,1.974,0,0,1,340.313,463.239Z" data-name="Path 5"
                fill="#474645"
                id="Path_5" />
            <path d="M379.548,483.454q0,2.2-2.072,6.341a20.9,20.9,0,0,1-3.829,5.775,5.733,5.733,0,0,0,.126,1.005,3.683,3.683,0,0,0,.439.942A2.345,2.345,0,0,1,371.7,499.4a3.139,3.139,0,0,1-1.915-.628,1.94,1.94,0,0,1-.847-1.632q0-1.82,3.2-6.215t3.2-6.089q0-3.2-3.265-3.2-4.33,0-8.412,4.017-2.072,2.2-7.6,7.785-4.395,4.458-8.475,5.148v-.565l-.565-.627q0-3.327,6.152-10.673a43.409,43.409,0,0,0,4.52-6.09q.566-1.632,1.256-3.264a5.677,5.677,0,0,1,1.1-1.758,2.466,2.466,0,0,1,1.727-.5,1.583,1.583,0,0,1,1.758,1.822,5.326,5.326,0,0,1-.314,2.009q-.063.25-1.381,3.389,5.4-2.888,6.152-3.2,4.268-2.073,6.277-2.072a4.517,4.517,0,0,1,3.83,1.977A7.331,7.331,0,0,1,379.548,483.454Z" data-name="Path 6"
                fill="#474645"
                id="Path_6" />
            <path d="M413.2,481.006a15.849,15.849,0,0,1-1.318,4.771,7.751,7.751,0,0,0-.627,2.575,88.2,88.2,0,0,1-1.193,15.882q-3.768,20.34-20.215,20.34a22.483,22.483,0,0,1-7.659-1.82q-5.649-2.136-5.65-4.583a9.275,9.275,0,0,1,.565-2.26h.628a17.432,17.432,0,0,0,5.525,3.641,15.831,15.831,0,0,0,6.214,1.821q7.6,0,12.682-7.283a25.008,25.008,0,0,0,4.52-14.565,6.486,6.486,0,0,0-.754-3.264,5.754,5.754,0,0,0-1.946-.5,6.165,6.165,0,0,0-1.318.251,6.067,6.067,0,0,1-1.444.251,41.2,41.2,0,0,1-8.914-.691q-5.65-1.38-5.65-5.649,0-6.028,6.9-10.736,6.34-4.33,12.556-4.332Q413.2,474.853,413.2,481.006Zm-4.017-.753q0-2.073-3.83-2.072-4.018,0-8.977,3.39-5.462,3.7-5.462,7.533,0,4.207,8.224,4.206a14.406,14.406,0,0,0,4.206-.627q2.951-.878,2.951-2.511a4.189,4.189,0,0,0-.283-1.256,4.172,4.172,0,0,1-.282-1.192q0-.754,2.323-4.583A6.089,6.089,0,0,0,409.179,480.253Z" data-name="Path 7"
                fill="#474645"
                id="Path_7" />
            <path d="M513.7,458.218a48.385,48.385,0,0,1-2.825,8.349q-.753,1.883-4.708,10.735-1.194,2.637-3.705,8.726-.629,2.134-2.008,6.466-1.758,5.337-2.794,5.777a16.319,16.319,0,0,1-3.547.815l-.189-1.946q0-3.2,2.763-9.354l5.336-11.865q2.7-6.027,2.7-9.793-1.634.816-7.282,6.277l-9.48,9.229q-4.9,4.771-6.967,4.771-2.637,0-3.327-9.668-.441-6.027-.692-7.031a69.97,69.97,0,0,0-5.869,11.457,68.937,68.937,0,0,1-5.933,11.52q-4.143,5.9-8.349,5.9l3.389-7.533q1.7-3.7,6.53-14.251,3.45-7.6,3.892-8.224,1-1.507,4.52-3.327a22.513,22.513,0,0,0,1-2.889,6.728,6.728,0,0,1,2.008-2.887,13.415,13.415,0,0,1,3.641,6.78q.313,1.194,1.7,13.749h.566q2.072,0,8.035-6.278l11.175-11.8q6.087-6.34,7.972-6.34.814.439,1.7.879Z" data-name="Path 8"
                fill="#474645"
                id="Path_8" />
            <path d="M547.1,499.086q-1.381,3.014-3.263,3.014-2.136,0-4.709-3.139a22.258,22.258,0,0,1-3.265-5.148q-5.272,2.511-7.156,3.264a21.79,21.79,0,0,1-7.471,1.82q-4.961,0-4.959-5.021,0-8.1,8.789-14.44a55.026,55.026,0,0,1,7.784-4.457q5.838-2.824,8.286-2.825a4.222,4.222,0,0,1,3.2,1.821,5.667,5.667,0,0,1,1.507,3.578q0,3.453-2.731,9.072t-2.731,6.5q0,3.014.942,4.144Q542.079,498.208,547.1,499.086Zm-2.26-21.219q0-2.261-3.891-2.26a16.428,16.428,0,0,0-9.48,2.574,44.336,44.336,0,0,0-7.282,6.4q-4.773,5.086-4.771,8.036a3,3,0,0,0,1.506,2.7,5.962,5.962,0,0,0,3.2.817,12.862,12.862,0,0,0,9.354-3.83,89.226,89.226,0,0,0,5.336-7.219q2.7-3.893,5.21-3.893A7.912,7.912,0,0,0,544.84,477.867Zm2.073,22.475v-.189h.125v-.188h-.125v-.376h.251v.125h-.126v.126h.126v.5Z" data-name="Path 9"
                fill="#474645"
                id="Path_9" />
            <path d="M580.5,460.854a7.465,7.465,0,0,1-1.068,3.516q-.441.816-3.83,5.336,1.569,1.068,3.2,2.071a3.651,3.651,0,0,1,1.57,3.265l-.063.69q-.063,0-2.888-.879a10.344,10.344,0,0,0-2.825-.564q-3.453,0-9.95,7.251t-6.5,10.829q0,3.077,5.524,4.457a32.629,32.629,0,0,0,7.911.879,24.324,24.324,0,0,0,3.453-.251q-.063.315.564,1.13a21.912,21.912,0,0,1-7.847,1.507q-14.126,0-14.125-6.906,0-4.08,7.094-11.991l5.4-6.026-2.2-.126a10.5,10.5,0,0,0-3.7.753,29.308,29.308,0,0,1-5.4,1.633,3.306,3.306,0,0,1-1.978-.659,1.985,1.985,0,0,1-.91-1.665q0-2.447,5.587-2.448c.377,0,.921.022,1.633.063s1.256.063,1.632.063a16.851,16.851,0,0,0,7.879-1.633,14.432,14.432,0,0,0,5.493-5.649q.814-1.381,3.829-7.785a2.268,2.268,0,0,1,1.664,1.13A3.522,3.522,0,0,1,580.5,460.854Z" data-name="Path 10"
                fill="#474645"
                id="Path_10" />
            <path d="M626.325,494.5q-3.894,3.015-11.551,4.52a62.36,62.36,0,0,1-12.618,1.256q-14.441,0-14.44-8.852,0-9.479,17.892-17.2a65.8,65.8,0,0,1,11.677-3.892q2.322,1.381,2.323,3.139a14.572,14.572,0,0,1-1.569,5.712q-1.823,4.019-3.767,4.018a3.333,3.333,0,0,1-1.852-.6,1.731,1.731,0,0,1-.911-1.474q0-.816,3.39-5.337-1.068-.187-2.071-.314-5.589,0-13.121,4.709-8.35,5.211-8.349,10.546,0,3.955,3.955,5.839a17.057,17.057,0,0,0,7.407,1.444,73.912,73.912,0,0,0,17.39-1.758c.126-.041.773-.314,1.946-.816a4.863,4.863,0,0,1,1.883-.5,1.41,1.41,0,0,1,.439.064l.628-.566,1.194-.062Z" data-name="Path 11"
                fill="#474645"
                id="Path_11" />
            <path d="M673.157,479.185q0,2.889-3.735,10.044t-3.735,9.355a6.8,6.8,0,0,0,1,3.516,8.374,8.374,0,0,1-3.516,1.192,2.081,2.081,0,0,1-2.322-2.385q0-2.513,3.672-10.013T668.2,480.5a8.81,8.81,0,0,0-.126-1.194,8.692,8.692,0,0,1-.125-1.192,38.952,38.952,0,0,0-17.829,7.031q-8.916,6.216-12.367,14.5a31.407,31.407,0,0,0-4.144-1.067q.313-1.38,4.332-6.718,1.443-1.819,7.973-10.483,4.769-6.34,6.026-8.476.377-.627,3.767-8.725,2.448-5.777,4.52-7.66.753.439,1.57.942a1.556,1.556,0,0,1,.816,1.381q0,.942-10.609,22.287,5.271-2.322,9.227-3.955,7.535-3.139,8.538-3.14a2.3,2.3,0,0,1,1.695.566A6.191,6.191,0,0,1,673.157,479.185Z" data-name="Path 12"
                fill="#474645"
                id="Path_12" />
        </g>
        <g data-name="Group 9" id="Group_9">
            <g data-name="Group 4" id="Group_4">
                <g data-name="Group 2" id="Group_2">
                    <path d="M424.657,359.623a141.8,141.8,0,0,0-6.923-51.513,233.089,233.089,0,0,0,52.555-42.874c13.849-15.332,23.952-31.4,30.245-47.888,21.943-22.548,50.149-9.384,51.347-8.809a3.531,3.531,0,0,0,3.081-6.355c-.3-.146-26.679-12.6-50.459,2.773a113.148,113.148,0,0,0-1.093-61.507,3.53,3.53,0,1,0-6.77,2c25.26,85.8-62.168,144.248-81.355,155.868A132.179,132.179,0,0,0,397.13,268.83c-2.626-3.426-5.321-6.8-8.017-10.159-5.149-6.431-10.162-12.7-14.583-19.246a94.381,94.381,0,0,0,28.764-23.23c13.893-16.577,28.851-46.248,21.193-93.424a3.532,3.532,0,0,0-6.972,1.134C429.8,199.581,382.8,227.588,370.738,233.45a82.453,82.453,0,0,1-8.861-20.25c-5.255-18.932-7.726-55.345,6.974-78.074a3.531,3.531,0,1,0-5.929-3.837c-15.97,24.688-13.444,63.638-7.857,83.795,5.249,18.92,17.087,33.707,28.536,48,2.659,3.321,5.328,6.648,7.917,10.037,15.726,20.55,25.085,47.814,26,75.341q-.149,4.727,0,9.384c-1.031,28-10.781,53.759-27.747,73.037a3.532,3.532,0,0,0,5.3,4.669,119.1,119.1,0,0,0,25.979-51.074,118.1,118.1,0,0,0,25.973,51.054,3.53,3.53,0,1,0,5.3-4.664C435.606,411.875,426,386.931,424.657,359.623Z" data-name="Path 13"
                        fill="#c08d4e"
                        id="Path_13" />
                    <path d="M376.134,312.59a3.526,3.526,0,0,0-.683-.765,106.72,106.72,0,0,0-9.127-9.259c-28.7-25.767-72.071-64.709-59.589-126.013a3.531,3.531,0,0,0-6.92-1.409C286.521,240.413,331.707,280.982,361.6,307.82c1.743,1.569,3.386,3.171,4.97,4.794a109.794,109.794,0,0,1-36.455,1.978c-29.791-3.675-51.1-20.491-63.341-49.99a3.533,3.533,0,0,0-6.526,2.711c11.814,28.473,30.528,42.794,49.4,49.537-11.164,5.533-28.053,17.953-29.684,42.893a3.528,3.528,0,0,0,3.289,3.755c.083.006.159.006.235.006a3.53,3.53,0,0,0,3.522-3.3c2-30.5,29.809-39.157,33.7-40.216a103.486,103.486,0,0,0,21.788,2.247,119.632,119.632,0,0,0,29.441-3.68c26.587,32.016,25,73.171-5.327,110.437a3.533,3.533,0,1,0,5.482,4.459C404.751,393.343,405.832,347.233,376.134,312.59Z" data-name="Path 14"
                        fill="#c08d4e"
                        id="Path_14" />
                    <path d="M579.3,292.834a3.539,3.539,0,0,0-4.182,2.725c-3.131,14.843-15.5,22.165-37.8,22.389-2.637.026-5.309.015-8.005.005-6.732-.019-13.779-.025-20.818.515a3.084,3.084,0,0,0-.522.04c-10.333.834-20.628,2.9-29.869,7.985,4.125-21.175,22.028-80.21,94.074-89.79a3.533,3.533,0,0,0-.93-7C484.7,241.207,471.563,319.98,470.07,331.977a60.774,60.774,0,0,0-22.433,49.14c.7,17.863,8,37.171,20.035,52.977a3.528,3.528,0,0,0,2.812,1.383,3.49,3.49,0,0,0,2.136-.724,3.529,3.529,0,0,0,.676-4.944c-11.176-14.677-17.959-32.526-18.608-48.971a53.822,53.822,0,0,1,20.9-44.278c9.5-7.415,20.95-10.082,32.923-11.031,2.43.255,20.428,2.537,30.731,15.5,6.5,8.181,8.754,19.108,6.721,32.487a3.517,3.517,0,0,0,2.949,4.025,3.454,3.454,0,0,0,.542.045,3.53,3.53,0,0,0,3.484-3c2.354-15.432-.412-28.211-8.208-37.994A45.022,45.022,0,0,0,530.5,325.015c2.307.009,4.615.014,6.887-.005,25.749-.255,40.771-9.674,44.642-27.991A3.534,3.534,0,0,0,579.3,292.834Z" data-name="Path 15"
                        fill="#c08d4e"
                        id="Path_15" />
                </g>
                <path d="M489.579,352.447c-8.737-3.945-12.72-14.018-12.72-14.018s10.19-3.686,18.925.26S508.5,352.712,508.5,352.712s-10.187,3.68-18.924-.265" data-name="Path 16"
                    fill="#cad100"
                    id="Path_16" />
                <path d="M383.016,299.8c-9.383-1.953-15.449-10.924-15.449-10.924s9.151-5.806,18.535-3.851,15.453,10.925,15.453,10.925-9.149,5.8-18.539,3.85" data-name="Path 17"
                    fill="#cad100"
                    id="Path_17" />
                <path d="M359.119,268.665c-9.383-1.954-15.455-10.923-15.455-10.923s9.153-5.808,18.534-3.85,15.454,10.923,15.454,10.923-9.152,5.8-18.533,3.85" data-name="Path 18"
                    fill="#cad100"
                    id="Path_18" />
                <path d="M323.817,241.671c.664-9.565,8.733-16.79,8.733-16.79s6.984,8.278,6.32,17.845-8.742,16.782-8.742,16.782-6.985-8.275-6.311-17.837" data-name="Path 19"
                    fill="#cad100"
                    id="Path_19" />
                <path d="M337.174,217.851c-6.342-7.191-5.824-18.01-5.824-18.01s10.8.838,17.138,8.027,5.824,18.009,5.824,18.009-10.8-.837-17.138-8.026" data-name="Path 20"
                    fill="#cad100"
                    id="Path_20" />
                <path d="M331.744,174.256c-1.947-9.384,3.867-18.524,3.867-18.524s8.967,6.078,10.906,15.469-3.868,18.526-3.868,18.526-8.964-6.085-10.9-15.471" data-name="Path 21"
                    fill="#cad100"
                    id="Path_21" />
                <path d="M310.934,205.366c1.738-9.428,10.557-15.709,10.557-15.709s6.024,9.008,4.29,18.437S315.227,223.8,315.227,223.8s-6.023-9-4.293-18.434" data-name="Path 22"
                    fill="#cad100"
                    id="Path_22" />
                <path d="M368.407,143.121c5.149-8.092,15.683-10.6,15.683-10.6s2.2,10.6-2.941,18.695-15.681,10.6-15.681,10.6-2.2-10.6,2.939-18.7" data-name="Path 23"
                    fill="#cad100"
                    id="Path_23" />
                <path d="M368.974,207.075c1.721-9.431,10.537-15.717,10.537-15.717s6.031,9,4.3,18.43-10.537,15.719-10.537,15.719-6.029-9-4.3-18.432" data-name="Path 24"
                    fill="#cad100"
                    id="Path_24" />
                <path d="M367.346,173.127c6.048-7.435,16.811-8.708,16.811-8.708s.955,10.793-5.1,18.228-16.8,8.711-16.8,8.711-.961-10.791,5.087-18.231" data-name="Path 25"
                    fill="#cad100"
                    id="Path_25" />
                <path d="M390.377,186.612c.394-9.581,8.259-17.036,8.259-17.036s7.211,8.081,6.817,17.657-8.252,17.033-8.252,17.033-7.225-8.079-6.824-17.654" data-name="Path 26"
                    fill="#cad100"
                    id="Path_26" />
                <path d="M399.507,150.094c-3.712-8.839.235-18.927.235-18.927s9.969,4.242,13.683,13.074-.235,18.928-.235,18.928-9.969-4.238-13.683-13.075" data-name="Path 27"
                    fill="#cad100"
                    id="Path_27" />
                <path d="M446.223,342.878c-5.937,7.536-16.675,8.965-16.675,8.965s-1.113-10.773,4.812-18.3c5.94-7.525,16.678-8.959,16.678-8.959s1.113,10.773-4.815,18.3" data-name="Path 28"
                    fill="#cad100"
                    id="Path_28" />
                <path d="M440.5,318.633c-9.581.264-17.557-7.067-17.557-7.067s7.559-7.76,17.145-8.02,17.557,7.066,17.557,7.066-7.562,7.756-17.145,8.021" data-name="Path 29"
                    fill="#cad100"
                    id="Path_29" />
                <path d="M436.263,277.724c-4.178,8.633-14.359,12.336-14.359,12.336s-3.4-10.28.775-18.908,14.351-12.337,14.351-12.337,3.41,10.286-.767,18.909" data-name="Path 30"
                    fill="#cad100"
                    id="Path_30" />
                <path d="M417.218,256.773c-4.181,8.631-14.359,12.34-14.359,12.34s-3.4-10.285.774-18.912,14.352-12.34,14.352-12.34,3.4,10.285-.767,18.912" data-name="Path 31"
                    fill="#cad100"
                    id="Path_31" />
                <path d="M415.591,232.7c-9.142,2.9-18.826-1.947-18.826-1.947s5.123-9.542,14.261-12.443,18.825,1.947,18.825,1.947-5.127,9.545-14.26,12.443" data-name="Path 32"
                    fill="#cad100"
                    id="Path_32" />
                <path d="M437.594,205.039c-9.141,2.9-18.83-1.944-18.83-1.944s5.131-9.54,14.265-12.443,18.828,1.948,18.828,1.948-5.127,9.541-14.263,12.439" data-name="Path 33"
                    fill="#cad100"
                    id="Path_33" />
                <path d="M448.826,174.994c-6.877,6.674-17.709,6.674-17.709,6.674s.314-10.823,7.191-17.5,17.711-6.678,17.711-6.678-.317,10.827-7.193,17.506" data-name="Path 34"
                    fill="#cad100"
                    id="Path_34" />
                <path d="M448.85,147.284c-3.6,6.711-11.8,9.32-11.8,9.32s-2.367-8.281,1.234-14.992,11.811-9.313,11.811-9.313,2.361,8.275-1.244,14.985" data-name="Path 35"
                    fill="#cad100"
                    id="Path_35" />
                <path d="M457.77,242.857c4.534,8.448,1.562,18.864,1.562,18.864s-10.325-3.271-14.862-11.716-1.567-18.866-1.567-18.866,10.327,3.278,14.867,11.718" data-name="Path 36"
                    fill="#cad100"
                    id="Path_36" />
                <path d="M476.457,220.513c4.175,8.623.777,18.912.777,18.912s-10.181-3.705-14.363-12.335-.777-18.911-.777-18.911,10.183,3.705,14.363,12.334" data-name="Path 37"
                    fill="#cad100"
                    id="Path_37" />
                <path d="M489.971,193.32c2.779,9.174-2.192,18.8-2.192,18.8s-9.479-5.248-12.256-14.423,2.2-18.8,2.2-18.8,9.469,5.248,12.251,14.425" data-name="Path 38"
                    fill="#cad100"
                    id="Path_38" />
                <path d="M494.621,159.853c4.214,6.765,2.3,15.571,2.3,15.571s-8.744-2.17-12.957-8.936-2.309-15.569-2.309-15.569,8.744,2.167,12.965,8.934" data-name="Path 39"
                    fill="#cad100"
                    id="Path_39" />
                <path d="M477.776,290.8c-.93,9.543-9.2,16.539-9.2,16.539s-6.757-8.47-5.824-18.011,9.207-16.54,9.207-16.54,6.754,8.47,5.816,18.012" data-name="Path 40"
                    fill="#cad100"
                    id="Path_40" />
                <path d="M505.632,309.533c-7.616,5.823-18.373,4.54-18.373,4.54s1.593-10.713,9.209-16.53S514.846,293,514.846,293s-1.593,10.717-9.214,16.529" data-name="Path 41"
                    fill="#cad100"
                    id="Path_41" />
                <path d="M527.146,280.435c-7.615,5.819-18.373,4.539-18.373,4.539s1.591-10.712,9.207-16.53,18.38-4.542,18.38-4.542-1.593,10.716-9.214,16.533" data-name="Path 42"
                    fill="#cad100"
                    id="Path_42" />
                <path d="M551.907,263.413c-9.4-1.874-15.547-10.791-15.547-10.791s9.1-5.885,18.5-4.008,15.547,10.795,15.547,10.795-9.1,5.879-18.5,4" data-name="Path 43"
                    fill="#cad100"
                    id="Path_43" />
                <path d="M563.5,302.247c-4.758,8.32-15.167,11.317-15.167,11.317s-2.7-10.493,2.063-18.814,15.172-11.32,15.172-11.32,2.694,10.5-2.068,18.817" data-name="Path 44"
                    fill="#cad100"
                    id="Path_44" />
                <path d="M540.595,302.247c-4.765,8.32-15.172,11.317-15.172,11.317s-2.691-10.493,2.068-18.814,15.172-11.32,15.172-11.32,2.691,10.5-2.068,18.817" data-name="Path 45"
                    fill="#cad100"
                    id="Path_45" />
                <path d="M547.737,229.512c-7.616,5.819-18.371,4.538-18.371,4.538s1.593-10.713,9.209-16.532,18.376-4.538,18.376-4.538-1.594,10.713-9.214,16.532" data-name="Path 46"
                    fill="#cad100"
                    id="Path_46" />
                <path d="M500.093,255.771c-2,9.38-10.991,15.412-10.991,15.412s-5.773-9.174-3.771-18.55,10.987-15.4,10.987-15.4,5.768,9.169,3.775,18.542" data-name="Path 47"
                    fill="#cad100"
                    id="Path_47" />
                <path d="M528.894,184.98c-5.519,7.842-16.16,9.851-16.16,9.851s-1.7-10.7,3.815-18.533,16.165-9.853,16.165-9.853,1.7,10.7-3.82,18.535" data-name="Path 48"
                    fill="#cad100"
                    id="Path_48" />
                <path d="M522.327,227.637c1.935,9.388-3.893,18.519-3.893,18.519s-8.957-6.087-10.89-15.478,3.9-18.519,3.9-18.519,8.959,6.085,10.887,15.478" data-name="Path 49"
                    fill="#cad100"
                    id="Path_49" />
                <path d="M366.025,346.664c6.742-6.817,6.844-17.649,6.844-17.649s-10.833.219-17.571,7.032-6.847,17.643-6.847,17.643,10.831-.21,17.574-7.026" data-name="Path 50"
                    fill="#cad100"
                    id="Path_50" />
                <path d="M327.953,343.023c6.11-7.386,5.248-18.183,5.248-18.183s-10.771,1.174-16.875,8.559c-6.12,7.387-5.251,18.184-5.251,18.184s10.761-1.174,16.878-8.56" data-name="Path 51"
                    fill="#cad100"
                    id="Path_51" />
                <path d="M319.746,296.988c2.173,9.334,11.293,15.192,11.293,15.192s5.583-9.279,3.406-18.616-11.293-15.194-11.293-15.194-5.584,9.286-3.406,18.618" data-name="Path 52"
                    fill="#cad100"
                    id="Path_52" />
                <path d="M294.551,289.8c2.178,9.335,11.292,15.187,11.292,15.187s5.585-9.284,3.41-18.618-11.293-15.187-11.293-15.187-5.585,9.284-3.409,18.618" data-name="Path 53"
                    fill="#cad100"
                    id="Path_53" />
                <path d="M272.6,267.672c2.177,9.335,11.287,15.19,11.287,15.19s5.588-9.283,3.412-18.618-11.288-15.187-11.288-15.187-5.59,9.279-3.411,18.615" data-name="Path 54"
                    fill="#cad100"
                    id="Path_54" />
                <path d="M286.8,325.085c7.91-.484,13.938-7.111,13.938-7.111s-6.8-5.828-14.7-5.339-13.942,7.106-13.942,7.106,6.8,5.838,14.705,5.344" data-name="Path 55"
                    fill="#cad100"
                    id="Path_55" />
                <path d="M555.347,338.408c7.656,2.038,15.472-2.337,15.472-2.337s-4.6-7.68-12.261-9.718-15.471,2.337-15.471,2.337,4.6,7.676,12.26,9.718" data-name="Path 56"
                    fill="#cad100"
                    id="Path_56" />
                <path d="M298.692,233.523c-2.139-9.343-11.223-15.231-11.223-15.231s-5.626,9.251-3.488,18.6S295.2,252.13,295.2,252.13s5.623-9.26,3.487-18.607" data-name="Path 57"
                    fill="#cad100"
                    id="Path_57" />
                <path d="M351.4,332.381a4.487,4.487,0,1,1-4.487-4.489,4.488,4.488,0,0,1,4.487,4.489" data-name="Path 58"
                    fill="#ffe900"
                    id="Path_58" />
                <g data-name="Group 3" id="Group_3">
                    <path d="M474.217,168.765a5.594,5.594,0,1,1-5.591-5.593,5.6,5.6,0,0,1,5.591,5.593" data-name="Path 59"
                        fill="#e89d72"
                        id="Path_59" />
                    <path d="M545.235,186.919a5.6,5.6,0,1,1-5.6-5.593,5.6,5.6,0,0,1,5.6,5.593" data-name="Path 60"
                        fill="#ffe900"
                        id="Path_60" />
                    <path d="M456.019,212.119a6.347,6.347,0,1,1-6.35-6.349,6.346,6.346,0,0,1,6.35,6.349" data-name="Path 61"
                        fill="#f3ceb4"
                        id="Path_61" />
                    <path d="M323.573,180.636a5.216,5.216,0,1,1-5.214-5.217,5.214,5.214,0,0,1,5.214,5.217" data-name="Path 62"
                        fill="#ffe900"
                        id="Path_62" />
                    <path d="M312.133,263.785a6.346,6.346,0,1,1-6.353-6.348,6.346,6.346,0,0,1,6.353,6.348" data-name="Path 63"
                        fill="#f3ceb4"
                        id="Path_63" />
                    <path d="M559.727,274.44a6.347,6.347,0,1,1-6.348-6.348,6.348,6.348,0,0,1,6.348,6.348" data-name="Path 64"
                        fill="#e89d72"
                        id="Path_64" />
                    <path d="M355.979,241.47a3.607,3.607,0,1,1-3.609-3.607,3.61,3.61,0,0,1,3.609,3.607" data-name="Path 65"
                        fill="#6b8828"
                        id="Path_65" />
                    <path d="M279.308,301.383a3.607,3.607,0,1,1-3.605-3.61,3.6,3.6,0,0,1,3.605,3.61" data-name="Path 66"
                        fill="#6b8828"
                        id="Path_66" />
                    <path d="M512.994,336.87a4.488,4.488,0,1,1-4.491-4.489,4.481,4.481,0,0,1,4.491,4.489" data-name="Path 67"
                        fill="#f3ceb4"
                        id="Path_67" />
                    <path d="M464.991,322.238a4.487,4.487,0,1,1-4.49-4.49,4.492,4.492,0,0,1,4.49,4.49" data-name="Path 68"
                        fill="#f3ceb4"
                        id="Path_68" />
                    <path d="M406.041,324.58a4.487,4.487,0,1,1-4.486-4.494,4.488,4.488,0,0,1,4.486,4.494" data-name="Path 69"
                        fill="#f3ceb4"
                        id="Path_69" />
                    <path d="M564.216,348.018a4.489,4.489,0,1,1-4.489-4.486,4.492,4.492,0,0,1,4.489,4.486" data-name="Path 70"
                        fill="#f3ceb4"
                        id="Path_70" />
                    <path d="M367.005,280.785a6.346,6.346,0,1,1-6.342-6.345,6.343,6.343,0,0,1,6.342,6.345" data-name="Path 71"
                        fill="#e89d72"
                        id="Path_71" />
                    <path d="M433.748,243.7a4.28,4.28,0,1,1-4.28-4.278,4.28,4.28,0,0,1,4.28,4.278" data-name="Path 72"
                        fill="#6b8828"
                        id="Path_72" />
                </g>
            </g>
            <g data-name="Group 6" id="Group_6">
                <g data-name="Group 5" id="Group_5">
                    <path d="M458.633,111.7c.525.079,1.489.336,1.843-.106.55-.677-2.132-1.467-2.132-1.467s2.117.623,1.583-.295c-.4-.675-5.708-2.274-8.105-2.67a1.271,1.271,0,0,0-.133-.088c-.621-.836-1.325-1.71-2.085-2.577-.09-.106-.185-.214-.279-.322,2.991-.688,4.7-1.951,4.959-2.6.359-.848-1.758-.79-2.607-.811.863-.02,3.643-.673,4.324-1.706.48-.724-1.522-.491-2.627-.391,1.184-.288,3.237-.916,3.336-1.815.1-.942-1.527-.4-3.005-.287,1.241-.2,4.049-1.532,3.945-2.2-.145-.92-1.528-.338-2.659-.35,1.31-.347,3.613-1.715,3.268-2.739-.269-.8-1.838-.045-2.632.375a7.364,7.364,0,0,0,2.831-2.723c.974-1.89-2.2-.561-2.2-.561a4.776,4.776,0,0,0,2.277-2.423c.425-1.5-2.327-.092-2.327-.092s2.432-1.53,2.767-3.289c.232-1.253-1.981.187-2.734.642.542-.423,2.429-2.462,2.45-3.775.029-2.039-2.882.687-2.882.687s2.632-3.226,2.347-4.543c-.35-1.629-3.168,1-3.686,1.407.5-.415,2.937-4.118,2.288-4.65-1.321-1.073-3.716,2.556-4.035,3.058a6.534,6.534,0,0,0,.514-3.228c-.092-5.587-1.691.528-4.025,3.182-.909,1.03-2.046,2.135-3.144,3.229a5.376,5.376,0,0,0,.033-3.088c-.9-1.829-2.253,1.927-2.253,1.927s.872-4.077.025-5.114c-1.053-1.291-2.372,2.326-2.641,2.926.254-.6.738-5-.09-5.176-1.663-.355-2.138,3.963-2.2,4.557a6.462,6.462,0,0,0-1.011-3.109c-2.63-4.93-1.261,1.24-2.135,4.67-1.013,3.985-3.531,9.468-2.432,11.354.914,1.565,5.3,3.4,4.772,8.256-2.9-1.757-3.509-4.7-6.885-4.862a4.819,4.819,0,0,0-4.409,1.888,5.511,5.511,0,0,0-.82,3.935,4.629,4.629,0,0,0-.783.772,8.511,8.511,0,0,0-1.036,1.462s.261-.17.615-.4a10.083,10.083,0,0,1,1.854-.445,1.77,1.77,0,0,0,.39-.093,6.735,6.735,0,0,1,2.576,1.627c1.2,1.382.045,3.615,1.6,6.3a16.8,16.8,0,0,0,.93,1.437c4.733,7.273,14.835,5.661,17.247,5.139.118,0,.241-.009.365-.009.789,2.027.809,3.6,1.64,4.2.675.491.818-.045.824-.557a1.853,1.853,0,0,0,1.187,1.379c.754.242.592-.663.369-1.355.245.6.882,1.537,1.609,1.546.434,0,.351-.617-.151-1.578a3.076,3.076,0,0,0,1.1,1.145c1.064.523.492-1.093.16-1.78.234.416.932,1.162,1.438,1.213.66.063.215-1.335-.234-1.944.22.278,1.123,1.027,1.588.928.417-.088.074-.807-.515-1.453.515.41,1.373.591,1.513.322.215-.422-.606-1.088-1.306-1.528.457.308,1.436.547,1.676.109C461.076,112.49,459.467,111.895,458.633,111.7Z" data-name="Path 73"
                        fill="#cad100"
                        id="Path_73" />
                </g>
            </g>
            <g data-name="Group 8" id="Group_8">
                <g data-name="Group 7" id="Group_7">
                    <path d="M380.261,111.7c-.528.079-1.491.336-1.851-.106-.543-.677,2.137-1.467,2.137-1.467s-2.115.623-1.576-.295c.4-.675,5.7-2.274,8.1-2.67a.879.879,0,0,1,.131-.088c.622-.836,1.323-1.71,2.084-2.578.094-.105.183-.213.278-.321-2.994-.688-4.691-1.951-4.961-2.6-.356-.848,1.767-.79,2.611-.811-.865-.02-3.634-.673-4.328-1.707-.482-.723,1.526-.49,2.639-.391-1.194-.287-3.246-.915-3.341-1.814-.1-.942,1.527-.4,3.005-.287-1.241-.2-4.056-1.532-3.95-2.2.145-.92,1.535-.338,2.663-.35-1.315-.347-3.613-1.715-3.267-2.739.271-.8,1.831-.045,2.627.375a7.325,7.325,0,0,1-2.828-2.723c-.973-1.89,2.192-.561,2.192-.561a4.783,4.783,0,0,1-2.271-2.423c-.423-1.5,2.329-.092,2.329-.092s-2.437-1.53-2.765-3.289c-.237-1.253,1.975.187,2.729.642-.543-.423-2.432-2.462-2.448-3.775-.032-2.039,2.883.687,2.883.687s-2.633-3.226-2.355-4.542c.353-1.63,3.174.994,3.689,1.406-.5-.415-2.937-4.118-2.285-4.65,1.324-1.073,3.713,2.556,4.036,3.058a6.5,6.5,0,0,1-.513-3.228c.093-5.587,1.681.528,4.026,3.182.9,1.03,2.043,2.135,3.14,3.229a5.4,5.4,0,0,1-.035-3.089c.9-1.828,2.256,1.928,2.256,1.928s-.874-4.077-.022-5.114c1.051-1.291,2.371,2.326,2.639,2.926-.251-.6-.739-5,.084-5.175,1.667-.356,2.144,3.962,2.207,4.556a6.368,6.368,0,0,1,1.006-3.109c2.626-4.93,1.26,1.24,2.133,4.67,1.02,3.985,3.533,9.468,2.434,11.354-.913,1.565-5.3,3.4-4.77,8.256,2.9-1.757,3.505-4.7,6.884-4.862a4.824,4.824,0,0,1,4.412,1.888,5.5,5.5,0,0,1,.817,3.935,4.406,4.406,0,0,1,.778.772,8.2,8.2,0,0,1,1.039,1.462s-.255-.17-.615-.4a10.157,10.157,0,0,0-1.85-.445,1.818,1.818,0,0,1-.392-.093,6.738,6.738,0,0,0-2.575,1.627c-1.2,1.382-.045,3.615-1.6,6.3a16.577,16.577,0,0,1-.934,1.437c-4.732,7.273-14.826,5.661-17.244,5.139-.12,0-.24-.009-.367-.009-.787,2.027-.8,3.6-1.634,4.2-.675.491-.822-.045-.826-.557a1.867,1.867,0,0,1-1.187,1.379c-.757.24-.6-.663-.372-1.355-.241.6-.879,1.535-1.608,1.546-.432,0-.356-.617.151-1.578a3.069,3.069,0,0,1-1.1,1.145c-1.061.523-.494-1.093-.161-1.78-.232.416-.929,1.162-1.437,1.213-.658.063-.211-1.335.236-1.944-.218.278-1.125,1.027-1.592.928-.413-.088-.071-.807.512-1.453-.512.41-1.371.591-1.5.322-.221-.422.6-1.088,1.3-1.528-.454.308-1.426.547-1.672.109C377.818,112.49,379.426,111.895,380.261,111.7Z" data-name="Path 74"
                        fill="#cad100"
                        id="Path_74" />
                </g>
            </g>
        </g>
    </g>
</svg>
