<svg xmlns="http://www.w3.org/2000/svg" width="20.108" height="18" viewBox="0 0 20.108 18">
  <path id="fav" d="M17.593,1.664A5.138,5.138,0,0,0,13.771,0a4.807,4.807,0,0,0-3,1.036A6.143,6.143,0,0,0,9.554,2.3,6.139,6.139,0,0,0,8.341,1.036,4.806,4.806,0,0,0,5.338,0,5.138,5.138,0,0,0,1.516,1.664,5.973,5.973,0,0,0,0,5.743,7.112,7.112,0,0,0,1.9,10.4,40.412,40.412,0,0,0,6.64,14.851c.657.56,1.4,1.2,2.176,1.872a1.122,1.122,0,0,0,1.477,0c.774-.677,1.519-1.312,2.177-1.872A40.389,40.389,0,0,0,17.213,10.4a7.111,7.111,0,0,0,1.9-4.655,5.972,5.972,0,0,0-1.516-4.079Zm0,0" transform="translate(0.5 0.5)" fill="none" stroke="#000" stroke-width="1"/>
</svg>
