<svg xmlns="http://www.w3.org/2000/svg" width="31.19" height="21.321" viewBox="0 0 31.19 21.321">
  <g id="house" transform="translate(-196.5 -86.5)">
    <path id="Path_455" data-name="Path 455" d="M362,79.369,371.369,70l9.369,9.369" transform="translate(-159.274 17)" fill="none" stroke="#000" stroke-linejoin="round" stroke-width="1"/>
    <path id="Path_456" data-name="Path 456" d="M388,75h4.685l6.246,6.246h-4.685" transform="translate(-171.741 14.603)" fill="none" stroke="#000" stroke-linejoin="round" stroke-width="1"/>
    <path id="Path_457" data-name="Path 457" d="M361.931,75h-4.685L351,81.246h4.685" transform="translate(-154 14.603)" fill="none" stroke="#000" stroke-linejoin="round" stroke-width="1"/>
    <path id="Path_458" data-name="Path 458" d="M380.533,86V97.451H367V86" transform="translate(-161.672 9.328)" fill="none" stroke="#000" stroke-linejoin="round" stroke-width="1"/>
    <path id="Path_459" data-name="Path 459" d="M380.369,102.246V96H371v6.246" transform="translate(-163.59 4.533)" fill="none" stroke="#000" stroke-linejoin="round" stroke-width="1"/>
    <path id="Path_201474" data-name="Path 201474" d="M0,0V6.246" transform="translate(213.657 100.533)" fill="none" stroke="#000" stroke-width="1"/>
    <path id="Path_201475" data-name="Path 201475" d="M0,0V6.246" transform="translate(210.533 100.533)" fill="none" stroke="#000" stroke-width="1"/>
    <path id="Path_201476" data-name="Path 201476" d="M0,0H8.328V2.6H0Z" transform="translate(207.931 95.849)" fill="none" stroke="#000" stroke-width="1"/>
    <path id="Path_201477" data-name="Path 201477" d="M0,0V2.6" transform="translate(214.177 95.849)" fill="none" stroke="#000" stroke-width="1"/>
    <path id="Path_201478" data-name="Path 201478" d="M0,0V2.6" transform="translate(210.013 95.849)" fill="none" stroke="#000" stroke-width="1"/>
    <path id="Path_460" data-name="Path 460" d="M380.164,82.663V80.125H376v2.538" transform="translate(-165.987 12.145)" fill="none" stroke="#000" stroke-linejoin="round" stroke-width="1"/>
    <path id="Path_461" data-name="Path 461" d="M397.562,97c.586,0,1.562,2.121,1.562,3.47a1.57,1.57,0,1,1-3.123,0C396,99.121,396.976,97,397.562,97Z" transform="translate(-175.577 4.054)" fill="none" stroke="#000" stroke-linejoin="round" stroke-width="1"/>
    <path id="Path_462" data-name="Path 462" d="M359.562,97c-.586,0-1.562,2.121-1.562,3.47a1.57,1.57,0,1,0,3.123,0C361.123,99.121,360.147,97,359.562,97Z" transform="translate(-157.356 4.054)" fill="none" stroke="#000" stroke-linejoin="round" stroke-width="1"/>
    <path id="Path_201479" data-name="Path 201479" d="M0,0V3.644" transform="translate(221.985 104.177)" fill="none" stroke="#000" stroke-width="1"/>
    <path id="Path_201480" data-name="Path 201480" d="M0,0V3.644" transform="translate(202.205 104.177)" fill="none" stroke="#000" stroke-width="1"/>
    <path id="Path_463" data-name="Path 463" d="M405.562,90v8.849H404" transform="translate(-179.413 7.41)" fill="none" stroke="#000" stroke-linejoin="round" stroke-width="1"/>
    <path id="Path_464" data-name="Path 464" d="M353,90v8.849h1.562" transform="translate(-154.959 7.41)" fill="none" stroke="#000" stroke-linejoin="round" stroke-width="1"/>
    <path id="Path_465" data-name="Path 465" d="M397,92.562V91h3.123v2.6" transform="translate(-176.056 6.931)" fill="none" stroke="#000" stroke-linejoin="round" stroke-width="1"/>
    <path id="Path_466" data-name="Path 466" d="M360.123,92.562V91H357v2.6" transform="translate(-156.877 6.931)" fill="none" stroke="#000" stroke-linejoin="round" stroke-width="1"/>
  </g>
</svg>
