<svg xmlns="http://www.w3.org/2000/svg" width="6.413" height="12.721" viewBox="0 0 6.413 12.721">
  <path id="info" d="M5178.364-201.43a1.425,1.425,0,0,1-.545-1.129,4,4,0,0,1,.038-.546,6.113,6.113,0,0,1,.126-.627l.648-2.225q.092-.32.148-.6a2.572,2.572,0,0,0,.06-.546.789.789,0,0,0-.181-.594,1.049,1.049,0,0,0-.692-.169,1.852,1.852,0,0,0-.513.077c-.174.055-.328.1-.453.147l.185-.721q.638-.25,1.216-.431a3.745,3.745,0,0,1,1.091-.179,2.131,2.131,0,0,1,1.44.436,1.433,1.433,0,0,1,.507,1.141c0,.1-.032.267-.032.512a3.375,3.375,0,0,1-.131.671l-.643,2.214a5.771,5.771,0,0,0-.142.611,3.056,3.056,0,0,0-.066.545.734.734,0,0,0,.2.6,1.165,1.165,0,0,0,.7.157,2.085,2.085,0,0,0,.568-.048,2.989,2.989,0,0,0,.431-.143l-.174.688q-.775.295-1.238.453a3.415,3.415,0,0,1-1.091.159q-.065,0-.13,0A2.188,2.188,0,0,1,5178.364-201.43Zm1.467-9.185a1.541,1.541,0,0,1-.136-.137,1.3,1.3,0,0,1,.136-1.838,1.566,1.566,0,0,1,1.091-.41,1.554,1.554,0,0,1,1.091.41,1.407,1.407,0,0,1,.127.127,1.309,1.309,0,0,1-.127,1.847,1.634,1.634,0,0,1-1.091.417A1.635,1.635,0,0,1,5179.831-210.615Z" transform="translate(-5176.499 213.35)" stroke="#fff" stroke-width="0.7"/>
</svg>
