<svg height="20.021" id="line-messenger" viewBox="0 0 20.021 20.021" width="20.021"
    xmlns="http://www.w3.org/2000/svg">
    <path d="M4.1,0H15.923a4.11,4.11,0,0,1,4.1,4.1V15.923a4.11,4.11,0,0,1-4.1,4.1H4.1a4.11,4.11,0,0,1-4.1-4.1V4.1A4.11,4.11,0,0,1,4.1,0Z" data-name="Path 88193"
        fill="#3ace01"
        fill-rule="evenodd" id="Path_88193" />
    <path d="M57.268,62.576c4.057,0,7.345,2.633,7.345,5.882a5.027,5.027,0,0,1-1.1,3.092,1.522,1.522,0,0,1-.136.17l0,0a6.369,6.369,0,0,1-.8.8C60.546,74.4,57.2,76.634,56.762,76.29c-.384-.3.632-1.766-.54-2.01-.082-.009-.163-.019-.244-.031h0c-3.441-.489-6.053-2.9-6.053-5.791C49.923,65.209,53.211,62.576,57.268,62.576Z" data-name="Path 88194"
        fill="#fff"
        fill-rule="evenodd" id="Path_88194" transform="translate(-47.277 -59.26)" />
    <path d="M101.258,144.494h1.481a.384.384,0,0,0,.383-.383v-.032a.384.384,0,0,0-.383-.383h-1.066V141.27a.384.384,0,0,0-.383-.383h-.032a.384.384,0,0,0-.383.383v2.841A.384.384,0,0,0,101.258,144.494Zm9.179-1.781v-.032a.384.384,0,0,0-.383-.383h-1.066v-.607h1.066a.384.384,0,0,0,.383-.383v-.032a.384.384,0,0,0-.383-.383h-1.481a.384.384,0,0,0-.383.383v2.841a.384.384,0,0,0,.383.383h1.481a.384.384,0,0,0,.383-.383v-.032a.384.384,0,0,0-.383-.383h-1.066V143.1h1.066A.384.384,0,0,0,110.438,142.714Zm-2.849,1.667h0a.382.382,0,0,0,.111-.269V141.27a.384.384,0,0,0-.383-.383h-.032a.384.384,0,0,0-.383.383v1.668l-1.385-1.857a.384.384,0,0,0-.333-.194h-.032a.384.384,0,0,0-.383.383v2.841a.384.384,0,0,0,.383.383h.032a.384.384,0,0,0,.383-.383v-1.7l1.395,1.9a.388.388,0,0,0,.028.038h0a.322.322,0,0,0,.149.11.38.38,0,0,0,.145.029h.032a.379.379,0,0,0,.179-.045A.269.269,0,0,0,107.589,144.38Zm-3.774.114h.032a.384.384,0,0,0,.383-.383V141.27a.384.384,0,0,0-.383-.383h-.032a.384.384,0,0,0-.383.383v2.841A.384.384,0,0,0,103.815,144.494Z" data-name="Path 88195"
        fill="#3ace01"
        fill-rule="evenodd" id="Path_88195" transform="translate(-95.529 -133.42)" />
</svg>
