<svg xmlns="http://www.w3.org/2000/svg" width="9.692" height="16" viewBox="0 0 9.692 16">
  <g id="location" transform="translate(-964.844 -290.069)">
    <path id="Path_2634" data-name="Path 2634" d="M969.387,303.7a.3.3,0,0,0,.606.035.273.273,0,0,0,0-.035c0-1.37,1.031-2.641,2.123-3.988,1.19-1.467,2.42-2.983,2.42-4.794a4.846,4.846,0,0,0-9.692,0c0,1.813,1.231,3.326,2.42,4.794C968.356,301.054,969.387,302.325,969.387,303.7Zm.3-13.024a4.245,4.245,0,0,1,4.24,4.24c0,1.6-1.161,3.033-2.285,4.414a12.343,12.343,0,0,0-1.957,2.922,12.343,12.343,0,0,0-1.957-2.922c-1.124-1.384-2.285-2.817-2.285-4.414a4.245,4.245,0,0,1,4.244-4.241Zm0,6.058a1.818,1.818,0,1,0-1.818-1.818,1.818,1.818,0,0,0,1.818,1.818Zm0-3.033a1.211,1.211,0,1,1-1.211,1.211,1.211,1.211,0,0,1,1.211-1.211Z" transform="translate(0 0)" fill="#1a1a1a"/>
    <path id="Path_202258" data-name="Path 202258" d="M972.194,482.377c-2.633,0-4.695-1.044-4.695-2.378,0-.934,1.015-1.757,2.648-2.147,0,0,.328-.1.391.177s-.263.357-.263.357c-1.353.324-2.227.957-2.227,1.614,0,.883,1.666,1.829,4.146,1.829s4.146-.946,4.146-1.829c0-.664-.929-1.321-2.312-1.633a.3.3,0,0,1-.227-.335c.053-.262.348-.2.348-.2,1.69.382,2.74,1.213,2.74,2.169C976.889,481.333,974.827,482.377,972.194,482.377Z" transform="translate(-2.494 -176.309)"/>
  </g>
</svg>
