<svg height="51.608" viewBox="0 0 39.698 51.608" width="39.698" xmlns="http://www.w3.org/2000/svg">
    <path
        d="M501.744,231.914v-8.019a13.894,13.894,0,0,0-27.789,0v8.019A6.953,6.953,0,0,0,468,238.781v15.879a6.955,6.955,0,0,0,6.947,6.947h25.8a6.955,6.955,0,0,0,6.947-6.947V238.781A6.953,6.953,0,0,0,501.744,231.914Zm-25.8-8.019a11.91,11.91,0,0,1,23.819,0v7.94H475.94Zm29.774,30.766a4.968,4.968,0,0,1-4.962,4.962h-25.8a4.968,4.968,0,0,1-4.962-4.962V238.781a4.968,4.968,0,0,1,4.962-4.962h25.8a4.968,4.968,0,0,1,4.962,4.962Zm-17.864-12.9a3.961,3.961,0,0,0-.992,7.8v3.118a.992.992,0,1,0,1.985,0v-3.118a3.961,3.961,0,0,0-.992-7.8Zm0,5.955a1.985,1.985,0,1,1,1.985-1.985A1.987,1.987,0,0,1,487.849,247.713Z"
        fill="#1a1a1a" id="lock" transform="translate(-468 -210)" />
</svg>
