<svg height="18" viewBox="0 0 18 18" width="18" xmlns="http://www.w3.org/2000/svg">
    <path
        d="M473,131a6,6,0,1,0,2.986,11.2.375.375,0,0,0-.374-.65A5.247,5.247,0,1,1,478.25,137a2.091,2.091,0,0,1-1.875,2.25,1.251,1.251,0,0,1-1.239-1.428l.485-3.394a.375.375,0,1,0-.742-.107l-.074.516a1.924,1.924,0,0,0-.8-.671c-1.219-.536-2.835.287-3.6,1.838a3.4,3.4,0,0,0-.241,2.631,2.013,2.013,0,0,0,1.081,1.2,1.971,1.971,0,0,0,.8.164,3.165,3.165,0,0,0,2.425-1.4,2,2,0,0,0,1.907,1.4A2.835,2.835,0,0,0,479,137,6.007,6.007,0,0,0,473,131Zm1.173,6.663c-.581,1.176-1.784,1.855-2.626,1.484a1.293,1.293,0,0,1-.679-.768,2.688,2.688,0,0,1,.209-2.042,2.642,2.642,0,0,1,2.126-1.585,1.238,1.238,0,0,1,.5.1,1.294,1.294,0,0,1,.678.767A2.689,2.689,0,0,1,474.172,137.663ZM478.25,128h-10.5a3.754,3.754,0,0,0-3.75,3.75v10.5a3.754,3.754,0,0,0,3.75,3.75h10.5a3.754,3.754,0,0,0,3.75-3.75v-10.5A3.754,3.754,0,0,0,478.25,128Zm3,14.25a3,3,0,0,1-3,3h-10.5a3,3,0,0,1-3-3v-10.5a3,3,0,0,1,3-3h10.5a3,3,0,0,1,3,3Z"
        id="mail" transform="translate(-464 -128)" />
</svg>
