<svg xmlns="http://www.w3.org/2000/svg" width="17.538" height="17.538" viewBox="0 0 17.538 17.538">
  <path id="male" d="M58.166,140.328l-3.132-1.445-.961-1.281a.318.318,0,0,0-.062-.053,5.16,5.16,0,0,0,.8-2.494,1.43,1.43,0,0,0,.851-1.467,1.658,1.658,0,0,0-.054-.437c.412-2.355.244-4.256-.458-5.1a1.294,1.294,0,0,0-.751-.462A2.688,2.688,0,0,0,51.507,126c-2.167,0-3.683.539-4.635,1.646-1.073,1.248-1.4,3.153-.994,5.824h.008c0,.04-.007.078-.007.119a1.409,1.409,0,0,0,.851,1.469,5.174,5.174,0,0,0,.794,2.493.346.346,0,0,0-.06.051l-.961,1.281-3.132,1.445A2.368,2.368,0,0,0,42,142.472v.729a.337.337,0,0,0,.675,0v-.729a1.692,1.692,0,0,1,.98-1.531l2.953-1.363,2.2,3.142a.336.336,0,0,0,.228.141.328.328,0,0,0,.048,0,.337.337,0,0,0,.21-.074l1.476-1.181,1.476,1.181a.336.336,0,0,0,.21.074.328.328,0,0,0,.048,0,.336.336,0,0,0,.228-.141l2.2-3.142,2.953,1.363a1.692,1.692,0,0,1,.98,1.531v.729a.337.337,0,0,0,.675,0v-.729A2.368,2.368,0,0,0,58.166,140.328Zm-7.4.345-1.3-1.446a3.316,3.316,0,0,0,2.61-.008Zm-3.386-12.587c.817-.95,2.166-1.411,4.124-1.411a2.045,2.045,0,0,1,2.339,1.353.338.338,0,0,0,.316.219.586.586,0,0,1,.47.242c.51.611.653,2.149.395,4.011a1.274,1.274,0,0,0-.216-.062,11.251,11.251,0,0,0-.488-2.709.338.338,0,0,0-.523-.164,4.556,4.556,0,0,1-2.448.806,6.368,6.368,0,0,1-1.708-.3,5.777,5.777,0,0,0-1.533-.28c-.847,0-1.319,1.287-1.381,2.65a1.185,1.185,0,0,0-.286.095C46.254,130.527,46.569,129.033,47.383,128.086Zm-.324,6.346c-.4,0-.506-.53-.506-.843,0-.4.109-.506.506-.506a.337.337,0,0,0,.337-.337c0-1.325.426-2.284.713-2.284a5.311,5.311,0,0,1,1.354.255,6.984,6.984,0,0,0,1.887.327,5.088,5.088,0,0,0,2.451-.684,9.964,9.964,0,0,1,.341,2.386.337.337,0,0,0,.337.337c.4,0,.506.109.506.506,0,.313-.107.843-.506.843a.337.337,0,0,0-.337.337c0,2.194-1.548,4.047-3.381,4.047s-3.364-1.853-3.364-4.047A.337.337,0,0,0,47.059,134.432Zm2.094,7.606-2.015-2.878.619-.825,2.522,2.8Zm3.232,0-1.126-.9,2.522-2.8.619.825Z" transform="translate(-42 -126)" fill="#1a1a1a"/>
</svg>
