<svg height="20.917" viewBox="0 0 13.683 20.917" width="13.683" xmlns="http://www.w3.org/2000/svg">
    <g id="mark_completed" transform="translate(-194.879 -165.628)">
        <path d="M4.614,9.259A4.628,4.628,0,1,1,8.13,7.626V6.86a1.072,1.072,0,0,0-.057-.345,3.926,3.926,0,1,0-2.72,1.994V9.2A4.629,4.629,0,0,1,4.614,9.259Z" data-name="Subtraction 38"
            fill="#c8d921"
            id="Subtraction_38" transform="translate(194.879 165.628)" />
        <path d="M11.215,10.334a.224.224,0,0,0-.316,0L8.815,12.418a.061.061,0,0,1-.083,0l-.911-.911a.224.224,0,1,0-.316.316l1.1,1.108a.321.321,0,0,0,.171.085.238.238,0,0,0,.151-.085l2.293-2.274a.224.224,0,0,0,0-.316Z" data-name="Path 202256"
            fill="#c8d921"
            id="Path_202256" stroke="#c8d921" stroke-width="0.4"
            transform="translate(190.186 158.528)" />
        <path d="M2116.069,1039.272a.347.347,0,0,1-.347-.347v-.642a1.949,1.949,0,0,1,.26-.891c.188-.36.517-1.018,1.014-2.112a1.228,1.228,0,0,0,.114-.514v-4a.581.581,0,0,0-1.156,0,.347.347,0,1,1-.694,0v-.347a.582.582,0,0,0-1.158,0,.347.347,0,0,1-.694,0v-.347a.581.581,0,0,0-1.156,0v.073a.347.347,0,0,1-.695,0v-4.932c0-.282-.318-.521-.694-.521s-.694.239-.694.521v8.849a.347.347,0,0,1-.6.238l-1.493-1.6a1.119,1.119,0,0,0-1.272-.284.184.184,0,0,0-.1.131.224.224,0,0,0,.041.185l3.656,4.463a2.084,2.084,0,0,1,.463,1.316v.408a.347.347,0,1,1-.694,0v-.408a1.388,1.388,0,0,0-.306-.877l-3.656-4.463a.918.918,0,0,1-.182-.774.877.877,0,0,1,.5-.619,1.807,1.807,0,0,1,2.054.449l.892.954v-7.972a1.4,1.4,0,0,1,2.776,0v3.777a1.311,1.311,0,0,1,.578-.133,1.287,1.287,0,0,1,1.091.589,1.3,1.3,0,0,1,.761-.242,1.287,1.287,0,0,1,1.091.589,1.3,1.3,0,0,1,.76-.241,1.247,1.247,0,0,1,1.273,1.215v4a1.915,1.915,0,0,1-.177.8c-.5,1.108-.838,1.779-1.031,2.146a1.324,1.324,0,0,0-.181.57v.642A.347.347,0,0,1,2116.069,1039.272Z" data-name="Path 3358"
            fill="#c8d921"
            id="Path_3358" transform="translate(-1909.243 -852.727)" />
    </g>
</svg>
