<svg height="30" viewBox="0 0 29.703 30" width="29.703" xmlns="http://www.w3.org/2000/svg">
    <g id="Massage" transform="translate(-2522.221 -911.362)">
        <g data-name="Group 965" id="Group_965" transform="translate(2522.221 915.649)">
            <path d="M2708.675,1063.106a.459.459,0,0,1-.449-.556l.606-2.829.044-.82a.459.459,0,1,1,.917.049l-.046.856a.442.442,0,0,1-.01.072l-.614,2.865A.46.46,0,0,1,2708.675,1063.106Z" data-name="Path 1844"
                id="Path_1844"
                transform="translate(-2696.824 -1053.745)" />
            <path d="M2792.187,989.1a.459.459,0,0,1-.026-.918l1.876-.108a.271.271,0,0,0,.252-.256l-.349-1.794a.459.459,0,0,1,.323-.529l.479-.139-.834-1.292a.461.461,0,0,1-.073-.246l-.014-1.995a.459.459,0,0,1,.456-.463h0a.459.459,0,0,1,.459.456l.013,1.861,1.1,1.7a.459.459,0,0,1-.258.69l-.669.194.277,1.424a.47.47,0,0,1,.008.067,1.193,1.193,0,0,1-1.116,1.24l-1.877.108Z" data-name="Path 1845"
                id="Path_1845"
                transform="translate(-2775.223 -981.362)" />
            <path d="M2786.272,1076.22a.46.46,0,0,1-.444-.343l-.75-2.865a.459.459,0,1,1,.888-.233l.75,2.865a.459.459,0,0,1-.328.561A.464.464,0,0,1,2786.272,1076.22Z" data-name="Path 1846"
                id="Path_1846"
                transform="translate(-2768.966 -1066.859)" />
            <path d="M2612.52,1098.306a.458.458,0,0,1-.11-.013l-7.291-1.787a.459.459,0,0,1,.219-.892l7.29,1.787a.459.459,0,0,1-.109.906Z" data-name="Path 1847"
                id="Path_1847"
                transform="translate(-2599.714 -1088.603)" />
            <path d="M2784.409,1102.205a.459.459,0,0,1-.092-.909l7.469-1.533a.459.459,0,0,1,.185.9l-7.469,1.533A.464.464,0,0,1,2784.409,1102.205Z" data-name="Path 1848"
                id="Path_1848"
                transform="translate(-2767.921 -1092.503)" />
            <path d="M2530.933,1045.876a.459.459,0,0,1-.456-.406l-.256-2.2s0-.006,0-.009a1.245,1.245,0,0,0-.614-.955l-6.108-3.533a2.119,2.119,0,0,1-.3-.209,2.714,2.714,0,0,1,.9-4.663l7.57-2.413a.459.459,0,1,1,.279.875l-7.568,2.412a1.8,1.8,0,0,0-.594,3.084,1.229,1.229,0,0,0,.174.119l6.108,3.533a2.165,2.165,0,0,1,1.068,1.656l.256,2.2a.46.46,0,0,1-.4.509A.469.469,0,0,1,2530.933,1045.876Z" data-name="Path 1849"
                id="Path_1849"
                transform="translate(-2522.221 -1028.398)" />
            <path d="M2859.031,1055.061l-.04,0a.459.459,0,0,1-.419-.5l.188-2.2a2.168,2.168,0,0,1,1.069-1.667l6.107-3.533a1.219,1.219,0,0,0,.174-.119,1.8,1.8,0,0,0-.6-3.085l-5.6-1.813a.459.459,0,1,1,.283-.874l5.6,1.813a2.713,2.713,0,0,1,.9,4.664,2.123,2.123,0,0,1-.3.209l-6.107,3.533a1.245,1.245,0,0,0-.615.955l-.187,2.194A.46.46,0,0,1,2859.031,1055.061Z" data-name="Path 1850"
                id="Path_1850"
                transform="translate(-2837.972 -1037.583)" />
            <path d="M2807.481,1258.4a.459.459,0,0,1-.457-.413l-.477-4.715-1.213-.635a.459.459,0,0,1-.21-.229l-1.092-2.592a.46.46,0,0,1,.231-.6,1.481,1.481,0,0,1,1.938.662l.335.645,1.764.365a.459.459,0,0,1-.186.9l-1.978-.409a.459.459,0,0,1-.314-.238l-.436-.839a.564.564,0,0,0-.254-.247l.775,1.84,1.286.674a.46.46,0,0,1,.244.361l.5,4.961a.46.46,0,0,1-.411.5Z" data-name="Path 1851"
                id="Path_1851"
                transform="translate(-2786.74 -1232.69)" />
            <path d="M2867.693,1232.675a.46.46,0,0,1-.437-.32l-1.374-4.319a1.891,1.891,0,0,1-.1-.62v-3.134l-1.532-1.851a.459.459,0,0,1,.708-.586l1.637,1.978a.459.459,0,0,1,.106.293v3.3a.966.966,0,0,0,.055.322l0,.013,1.376,4.325a.46.46,0,0,1-.438.6Z" data-name="Path 1852"
                id="Path_1852"
                transform="translate(-2843.2 -1206.962)" />
            <path d="M2652.6,1258.4l-.046,0a.459.459,0,0,1-.411-.5l.5-4.961a.46.46,0,0,1,.244-.361l1.286-.674.775-1.84a.562.562,0,0,0-.254.247l-.436.839a.46.46,0,0,1-.314.238l-1.978.409a.459.459,0,0,1-.186-.9l1.764-.365.335-.645a1.481,1.481,0,0,1,1.937-.662.459.459,0,0,1,.231.6l-1.091,2.592a.461.461,0,0,1-.21.229l-1.214.635-.477,4.715A.459.459,0,0,1,2652.6,1258.4Z" data-name="Path 1853"
                id="Path_1853"
                transform="translate(-2643.501 -1232.69)" />
            <path d="M2602.474,1232.676a.46.46,0,0,1-.438-.6l1.376-4.325a.123.123,0,0,1,0-.013.971.971,0,0,0,.055-.322v-3.3a.459.459,0,0,1,.105-.293l1.637-1.978a.459.459,0,0,1,.708.586l-1.532,1.851v3.134a1.889,1.889,0,0,1-.1.62l-1.374,4.319A.459.459,0,0,1,2602.474,1232.676Z" data-name="Path 1854"
                id="Path_1854"
                transform="translate(-2597.128 -1206.963)" />
            <path d="M2775.5,1167.867l-.04,0a.459.459,0,0,1-.419-.5l.192-2.259a2.735,2.735,0,0,1,.969-1.871l.569-.479a.459.459,0,0,1,.592.7l-.569.479a1.821,1.821,0,0,0-.646,1.247l-.192,2.259A.459.459,0,0,1,2775.5,1167.867Z" data-name="Path 1855"
                id="Path_1855"
                transform="translate(-2759.557 -1151.548)" />
            <path d="M2709.13,1167.867a.459.459,0,0,1-.457-.42l-.192-2.259a1.82,1.82,0,0,0-.646-1.246l-.569-.479a.459.459,0,0,1,.592-.7l.569.479a2.735,2.735,0,0,1,.969,1.871l.192,2.259a.459.459,0,0,1-.419.5Z" data-name="Path 1856"
                id="Path_1856"
                transform="translate(-2695.78 -1151.548)" />
        </g>
        <path d="M2693.094,921.565a.459.459,0,0,1-.185-.039A5.354,5.354,0,0,1,2695,911.362c2.392,0,5.3,1.281,5.622,4.889a.459.459,0,0,1-.915.082,4.35,4.35,0,0,0-4.707-4.052,4.188,4.188,0,0,0-4.183,4.183,4.285,4.285,0,0,0,2.461,4.222.459.459,0,0,1-.186.88Z" data-name="Path 1857"
            id="Path_1857"
            transform="translate(-157.41 0)" />
        <path d="M2743.484,962.628a.459.459,0,0,1-.17-.886,5.523,5.523,0,0,0,3.634-3.982.459.459,0,0,1,.911.12,6.373,6.373,0,0,1-4.2,4.715A.457.457,0,0,1,2743.484,962.628Z" data-name="Path 1858"
            id="Path_1858"
            transform="translate(-207.281 -43.182)" />
    </g>
</svg>
