<svg height="595.28" viewBox="0 0 841.89 595.28" width="841.89" xmlns="http://www.w3.org/2000/svg">
    <defs>
        <clipPath id="clip-アートボード_1_1">
            <rect height="595.28" width="841.89" />
        </clipPath>
    </defs>
    <g clip-path="url(#clip-アートボード_1_1)" data-name="アートボード 1 – 1" id="アートボード_1_1">
        <rect fill="#fff" height="595.28" width="841.89" />
        <g data-name="Group 56535" id="Group_56535">
            <path
                d="M217.64,451.689a97.108,97.108,0,0,1-4.207,8.977q-1.13,2.135-5.022,9.416-2.889,5.463-4.708,9.354a46.481,46.481,0,0,1-3.955,6.466l-5.525,7.974a43.122,43.122,0,0,0-4.52,7.6q-.251.753-.941,2.511-.88,2.259-2.261,2.7a19.1,19.1,0,0,1-3.7.188q0-2.388,5.65-10.924l7.345-11.175a16.917,16.917,0,0,0-3.955-.375q-9.919,0-15.318,3.64-2.576,1.7-6.341,6.9-2.824,3.831-5.524,3.642h-.816a10.474,10.474,0,0,1,2.888-5.713l7.784-8.726a42.343,42.343,0,0,1-7.784-4.206q-5.087-3.514-5.085-6.529a9.875,9.875,0,0,1,.439-1.884l1.569-1.129q1.884.752,4.709,4.143,5.586,6.655,7.408,6.654,2.2,0,5.273-4.834.125-.189,5.775-9.417,3.327-5.4,5.4-6.215a6.85,6.85,0,0,1,.628,2.511q0,3.2-3.139,7.158-8.414,10.609-8.663,11.425a3.923,3.923,0,0,0,2.009,1.256,42.621,42.621,0,0,1,5.775-.565q7.282-.438,9.354-1.884,2.574-1.82,5.274-7.784.5-1.129,5.022-11.551,2.886-6.719,5.022-9.292l1.821-.376Z"
                data-name="Path 201638" fill="#474645" id="Path_201638" />
            <path
                d="M245.826,494.44q-1.883,2.072-8.914,3.139a67.122,67.122,0,0,1-10.107.754q-10.611,0-10.61-6.09,0-7.469,11.049-12.807a48.413,48.413,0,0,1,7.973-3.076q4.016.942,5.336,1.381,2.825.942,2.825,4.709,0,3.328-4.269,5.274a17.37,17.37,0,0,1-7.282,1.631q-5.776,0-8.287-1.757-3.139,1.508-3.139,3.892,0,4.208,7.659,4.206,2.824,0,6.592-.377Q243.5,494.442,245.826,494.44Zm-6.466-12.053a6.049,6.049,0,0,0-4.583-2.009,7.513,7.513,0,0,0-3.515.816q-.063.063-3.2,1.758a5.8,5.8,0,0,0,5.148,3.014A7.253,7.253,0,0,0,239.36,482.387Z"
                data-name="Path 201639" fill="#474645" id="Path_201639" />
            <path
                d="M284.623,499.086q-1.381,3.014-3.265,3.014-2.135,0-4.708-3.139a22.252,22.252,0,0,1-3.264-5.148q-5.274,2.511-7.157,3.264a21.79,21.79,0,0,1-7.471,1.82q-4.959,0-4.959-5.021,0-8.1,8.789-14.44a55.042,55.042,0,0,1,7.785-4.457q5.838-2.824,8.286-2.825a4.225,4.225,0,0,1,3.2,1.821,5.665,5.665,0,0,1,1.506,3.578q0,3.453-2.73,9.072t-2.731,6.5q0,3.014.941,4.144Q279.6,498.208,284.623,499.086Zm-2.26-21.219q0-2.261-3.892-2.26a16.43,16.43,0,0,0-9.48,2.574,44.336,44.336,0,0,0-7.282,6.4q-4.771,5.086-4.771,8.036a3,3,0,0,0,1.506,2.7,5.962,5.962,0,0,0,3.2.817,12.859,12.859,0,0,0,9.354-3.83,89.21,89.21,0,0,0,5.336-7.219q2.7-3.893,5.211-3.893A7.928,7.928,0,0,0,282.363,477.867Zm2.072,22.475v-.189h.125v-.188h-.125v-.376h.25v.125h-.125v.126h.125v.5Z"
                data-name="Path 201640" fill="#474645" id="Path_201640" />
            <path
                d="M314.442,458.029q0,.377-4.206,8.1l-8.161,15q-5.085,9.416-5.588,10.923l-1.255,4.018q-1.069,2.511-2.762,2.511a6.258,6.258,0,0,1-2.135-.439l-.691-1.13q.69-3.264,4.709-9.857l7.973-13.121a53.794,53.794,0,0,0,6.089-12.743q.25-1.068,1.067-3.768a5.427,5.427,0,0,1,2.449-2.824,2.621,2.621,0,0,1,1.726,1.224A3.655,3.655,0,0,1,314.442,458.029Z"
                data-name="Path 201641" fill="#474645" id="Path_201641" />
            <path
                d="M327.123,480.5q0,1.005-3.516,9.981-.439,1.131-1.318,3.328a3.673,3.673,0,0,1-1.946,2.134,10.017,10.017,0,0,1-2.825.251,7.269,7.269,0,0,0-.157-1.256,7.132,7.132,0,0,1-.157-1.254,5.912,5.912,0,0,1,1.067-3.077,26.565,26.565,0,0,0,1.632-2.825q.5-1.569,1.947-5.524a10.96,10.96,0,0,1,3.389-4.646Q327.123,479.5,327.123,480.5Zm5.9-17.265q0,2.26-3.013,2.261-2.764,0-2.763-2.261a10.055,10.055,0,0,1,.722-3.138,12.252,12.252,0,0,0,.785-3.014q.627.378,2.386,3.579a12.542,12.542,0,0,0,1.129,1.13A1.974,1.974,0,0,1,333.024,463.239Z"
                data-name="Path 201642" fill="#474645" id="Path_201642" />
            <path
                d="M372.259,483.454q0,2.2-2.072,6.341a20.877,20.877,0,0,1-3.829,5.775,5.733,5.733,0,0,0,.126,1.005,3.683,3.683,0,0,0,.439.942,2.345,2.345,0,0,1-2.511,1.883,3.134,3.134,0,0,1-1.914-.628,1.939,1.939,0,0,1-.848-1.632q0-1.82,3.2-6.215t3.2-6.089q0-3.2-3.264-3.2-4.332,0-8.413,4.017-2.07,2.2-7.6,7.785-4.393,4.458-8.475,5.148v-.565l-.565-.627q0-3.327,6.153-10.673a43.409,43.409,0,0,0,4.52-6.09q.564-1.632,1.255-3.264a5.676,5.676,0,0,1,1.1-1.758,2.464,2.464,0,0,1,1.726-.5q1.758,0,1.758,1.822a5.326,5.326,0,0,1-.314,2.009q-.063.25-1.381,3.389,5.4-2.888,6.152-3.2,4.269-2.073,6.278-2.072a4.517,4.517,0,0,1,3.829,1.977A7.325,7.325,0,0,1,372.259,483.454Z"
                data-name="Path 201643" fill="#474645" id="Path_201643" />
            <path
                d="M405.908,481.006a15.86,15.86,0,0,1-1.319,4.771,7.751,7.751,0,0,0-.627,2.575,88.2,88.2,0,0,1-1.193,15.882q-3.767,20.34-20.214,20.34a22.487,22.487,0,0,1-7.66-1.82q-5.649-2.136-5.649-4.583a9.256,9.256,0,0,1,.564-2.26h.628a17.432,17.432,0,0,0,5.525,3.641,15.83,15.83,0,0,0,6.215,1.821q7.594,0,12.681-7.283a25,25,0,0,0,4.52-14.565,6.486,6.486,0,0,0-.754-3.264,5.75,5.75,0,0,0-1.945-.5,6.171,6.171,0,0,0-1.319.251,6.067,6.067,0,0,1-1.444.251A41.2,41.2,0,0,1,385,495.57q-5.65-1.38-5.65-5.649,0-6.028,6.9-10.736,6.34-4.33,12.556-4.332Q405.908,474.853,405.908,481.006Zm-4.018-.753q0-2.073-3.83-2.072-4.017,0-8.977,3.39-5.462,3.7-5.461,7.533,0,4.207,8.224,4.206a14.416,14.416,0,0,0,4.206-.627q2.951-.878,2.95-2.511a4.213,4.213,0,0,0-.282-1.256,4.182,4.182,0,0,1-.283-1.192q0-.754,2.323-4.583A6.079,6.079,0,0,0,401.89,480.253Z"
                data-name="Path 201644" fill="#474645" id="Path_201644" />
            <path
                d="M506.414,458.218a48.3,48.3,0,0,1-2.825,8.349q-.753,1.883-4.708,10.735-1.194,2.637-3.7,8.726-.629,2.134-2.009,6.466-1.758,5.337-2.794,5.777a16.3,16.3,0,0,1-3.547.815l-.188-1.946q0-3.2,2.762-9.354l5.336-11.865q2.7-6.027,2.7-9.793-1.632.816-7.282,6.277l-9.479,9.229q-4.9,4.771-6.968,4.771-2.637,0-3.327-9.668-.441-6.027-.692-7.031a70.131,70.131,0,0,0-5.869,11.457,69.026,69.026,0,0,1-5.932,11.52q-4.145,5.9-8.35,5.9l3.39-7.533q1.7-3.7,6.529-14.251,3.451-7.6,3.893-8.224,1-1.507,4.519-3.327a22.513,22.513,0,0,0,1-2.889,6.722,6.722,0,0,1,2.009-2.887,13.414,13.414,0,0,1,3.64,6.78q.313,1.194,1.7,13.749h.565q2.072,0,8.035-6.278l11.175-11.8q6.088-6.34,7.973-6.34.814.439,1.7.879Z"
                data-name="Path 201645" fill="#474645" id="Path_201645" />
            <path
                d="M539.811,499.086q-1.38,3.014-3.263,3.014-2.136,0-4.709-3.139a22.258,22.258,0,0,1-3.265-5.148q-5.271,2.511-7.156,3.264a21.791,21.791,0,0,1-7.471,1.82q-4.959,0-4.959-5.021,0-8.1,8.789-14.44a55.026,55.026,0,0,1,7.784-4.457q5.838-2.824,8.287-2.825a4.225,4.225,0,0,1,3.2,1.821,5.666,5.666,0,0,1,1.507,3.578q0,3.453-2.732,9.072t-2.73,6.5q0,3.014.941,4.144Q534.79,498.208,539.811,499.086Zm-2.259-21.219q0-2.261-3.892-2.26a16.424,16.424,0,0,0-9.479,2.574,44.3,44.3,0,0,0-7.283,6.4q-4.772,5.086-4.771,8.036a3,3,0,0,0,1.507,2.7,5.959,5.959,0,0,0,3.2.817,12.859,12.859,0,0,0,9.354-3.83,88.949,88.949,0,0,0,5.336-7.219q2.7-3.893,5.21-3.893A7.915,7.915,0,0,0,537.552,477.867Zm2.072,22.475v-.189h.125v-.188h-.125v-.376h.251v.125h-.126v.126h.126v.5Z"
                data-name="Path 201646" fill="#474645" id="Path_201646" />
            <path
                d="M573.21,460.854a7.474,7.474,0,0,1-1.067,3.516q-.441.816-3.831,5.336,1.569,1.068,3.2,2.071a3.653,3.653,0,0,1,1.569,3.265l-.063.69q-.063,0-2.887-.879a10.357,10.357,0,0,0-2.825-.564q-3.455,0-9.951,7.251t-6.5,10.829q0,3.077,5.525,4.457a32.615,32.615,0,0,0,7.91.879,24.314,24.314,0,0,0,3.453-.251q-.063.315.564,1.13a21.907,21.907,0,0,1-7.846,1.507q-14.125,0-14.125-6.906,0-4.08,7.094-11.991l5.4-6.026-2.2-.126a10.5,10.5,0,0,0-3.7.753,29.33,29.33,0,0,1-5.4,1.633,3.3,3.3,0,0,1-1.977-.659,1.984,1.984,0,0,1-.911-1.665q0-2.447,5.587-2.448c.377,0,.921.022,1.633.063s1.256.063,1.632.063a16.845,16.845,0,0,0,7.879-1.633,14.432,14.432,0,0,0,5.493-5.649q.814-1.381,3.829-7.785a2.268,2.268,0,0,1,1.664,1.13A3.515,3.515,0,0,1,573.21,460.854Z"
                data-name="Path 201647" fill="#474645" id="Path_201647" />
            <path
                d="M619.036,494.5q-3.894,3.015-11.551,4.52a62.346,62.346,0,0,1-12.618,1.256q-14.441,0-14.439-8.852,0-9.479,17.891-17.2A65.8,65.8,0,0,1,610,470.334q2.322,1.381,2.323,3.139a14.572,14.572,0,0,1-1.569,5.712q-1.823,4.019-3.767,4.018a3.333,3.333,0,0,1-1.852-.6,1.73,1.73,0,0,1-.91-1.474q0-.816,3.389-5.337-1.068-.187-2.071-.314-5.589,0-13.121,4.709-8.349,5.211-8.349,10.546,0,3.955,3.955,5.839a17.058,17.058,0,0,0,7.408,1.444,73.9,73.9,0,0,0,17.389-1.758q.189-.061,1.947-.816a4.854,4.854,0,0,1,1.882-.5,1.417,1.417,0,0,1,.44.064l.628-.566,1.193-.062Z"
                data-name="Path 201648" fill="#474645" id="Path_201648" />
            <path
                d="M665.868,479.185q0,2.889-3.734,10.044t-3.736,9.355a6.8,6.8,0,0,0,1,3.516,8.371,8.371,0,0,1-3.515,1.192,2.081,2.081,0,0,1-2.323-2.385q0-2.513,3.672-10.013t3.673-10.39a8.81,8.81,0,0,0-.126-1.194,8.692,8.692,0,0,1-.125-1.192,38.952,38.952,0,0,0-17.829,7.031q-8.914,6.216-12.367,14.5a31.407,31.407,0,0,0-4.144-1.067q.313-1.38,4.332-6.718,1.443-1.819,7.973-10.483,4.77-6.34,6.026-8.476.377-.627,3.767-8.725,2.449-5.777,4.52-7.66.753.439,1.57.942a1.554,1.554,0,0,1,.816,1.381q0,.942-10.609,22.287,5.271-2.322,9.227-3.955,7.535-3.139,8.538-3.14a2.3,2.3,0,0,1,1.7.566A6.19,6.19,0,0,1,665.868,479.185Z"
                data-name="Path 201649" fill="#474645" id="Path_201649" />
        </g>
        <g data-name="Group 56543" id="Group_56543">
            <g data-name="Group 56538" id="Group_56538">
                <g data-name="Group 56536" id="Group_56536">
                    <path
                        d="M431.945,359.623a141.752,141.752,0,0,0-6.923-51.513,233.064,233.064,0,0,0,52.556-42.874c13.849-15.332,23.951-31.4,30.244-47.888,21.944-22.548,50.15-9.384,51.348-8.809a3.531,3.531,0,0,0,3.081-6.355c-.3-.146-26.68-12.6-50.459,2.773A113.149,113.149,0,0,0,510.7,143.45a3.529,3.529,0,1,0-6.769,2c25.259,85.8-62.168,144.248-81.356,155.868a132.147,132.147,0,0,0-18.155-32.488c-2.625-3.426-5.321-6.8-8.016-10.159-5.149-6.431-10.163-12.7-14.584-19.246a94.357,94.357,0,0,0,28.764-23.23c13.894-16.577,28.852-46.248,21.193-93.424A3.531,3.531,0,0,0,424.8,123.9c12.283,75.676-34.717,103.683-46.778,109.545a82.452,82.452,0,0,1-8.86-20.25c-5.255-18.932-7.726-55.345,6.974-78.074a3.531,3.531,0,1,0-5.929-3.837c-15.971,24.688-13.444,63.638-7.857,83.795,5.248,18.92,17.087,33.707,28.536,48,2.659,3.321,5.327,6.648,7.917,10.037,15.726,20.55,25.085,47.814,26,75.341-.1,3.151-.1,6.282,0,9.384-1.032,28-10.781,53.759-27.747,73.037a3.532,3.532,0,0,0,5.3,4.669,119.112,119.112,0,0,0,25.979-51.074,118.09,118.09,0,0,0,25.972,51.054,3.53,3.53,0,1,0,5.3-4.664C442.894,411.875,433.286,386.931,431.945,359.623Z"
                        data-name="Path 201650" fill="#c08d4e" id="Path_201650" />
                    <path
                        d="M383.422,312.59a3.522,3.522,0,0,0-.682-.765,106.72,106.72,0,0,0-9.127-9.259c-28.7-25.767-72.071-64.709-59.59-126.013a3.531,3.531,0,1,0-6.919-1.409C293.81,240.413,339,280.982,368.893,307.82c1.742,1.569,3.385,3.171,4.97,4.794a109.794,109.794,0,0,1-36.455,1.978c-29.792-3.675-51.1-20.491-63.342-49.99a3.533,3.533,0,0,0-6.526,2.711c11.815,28.473,30.529,42.794,49.4,49.537-11.164,5.533-28.052,17.953-29.684,42.893a3.528,3.528,0,0,0,3.29,3.755c.082.006.158.006.235.006a3.53,3.53,0,0,0,3.522-3.3c2-30.5,29.809-39.157,33.7-40.216a103.5,103.5,0,0,0,21.789,2.247,119.631,119.631,0,0,0,29.441-3.68c26.587,32.016,25,73.171-5.327,110.437a3.533,3.533,0,1,0,5.482,4.459C412.04,393.343,413.121,347.233,383.422,312.59Z"
                        data-name="Path 201651" fill="#c08d4e" id="Path_201651" />
                    <path
                        d="M586.587,292.834a3.54,3.54,0,0,0-4.183,2.725c-3.131,14.843-15.5,22.165-37.8,22.389-2.636.026-5.308.015-8,.005-6.733-.019-13.78-.025-20.819.515a3.072,3.072,0,0,0-.521.04c-10.333.834-20.628,2.9-29.869,7.985,4.125-21.175,22.028-80.21,94.074-89.79a3.533,3.533,0,0,0-.931-7c-86.541,11.508-99.68,90.281-101.174,102.278a60.773,60.773,0,0,0-22.432,49.14c.7,17.863,8,37.171,20.035,52.977a3.526,3.526,0,0,0,2.811,1.383,3.488,3.488,0,0,0,2.136-.724,3.529,3.529,0,0,0,.677-4.944c-11.177-14.677-17.959-32.526-18.608-48.971a53.822,53.822,0,0,1,20.9-44.278c9.5-7.415,20.95-10.082,32.923-11.031,2.429.255,20.427,2.537,30.73,15.5,6.5,8.181,8.755,19.108,6.722,32.487a3.516,3.516,0,0,0,2.949,4.025,3.443,3.443,0,0,0,.542.045,3.529,3.529,0,0,0,3.483-3c2.355-15.432-.412-28.211-8.208-37.994a45.008,45.008,0,0,0-14.232-11.571c2.307.009,4.614.014,6.887-.005,25.749-.255,40.77-9.674,44.641-27.991A3.533,3.533,0,0,0,586.587,292.834Z"
                        data-name="Path 201652" fill="#c08d4e" id="Path_201652" />
                </g>
                <path
                    d="M496.867,352.447c-8.736-3.945-12.72-14.018-12.72-14.018s10.191-3.686,18.925.26,12.72,14.023,12.72,14.023-10.188,3.68-18.925-.265"
                    data-name="Path 201653" fill="#c8d921" id="Path_201653" />
                <path
                    d="M390.3,299.8c-9.382-1.953-15.449-10.924-15.449-10.924s9.152-5.806,18.536-3.851,15.452,10.925,15.452,10.925-9.149,5.8-18.539,3.85"
                    data-name="Path 201654" fill="#c8d921" id="Path_201654" />
                <path
                    d="M366.408,268.665c-9.384-1.954-15.455-10.923-15.455-10.923s9.152-5.808,18.534-3.85,15.453,10.923,15.453,10.923-9.151,5.8-18.532,3.85"
                    data-name="Path 201655" fill="#c8d921" id="Path_201655" />
                <path
                    d="M331.105,241.671c.664-9.565,8.733-16.79,8.733-16.79s6.985,8.278,6.32,17.845-8.742,16.782-8.742,16.782-6.984-8.275-6.311-17.837"
                    data-name="Path 201656" fill="#c8d921" id="Path_201656" />
                <path
                    d="M344.463,217.851c-6.342-7.191-5.824-18.01-5.824-18.01s10.8.838,17.138,8.027,5.824,18.009,5.824,18.009-10.8-.837-17.138-8.026"
                    data-name="Path 201657" fill="#c8d921" id="Path_201657" />
                <path
                    d="M339.032,174.256c-1.947-9.384,3.868-18.524,3.868-18.524s8.967,6.078,10.906,15.469-3.869,18.526-3.869,18.526-8.963-6.085-10.9-15.471"
                    data-name="Path 201658" fill="#c8d921" id="Path_201658" />
                <path
                    d="M318.222,205.366c1.739-9.428,10.557-15.709,10.557-15.709s6.024,9.008,4.29,18.437S322.516,223.8,322.516,223.8s-6.023-9-4.294-18.434"
                    data-name="Path 201659" fill="#c8d921" id="Path_201659" />
                <path
                    d="M375.7,143.121c5.149-8.092,15.684-10.6,15.684-10.6s2.2,10.6-2.942,18.695-15.681,10.6-15.681,10.6-2.2-10.6,2.939-18.7"
                    data-name="Path 201660" fill="#c8d921" id="Path_201660" />
                <path
                    d="M376.262,207.075c1.722-9.431,10.538-15.717,10.538-15.717s6.031,9,4.3,18.43-10.538,15.719-10.538,15.719-6.028-9-4.3-18.432"
                    data-name="Path 201661" fill="#c8d921" id="Path_201661" />
                <path
                    d="M374.634,173.127c6.049-7.435,16.811-8.708,16.811-8.708s.955,10.793-5.1,18.228-16.8,8.711-16.8,8.711-.962-10.791,5.086-18.231"
                    data-name="Path 201662" fill="#c8d921" id="Path_201662" />
                <path
                    d="M397.665,186.612c.395-9.581,8.259-17.036,8.259-17.036s7.212,8.081,6.817,17.657-8.251,17.033-8.251,17.033-7.225-8.079-6.825-17.654"
                    data-name="Path 201663" fill="#c8d921" id="Path_201663" />
                <path
                    d="M406.8,150.094c-3.711-8.839.235-18.927.235-18.927s9.969,4.242,13.684,13.074-.235,18.928-.235,18.928-9.969-4.238-13.684-13.075"
                    data-name="Path 201664" fill="#c8d921" id="Path_201664" />
                <path
                    d="M453.512,342.878c-5.938,7.536-16.675,8.965-16.675,8.965s-1.113-10.773,4.811-18.3c5.941-7.525,16.678-8.959,16.678-8.959s1.113,10.773-4.814,18.3"
                    data-name="Path 201665" fill="#c8d921" id="Path_201665" />
                <path
                    d="M447.789,318.633c-9.581.264-17.558-7.067-17.558-7.067s7.56-7.76,17.146-8.02,17.557,7.066,17.557,7.066-7.562,7.756-17.145,8.021"
                    data-name="Path 201666" fill="#c8d921" id="Path_201666" />
                <path
                    d="M443.552,277.724c-4.178,8.633-14.36,12.336-14.36,12.336s-3.4-10.28.776-18.908,14.35-12.337,14.35-12.337,3.41,10.286-.766,18.909"
                    data-name="Path 201667" fill="#c8d921" id="Path_201667" />
                <path
                    d="M424.507,256.773c-4.181,8.631-14.359,12.34-14.359,12.34s-3.4-10.285.774-18.912,14.351-12.34,14.351-12.34,3.4,10.285-.766,18.912"
                    data-name="Path 201668" fill="#c8d921" id="Path_201668" />
                <path
                    d="M422.88,232.7c-9.143,2.9-18.826-1.947-18.826-1.947s5.122-9.542,14.26-12.443,18.826,1.947,18.826,1.947-5.127,9.545-14.26,12.443"
                    data-name="Path 201669" fill="#c8d921" id="Path_201669" />
                <path
                    d="M444.883,205.039c-9.142,2.9-18.83-1.944-18.83-1.944s5.131-9.54,14.264-12.443,18.828,1.948,18.828,1.948-5.126,9.541-14.262,12.439"
                    data-name="Path 201670" fill="#c8d921" id="Path_201670" />
                <path
                    d="M456.114,174.994c-6.877,6.674-17.709,6.674-17.709,6.674s.315-10.823,7.192-17.5,17.711-6.678,17.711-6.678-.318,10.827-7.194,17.506"
                    data-name="Path 201671" fill="#c8d921" id="Path_201671" />
                <path
                    d="M456.139,147.284c-3.6,6.711-11.8,9.32-11.8,9.32s-2.367-8.281,1.233-14.992,11.812-9.313,11.812-9.313,2.361,8.275-1.244,14.985"
                    data-name="Path 201672" fill="#c8d921" id="Path_201672" />
                <path
                    d="M465.059,242.857c4.534,8.448,1.562,18.864,1.562,18.864s-10.325-3.271-14.862-11.716-1.568-18.866-1.568-18.866,10.328,3.278,14.868,11.718"
                    data-name="Path 201673" fill="#c8d921" id="Path_201673" />
                <path
                    d="M483.746,220.513c4.175,8.623.776,18.912.776,18.912s-10.18-3.705-14.363-12.335-.776-18.911-.776-18.911,10.182,3.705,14.363,12.334"
                    data-name="Path 201674" fill="#c8d921" id="Path_201674" />
                <path
                    d="M497.26,193.32c2.779,9.174-2.193,18.8-2.193,18.8s-9.478-5.248-12.256-14.423,2.2-18.8,2.2-18.8,9.468,5.248,12.251,14.425"
                    data-name="Path 201675" fill="#c8d921" id="Path_201675" />
                <path
                    d="M501.909,159.853c4.215,6.765,2.3,15.571,2.3,15.571s-8.744-2.17-12.957-8.936-2.31-15.569-2.31-15.569,8.744,2.167,12.965,8.934"
                    data-name="Path 201676" fill="#c8d921" id="Path_201676" />
                <path
                    d="M485.064,290.8c-.929,9.543-9.2,16.539-9.2,16.539s-6.757-8.47-5.823-18.011,9.207-16.54,9.207-16.54,6.754,8.47,5.815,18.012"
                    data-name="Path 201677" fill="#c8d921" id="Path_201677" />
                <path
                    d="M512.921,309.533c-7.616,5.823-18.373,4.54-18.373,4.54s1.593-10.713,9.209-16.53S522.135,293,522.135,293s-1.593,10.717-9.214,16.529"
                    data-name="Path 201678" fill="#c8d921" id="Path_201678" />
                <path
                    d="M534.435,280.435c-7.616,5.819-18.374,4.539-18.374,4.539s1.591-10.712,9.208-16.53,18.379-4.542,18.379-4.542-1.592,10.716-9.213,16.533"
                    data-name="Path 201679" fill="#c8d921" id="Path_201679" />
                <path
                    d="M559.2,263.413c-9.4-1.874-15.547-10.791-15.547-10.791s9.1-5.885,18.5-4.008,15.547,10.795,15.547,10.795-9.1,5.879-18.5,4"
                    data-name="Path 201680" fill="#c8d921" id="Path_201680" />
                <path
                    d="M570.791,302.247c-4.759,8.32-15.167,11.317-15.167,11.317s-2.7-10.493,2.062-18.814,15.172-11.32,15.172-11.32,2.7,10.5-2.067,18.817"
                    data-name="Path 201681" fill="#c8d921" id="Path_201681" />
                <path
                    d="M547.884,302.247c-4.765,8.32-15.172,11.317-15.172,11.317s-2.692-10.493,2.067-18.814,15.172-11.32,15.172-11.32,2.692,10.5-2.067,18.817"
                    data-name="Path 201682" fill="#c8d921" id="Path_201682" />
                <path
                    d="M555.025,229.512c-7.616,5.819-18.371,4.538-18.371,4.538s1.594-10.713,9.209-16.532,18.376-4.538,18.376-4.538-1.594,10.713-9.214,16.532"
                    data-name="Path 201683" fill="#c8d921" id="Path_201683" />
                <path
                    d="M507.382,255.771c-2,9.38-10.991,15.412-10.991,15.412s-5.774-9.174-3.771-18.55,10.986-15.4,10.986-15.4,5.769,9.169,3.776,18.542"
                    data-name="Path 201684" fill="#c8d921" id="Path_201684" />
                <path
                    d="M536.183,184.98c-5.519,7.842-16.161,9.851-16.161,9.851s-1.7-10.7,3.816-18.533S540,166.445,540,166.445s1.7,10.7-3.82,18.535"
                    data-name="Path 201685" fill="#c8d921" id="Path_201685" />
                <path
                    d="M529.615,227.637c1.936,9.388-3.892,18.519-3.892,18.519s-8.957-6.087-10.89-15.478,3.9-18.519,3.9-18.519,8.959,6.085,10.887,15.478"
                    data-name="Path 201686" fill="#c8d921" id="Path_201686" />
                <path
                    d="M373.313,346.664c6.742-6.817,6.845-17.649,6.845-17.649s-10.834.219-17.572,7.032-6.847,17.643-6.847,17.643,10.831-.21,17.574-7.026"
                    data-name="Path 201687" fill="#c8d921" id="Path_201687" />
                <path
                    d="M335.242,343.023c6.11-7.386,5.247-18.183,5.247-18.183s-10.771,1.174-16.875,8.559c-6.119,7.387-5.251,18.184-5.251,18.184s10.762-1.174,16.879-8.56"
                    data-name="Path 201688" fill="#c8d921" id="Path_201688" />
                <path
                    d="M327.034,296.988c2.173,9.334,11.294,15.192,11.294,15.192s5.582-9.279,3.406-18.616-11.293-15.194-11.293-15.194-5.585,9.286-3.407,18.618"
                    data-name="Path 201689" fill="#c8d921" id="Path_201689" />
                <path
                    d="M301.839,289.8c2.179,9.335,11.293,15.187,11.293,15.187s5.584-9.284,3.409-18.618-11.292-15.187-11.292-15.187-5.585,9.284-3.41,18.618"
                    data-name="Path 201690" fill="#c8d921" id="Path_201690" />
                <path
                    d="M279.889,267.672c2.177,9.335,11.288,15.19,11.288,15.19s5.587-9.283,3.412-18.618S283.3,249.057,283.3,249.057s-5.59,9.279-3.411,18.615"
                    data-name="Path 201691" fill="#c8d921" id="Path_201691" />
                <path
                    d="M294.087,325.085c7.911-.484,13.938-7.111,13.938-7.111s-6.794-5.828-14.7-5.339-13.942,7.106-13.942,7.106,6.8,5.838,14.705,5.344"
                    data-name="Path 201692" fill="#c8d921" id="Path_201692" />
                <path
                    d="M562.636,338.408c7.656,2.038,15.471-2.337,15.471-2.337s-4.6-7.68-12.26-9.718-15.471,2.337-15.471,2.337,4.6,7.676,12.26,9.718"
                    data-name="Path 201693" fill="#c8d921" id="Path_201693" />
                <path
                    d="M305.98,233.523c-2.138-9.343-11.222-15.231-11.222-15.231s-5.626,9.251-3.489,18.6,11.224,15.241,11.224,15.241,5.624-9.26,3.487-18.607"
                    data-name="Path 201694" fill="#c8d921" id="Path_201694" />
                <path
                    d="M358.691,332.381a4.487,4.487,0,1,1-4.487-4.489,4.488,4.488,0,0,1,4.487,4.489"
                    data-name="Path 201695" fill="#ffe900" id="Path_201695" />
                <g data-name="Group 56537" id="Group_56537">
                    <path d="M481.506,168.765a5.6,5.6,0,1,1-5.591-5.593,5.6,5.6,0,0,1,5.591,5.593"
                        data-name="Path 201696" fill="#e89d72" id="Path_201696" />
                    <path d="M552.523,186.919a5.6,5.6,0,1,1-5.6-5.593,5.6,5.6,0,0,1,5.6,5.593"
                        data-name="Path 201697" fill="#ffe900" id="Path_201697" />
                    <path
                        d="M463.308,212.119a6.348,6.348,0,1,1-6.35-6.349,6.346,6.346,0,0,1,6.35,6.349"
                        data-name="Path 201698" fill="#f3ceb4" id="Path_201698" />
                    <path
                        d="M330.862,180.636a5.217,5.217,0,1,1-5.214-5.217,5.215,5.215,0,0,1,5.214,5.217"
                        data-name="Path 201699" fill="#ffe900" id="Path_201699" />
                    <path
                        d="M319.422,263.785a6.347,6.347,0,1,1-6.354-6.348,6.346,6.346,0,0,1,6.354,6.348"
                        data-name="Path 201700" fill="#f3ceb4" id="Path_201700" />
                    <path
                        d="M567.016,274.44a6.348,6.348,0,1,1-6.348-6.348,6.348,6.348,0,0,1,6.348,6.348"
                        data-name="Path 201701" fill="#e89d72" id="Path_201701" />
                    <path
                        d="M363.268,241.47a3.607,3.607,0,1,1-3.609-3.607,3.61,3.61,0,0,1,3.609,3.607"
                        data-name="Path 201702" fill="#6b8828" id="Path_201702" />
                    <path d="M286.6,301.383a3.607,3.607,0,1,1-3.6-3.61,3.6,3.6,0,0,1,3.6,3.61"
                        data-name="Path 201703" fill="#6b8828" id="Path_201703" />
                    <path
                        d="M520.282,336.87a4.487,4.487,0,1,1-4.49-4.489,4.481,4.481,0,0,1,4.49,4.489"
                        data-name="Path 201704" fill="#f3ceb4" id="Path_201704" />
                    <path
                        d="M472.279,322.238a4.486,4.486,0,1,1-4.489-4.49,4.492,4.492,0,0,1,4.489,4.49"
                        data-name="Path 201705" fill="#f3ceb4" id="Path_201705" />
                    <path
                        d="M413.33,324.58a4.487,4.487,0,1,1-4.487-4.494,4.489,4.489,0,0,1,4.487,4.494"
                        data-name="Path 201706" fill="#f3ceb4" id="Path_201706" />
                    <path
                        d="M571.505,348.018a4.49,4.49,0,1,1-4.489-4.486,4.492,4.492,0,0,1,4.489,4.486"
                        data-name="Path 201707" fill="#f3ceb4" id="Path_201707" />
                    <path
                        d="M374.293,280.785a6.346,6.346,0,1,1-6.341-6.345,6.342,6.342,0,0,1,6.341,6.345"
                        data-name="Path 201708" fill="#e89d72" id="Path_201708" />
                    <path d="M441.037,243.7a4.28,4.28,0,1,1-4.28-4.278,4.28,4.28,0,0,1,4.28,4.278"
                        data-name="Path 201709" fill="#6b8828" id="Path_201709" />
                </g>
            </g>
            <g data-name="Group 56540" id="Group_56540">
                <g data-name="Group 56539" id="Group_56539">
                    <path
                        d="M465.922,111.7c.524.079,1.488.336,1.843-.106.549-.677-2.132-1.467-2.132-1.467s2.117.623,1.583-.295c-.4-.675-5.708-2.274-8.106-2.67a1.271,1.271,0,0,0-.133-.088c-.621-.836-1.325-1.71-2.084-2.577-.09-.106-.185-.214-.28-.322,2.991-.688,4.7-1.951,4.959-2.6.36-.848-1.758-.79-2.606-.811.863-.02,3.642-.673,4.324-1.706.479-.724-1.522-.491-2.627-.391,1.184-.288,3.236-.916,3.336-1.815.1-.942-1.527-.4-3.006-.287,1.241-.2,4.05-1.532,3.945-2.2-.144-.92-1.528-.338-2.659-.35,1.311-.347,3.614-1.715,3.269-2.739-.27-.8-1.838-.045-2.632.375a7.37,7.37,0,0,0,2.831-2.723c.974-1.89-2.2-.561-2.2-.561a4.78,4.78,0,0,0,2.277-2.423c.425-1.5-2.327-.092-2.327-.092s2.432-1.53,2.767-3.289c.232-1.253-1.981.187-2.735.642.542-.423,2.43-2.462,2.45-3.775.03-2.039-2.881.687-2.881.687s2.631-3.226,2.346-4.543c-.349-1.629-3.168,1-3.685,1.407.5-.415,2.936-4.118,2.288-4.65-1.322-1.073-3.716,2.556-4.035,3.058a6.541,6.541,0,0,0,.513-3.228c-.092-5.587-1.69.528-4.024,3.182-.909,1.03-2.046,2.135-3.145,3.229a5.369,5.369,0,0,0,.034-3.088c-.9-1.829-2.253,1.927-2.253,1.927s.872-4.077.025-5.114c-1.054-1.291-2.372,2.326-2.642,2.926.254-.6.739-5-.089-5.176-1.664-.355-2.138,3.963-2.2,4.557a6.44,6.44,0,0,0-1.01-3.109c-2.63-4.93-1.261,1.24-2.135,4.67-1.014,3.985-3.531,9.468-2.433,11.354.914,1.565,5.3,3.4,4.773,8.256-2.9-1.757-3.509-4.7-6.885-4.862a4.819,4.819,0,0,0-4.409,1.888,5.517,5.517,0,0,0-.821,3.935,4.7,4.7,0,0,0-.783.772,8.509,8.509,0,0,0-1.035,1.462s.261-.17.614-.4a10.1,10.1,0,0,1,1.855-.445,1.775,1.775,0,0,0,.389-.093,6.732,6.732,0,0,1,2.577,1.627c1.2,1.382.045,3.615,1.6,6.3a17.053,17.053,0,0,0,.931,1.437c4.732,7.273,14.835,5.661,17.247,5.139.117,0,.24-.009.364-.009.789,2.027.81,3.6,1.641,4.2.675.491.817-.045.824-.557a1.853,1.853,0,0,0,1.187,1.379c.753.242.591-.663.369-1.355.245.6.882,1.537,1.608,1.546.435,0,.352-.617-.15-1.578a3.082,3.082,0,0,0,1.1,1.145c1.065.523.493-1.093.161-1.78.234.416.931,1.162,1.438,1.213.659.063.215-1.335-.234-1.944.219.278,1.123,1.027,1.588.928.417-.088.074-.807-.515-1.453.515.41,1.373.591,1.513.322.214-.422-.607-1.088-1.306-1.528.457.308,1.435.547,1.676.109C468.364,112.49,466.756,111.895,465.922,111.7Z"
                        data-name="Path 201710" fill="#c8d921" id="Path_201710" />
                </g>
            </g>
            <g data-name="Group 56542" id="Group_56542">
                <g data-name="Group 56541" id="Group_56541">
                    <path
                        d="M387.55,111.7c-.528.079-1.491.336-1.852-.106-.543-.677,2.138-1.467,2.138-1.467s-2.115.623-1.577-.295c.4-.675,5.7-2.274,8.1-2.67a.934.934,0,0,1,.131-.088c.622-.836,1.324-1.71,2.084-2.578.1-.105.184-.213.278-.321-2.993-.688-4.69-1.951-4.96-2.6-.357-.848,1.767-.79,2.611-.811-.865-.02-3.634-.673-4.329-1.707-.482-.723,1.526-.49,2.639-.391-1.193-.287-3.246-.915-3.34-1.814-.1-.942,1.526-.4,3.005-.287-1.241-.2-4.057-1.532-3.951-2.2.145-.92,1.536-.338,2.663-.35-1.314-.347-3.612-1.715-3.267-2.739.271-.8,1.832-.045,2.627.375a7.339,7.339,0,0,1-2.828-2.723c-.973-1.89,2.193-.561,2.193-.561a4.779,4.779,0,0,1-2.271-2.423c-.424-1.5,2.328-.092,2.328-.092s-2.436-1.53-2.764-3.289c-.237-1.253,1.975.187,2.729.642-.543-.423-2.432-2.462-2.448-3.775-.033-2.039,2.883.687,2.883.687s-2.634-3.226-2.355-4.542c.353-1.63,3.173.994,3.689,1.406-.5-.415-2.937-4.118-2.286-4.65,1.325-1.073,3.713,2.556,4.036,3.058a6.527,6.527,0,0,1-.513-3.228c.094-5.587,1.682.528,4.027,3.182.9,1.03,2.043,2.135,3.14,3.229a5.39,5.39,0,0,1-.035-3.089c.9-1.828,2.256,1.928,2.256,1.928s-.874-4.077-.022-5.114c1.051-1.291,2.37,2.326,2.639,2.926-.251-.6-.74-5,.083-5.175,1.667-.356,2.144,3.962,2.208,4.556a6.368,6.368,0,0,1,1.006-3.109c2.626-4.93,1.26,1.24,2.132,4.67,1.02,3.985,3.534,9.468,2.435,11.354-.914,1.565-5.3,3.4-4.771,8.256,2.9-1.757,3.505-4.7,6.885-4.862a4.825,4.825,0,0,1,4.412,1.888,5.514,5.514,0,0,1,.817,3.935,4.476,4.476,0,0,1,.778.772,8.2,8.2,0,0,1,1.038,1.462s-.255-.17-.614-.4a10.177,10.177,0,0,0-1.85-.445,1.79,1.79,0,0,1-.392-.093,6.73,6.73,0,0,0-2.575,1.627c-1.2,1.382-.045,3.615-1.6,6.3a16.339,16.339,0,0,1-.933,1.437c-4.732,7.273-14.826,5.661-17.245,5.139-.119,0-.24-.009-.367-.009-.786,2.027-.8,3.6-1.634,4.2-.674.491-.822-.045-.825-.557a1.869,1.869,0,0,1-1.187,1.379c-.757.24-.6-.663-.373-1.355-.241.6-.878,1.535-1.607,1.546-.433,0-.356-.617.15-1.578a3.067,3.067,0,0,1-1.1,1.145c-1.062.523-.495-1.093-.161-1.78-.233.416-.929,1.162-1.437,1.213-.659.063-.211-1.335.235-1.944-.218.278-1.125,1.027-1.591.928-.413-.088-.072-.807.512-1.453-.512.41-1.371.591-1.5.322-.221-.422.6-1.088,1.3-1.528-.455.308-1.426.547-1.672.109C385.106,112.49,386.715,111.895,387.55,111.7Z"
                        data-name="Path 201711" fill="#c8d921" id="Path_201711" />
                </g>
            </g>
        </g>
    </g>
</svg>
