<svg xmlns="http://www.w3.org/2000/svg" width="17.963" height="19.001" viewBox="0 0 17.963 19.001">
  <path id="number_of_employee" d="M-3762.841,8930.363a1.639,1.639,0,0,1-1.3.637,1.646,1.646,0,0,1-1.643-1.644v-3.676a2.492,2.492,0,0,1-.634-.312v.3a1.071,1.071,0,0,1-1.071,1.071,1.075,1.075,0,0,1-.847-.415,1.069,1.069,0,0,1-.845.415,1.071,1.071,0,0,1-1.071-1.071v-2.394a1.648,1.648,0,0,1-1.13-1.556v-1.977a1.64,1.64,0,0,1,1.636-1.637h.688a1.639,1.639,0,0,1-.914-1.466,1.638,1.638,0,0,1,1.638-1.636,1.638,1.638,0,0,1,1.636,1.636,1.641,1.641,0,0,1-.912,1.466h1.34a2.493,2.493,0,0,1,1.265-.343h1.053a2.514,2.514,0,0,1-1.4-2.25,2.513,2.513,0,0,1,2.508-2.511,2.513,2.513,0,0,1,2.51,2.511,2.516,2.516,0,0,1-1.4,2.25h1.051a2.493,2.493,0,0,1,1.265.343h1.221a1.634,1.634,0,0,1-.912-1.466,1.638,1.638,0,0,1,1.636-1.636,1.636,1.636,0,0,1,1.636,1.636,1.632,1.632,0,0,1-.91,1.466h.686a1.64,1.64,0,0,1,1.636,1.637v1.977a1.648,1.648,0,0,1-1.13,1.556v2.394a1.071,1.071,0,0,1-1.072,1.071,1.067,1.067,0,0,1-.847-.415,1.064,1.064,0,0,1-.847.415,1.073,1.073,0,0,1-1.071-1.071v-.22a2.491,2.491,0,0,1-.513.235v3.676a1.646,1.646,0,0,1-1.643,1.644A1.647,1.647,0,0,1-3762.841,8930.363Zm.347-4.9v3.9a.953.953,0,0,0,.953.95.952.952,0,0,0,.95-.95v-9.087a.346.346,0,0,1,.347-.347.346.346,0,0,1,.345.347v4.669a1.829,1.829,0,0,0,1.04-1.641v-3.03a1.818,1.818,0,0,0-1.818-1.815H-3765a1.818,1.818,0,0,0-1.818,1.815v3.03a1.829,1.829,0,0,0,1.04,1.641v-4.669a.346.346,0,0,1,.345-.347.346.346,0,0,1,.347.347v9.087a.952.952,0,0,0,.95.95.953.953,0,0,0,.953-.95v-3.9a.345.345,0,0,1,.345-.345A.345.345,0,0,1-3762.494,8925.461Zm5.254-2.335v2.539a.621.621,0,0,0,.621.621.622.622,0,0,0,.621-.621v-5.926a.225.225,0,0,1,.224-.225.225.225,0,0,1,.227.225v3.046a1.191,1.191,0,0,0,.677-1.069v-1.977a1.185,1.185,0,0,0-1.183-1.184h-2.791a2.5,2.5,0,0,1,.677,1.712v3.03a2.509,2.509,0,0,1-.767,1.8v.566a.623.623,0,0,0,.621.621.623.623,0,0,0,.623-.621v-2.539a.225.225,0,0,1,.224-.227A.226.226,0,0,1-3757.24,8923.126Zm-10.868,0v2.539a.624.624,0,0,0,.621.621.622.622,0,0,0,.621-.621v-.692a2.5,2.5,0,0,1-.646-1.675v-3.03a2.5,2.5,0,0,1,.677-1.712h-2.91a1.185,1.185,0,0,0-1.184,1.184v1.977a1.191,1.191,0,0,0,.677,1.069v-3.046a.225.225,0,0,1,.224-.225.225.225,0,0,1,.226.225v5.926a.622.622,0,0,0,.621.621.624.624,0,0,0,.621-.621v-2.539a.226.226,0,0,1,.227-.227A.225.225,0,0,1-3768.108,8923.126Zm9.458-6.489a1.187,1.187,0,0,0,1.184,1.186,1.187,1.187,0,0,0,1.186-1.186,1.186,1.186,0,0,0-1.186-1.184A1.185,1.185,0,0,0-3758.65,8916.637Zm-10.868,0a1.187,1.187,0,0,0,1.186,1.186,1.187,1.187,0,0,0,1.183-1.186,1.184,1.184,0,0,0-1.183-1.184A1.185,1.185,0,0,0-3769.518,8916.637Zm4.862-1.127a1.82,1.82,0,0,0,1.815,1.817,1.821,1.821,0,0,0,1.818-1.817,1.821,1.821,0,0,0-1.818-1.818A1.82,1.82,0,0,0-3764.656,8915.51Z" transform="translate(3771.881 -8912.499)" stroke="rgba(0,0,0,0)" stroke-miterlimit="10" stroke-width="1"/>
</svg>
