<svg xmlns="http://www.w3.org/2000/svg" width="30.929" height="29.321" viewBox="0 0 30.929 29.321">
  <g id="office" transform="translate(-213.5 -116.5)">
    <path id="Path_528" data-name="Path 528" d="M371,392.821v-26.6L376.542,364l6.651,2.771v26.05" transform="translate(-147.024 -247)" fill="none" stroke="#000" stroke-linejoin="round" stroke-width="1"/>
    <path id="Path_201481" data-name="Path 201481" d="M0,0V1.663" transform="translate(231.182 119.771)" fill="none" stroke="#000" stroke-width="1"/>
    <path id="Path_201482" data-name="Path 201482" d="M0,0V1.663" transform="translate(227.856 119.771)" fill="none" stroke="#000" stroke-width="1"/>
    <path id="Path_201483" data-name="Path 201483" d="M0,0V1.663" transform="translate(232.845 120.325)" fill="none" stroke="#000" stroke-width="1"/>
    <path id="Path_201484" data-name="Path 201484" d="M0,0V1.663" transform="translate(225.639 120.325)" fill="none" stroke="#000" stroke-width="1"/>
    <path id="Path_201485" data-name="Path 201485" d="M0,0V1.663" transform="translate(234.508 120.88)" fill="none" stroke="#000" stroke-width="1"/>
    <path id="Path_201486" data-name="Path 201486" d="M0,0V1.663" transform="translate(231.182 123.097)" fill="none" stroke="#000" stroke-width="1"/>
    <path id="Path_201487" data-name="Path 201487" d="M0,0V1.663" transform="translate(227.856 123.097)" fill="none" stroke="#000" stroke-width="1"/>
    <path id="Path_201488" data-name="Path 201488" d="M0,0V1.663" transform="translate(232.845 123.651)" fill="none" stroke="#000" stroke-width="1"/>
    <path id="Path_201489" data-name="Path 201489" d="M0,0V1.663" transform="translate(225.639 123.651)" fill="none" stroke="#000" stroke-width="1"/>
    <path id="Path_201490" data-name="Path 201490" d="M0,0V1.663" transform="translate(234.508 124.205)" fill="none" stroke="#000" stroke-width="1"/>
    <path id="Path_201491" data-name="Path 201491" d="M0,0V1.663" transform="translate(231.182 126.422)" fill="none" stroke="#000" stroke-width="1"/>
    <path id="Path_201492" data-name="Path 201492" d="M0,0V1.663" transform="translate(227.856 126.422)" fill="none" stroke="#000" stroke-width="1"/>
    <path id="Path_201493" data-name="Path 201493" d="M0,0V1.663" transform="translate(232.845 126.976)" fill="none" stroke="#000" stroke-width="1"/>
    <path id="Path_201494" data-name="Path 201494" d="M0,0V1.663" transform="translate(225.639 126.976)" fill="none" stroke="#000" stroke-width="1"/>
    <path id="Path_201495" data-name="Path 201495" d="M0,0V1.663" transform="translate(234.508 127.531)" fill="none" stroke="#000" stroke-width="1"/>
    <path id="Path_201496" data-name="Path 201496" d="M0,0V1.663" transform="translate(231.182 129.748)" fill="none" stroke="#000" stroke-width="1"/>
    <path id="Path_201497" data-name="Path 201497" d="M0,0V1.663" transform="translate(227.856 129.748)" fill="none" stroke="#000" stroke-width="1"/>
    <path id="Path_201498" data-name="Path 201498" d="M0,0V1.663" transform="translate(232.845 130.302)" fill="none" stroke="#000" stroke-width="1"/>
    <path id="Path_201499" data-name="Path 201499" d="M0,0V1.663" transform="translate(225.639 130.302)" fill="none" stroke="#000" stroke-width="1"/>
    <path id="Path_201500" data-name="Path 201500" d="M0,0V1.663" transform="translate(234.508 130.856)" fill="none" stroke="#000" stroke-width="1"/>
    <path id="Path_201501" data-name="Path 201501" d="M0,0V1.663" transform="translate(231.182 133.073)" fill="none" stroke="#000" stroke-width="1"/>
    <path id="Path_201502" data-name="Path 201502" d="M0,0V1.663" transform="translate(227.856 133.073)" fill="none" stroke="#000" stroke-width="1"/>
    <path id="Path_201503" data-name="Path 201503" d="M0,0V1.663" transform="translate(232.845 133.627)" fill="none" stroke="#000" stroke-width="1"/>
    <path id="Path_201504" data-name="Path 201504" d="M0,0V1.663" transform="translate(225.639 133.627)" fill="none" stroke="#000" stroke-width="1"/>
    <path id="Path_201505" data-name="Path 201505" d="M0,0V1.663" transform="translate(234.508 134.182)" fill="none" stroke="#000" stroke-width="1"/>
    <path id="Path_201506" data-name="Path 201506" d="M0,0V1.663" transform="translate(231.182 136.399)" fill="none" stroke="#000" stroke-width="1"/>
    <path id="Path_201507" data-name="Path 201507" d="M0,0V1.663" transform="translate(227.856 136.399)" fill="none" stroke="#000" stroke-width="1"/>
    <path id="Path_201508" data-name="Path 201508" d="M0,0V1.663" transform="translate(232.845 136.953)" fill="none" stroke="#000" stroke-width="1"/>
    <path id="Path_201509" data-name="Path 201509" d="M0,0V1.663" transform="translate(225.639 136.953)" fill="none" stroke="#000" stroke-width="1"/>
    <path id="Path_201510" data-name="Path 201510" d="M0,0V1.663" transform="translate(227.856 139.724)" fill="none" stroke="#000" stroke-width="1"/>
    <path id="Path_201511" data-name="Path 201511" d="M0,0V1.663" transform="translate(225.639 140.278)" fill="none" stroke="#000" stroke-width="1"/>
    <path id="Path_201512" data-name="Path 201512" d="M0,0V1.663" transform="translate(227.856 143.05)" fill="none" stroke="#000" stroke-width="1"/>
    <path id="Path_201513" data-name="Path 201513" d="M0,0V1.663" transform="translate(225.639 143.604)" fill="none" stroke="#000" stroke-width="1"/>
    <path id="Path_201514" data-name="Path 201514" d="M0,0V1.663" transform="translate(234.508 137.507)" fill="none" stroke="#000" stroke-width="1"/>
    <path id="Path_201515" data-name="Path 201515" d="M0,0V1.663" transform="translate(231.182 139.724)" fill="none" stroke="#000" stroke-width="1"/>
    <path id="Path_201516" data-name="Path 201516" d="M0,0V1.663" transform="translate(232.845 140.278)" fill="none" stroke="#000" stroke-width="1"/>
    <path id="Path_201517" data-name="Path 201517" d="M0,0V1.663" transform="translate(234.508 140.833)" fill="none" stroke="#000" stroke-width="1"/>
    <path id="Path_201518" data-name="Path 201518" d="M0,0V1.663" transform="translate(231.182 143.05)" fill="none" stroke="#000" stroke-width="1"/>
    <path id="Path_201519" data-name="Path 201519" d="M0,0V1.663" transform="translate(232.845 143.604)" fill="none" stroke="#000" stroke-width="1"/>
    <path id="Path_201520" data-name="Path 201520" d="M0,0V1.663" transform="translate(234.508 144.158)" fill="none" stroke="#000" stroke-width="1"/>
    <path id="Path_201521" data-name="Path 201521" d="M0,0V28.821" transform="translate(229.519 117)" fill="none" stroke="#000" stroke-width="1"/>
    <path id="Path_529" data-name="Path 529" d="M395,383h1.663l4.988,2.771V401.29" transform="translate(-157.722 -255.469)" fill="none" stroke="#000" stroke-linejoin="round" stroke-width="1"/>
    <path id="Path_201522" data-name="Path 201522" d="M0,0V18.29" transform="translate(238.941 127.531)" fill="none" stroke="#000" stroke-width="1"/>
    <path id="Path_201523" data-name="Path 201523" d="M0,0V1.108" transform="translate(240.604 130.302)" fill="none" stroke="#000" stroke-width="1"/>
    <path id="Path_201524" data-name="Path 201524" d="M0,0V1.108" transform="translate(242.267 131.41)" fill="none" stroke="#000" stroke-width="1"/>
    <path id="Path_201525" data-name="Path 201525" d="M0,0V1.108" transform="translate(240.604 132.519)" fill="none" stroke="#000" stroke-width="1"/>
    <path id="Path_201526" data-name="Path 201526" d="M0,0V1.108" transform="translate(242.267 133.627)" fill="none" stroke="#000" stroke-width="1"/>
    <path id="Path_201527" data-name="Path 201527" d="M0,0V1.108" transform="translate(240.604 134.736)" fill="none" stroke="#000" stroke-width="1"/>
    <path id="Path_201528" data-name="Path 201528" d="M0,0V1.108" transform="translate(242.267 135.844)" fill="none" stroke="#000" stroke-width="1"/>
    <path id="Path_201529" data-name="Path 201529" d="M0,0V1.108" transform="translate(240.604 136.953)" fill="none" stroke="#000" stroke-width="1"/>
    <path id="Path_201530" data-name="Path 201530" d="M0,0V1.108" transform="translate(242.267 138.061)" fill="none" stroke="#000" stroke-width="1"/>
    <path id="Path_201531" data-name="Path 201531" d="M0,0V1.108" transform="translate(240.604 139.17)" fill="none" stroke="#000" stroke-width="1"/>
    <path id="Path_201532" data-name="Path 201532" d="M0,0V1.108" transform="translate(242.267 140.278)" fill="none" stroke="#000" stroke-width="1"/>
    <path id="Path_201533" data-name="Path 201533" d="M0,0V1.108" transform="translate(240.604 141.387)" fill="none" stroke="#000" stroke-width="1"/>
    <path id="Path_201534" data-name="Path 201534" d="M0,0V1.108" transform="translate(242.267 142.495)" fill="none" stroke="#000" stroke-width="1"/>
    <path id="Path_201535" data-name="Path 201535" d="M0,0V1.108" transform="translate(240.604 143.604)" fill="none" stroke="#000" stroke-width="1"/>
    <path id="Path_201536" data-name="Path 201536" d="M0,0V1.108" transform="translate(242.267 144.712)" fill="none" stroke="#000" stroke-width="1"/>
    <path id="Path_530" data-name="Path 530" d="M353,403.965V389h8.868" transform="translate(-139 -258.144)" fill="none" stroke="#000" stroke-linejoin="round" stroke-width="1"/>
    <path id="Path_201537" data-name="Path 201537" d="M0,0H1.663" transform="translate(215.663 133.073)" fill="none" stroke="#000" stroke-width="1"/>
    <path id="Path_201538" data-name="Path 201538" d="M0,0H1.663" transform="translate(218.434 133.073)" fill="none" stroke="#000" stroke-width="1"/>
    <path id="Path_201539" data-name="Path 201539" d="M0,0H1.663" transform="translate(215.663 135.29)" fill="none" stroke="#000" stroke-width="1"/>
    <path id="Path_201540" data-name="Path 201540" d="M0,0H1.663" transform="translate(218.434 135.29)" fill="none" stroke="#000" stroke-width="1"/>
    <path id="Path_201541" data-name="Path 201541" d="M0,0H1.663" transform="translate(215.663 137.507)" fill="none" stroke="#000" stroke-width="1"/>
    <path id="Path_201542" data-name="Path 201542" d="M0,0H1.663" transform="translate(218.434 137.507)" fill="none" stroke="#000" stroke-width="1"/>
    <path id="Path_201543" data-name="Path 201543" d="M0,0H1.663" transform="translate(215.663 139.724)" fill="none" stroke="#000" stroke-width="1"/>
    <path id="Path_201544" data-name="Path 201544" d="M0,0H1.663" transform="translate(218.434 139.724)" fill="none" stroke="#000" stroke-width="1"/>
    <path id="Path_201545" data-name="Path 201545" d="M0,0H1.663" transform="translate(215.663 141.941)" fill="none" stroke="#000" stroke-width="1"/>
    <path id="Path_201546" data-name="Path 201546" d="M0,0H1.663" transform="translate(218.434 141.941)" fill="none" stroke="#000" stroke-width="1"/>
    <path id="Path_201547" data-name="Path 201547" d="M0,0H1.663" transform="translate(215.663 144.158)" fill="none" stroke="#000" stroke-width="1"/>
    <path id="Path_201548" data-name="Path 201548" d="M0,0H1.663" transform="translate(218.434 144.158)" fill="none" stroke="#000" stroke-width="1"/>
    <path id="Path_201549" data-name="Path 201549" d="M0,0H1.108" transform="translate(221.205 133.073)" fill="none" stroke="#000" stroke-width="1"/>
    <path id="Path_201550" data-name="Path 201550" d="M0,0H1.108" transform="translate(221.205 135.29)" fill="none" stroke="#000" stroke-width="1"/>
    <path id="Path_201551" data-name="Path 201551" d="M0,0H1.108" transform="translate(221.205 137.507)" fill="none" stroke="#000" stroke-width="1"/>
    <path id="Path_201552" data-name="Path 201552" d="M0,0H1.108" transform="translate(221.205 139.724)" fill="none" stroke="#000" stroke-width="1"/>
    <path id="Path_201553" data-name="Path 201553" d="M0,0H1.108" transform="translate(221.205 141.941)" fill="none" stroke="#000" stroke-width="1"/>
    <path id="Path_201554" data-name="Path 201554" d="M0,0H1.108" transform="translate(221.205 144.158)" fill="none" stroke="#000" stroke-width="1"/>
  </g>
</svg>
