<svg height="29.321" viewBox="0 0 30.929 29.321" width="30.929" xmlns="http://www.w3.org/2000/svg">
    <g id="office" transform="translate(-213.5 -116.5)">
        <path d="M371,392.821v-26.6L376.542,364l6.651,2.771v26.05" data-name="Path 528" fill="none"
            id="Path_528" stroke="#000" stroke-linejoin="round" stroke-width="1"
            transform="translate(-147.024 -247)" />
        <path d="M0,0V1.663" data-name="Path 201481" fill="none" id="Path_201481" stroke="#000"
            stroke-width="1" transform="translate(231.182 119.771)" />
        <path d="M0,0V1.663" data-name="Path 201482" fill="none" id="Path_201482" stroke="#000"
            stroke-width="1" transform="translate(227.856 119.771)" />
        <path d="M0,0V1.663" data-name="Path 201483" fill="none" id="Path_201483" stroke="#000"
            stroke-width="1" transform="translate(232.845 120.325)" />
        <path d="M0,0V1.663" data-name="Path 201484" fill="none" id="Path_201484" stroke="#000"
            stroke-width="1" transform="translate(225.639 120.325)" />
        <path d="M0,0V1.663" data-name="Path 201485" fill="none" id="Path_201485" stroke="#000"
            stroke-width="1" transform="translate(234.508 120.88)" />
        <path d="M0,0V1.663" data-name="Path 201486" fill="none" id="Path_201486" stroke="#000"
            stroke-width="1" transform="translate(231.182 123.097)" />
        <path d="M0,0V1.663" data-name="Path 201487" fill="none" id="Path_201487" stroke="#000"
            stroke-width="1" transform="translate(227.856 123.097)" />
        <path d="M0,0V1.663" data-name="Path 201488" fill="none" id="Path_201488" stroke="#000"
            stroke-width="1" transform="translate(232.845 123.651)" />
        <path d="M0,0V1.663" data-name="Path 201489" fill="none" id="Path_201489" stroke="#000"
            stroke-width="1" transform="translate(225.639 123.651)" />
        <path d="M0,0V1.663" data-name="Path 201490" fill="none" id="Path_201490" stroke="#000"
            stroke-width="1" transform="translate(234.508 124.205)" />
        <path d="M0,0V1.663" data-name="Path 201491" fill="none" id="Path_201491" stroke="#000"
            stroke-width="1" transform="translate(231.182 126.422)" />
        <path d="M0,0V1.663" data-name="Path 201492" fill="none" id="Path_201492" stroke="#000"
            stroke-width="1" transform="translate(227.856 126.422)" />
        <path d="M0,0V1.663" data-name="Path 201493" fill="none" id="Path_201493" stroke="#000"
            stroke-width="1" transform="translate(232.845 126.976)" />
        <path d="M0,0V1.663" data-name="Path 201494" fill="none" id="Path_201494" stroke="#000"
            stroke-width="1" transform="translate(225.639 126.976)" />
        <path d="M0,0V1.663" data-name="Path 201495" fill="none" id="Path_201495" stroke="#000"
            stroke-width="1" transform="translate(234.508 127.531)" />
        <path d="M0,0V1.663" data-name="Path 201496" fill="none" id="Path_201496" stroke="#000"
            stroke-width="1" transform="translate(231.182 129.748)" />
        <path d="M0,0V1.663" data-name="Path 201497" fill="none" id="Path_201497" stroke="#000"
            stroke-width="1" transform="translate(227.856 129.748)" />
        <path d="M0,0V1.663" data-name="Path 201498" fill="none" id="Path_201498" stroke="#000"
            stroke-width="1" transform="translate(232.845 130.302)" />
        <path d="M0,0V1.663" data-name="Path 201499" fill="none" id="Path_201499" stroke="#000"
            stroke-width="1" transform="translate(225.639 130.302)" />
        <path d="M0,0V1.663" data-name="Path 201500" fill="none" id="Path_201500" stroke="#000"
            stroke-width="1" transform="translate(234.508 130.856)" />
        <path d="M0,0V1.663" data-name="Path 201501" fill="none" id="Path_201501" stroke="#000"
            stroke-width="1" transform="translate(231.182 133.073)" />
        <path d="M0,0V1.663" data-name="Path 201502" fill="none" id="Path_201502" stroke="#000"
            stroke-width="1" transform="translate(227.856 133.073)" />
        <path d="M0,0V1.663" data-name="Path 201503" fill="none" id="Path_201503" stroke="#000"
            stroke-width="1" transform="translate(232.845 133.627)" />
        <path d="M0,0V1.663" data-name="Path 201504" fill="none" id="Path_201504" stroke="#000"
            stroke-width="1" transform="translate(225.639 133.627)" />
        <path d="M0,0V1.663" data-name="Path 201505" fill="none" id="Path_201505" stroke="#000"
            stroke-width="1" transform="translate(234.508 134.182)" />
        <path d="M0,0V1.663" data-name="Path 201506" fill="none" id="Path_201506" stroke="#000"
            stroke-width="1" transform="translate(231.182 136.399)" />
        <path d="M0,0V1.663" data-name="Path 201507" fill="none" id="Path_201507" stroke="#000"
            stroke-width="1" transform="translate(227.856 136.399)" />
        <path d="M0,0V1.663" data-name="Path 201508" fill="none" id="Path_201508" stroke="#000"
            stroke-width="1" transform="translate(232.845 136.953)" />
        <path d="M0,0V1.663" data-name="Path 201509" fill="none" id="Path_201509" stroke="#000"
            stroke-width="1" transform="translate(225.639 136.953)" />
        <path d="M0,0V1.663" data-name="Path 201510" fill="none" id="Path_201510" stroke="#000"
            stroke-width="1" transform="translate(227.856 139.724)" />
        <path d="M0,0V1.663" data-name="Path 201511" fill="none" id="Path_201511" stroke="#000"
            stroke-width="1" transform="translate(225.639 140.278)" />
        <path d="M0,0V1.663" data-name="Path 201512" fill="none" id="Path_201512" stroke="#000"
            stroke-width="1" transform="translate(227.856 143.05)" />
        <path d="M0,0V1.663" data-name="Path 201513" fill="none" id="Path_201513" stroke="#000"
            stroke-width="1" transform="translate(225.639 143.604)" />
        <path d="M0,0V1.663" data-name="Path 201514" fill="none" id="Path_201514" stroke="#000"
            stroke-width="1" transform="translate(234.508 137.507)" />
        <path d="M0,0V1.663" data-name="Path 201515" fill="none" id="Path_201515" stroke="#000"
            stroke-width="1" transform="translate(231.182 139.724)" />
        <path d="M0,0V1.663" data-name="Path 201516" fill="none" id="Path_201516" stroke="#000"
            stroke-width="1" transform="translate(232.845 140.278)" />
        <path d="M0,0V1.663" data-name="Path 201517" fill="none" id="Path_201517" stroke="#000"
            stroke-width="1" transform="translate(234.508 140.833)" />
        <path d="M0,0V1.663" data-name="Path 201518" fill="none" id="Path_201518" stroke="#000"
            stroke-width="1" transform="translate(231.182 143.05)" />
        <path d="M0,0V1.663" data-name="Path 201519" fill="none" id="Path_201519" stroke="#000"
            stroke-width="1" transform="translate(232.845 143.604)" />
        <path d="M0,0V1.663" data-name="Path 201520" fill="none" id="Path_201520" stroke="#000"
            stroke-width="1" transform="translate(234.508 144.158)" />
        <path d="M0,0V28.821" data-name="Path 201521" fill="none" id="Path_201521" stroke="#000"
            stroke-width="1" transform="translate(229.519 117)" />
        <path d="M395,383h1.663l4.988,2.771V401.29" data-name="Path 529" fill="none" id="Path_529"
            stroke="#000" stroke-linejoin="round" stroke-width="1"
            transform="translate(-157.722 -255.469)" />
        <path d="M0,0V18.29" data-name="Path 201522" fill="none" id="Path_201522" stroke="#000"
            stroke-width="1" transform="translate(238.941 127.531)" />
        <path d="M0,0V1.108" data-name="Path 201523" fill="none" id="Path_201523" stroke="#000"
            stroke-width="1" transform="translate(240.604 130.302)" />
        <path d="M0,0V1.108" data-name="Path 201524" fill="none" id="Path_201524" stroke="#000"
            stroke-width="1" transform="translate(242.267 131.41)" />
        <path d="M0,0V1.108" data-name="Path 201525" fill="none" id="Path_201525" stroke="#000"
            stroke-width="1" transform="translate(240.604 132.519)" />
        <path d="M0,0V1.108" data-name="Path 201526" fill="none" id="Path_201526" stroke="#000"
            stroke-width="1" transform="translate(242.267 133.627)" />
        <path d="M0,0V1.108" data-name="Path 201527" fill="none" id="Path_201527" stroke="#000"
            stroke-width="1" transform="translate(240.604 134.736)" />
        <path d="M0,0V1.108" data-name="Path 201528" fill="none" id="Path_201528" stroke="#000"
            stroke-width="1" transform="translate(242.267 135.844)" />
        <path d="M0,0V1.108" data-name="Path 201529" fill="none" id="Path_201529" stroke="#000"
            stroke-width="1" transform="translate(240.604 136.953)" />
        <path d="M0,0V1.108" data-name="Path 201530" fill="none" id="Path_201530" stroke="#000"
            stroke-width="1" transform="translate(242.267 138.061)" />
        <path d="M0,0V1.108" data-name="Path 201531" fill="none" id="Path_201531" stroke="#000"
            stroke-width="1" transform="translate(240.604 139.17)" />
        <path d="M0,0V1.108" data-name="Path 201532" fill="none" id="Path_201532" stroke="#000"
            stroke-width="1" transform="translate(242.267 140.278)" />
        <path d="M0,0V1.108" data-name="Path 201533" fill="none" id="Path_201533" stroke="#000"
            stroke-width="1" transform="translate(240.604 141.387)" />
        <path d="M0,0V1.108" data-name="Path 201534" fill="none" id="Path_201534" stroke="#000"
            stroke-width="1" transform="translate(242.267 142.495)" />
        <path d="M0,0V1.108" data-name="Path 201535" fill="none" id="Path_201535" stroke="#000"
            stroke-width="1" transform="translate(240.604 143.604)" />
        <path d="M0,0V1.108" data-name="Path 201536" fill="none" id="Path_201536" stroke="#000"
            stroke-width="1" transform="translate(242.267 144.712)" />
        <path d="M353,403.965V389h8.868" data-name="Path 530" fill="none" id="Path_530"
            stroke="#000" stroke-linejoin="round" stroke-width="1"
            transform="translate(-139 -258.144)" />
        <path d="M0,0H1.663" data-name="Path 201537" fill="none" id="Path_201537" stroke="#000"
            stroke-width="1" transform="translate(215.663 133.073)" />
        <path d="M0,0H1.663" data-name="Path 201538" fill="none" id="Path_201538" stroke="#000"
            stroke-width="1" transform="translate(218.434 133.073)" />
        <path d="M0,0H1.663" data-name="Path 201539" fill="none" id="Path_201539" stroke="#000"
            stroke-width="1" transform="translate(215.663 135.29)" />
        <path d="M0,0H1.663" data-name="Path 201540" fill="none" id="Path_201540" stroke="#000"
            stroke-width="1" transform="translate(218.434 135.29)" />
        <path d="M0,0H1.663" data-name="Path 201541" fill="none" id="Path_201541" stroke="#000"
            stroke-width="1" transform="translate(215.663 137.507)" />
        <path d="M0,0H1.663" data-name="Path 201542" fill="none" id="Path_201542" stroke="#000"
            stroke-width="1" transform="translate(218.434 137.507)" />
        <path d="M0,0H1.663" data-name="Path 201543" fill="none" id="Path_201543" stroke="#000"
            stroke-width="1" transform="translate(215.663 139.724)" />
        <path d="M0,0H1.663" data-name="Path 201544" fill="none" id="Path_201544" stroke="#000"
            stroke-width="1" transform="translate(218.434 139.724)" />
        <path d="M0,0H1.663" data-name="Path 201545" fill="none" id="Path_201545" stroke="#000"
            stroke-width="1" transform="translate(215.663 141.941)" />
        <path d="M0,0H1.663" data-name="Path 201546" fill="none" id="Path_201546" stroke="#000"
            stroke-width="1" transform="translate(218.434 141.941)" />
        <path d="M0,0H1.663" data-name="Path 201547" fill="none" id="Path_201547" stroke="#000"
            stroke-width="1" transform="translate(215.663 144.158)" />
        <path d="M0,0H1.663" data-name="Path 201548" fill="none" id="Path_201548" stroke="#000"
            stroke-width="1" transform="translate(218.434 144.158)" />
        <path d="M0,0H1.108" data-name="Path 201549" fill="none" id="Path_201549" stroke="#000"
            stroke-width="1" transform="translate(221.205 133.073)" />
        <path d="M0,0H1.108" data-name="Path 201550" fill="none" id="Path_201550" stroke="#000"
            stroke-width="1" transform="translate(221.205 135.29)" />
        <path d="M0,0H1.108" data-name="Path 201551" fill="none" id="Path_201551" stroke="#000"
            stroke-width="1" transform="translate(221.205 137.507)" />
        <path d="M0,0H1.108" data-name="Path 201552" fill="none" id="Path_201552" stroke="#000"
            stroke-width="1" transform="translate(221.205 139.724)" />
        <path d="M0,0H1.108" data-name="Path 201553" fill="none" id="Path_201553" stroke="#000"
            stroke-width="1" transform="translate(221.205 141.941)" />
        <path d="M0,0H1.108" data-name="Path 201554" fill="none" id="Path_201554" stroke="#000"
            stroke-width="1" transform="translate(221.205 144.158)" />
    </g>
</svg>
