<svg xmlns="http://www.w3.org/2000/svg" width="30.971" height="32.994" viewBox="0 0 30.971 32.994">
  <g id="others" transform="translate(-271.317 -313.02)">
    <path id="Path_1246" data-name="Path 1246" d="M275.143,332.509a2.509,2.509,0,0,1,.122-.838,1.376,1.376,0,0,1,.579-.8.734.734,0,0,1,.917.128,3.765,3.765,0,0,1,.23.457.384.384,0,0,0,.418.219c.147-.052.2-.226.243-.377l.277-1.09a.435.435,0,0,1,.051-.135.473.473,0,0,1,.307-.151,6.388,6.388,0,0,0,2.076-1.154,1.312,1.312,0,0,1,.529-.254c.324-.05.693.125.962-.061l-.84-.485c.226-.5,1-.444,1.353-.866a1.889,1.889,0,0,0-1.106-.687.5.5,0,0,0-.188-.011c-.166.03-.269.189-.378.318a.955.955,0,0,1-.969.352.582.582,0,0,1-.315-.869c.21-.244-.72-.52-.4-.541" transform="translate(-1.135 -4.102)" fill="none" stroke="#000" stroke-linecap="round" stroke-linejoin="round" stroke-width="0.9"/>
    <path id="Path_1247" data-name="Path 1247" d="M278.323,339.269a1.273,1.273,0,0,0-.078-.509.308.308,0,0,1,.149-.415.889.889,0,0,1,.393-.1,1.464,1.464,0,0,1,.488.1,6.61,6.61,0,0,0,1.147.478,1.348,1.348,0,0,1,.5.126c.314.2.256.667.364,1.025.2.655.96.927,1.622,1.1.428.115.611.625.633,1.068a1.682,1.682,0,0,1-.559,1.467c-.6.439-.212,1.568-.808,2.015-.5.374-.095,1.278-.512,1.743a.945.945,0,0,0-.131.933c.091.283.563.747.383,1.063a.9.9,0,0,1-.858.258c-.2-.055-.266-.252-.376-.4a4.333,4.333,0,0,0-.662-.568,2.185,2.185,0,0,1-.6-1.549c-.021-.569.073-1.136.066-1.7a4.735,4.735,0,0,0-.155-1.138.872.872,0,0,0-.268-.494l-.828-.625a2.1,2.1,0,0,1-1.032-1.4C277.159,340.819,278.3,340.19,278.323,339.269Z" transform="translate(-1.828 -8.33)" fill="none" stroke="#000" stroke-linecap="round" stroke-linejoin="round" stroke-width="0.9"/>
    <path id="Path_1248" data-name="Path 1248" d="M283.359,322.6a1.1,1.1,0,0,0,.325.033,1.5,1.5,0,0,0,.406-.123c1.212-.464,2.5.035,3.783-.139a.777.777,0,0,1-.177.7c-.153.2-.351.365-.489.577a.463.463,0,0,0-.029.554.526.526,0,0,0,.321.123,1.8,1.8,0,0,0,.9-.056c.8-.316,1-1.478,1.806-1.782.528-.2,1.111.048,1.676.061s4.167-1.57,4.737-1.575" transform="translate(-3.898 -2.525)" fill="none" stroke="#000" stroke-linecap="round" stroke-linejoin="round" stroke-width="0.9"/>
    <path id="Path_1250" data-name="Path 1250" d="M307.48,334.093a4.194,4.194,0,0,1,1.513,1.458c.217.435.276.934.479,1.375a1.148,1.148,0,0,0,1.12.763,2.673,2.673,0,0,1-.146-1.68.639.639,0,0,1,.13-.289.734.734,0,0,1,.372-.179,2.246,2.246,0,0,1,.783-.11.765.765,0,0,1,.639.408,1.571,1.571,0,0,1,.082.386,2.066,2.066,0,0,0,1.039,1.47" transform="translate(-12.008 -6.934)" fill="none" stroke="#000" stroke-linecap="round" stroke-linejoin="round" stroke-width="0.9"/>
    <path id="Path_1251" data-name="Path 1251" d="M306.321,335.8a1.11,1.11,0,0,0,.307-.015c.423-.09.536-1.266.462-1.693" transform="translate(-11.619 -6.934)" fill="none" stroke="#000" stroke-linecap="round" stroke-linejoin="round" stroke-width="0.9"/>
    <path id="Path_1252" data-name="Path 1252" d="M295.893,330.414c.283.1.489.352.76.481a2.651,2.651,0,0,0,.761.167,3.89,3.89,0,0,1,1.61.639l2.06,1.137,1.7,1.744" transform="translate(-8.112 -5.697)" fill="none" stroke="#000" stroke-linecap="round" stroke-linejoin="round" stroke-width="0.9"/>
    <path id="Path_1253" data-name="Path 1253" d="M293.552,327.423c-.144.052-.129.275-.023.386s.263.159.378.261a.737.737,0,0,1,.066.894c-.161.281.975.293,1.076.413" transform="translate(-7.29 -4.692)" fill="none" stroke="#000" stroke-linecap="round" stroke-linejoin="round" stroke-width="0.9"/>
    <path id="Path_1254" data-name="Path 1254" d="M302.1,322.208c0,1.152-1.442.962-1.648,1.007s-.422,0-.629.042c-.354.066-.681.358-1.03.267a1.266,1.266,0,0,0-.252-.07c-.228-.01-.37.24-.43.46s-.115.477-.319.578c-.3.149-.611-.165-.907-.325a1.423,1.423,0,0,0-1.389.119,4.189,4.189,0,0,0-1.031,1.022l-.85.359" transform="translate(-7.348 -2.938)" fill="none" stroke="#000" stroke-linecap="round" stroke-linejoin="round" stroke-width="0.9"/>
    <path id="Path_1260" data-name="Path 1260" d="M284.04,357.529a6.586,6.586,0,0,0,1.035-.725,3.462,3.462,0,0,1,2.352-.355,17.311,17.311,0,0,0,2.405.324c1.589-.011,3.248-.885,4.692-.222.577.265,1.066.763,1.7.834.793.088,1.485-.528,2.267-.686a3.7,3.7,0,0,1,1.774.209" transform="translate(-4.127 -14.402)" fill="none" stroke="#000" stroke-linecap="round" stroke-linejoin="round" stroke-width="0.9"/>
    <path id="Path_1261" data-name="Path 1261" d="M301.277,341.186l.37-1.166q.17-.407.341-.815a.744.744,0,0,1,.149-.254,1.073,1.073,0,0,1,.439-.185,2.434,2.434,0,0,0,.836-.565,1.5,1.5,0,0,0,.358-.413.511.511,0,0,0-.009-.522.645.645,0,0,0-.735-.118,1.941,1.941,0,0,1-.765.21l-.559-.493a7.182,7.182,0,0,0-1.17-2.262,4.3,4.3,0,0,0-1.868-1.144" transform="translate(-9.043 -6.721)" fill="none" stroke="#000" stroke-linecap="round" stroke-linejoin="round" stroke-width="0.9"/>
    <path id="Path_1263" data-name="Path 1263" d="M295.982,333.078a3.645,3.645,0,0,1-1.655-.648.589.589,0,0,0-.207-.112.541.541,0,0,0-.261.028,3.733,3.733,0,0,0-1.276.528,3.573,3.573,0,0,0-.659.7q-.534.693-1.033,1.412a1.165,1.165,0,0,0-.266.607,1.187,1.187,0,0,0,.2.588c.239.429.526.9,1,1.025.431.115.888-.092,1.33-.031a2.212,2.212,0,0,1,.683.256l.692.35a.8.8,0,0,1,.386.313.616.616,0,0,1-.234.7c-.085.07-.186.141-.205.25a.347.347,0,0,0,.051.215c.127.246.327.447.472.682a.843.843,0,0,1,.111.787c-.068.141-.2.246-.273.382-.251.442.09.971.183,1.471.1.526-.088,1.1.112,1.591a2.192,2.192,0,0,0,.744.83,5.75,5.75,0,0,0,2.141-2.2,20.444,20.444,0,0,0,.631-2.274" transform="translate(-6.341 -6.335)" fill="none" stroke="#000" stroke-linecap="round" stroke-linejoin="round" stroke-width="0.9"/>
    <ellipse id="Ellipse_103" data-name="Ellipse 103" cx="14.111" cy="14.111" rx="14.111" ry="14.111" transform="translate(273.615 317.342)" fill="none" stroke="#000" stroke-linecap="round" stroke-linejoin="round" stroke-width="0.9"/>
    <path id="Path_1303" data-name="Path 1303" d="M318.009,138.165a2.547,2.547,0,1,1-2.547-2.547A2.547,2.547,0,0,1,318.009,138.165Z" transform="translate(-41.147 177.852)" fill="none" stroke="#000" stroke-linecap="round" stroke-linejoin="round" stroke-width="0.9"/>
  </g>
</svg>
