<svg height="16.499" viewBox="0 0 17.874 16.499" width="17.874" xmlns="http://www.w3.org/2000/svg">
    <g id="pay" transform="translate(-1234 -192)">
        <g data-name="Group 1404" id="Group_1404" transform="translate(1241.354 202.312)">
            <path
                d="M1322.557,316.15a8.044,8.044,0,0,1-2.821-1.225.344.344,0,0,1-.141-.4,1.247,1.247,0,0,1,1.2-.821,8.889,8.889,0,0,1,1.717.272l1.591-.8a4.167,4.167,0,0,1,2.8-1.182,4.684,4.684,0,0,1,3.1,1.841.344.344,0,0,1-.526.443c-.316-.375-1.434-1.6-2.578-1.6a3.53,3.53,0,0,0-2.347,1.011.349.349,0,0,1-.1.073l-1.757.878a.345.345,0,0,1-.24.025,9.181,9.181,0,0,0-1.67-.282.594.594,0,0,0-.4.136,6.455,6.455,0,0,0,2.153.934,11.6,11.6,0,0,0,2.232-.567.344.344,0,0,1,.221.651A12.021,12.021,0,0,1,1322.557,316.15Z"
                data-name="Path 3348" fill="#ffc107" id="Path_3348"
                transform="translate(-1319.578 -312)" />
        </g>
        <g data-name="Group 1405" id="Group_1405" transform="translate(1238.125 203.139)">
            <path
                d="M1293.882,326.985a.344.344,0,0,1-.286-.153,2.107,2.107,0,0,0-1.58-.878,10.593,10.593,0,0,0-1.78.309,12.175,12.175,0,0,1-2.319.378c-.884,0-3.235-1.455-3.7-1.746a.347.347,0,0,1-.075-.064l-2.058-2.342a.344.344,0,0,1-.007-.445,1.186,1.186,0,0,1,.86-.419,3.607,3.607,0,0,1,1.745.9,3.892,3.892,0,0,0,.893.565.344.344,0,1,1,0,.687c-.334,0-.711-.266-1.3-.7a3.705,3.705,0,0,0-1.337-.765.319.319,0,0,0-.082.011l1.771,2.016a12.427,12.427,0,0,0,3.289,1.614,11.843,11.843,0,0,0,2.169-.362,10.6,10.6,0,0,1,1.93-.326,2.771,2.771,0,0,1,2.153,1.185.344.344,0,0,1-.286.534Z"
                data-name="Path 3349" fill="#ffc107" id="Path_3349"
                transform="translate(-1282 -321.625)" />
        </g>
        <g data-name="Group 1406" id="Group_1406" transform="translate(1239.012 201.968)">
            <path
                d="M1295.007,311.183a.344.344,0,0,1-.3-.18l-.871-1.607c-.3-.452-.455-.622-.744-.681l.181.906a.344.344,0,0,1-.674.135l-.269-1.347a.344.344,0,0,1,.337-.411,1.746,1.746,0,0,1,1.751,1.032.289.289,0,0,1,.016.026l.878,1.621a.344.344,0,0,1-.3.508Z"
                data-name="Path 3350" fill="#ffc107" id="Path_3350"
                transform="translate(-1292.32 -307.996)" />
        </g>
        <g data-name="Group 1407" id="Group_1407" transform="translate(1234 192)">
            <path
                d="M1244.711,196.915a.344.344,0,0,1-.331-.25l-.429-1.507-2.529-2.471h-7.078a.344.344,0,1,1,0-.687h7.218a.344.344,0,0,1,.24.1l2.695,2.633a.343.343,0,0,1,.09.152l.454,1.595a.344.344,0,0,1-.331.438Z"
                data-name="Path 3351" fill="#ffc107" id="Path_3351"
                transform="translate(-1234 -192)" />
        </g>
        <g data-name="Group 1408" id="Group_1408" transform="translate(1234 194.75)">
            <path
                d="M1242.8,228.812a.792.792,0,0,1-.233-.035l-1.344-.435a.648.648,0,0,1-.108-.042,2.249,2.249,0,0,1-.585-.327l-.1-.072-.009-.007-.289-.227a3.42,3.42,0,0,0-2.091-.71,2.316,2.316,0,0,1-1.469-.525l-.029-.026-1.659-1.717h-.542a.344.344,0,1,1,0-.687h.688a.343.343,0,0,1,.247.1l1.746,1.807a1.627,1.627,0,0,0,1.018.357,4.112,4.112,0,0,1,2.514.856l.384.3.009.007a1.573,1.573,0,0,0,.429.236.354.354,0,0,1,.042.019l.013,0,1.34.433a.068.068,0,0,0,.082-.026l0-.009a.674.674,0,0,0,.034-.546.743.743,0,0,0-.4-.4l-1.287-.534a.344.344,0,0,1-.186-.185l-.811-1.946a.344.344,0,0,1,.391-.468l1.478.323a.343.343,0,0,1,.22.156l.8,1.313a.344.344,0,1,1-.586.359l-.728-1.188-.691-.151.5,1.206,1.162.482a1.44,1.44,0,0,1,.773.792,1.368,1.368,0,0,1-.071,1.107A.746.746,0,0,1,1242.8,228.812Z"
                data-name="Path 3352" fill="#ffc107" id="Path_3352"
                transform="translate(-1234 -224)" />
        </g>
        <g data-name="Group 1409" id="Group_1409" transform="translate(1240.875 196.125)">
            <path
                d="M1317.094,246.187a3.1,3.1,0,0,1-3.094-3.094,3.05,3.05,0,0,1,.047-.542.344.344,0,1,1,.677.121,2.371,2.371,0,0,0-.036.421,2.406,2.406,0,1,0,3.057-2.316,2.325,2.325,0,0,0-.65-.09,2.259,2.259,0,0,0-1,.226l-.012.005a2.332,2.332,0,0,0-.718.5.344.344,0,0,1-.493-.479,3.026,3.026,0,0,1,.926-.65,2.94,2.94,0,0,1,1.3-.293,3.014,3.014,0,0,1,.84.117,3.093,3.093,0,0,1-.84,6.07Z"
                data-name="Path 3353" fill="#ffc107" id="Path_3353"
                transform="translate(-1314 -240)" />
        </g>
    </g>
</svg>
