<svg height="18.403" viewBox="0 0 18.425 18.403" width="18.425" xmlns="http://www.w3.org/2000/svg">
    <path
        d="M489.357,317.145l-3.885-2.449a1.378,1.378,0,0,0-1.918.457l-.861,1.436a.258.258,0,0,1-.17.122.239.239,0,0,1-.19-.038,24.7,24.7,0,0,1-5.006-5.006.241.241,0,0,1-.038-.19.258.258,0,0,1,.121-.17l1.435-.861a1.378,1.378,0,0,0,.458-1.918l-2.448-3.885a1.377,1.377,0,0,0-1.962-.39,15.03,15.03,0,0,0-1.82,1.452c-2.31,2.31-.776,7.462,3.491,11.729,2.924,2.924,6.263,4.565,8.82,4.565a3.983,3.983,0,0,0,2.91-1.073,15.049,15.049,0,0,0,1.453-1.821,1.377,1.377,0,0,0-.39-1.961Zm-.528,1.311a14.333,14.333,0,0,1-1.33,1.675c-.838.838-2.32.974-4.175.381a17.1,17.1,0,0,1-9.835-9.835c-.592-1.855-.457-3.338.381-4.175a14.363,14.363,0,0,1,1.675-1.33.249.249,0,0,1,.146-.046.242.242,0,0,1,.05,0,.252.252,0,0,1,.165.114l2.449,3.885a.255.255,0,0,1-.085.353l-1.436.861a1.392,1.392,0,0,0-.643.9,1.37,1.37,0,0,0,.22,1.07,25.78,25.78,0,0,0,5.275,5.275,1.379,1.379,0,0,0,1.974-.423l.861-1.436a.252.252,0,0,1,.159-.116.256.256,0,0,1,.194.031l3.885,2.449a.252.252,0,0,1,.072.359Z"
        fill="#1a1a1a" id="phone" stroke="#fff" stroke-width="0.4"
        transform="translate(-471.779 -303.797)" />
</svg>
