<svg xmlns="http://www.w3.org/2000/svg" width="13.673" height="18" viewBox="0 0 13.673 18">
  <g id="processing" transform="translate(-918.5 -893.5)">
    <path id="Path_368" data-name="Path 368" d="M931.395,896.356H919.279a.78.78,0,0,1-.779-.779v-1.3a.78.78,0,0,1,.779-.779h12.116a.78.78,0,0,1,.779.779v1.3A.78.78,0,0,1,931.395,896.356Zm-12.116-2.164a.087.087,0,0,0-.087.086v1.3a.087.087,0,0,0,.087.087h12.116a.087.087,0,0,0,.087-.087v-1.3a.087.087,0,0,0-.087-.086Z" transform="translate(0)" fill="#ffc107"/>
    <path id="Path_369" data-name="Path 369" d="M931.395,1071.356H919.279a.78.78,0,0,1-.779-.779v-1.3a.78.78,0,0,1,.779-.779h12.116a.78.78,0,0,1,.779.779v1.3A.78.78,0,0,1,931.395,1071.356Zm-12.116-2.163a.087.087,0,0,0-.087.087v1.3a.087.087,0,0,0,.087.087h12.116a.087.087,0,0,0,.087-.087v-1.3a.087.087,0,0,0-.087-.087Z" transform="translate(0 -159.855)" fill="#ffc107"/>
    <path id="Path_370" data-name="Path 370" d="M942.417,932.174H931.093l-.04-.3A5.84,5.84,0,0,1,931,931.1a5.776,5.776,0,0,1,2.878-4.983l1.225-.707a.086.086,0,0,0,0-.15l-1.224-.707A5.776,5.776,0,0,1,931,919.571a5.84,5.84,0,0,1,.053-.771l.04-.3h11.324l.04.3a5.743,5.743,0,0,1-2.825,5.754l-1.225.707a.086.086,0,0,0,0,.15l1.225.707a5.743,5.743,0,0,1,2.825,5.754Zm-10.71-.692h10.1c.01-.129.015-.255.015-.379a5.081,5.081,0,0,0-2.532-4.384l-1.225-.707a.779.779,0,0,1,0-1.349l1.225-.707a5.081,5.081,0,0,0,2.532-4.384c0-.124-.005-.25-.015-.379h-10.1c-.01.129-.015.255-.015.379a5.082,5.082,0,0,0,2.532,4.384l1.224.707a.779.779,0,0,1,0,1.349l-1.225.707a5.081,5.081,0,0,0-2.532,4.384C931.692,931.226,931.7,931.353,931.707,931.481Z" transform="translate(-11.418 -22.837)" fill="#ffc107"/>
    <g id="Group_72" data-name="Group 72" transform="translate(924.991 903.106)">
      <circle id="Ellipse_30" data-name="Ellipse 30" cx="0.346" cy="0.346" r="0.346" transform="translate(0 4.154)" fill="#ffc107"/>
      <circle id="Ellipse_31" data-name="Ellipse 31" cx="0.346" cy="0.346" r="0.346" transform="translate(0 2.769)" fill="#ffc107"/>
      <circle id="Ellipse_32" data-name="Ellipse 32" cx="0.346" cy="0.346" r="0.346" transform="translate(0 1.385)" fill="#ffc107"/>
      <circle id="Ellipse_33" data-name="Ellipse 33" cx="0.346" cy="0.346" r="0.346" transform="translate(0 0)" fill="#ffc107"/>
    </g>
  </g>
</svg>
