<svg xmlns="http://www.w3.org/2000/svg" width="23.348" height="23" viewBox="0 0 23.348 23">
  <g id="notification_chat" transform="translate(-350.326 -50.5)">
    <g id="Group_199" data-name="Group 199" transform="translate(351 51)">
      <g id="Group_198" data-name="Group 198" transform="translate(0 6.592)">
        <path id="Path_810" data-name="Path 810" d="M369.966,68.379l2.759,2.284a.759.759,0,0,1,.275.585v11.4a1.138,1.138,0,0,1-1.138,1.138H352.138A1.138,1.138,0,0,1,351,82.649v-11.4a.759.759,0,0,1,.275-.585l2.709-2.242" transform="translate(-351 -68.379)" fill="none" stroke="#000" stroke-linejoin="round" stroke-width="1"/>
        <path id="Path_811" data-name="Path 811" d="M357,93.163l8.256-6.462a.759.759,0,0,1,.935,0l8.256,6.462" transform="translate(-354.724 -79.651)" fill="none" stroke="#000" stroke-linecap="round" stroke-linejoin="round" stroke-width="1"/>
        <line id="Line_449" data-name="Line 449" y1="4.331" x2="8.374" transform="translate(13.626 4.408)" fill="none" stroke="#000" stroke-linecap="round" stroke-linejoin="round" stroke-width="1"/>
        <line id="Line_450" data-name="Line 450" x2="8.374" y2="4.331" transform="translate(0 4.408)" fill="none" stroke="#000" stroke-linecap="round" stroke-linejoin="round" stroke-width="1"/>
      </g>
      <path id="Path_812" data-name="Path 812" d="M359,63.57V51.759a.758.758,0,0,1,.759-.759h14.414a.758.758,0,0,1,.759.759V63.57" transform="translate(-355.966 -51)" fill="none" stroke="#000" stroke-linecap="round" stroke-linejoin="round" stroke-width="1"/>
      <line id="Line_451" data-name="Line 451" x2="9.862" transform="translate(6.069 10.241)" fill="none" stroke="#000" stroke-linecap="round" stroke-linejoin="round" stroke-width="1"/>
      <line id="Line_452" data-name="Line 452" x2="9.862" transform="translate(6.069 7.207)" fill="none" stroke="#000" stroke-linecap="round" stroke-linejoin="round" stroke-width="1"/>
      <line id="Line_453" data-name="Line 453" x2="6.069" transform="translate(6.069 4.172)" fill="none" stroke="#000" stroke-linecap="round" stroke-linejoin="round" stroke-width="1"/>
    </g>
  </g>
</svg>
