<svg xmlns="http://www.w3.org/2000/svg" width="30.431" height="22" viewBox="0 0 30.431 22">
  <g id="shift" transform="translate(-232.698 -137.211)">
    <g id="Group_500" data-name="Group 500" transform="translate(232.698 141.808)">
      <g id="Group_499" data-name="Group 499">
        <g id="Group_496" data-name="Group 496" transform="translate(0 14.662)">
          <path id="Path_1016" data-name="Path 1016" d="M258.331,161.85H234.312a1.616,1.616,0,0,1-1.614-1.615v-1.126h27.247v1.126A1.617,1.617,0,0,1,258.331,161.85Zm-24.754-1.861v.246a.736.736,0,0,0,.734.735h24.019a.736.736,0,0,0,.734-.735v-.246Z" transform="translate(-232.698 -159.109)"/>
        </g>
        <g id="Group_497" data-name="Group 497" transform="translate(1.588)">
          <path id="Path_1017" data-name="Path 1017" d="M235.384,157.98h-.88V143.756a1.319,1.319,0,0,1,1.317-1.318h16.048v.88H235.822a.439.439,0,0,0-.438.439Z" transform="translate(-234.504 -142.438)"/>
        </g>
        <g id="Group_498" data-name="Group 498" transform="translate(24.779 6.282)">
          <rect id="Rectangle_148" data-name="Rectangle 148" width="0.88" height="9.26"/>
        </g>
      </g>
    </g>
    <g id="Group_506" data-name="Group 506" transform="translate(252.706 137.211)">
      <g id="Group_505" data-name="Group 505">
        <g id="Group_504" data-name="Group 504">
          <g id="Group_502" data-name="Group 502">
            <g id="Group_501" data-name="Group 501">
              <path id="Path_1018" data-name="Path 1018" d="M261.662,147.635h-2.006l-.491-1.467-.1-.04-1.383.69-1.42-1.42.69-1.383-.041-.1-1.465-.491V141.42l1.465-.491.041-.1-.69-1.383,1.42-1.42,1.383.69.1-.04.491-1.466h2.006l.491,1.467.1.04,1.383-.69,1.419,1.42-.69,1.383.041.1,1.465.491v2.007l-1.465.491-.041.1.69,1.383-1.419,1.42-1.383-.69-.1.04Zm-1.374-.879h.741l.418-1.246.836-.347,1.177.587.522-.524-.585-1.176.347-.838,1.245-.417v-.741l-1.245-.417-.347-.838.585-1.176-.522-.524-1.176.587-.837-.347-.418-1.246h-.741l-.417,1.246-.839.347-1.176-.587-.522.524.586,1.176-.347.838-1.245.417v.741l1.245.417.347.838-.586,1.176.522.524,1.176-.587.839.347Z" transform="translate(-255.447 -137.211)"/>
            </g>
          </g>
          <g id="Group_503" data-name="Group 503" transform="translate(3.163 3.164)">
            <path id="Path_1019" data-name="Path 1019" d="M261.091,144.9a2.048,2.048,0,1,1,2.048-2.048A2.051,2.051,0,0,1,261.091,144.9Zm0-3.217a1.169,1.169,0,1,0,1.169,1.169A1.171,1.171,0,0,0,261.091,141.688Z" transform="translate(-259.043 -140.808)"/>
          </g>
        </g>
      </g>
    </g>
    <g id="Group_512" data-name="Group 512" transform="translate(244.443 143.419)">
      <g id="Group_511" data-name="Group 511">
        <g id="Group_510" data-name="Group 510">
          <g id="Group_508" data-name="Group 508">
            <g id="Group_507" data-name="Group 507">
              <path id="Path_1020" data-name="Path 1020" d="M251.224,152.87h-1.745l-.413-1.211-1.139.568-1.232-1.234.567-1.139,0-.008-1.207-.4V147.7l1.21-.412-.567-1.139,1.232-1.233,1.14.567.008,0,.4-1.208h1.745l.411,1.21,1.139-.567,1.235,1.233-.569,1.139,0,.009,1.208.4v1.744l-1.211.412.569,1.139-1.235,1.234-1.138-.568-.008,0Zm-1.113-.88h.478l.33-.987.748-.31.932.464.338-.338-.464-.932.311-.748.986-.33v-.478l-.986-.331-.311-.748.464-.931-.338-.339-.931.464-.748-.309-.331-.988h-.478l-.331.988-.748.309-.931-.464-.339.339.464.931-.309.748-.987.331v.478l.987.33.309.748-.464.932.339.338.931-.464.748.311Z" transform="translate(-246.052 -144.27)"/>
            </g>
          </g>
          <g id="Group_509" data-name="Group 509" transform="translate(2.558 2.558)">
            <path id="Path_1021" data-name="Path 1021" d="M250.7,150.661a1.741,1.741,0,1,1,1.741-1.741A1.743,1.743,0,0,1,250.7,150.661Zm0-2.6a.861.861,0,1,0,.862.862A.863.863,0,0,0,250.7,148.059Z" transform="translate(-248.961 -147.179)"/>
          </g>
        </g>
      </g>
    </g>
  </g>
</svg>
