<svg height="13.534" viewBox="0 0 19.855 13.534" width="19.855" xmlns="http://www.w3.org/2000/svg">
    <g data-name="chat (1)" id="chat_1_" transform="translate(0.15 -82.619)">
        <g data-name="Group 22282" id="Group_22282" transform="translate(0 82.769)">
            <path d="M15.045,88.681c0-3.571-3.764-5.912-7.523-5.912C3.749,82.769,0,85.121,0,88.681A5.2,5.2,0,0,0,1.661,92.39a.161.161,0,0,1,.041.158,8.628,8.628,0,0,1-1.46,2.767A.425.425,0,0,0,.577,96H.588a6.962,6.962,0,0,0,4.6-1.619.164.164,0,0,1,.154-.042,9.456,9.456,0,0,0,2.179.252C11.295,94.593,15.045,92.242,15.045,88.681Zm-9.57,5.1a.734.734,0,0,0-.688.191,6.415,6.415,0,0,1-3.9,1.44A8.925,8.925,0,0,0,2.255,92.7a.734.734,0,0,0-.194-.719,4.574,4.574,0,0,1-1.488-3.3c0-2.944,3.118-5.339,6.95-5.339s6.95,2.4,6.95,5.339-3.118,5.339-6.95,5.339A8.885,8.885,0,0,1,5.476,93.784Z" data-name="Path 81338"
                fill="#ff8000"
                id="Path_81338" stroke="#ff8000" stroke-width="0.3"
                transform="translate(0 -82.769)" />
            <path d="M331.389,152a4.42,4.42,0,0,0,2.667-3.848c0-2.213-2-4.1-4.756-4.5a.286.286,0,0,0-.081.567c2.471.352,4.264,2,4.264,3.928a3.862,3.862,0,0,1-2.353,3.337.708.708,0,0,0-.373.778,5.965,5.965,0,0,0,.675,1.676,3.369,3.369,0,0,1-2.536-1.445.707.707,0,0,0-.612-.351h-.023a6.819,6.819,0,0,1-.945-.066.286.286,0,1,0-.08.567,7.4,7.4,0,0,0,1.025.071h.024a.132.132,0,0,1,.115.065,4.423,4.423,0,0,0,3.29,1.773.416.416,0,0,0,.4-.637,5.69,5.69,0,0,1-.771-1.773A.135.135,0,0,1,331.389,152Z" data-name="Path 81339"
                fill="#ff8000"
                id="Path_81339" stroke="#ff8000" stroke-width="0.3"
                transform="translate(-314.501 -141.323)" />
            <path d="M55.258,210.733a.993.993,0,1,0,.993.993A.994.994,0,0,0,55.258,210.733Zm0,1.413a.42.42,0,1,1,.42-.42A.42.42,0,0,1,55.258,212.146Z" data-name="Path 81340"
                fill="#ff8000"
                id="Path_81340" stroke="#ff8000" stroke-width="0.3"
                transform="translate(-52.192 -205.846)" />
            <path d="M129.411,210.733a.993.993,0,1,0,.993.993A.994.994,0,0,0,129.411,210.733Zm0,1.413a.42.42,0,1,1,.42-.42A.42.42,0,0,1,129.411,212.146Z" data-name="Path 81341"
                fill="#ff8000"
                id="Path_81341" stroke="#ff8000" stroke-width="0.3"
                transform="translate(-123.513 -205.846)" />
            <path d="M203.563,210.733a.993.993,0,1,0,.993.993A.994.994,0,0,0,203.563,210.733Zm0,1.413a.42.42,0,1,1,.42-.42A.42.42,0,0,1,203.563,212.146Z" data-name="Path 81342"
                fill="#ff8000"
                id="Path_81342" stroke="#ff8000" stroke-width="0.3"
                transform="translate(-194.833 -205.846)" />
            <path d="M277.717,210.733a.993.993,0,1,0,.993.993A.994.994,0,0,0,277.717,210.733Zm0,1.413a.42.42,0,1,1,.42-.42A.42.42,0,0,1,277.717,212.146Z" data-name="Path 81343"
                fill="#ff8000"
                id="Path_81343" stroke="#ff8000" stroke-width="0.3"
                transform="translate(-266.155 -205.846)" />
        </g>
    </g>
</svg>
