<svg xmlns="http://www.w3.org/2000/svg" width="20" height="20" viewBox="0 0 20 20">
  <path id="Home" d="M397.887,471.728l-2.964-2.964v-4.841a.384.384,0,0,0-.385-.385h-2.308a.384.384,0,0,0-.385.385v1.764l-3.574-3.574a.384.384,0,0,0-.544,0l-9.615,9.615a.384.384,0,0,0,0,.544l1.538,1.538a.384.384,0,0,0,.544,0l.113-.113v6.764A1.54,1.54,0,0,0,381.846,482h12.308a1.54,1.54,0,0,0,1.538-1.538V473.7l.113.113a.385.385,0,0,0,.544,0l1.538-1.538A.384.384,0,0,0,397.887,471.728Zm-12.195,9.5v-8.461h4.615v8.461Zm9.231-.769a.77.77,0,0,1-.769.769h-3.077v-8.846a.384.384,0,0,0-.385-.385h-5.385a.384.384,0,0,0-.385.385v8.846h-3.077a.77.77,0,0,1-.769-.769v-7.533L388,466.005l6.923,6.923Zm1.154-7.467-7.8-7.8a.384.384,0,0,0-.544,0l-7.8,7.8-.995-.995L388,462.928l3.959,3.959a.385.385,0,0,0,.657-.272v-2.308h1.538v4.615a.383.383,0,0,0,.113.272l2.8,2.805Z" transform="translate(-378 -462)"/>
</svg>
