<svg height="20" viewBox="0 0 23.535 20" width="23.535" xmlns="http://www.w3.org/2000/svg">
    <path
        d="M881.243,2278.958l-3.714-10.688a.318.318,0,0,0-.3-.214h-6.636l.109-.717h1.632a.319.319,0,0,0,.3-.218l.53-1.591a.319.319,0,0,0-.3-.419h-.63l-.732-3.5h.528a.318.318,0,0,0,.318-.318v-.531a1.381,1.381,0,0,0-1.379-1.379h-2.951a1.381,1.381,0,0,0-1.379,1.379v.531a.318.318,0,0,0,.318.318h.527l-.732,3.5h-.63a.319.319,0,0,0-.3.419l.531,1.591a.319.319,0,0,0,.3.218h1.633l.109.717h-6.636a.318.318,0,0,0-.3.214l-3.714,10.688a.318.318,0,0,0,.3.423h22.9a.318.318,0,0,0,.3-.423Zm-6.924-.214,1.657-3.484,3.963,1.885.556,1.6Zm-10.4,0a.319.319,0,0,0-.136-.124l-4.508-2.144.21-.605,4.571,2.174a.318.318,0,0,0,.424-.151l1.366-2.872a.318.318,0,0,0-.151-.424l-4.95-2.354.21-.605,5.013,2.384a.319.319,0,0,0,.424-.151l1.366-2.871a.319.319,0,0,0-.151-.424l-3.963-1.885h1.482l3.619,1.721.115.76-.1-.05a.318.318,0,0,0-.424.151l-3.552,7.469Zm-5.432,0,.578-1.662,3.5,1.662Zm6.648-3.707-1.092,2.3-4.347-2.067.84-2.417Zm-2.971-6.344,4.884,2.323-1.092,2.3-4.789-2.278.814-2.342Zm6.762-1.354h1.128l-.109.717-.048.318-.048.318-.218,1.436-.05.329-.05.329-.042.274-.048-.317-.058-.38-.057-.38-.2-1.291-.048-.318-.048-.318Zm-2.047-.637-.047-.141-.237-.713-.034-.1h5.858l-.034.1-.238.713-.047.141h-5.221Zm.393-5.943a.744.744,0,0,1,.743-.743h2.951a.744.744,0,0,1,.743.743v.212h-4.436Zm3.577.849.732,3.5H867.4l.732-3.5Zm.889,9.522-1.506-.716.261-1.722h2.4Zm-3.1-1.476-2.022-.961h1.876Zm.141,2.182.2.1.2,1.3a.318.318,0,0,0,.629,0l.128-.846,4.315,2.052-2.047,4.3h-6.713Zm6.186,2.59a.318.318,0,0,0-.151-.424l-4.777-2.272.1-.657,1.619.77a.319.319,0,0,0,.424-.151l1.426-3h.706l-1.556,3.272a.318.318,0,0,0,.151.424l6.448,3.067.293.845-3.683-1.752a.318.318,0,0,0-.424.151l-1.924,4.045h-.705Zm-1.5-2.475,1.55-3.258H877l2.057,5.918Z"
        id="range" transform="translate(-857.725 -2259.38)" />
</svg>
