<svg height="12.372" viewBox="0 0 13.126 12.372" width="13.126" xmlns="http://www.w3.org/2000/svg">
    <g id="relaxation" transform="translate(-24.157 -159.499)">
        <path
            d="M63.437,175.7a2.628,2.628,0,0,0-.558-1.192c-.025-.032-.054-.068-.059-.077-.1-.288-.3-.718-.432-.721a.421.421,0,0,0-.3.114,5.785,5.785,0,0,0-.12-.75c-.407-1.46-3.132-1.759-3.252-1.771a1.155,1.155,0,0,0-1.081.5,3.686,3.686,0,0,0,.211,3.317,5.475,5.475,0,0,1,.38,3.148,8.111,8.111,0,0,0-.054,1.4A1.467,1.467,0,0,0,59.66,181H59.7a.1.1,0,0,0,.153-.059,7.255,7.255,0,0,0,.292-2.112,4.12,4.12,0,0,0-.166-.613,1.885,1.885,0,0,1-.049-1.435,2.9,2.9,0,0,0,.22-1.344.7.7,0,0,1,.324.228.755.755,0,0,1,.11.591c-.075.478-.059.757.053.906a.389.389,0,0,0,.289.14c.3.038,1.052-1.144,1.184-1.859a7.053,7.053,0,0,0,.012-1.244c0-.011.028-.257.227-.281a2.083,2.083,0,0,1,.284.58s0,0,0,.006c.035.256.064.713.064.778s-.137.713-.22,1.106a.1.1,0,0,0,.078.119l.021,0a.1.1,0,0,0,.1-.08c.067-.32.223-1.072.224-1.142,0-.052-.011-.251-.028-.456a2.481,2.481,0,0,1,.375.915,3.115,3.115,0,0,1-.068,1.376A20.819,20.819,0,0,1,62.1,179.2a4.149,4.149,0,0,0-.184,1.094c-.022.2-.045.411-.071.62a.1.1,0,0,0,.087.112h.012a.1.1,0,0,0,.1-.088c.026-.21.049-.423.071-.624a5.224,5.224,0,0,1,.157-1.015,20.694,20.694,0,0,0,1.088-2.123A3.307,3.307,0,0,0,63.437,175.7Zm-1.529-.3a3.524,3.524,0,0,1-.961,1.7c-.081-.01-.123-.02-.154-.061-.05-.067-.094-.253-.015-.754a.873.873,0,0,0-.745-1.085.1.1,0,0,0-.088.034.1.1,0,0,0-.021.092,2.431,2.431,0,0,1-.186,1.379,2.074,2.074,0,0,0,.045,1.57,3.963,3.963,0,0,1,.159.584,6.965,6.965,0,0,1-.267,1.936,1.264,1.264,0,0,1-1.307-1.141,7.95,7.95,0,0,1,.054-1.361,5.642,5.642,0,0,0-.4-3.252,3.5,3.5,0,0,1-.227-3.12.95.95,0,0,1,.9-.417c.027,0,2.7.3,3.075,1.625a6.854,6.854,0,0,1,.142,1.036.088.088,0,0,0,.005.021v.006A7.27,7.27,0,0,1,61.908,175.4Z"
            data-name="Path 2725" id="Path_2725" stroke="#000" stroke-width="0.3"
            transform="translate(-26.369 -9.308)" />
        <path
            d="M58.177,161.547a.754.754,0,0,0,.642-.41.677.677,0,0,0,.61.482.61.61,0,0,0,.462-.228.628.628,0,0,0,.574.521.541.541,0,0,0,.385-.173.609.609,0,0,0,.559.539.493.493,0,0,0,.26-.078.584.584,0,0,0,.529.594.649.649,0,0,0,0-1.276.457.457,0,0,0-.217.057.636.636,0,0,0-.572-.673.512.512,0,0,0-.355.152.644.644,0,0,0-.59-.587.541.541,0,0,0-.386.174.711.711,0,0,0-.65-.633.628.628,0,0,0-.513.3.813.813,0,0,0-.74-.656.967.967,0,0,0,0,1.9Zm4.022.173a.454.454,0,1,1-.331.437A.4.4,0,0,1,62.2,161.72Zm-.789-.616a.505.505,0,1,1-.372.488A.442.442,0,0,1,61.411,161.1Zm-.944-.435a.54.54,0,1,1-.4.522A.474.474,0,0,1,60.466,160.669Zm-1.036-.459a.625.625,0,1,1-.466.6A.55.55,0,0,1,59.43,160.209Zm-1.253-.359a.772.772,0,1,1-.581.748A.682.682,0,0,1,58.177,159.85Z"
            data-name="Path 2726" id="Path_2726" stroke="#000" stroke-width="0.3"
            transform="translate(-26.424 0)" />
        <path
            d="M28.88,162.8a.584.584,0,0,0,.529-.594.493.493,0,0,0,.26.078.609.609,0,0,0,.559-.539.541.541,0,0,0,.385.173.628.628,0,0,0,.574-.521.611.611,0,0,0,.463.227.677.677,0,0,0,.61-.482.754.754,0,0,0,.642.41.967.967,0,0,0,0-1.9.813.813,0,0,0-.74.656.628.628,0,0,0-.512-.3.711.711,0,0,0-.651.633.541.541,0,0,0-.386-.174.643.643,0,0,0-.589.587.513.513,0,0,0-.355-.152.636.636,0,0,0-.572.673.457.457,0,0,0-.217-.057.649.649,0,0,0,0,1.276ZM32.9,159.85a.772.772,0,1,1-.581.748A.682.682,0,0,1,32.9,159.85Zm-1.253.359a.625.625,0,1,1-.466.6A.55.55,0,0,1,31.65,160.209Zm-1.037.459a.54.54,0,1,1-.4.522A.474.474,0,0,1,30.614,160.669Zm-.944.435a.505.505,0,1,1-.372.488A.442.442,0,0,1,29.669,161.1Zm-.789.616a.454.454,0,1,1-.331.437A.4.4,0,0,1,28.88,161.72Z"
            data-name="Path 2727" id="Path_2727" stroke="#000" stroke-width="0.3"
            transform="translate(-3.217 0)" />
        <path
            d="M29.091,171.3c-.116.012-2.84.311-3.247,1.771a5.714,5.714,0,0,0-.12.748.409.409,0,0,0-.3-.112c-.133,0-.331.433-.431.718a.81.81,0,0,1-.06.08,2.628,2.628,0,0,0-.558,1.192,3.309,3.309,0,0,0,.074,1.48,20.731,20.731,0,0,0,1.088,2.123,5.224,5.224,0,0,1,.157,1.015c.022.2.045.414.071.624a.1.1,0,0,0,.1.088h.012a.1.1,0,0,0,.087-.112c-.026-.209-.049-.42-.071-.62a4.145,4.145,0,0,0-.184-1.095,20.792,20.792,0,0,1-1.072-2.085,3.114,3.114,0,0,1-.068-1.376,2.484,2.484,0,0,1,.375-.915c-.017.205-.029.4-.028.456,0,.07.157.822.224,1.142a.1.1,0,0,0,.1.08l.021,0a.1.1,0,0,0,.078-.119c-.082-.393-.215-1.041-.22-1.1s.028-.525.064-.781c0,0,0,0,0-.006a2.08,2.08,0,0,1,.285-.58c.193.023.224.252.226.264a7.293,7.293,0,0,0,.012,1.261c.131.715.879,1.891,1.184,1.859a.39.39,0,0,0,.289-.14c.112-.149.128-.429.053-.906a.755.755,0,0,1,.109-.589.7.7,0,0,1,.324-.229,2.9,2.9,0,0,0,.22,1.343,1.884,1.884,0,0,1-.049,1.435,4.146,4.146,0,0,0-.166.613,7.257,7.257,0,0,0,.293,2.112.1.1,0,0,0,.121.074.1.1,0,0,0,.032-.015h.036a1.467,1.467,0,0,0,1.492-1.328,8.111,8.111,0,0,0-.054-1.4,5.475,5.475,0,0,1,.38-3.148,3.686,3.686,0,0,0,.211-3.317A1.157,1.157,0,0,0,29.091,171.3Zm.693,3.737a5.644,5.644,0,0,0-.4,3.252,7.951,7.951,0,0,1,.054,1.361,1.264,1.264,0,0,1-1.307,1.141,6.964,6.964,0,0,1-.267-1.936,3.988,3.988,0,0,1,.159-.584,2.074,2.074,0,0,0,.045-1.57,2.428,2.428,0,0,1-.186-1.379.1.1,0,0,0-.109-.127.873.873,0,0,0-.745,1.085c.079.5.035.687-.015.754-.031.041-.072.05-.141.061a3.415,3.415,0,0,1-.974-1.7,7.346,7.346,0,0,1-.01-1.217.092.092,0,0,0,.005-.02,6.852,6.852,0,0,1,.142-1.036c.371-1.329,3.048-1.622,3.07-1.625a.953.953,0,0,1,.9.417A3.5,3.5,0,0,1,29.784,175.041Z"
            data-name="Path 2728" id="Path_2728" stroke="#000" stroke-width="0.3"
            transform="translate(0 -9.309)" />
    </g>
</svg>
