<svg height="17.261" viewBox="0 0 16.069 17.261" width="16.069" xmlns="http://www.w3.org/2000/svg">
    <g id="reviewed" transform="translate(-0.901 -1.758)">
        <g data-name="Group 56233" id="Group_56233" transform="translate(3.267 11.299)">
            <g data-name="Group 56232" id="Group_56232">
                <path d="M100.548,278.4a.786.786,0,1,0,.786.786A.787.787,0,0,0,100.548,278.4Zm0,1.054a.268.268,0,1,1,.268-.268A.268.268,0,0,1,100.548,279.456Z" data-name="Path 201281"
                    fill="#e7e7e7"
                    id="Path_201281" transform="translate(-99.762 -278.402)" />
            </g>
        </g>
        <g data-name="Group 56239" id="Group_56239" transform="translate(0.901 15.022)">
            <g data-name="Group 56238" id="Group_56238" transform="translate(0 0)">
                <path d="M355.474,39.27a.613.613,0,0,0-.34-1.045l-.667-.1a.04.04,0,0,1-.03-.022l-.3-.6a.613.613,0,0,0-1.1,0l-.3.6a.04.04,0,0,1-.03.022l-.667.1a.613.613,0,0,0-.34,1.045l.482.47a.04.04,0,0,1,.011.035l-.114.664a.613.613,0,0,0,.889.646l.6-.314a.04.04,0,0,1,.037,0l.6.314a.613.613,0,0,0,.889-.646l-.114-.664a.04.04,0,0,1,.011-.035Zm-.882.06a.612.612,0,0,0-.176.542l.114.664a.04.04,0,0,1-.058.042l-.6-.314a.613.613,0,0,0-.57,0l-.6.314a.04.04,0,0,1-.058-.042l.114-.664a.613.613,0,0,0-.176-.542l-.482-.47a.04.04,0,0,1,.022-.068l.667-.1a.613.613,0,0,0,.461-.335l.3-.6a.04.04,0,0,1,.072,0l.3.6a.613.613,0,0,0,.461.335l.667.1a.04.04,0,0,1,.022.068Z" data-name="Path 201286"
                    fill="#e7e7e7"
                    id="Path_201286" transform="translate(-351.52 -37.16)" />
                <path d="M355.474,39.27a.613.613,0,0,0-.34-1.045l-.667-.1a.04.04,0,0,1-.03-.022l-.3-.6a.613.613,0,0,0-1.1,0l-.3.6a.04.04,0,0,1-.03.022l-.667.1a.613.613,0,0,0-.34,1.045l.482.47a.04.04,0,0,1,.011.035l-.114.664a.613.613,0,0,0,.889.646l.6-.314a.04.04,0,0,1,.037,0l.6.314a.613.613,0,0,0,.889-.646l-.114-.664a.04.04,0,0,1,.011-.035Zm-.882.06a.612.612,0,0,0-.176.542l.114.664a.04.04,0,0,1-.058.042l-.6-.314a.613.613,0,0,0-.57,0l-.6.314a.04.04,0,0,1-.058-.042l.114-.664a.613.613,0,0,0-.176-.542l-.482-.47a.04.04,0,0,1,.022-.068l.667-.1a.613.613,0,0,0,.461-.335l.3-.6a.04.04,0,0,1,.072,0l.3.6a.613.613,0,0,0,.461.335l.667.1a.04.04,0,0,1,.022.068Z" data-name="Path 201287"
                    fill="#e7e7e7"
                    id="Path_201287" transform="translate(-345.556 -37.16)" />
                <path d="M355.474,39.27a.613.613,0,0,0-.34-1.045l-.667-.1a.04.04,0,0,1-.03-.022l-.3-.6a.613.613,0,0,0-1.1,0l-.3.6a.04.04,0,0,1-.03.022l-.667.1a.613.613,0,0,0-.34,1.045l.482.47a.04.04,0,0,1,.011.035l-.114.664a.613.613,0,0,0,.889.646l.6-.314a.04.04,0,0,1,.037,0l.6.314a.613.613,0,0,0,.889-.646l-.114-.664a.04.04,0,0,1,.011-.035Zm-.882.06a.612.612,0,0,0-.176.542l.114.664a.04.04,0,0,1-.058.042l-.6-.314a.613.613,0,0,0-.57,0l-.6.314a.04.04,0,0,1-.058-.042l.114-.664a.613.613,0,0,0-.176-.542l-.482-.47a.04.04,0,0,1,.022-.068l.667-.1a.613.613,0,0,0,.461-.335l.3-.6a.04.04,0,0,1,.072,0l.3.6a.613.613,0,0,0,.461.335l.667.1a.04.04,0,0,1,.022.068Z" data-name="Path 201288"
                    fill="#e7e7e7"
                    id="Path_201288" transform="translate(-339.591 -37.16)" />
            </g>
        </g>
        <g data-name="Group 56241" id="Group_56241" transform="translate(2.037 1.758)">
            <g data-name="Group 56240" id="Group_56240" transform="translate(0 0)">
                <path d="M-1282.1,6073.716h-6.131a2.461,2.461,0,0,1-1.325-.364.969.969,0,0,1-.715.32h-2.107a.963.963,0,0,1-.962-.962v-5.267a.963.963,0,0,1,.962-.962h2.107a.957.957,0,0,1,.625.232,5.788,5.788,0,0,0,2.692-2.3,9.6,9.6,0,0,0,.48-2.375.551.551,0,0,1,.549-.533.6.6,0,0,1,.064,0,1.383,1.383,0,0,1,.942.555,3.244,3.244,0,0,1,.389,2.5,4.755,4.755,0,0,1-.366,1.312h4.17a1.176,1.176,0,0,1,1.174,1.175,1.166,1.166,0,0,1-.439.915,1.172,1.172,0,0,1,.439.915,1.171,1.171,0,0,1-.659,1.057l.018.021.008.009a1.9,1.9,0,0,0-.739-.144,2.61,2.61,0,0,0-.993.212.258.258,0,0,1-.157-.238.259.259,0,0,1,.259-.259h1.089a.657.657,0,0,0,.656-.657.656.656,0,0,0-.656-.655h-1.089a.259.259,0,0,1-.259-.259.259.259,0,0,1,.259-.259h1.089a.656.656,0,0,0,.656-.655.657.657,0,0,0-.656-.657h-4.613a.256.256,0,0,1-.232-.15.254.254,0,0,1,.031-.272,3.41,3.41,0,0,0,.5-1.48,2.773,2.773,0,0,0-.287-2.113.869.869,0,0,0-.595-.355.03.03,0,0,0-.021.006.031.031,0,0,0-.009.023s0,.007,0,.011,0,.01,0,.014a10.281,10.281,0,0,1-.534,2.567,6.141,6.141,0,0,1-2.865,2.508.959.959,0,0,1,.046.291v5.267a.962.962,0,0,1-.017.175,1.914,1.914,0,0,0,1.095.313h5.557a5.115,5.115,0,0,0,.5.462l.07.054Zm-10.277-6.717a.444.444,0,0,0-.444.443v5.267a.444.444,0,0,0,.444.444h2.107a.441.441,0,0,0,.332-.152.252.252,0,0,1-.017-.09v-5.78a.44.44,0,0,0-.316-.132Z" data-name="Subtraction 26"
                    fill="#e7e7e7"
                    id="Subtraction_26" transform="translate(1293.337 -6061.504)" />
            </g>
        </g>
        <path d="M28.208,30.931a.158.158,0,0,1-.185-.256,2.227,2.227,0,0,1,2.188-.243,1.708,1.708,0,0,1,.317.168,2.243,2.243,0,0,1,.376.3,2.226,2.226,0,1,1-3.536,2.628,1.357,1.357,0,0,1-.14-.316,2.225,2.225,0,0,1,.26-1.989.158.158,0,1,1,.26.177,1.888,1.888,0,0,0-.329,1.074,1.913,1.913,0,1,0,.789-1.547Z" data-name="Path 81335"
            fill="#e7e7e7"
            id="Path_81335" stroke="#e7e7e7" stroke-width="0.2"
            transform="translate(-15.057 -20.3)" />
        <path d="M138.84,169.065a.192.192,0,0,1,0,.271l-1.287,1.287a.192.192,0,0,1-.271,0l-.613-.613a.192.192,0,1,1,.271-.271l.477.477,1.151-1.151A.192.192,0,0,1,138.84,169.065Z"
            fill="#e7e7e7"
            id="correct" transform="translate(-123.418 -157.485)" />
    </g>
</svg>
