<svg height="22" viewBox="0 0 22 22" width="22" xmlns="http://www.w3.org/2000/svg">
    <path
        d="M302.885,380.538a6.353,6.353,0,0,0-6.346,6.346.423.423,0,0,0,.846,0,5.506,5.506,0,0,1,5.5-5.5.423.423,0,0,0,0-.846Zm12.467,15.675-4.823-4.823a8.916,8.916,0,1,0-3.136,3.137l4.823,4.823a2.216,2.216,0,0,0,3.124.01l.012-.011A2.22,2.22,0,0,0,315.352,396.214Zm-12.467-1.291a8.038,8.038,0,1,1,8.038-8.038A8.047,8.047,0,0,1,302.885,394.923Zm11.877,3.819-.01.01a1.4,1.4,0,0,1-1.939,0l-4.7-4.7a8.938,8.938,0,0,0,1.94-1.94l4.7,4.7A1.373,1.373,0,0,1,314.762,398.742Z"
        fill="#e1e1e1" id="search" transform="translate(-294 -378)" />
</svg>
