<svg xmlns="http://www.w3.org/2000/svg" width="12.699" height="17.62" viewBox="0 0 12.699 17.62">
  <g id="service_gender" transform="translate(-0.001)">
    <g id="XMLID_373_" transform="translate(0.001)">
      <path id="XMLID_551_" d="M313.424,9.292a1.082,1.082,0,0,0,1.048-1.345l-.889-3.531a1.833,1.833,0,0,0-1.569-1.375,1.677,1.677,0,0,0,.337-1.01V1.686a1.686,1.686,0,1,0-3.373,0V2.03a1.677,1.677,0,0,0,.337,1.01,1.839,1.839,0,0,0-1.25.712,2.415,2.415,0,0,1,.4.966c.081,1.616-.033,4.726,0,4.722l-.64.7-.34,1.352a.676.676,0,0,0,.656.842h.664v4.187a2.007,2.007,0,0,0,3.717,0V12.332h.664a.677.677,0,0,0,.656-.842l-.556-2.207a1.083,1.083,0,0,0,.134.009Zm-3.756-7.606a1,1,0,0,1,2,0V2.03a1,1,0,0,1-2,0Zm.241,15.246a.413.413,0,0,1-.413-.413V12.332h.826v4.187A.413.413,0,0,1,309.909,16.932Zm1.927-.413a.413.413,0,1,1-.826,0V12.332h.826Zm1.208-8.212-.84-3.339a.344.344,0,0,0-.667.168l1.638,6.507h-5.015L309.8,5.136a.344.344,0,0,0-.667-.168l-.84,3.338h0c-.044.175.2-3.931.255-4.032a1.142,1.142,0,0,1,.985-.558H311.8a1.146,1.146,0,0,1,1.112.867l.889,3.531a.393.393,0,0,1-.381.489h0A.392.392,0,0,1,313.044,8.307Z" transform="translate(-301.807 0)"/>
      <path id="XMLID_557_" d="M5.176,3.028H4.921a1.677,1.677,0,0,0,.328-1V1.686a1.686,1.686,0,0,0-3.373,0V2.03a1.677,1.677,0,0,0,.328,1H1.951A1.952,1.952,0,0,0,0,4.979v4.4a1.083,1.083,0,0,0,1.566.971v6.1a1.17,1.17,0,0,0,2,.828,1.17,1.17,0,0,0,2-.828v-6.1a1.083,1.083,0,0,0,1.567-.97V5.16a.344.344,0,1,0-.688,0V9.378a.4.4,0,0,1-.792,0V5.495a.344.344,0,1,0-.688,0V9.223H2.169V5.495a.344.344,0,1,0-.688,0V9.378a.4.4,0,0,1-.792,0v-4.4A1.263,1.263,0,0,1,1.951,3.717H5.176A1.263,1.263,0,0,1,6.438,4.979V5.5a.344.344,0,1,0,.688,0V4.979a1.952,1.952,0,0,0-1.95-1.95ZM4.871,16.45a.482.482,0,1,1-.964,0V9.911h.964ZM2.255,9.911h.964V16.45a.482.482,0,1,1-.964,0Zm.31-7.881V1.686a1,1,0,0,1,2,0V2.03a1,1,0,0,1-2,0Z" transform="translate(-0.001)"/>
    </g>
  </g>
</svg>
