<svg height="35.5" viewBox="0 0 37.686 35.5" width="37.686" xmlns="http://www.w3.org/2000/svg">
    <g data-name="3" id="_3" transform="translate(-24.03 -159.399)">
        <path d="M75.041,184.057a7.62,7.62,0,0,0-1.617-3.456c-.073-.092-.156-.2-.17-.223-.293-.835-.869-2.082-1.252-2.09a1.221,1.221,0,0,0-.879.33,16.77,16.77,0,0,0-.349-2.175c-1.181-4.234-9.079-5.1-9.428-5.136a3.347,3.347,0,0,0-3.135,1.462c-1.374,2.021-1.128,5.886.611,9.618,1.642,3.524,1.367,6.372,1.1,9.127a23.515,23.515,0,0,0-.157,4.045,4.254,4.254,0,0,0,4.325,3.851c.035,0,.07,0,.1,0a.287.287,0,0,0,.444-.171,21.035,21.035,0,0,0,.848-6.122,11.947,11.947,0,0,0-.481-1.777,5.466,5.466,0,0,1-.142-4.16,8.4,8.4,0,0,0,.638-3.9,2.018,2.018,0,0,1,.938.66,2.19,2.19,0,0,1,.319,1.713c-.218,1.385-.171,2.2.153,2.627a1.128,1.128,0,0,0,.838.406c.863.11,3.051-3.317,3.431-5.391a20.448,20.448,0,0,0,.034-3.606c0-.032.08-.744.658-.813a6.038,6.038,0,0,1,.824,1.681c0,.006,0,.012,0,.018.1.743.186,2.067.184,2.257s-.4,2.067-.637,3.206a.291.291,0,0,0,.226.345.3.3,0,0,0,.06.006.292.292,0,0,0,.285-.232c.194-.928.647-3.108.649-3.312,0-.151-.033-.729-.082-1.323a7.192,7.192,0,0,1,1.088,2.651,9.03,9.03,0,0,1-.2,3.989,60.359,60.359,0,0,1-3.107,6.045,12.03,12.03,0,0,0-.532,3.173c-.063.579-.129,1.193-.205,1.8a.292.292,0,0,0,.253.325l.036,0a.292.292,0,0,0,.289-.255c.076-.609.143-1.225.206-1.808a15.145,15.145,0,0,1,.456-2.942,59.993,59.993,0,0,0,3.156-6.155A9.587,9.587,0,0,0,75.041,184.057Zm-4.432-.866a10.217,10.217,0,0,1-2.785,4.917c-.236-.03-.356-.058-.445-.177-.146-.2-.273-.733-.044-2.187a2.531,2.531,0,0,0-2.159-3.145.3.3,0,0,0-.255.1.291.291,0,0,0-.061.268,7.048,7.048,0,0,1-.539,4,6.015,6.015,0,0,0,.131,4.553,11.488,11.488,0,0,1,.46,1.692,20.191,20.191,0,0,1-.775,5.614,3.665,3.665,0,0,1-3.791-3.308,23.053,23.053,0,0,1,.157-3.946c.273-2.832.556-5.761-1.153-9.429-1.655-3.552-1.919-7.187-.657-9.044a2.754,2.754,0,0,1,2.605-1.209c.078.008,7.838.856,8.914,4.712a19.871,19.871,0,0,1,.411,3,.256.256,0,0,0,.015.061l0,.016A21.077,21.077,0,0,1,70.609,183.192Z" data-name="Path 2725"
            id="Path_2725"
            stroke="#000" stroke-width="0.5" transform="translate(-13.764 -4.859)" />
        <path d="M59.663,165.152a2.187,2.187,0,0,0,1.863-1.188,1.962,1.962,0,0,0,1.769,1.4,1.769,1.769,0,0,0,1.341-.66,1.821,1.821,0,0,0,1.664,1.512,1.568,1.568,0,0,0,1.117-.5,1.766,1.766,0,0,0,1.62,1.564,1.429,1.429,0,0,0,.754-.227,1.692,1.692,0,0,0,1.533,1.722,1.881,1.881,0,0,0,0-3.7,1.324,1.324,0,0,0-.63.165,1.843,1.843,0,0,0-1.657-1.951,1.486,1.486,0,0,0-1.028.44,1.866,1.866,0,0,0-1.709-1.7,1.569,1.569,0,0,0-1.119.5,2.061,2.061,0,0,0-1.886-1.835,1.822,1.822,0,0,0-1.486.859,2.358,2.358,0,0,0-2.146-1.9,2.8,2.8,0,0,0,0,5.5Zm11.661.5a1.316,1.316,0,1,1-.961,1.267A1.148,1.148,0,0,1,71.325,165.653Zm-2.288-1.786a1.465,1.465,0,1,1-1.079,1.414A1.282,1.282,0,0,1,69.037,163.867ZM66.3,162.605a1.567,1.567,0,1,1-1.158,1.513A1.374,1.374,0,0,1,66.3,162.605Zm-3-1.332a1.812,1.812,0,1,1-1.352,1.752A1.593,1.593,0,0,1,63.3,161.274Zm-3.632-1.042a2.238,2.238,0,1,1-1.685,2.169A1.976,1.976,0,0,1,59.663,160.232Z" data-name="Path 2726"
            id="Path_2726"
            stroke="#000" stroke-width="0.5" transform="translate(-13.792 0)" />
        <path d="M29.892,168.771a1.692,1.692,0,0,0,1.533-1.722,1.429,1.429,0,0,0,.754.227,1.766,1.766,0,0,0,1.62-1.564,1.568,1.568,0,0,0,1.117.5A1.821,1.821,0,0,0,36.58,164.7a1.771,1.771,0,0,0,1.341.659,1.962,1.962,0,0,0,1.769-1.4,2.187,2.187,0,0,0,1.863,1.188,2.8,2.8,0,0,0,0-5.5,2.358,2.358,0,0,0-2.146,1.9,1.821,1.821,0,0,0-1.485-.859,2.061,2.061,0,0,0-1.887,1.835,1.569,1.569,0,0,0-1.119-.5,1.865,1.865,0,0,0-1.709,1.7,1.488,1.488,0,0,0-1.028-.44,1.844,1.844,0,0,0-1.657,1.951,1.324,1.324,0,0,0-.63-.165,1.881,1.881,0,0,0,0,3.7Zm11.661-8.539a2.238,2.238,0,0,1,0,4.337,2.238,2.238,0,0,1,0-4.337Zm-3.631,1.042a1.812,1.812,0,0,1,0,3.5,1.812,1.812,0,0,1,0-3.5Zm-3.005,1.332a1.567,1.567,0,0,1,0,3.025,1.566,1.566,0,0,1,0-3.025Zm-2.737,1.262a1.465,1.465,0,0,1,0,2.827,1.465,1.465,0,0,1,0-2.827Zm-2.288,1.786a1.316,1.316,0,0,1,0,2.535,1.316,1.316,0,0,1,0-2.535Z" data-name="Path 2727"
            id="Path_2727"
            stroke="#000" stroke-width="0.5" transform="translate(-1.679 0)" />
        <path d="M38.151,171.309c-.336.035-8.235.9-9.415,5.135a16.569,16.569,0,0,0-.349,2.17,1.185,1.185,0,0,0-.878-.325c-.385.008-.96,1.255-1.25,2.082a2.352,2.352,0,0,1-.173.231,7.62,7.62,0,0,0-1.617,3.457,9.593,9.593,0,0,0,.214,4.29,60.1,60.1,0,0,0,3.156,6.155,15.146,15.146,0,0,1,.456,2.942c.064.583.13,1.2.206,1.808a.292.292,0,0,0,.289.255l.036,0a.292.292,0,0,0,.253-.325c-.076-.606-.142-1.219-.205-1.8a12.016,12.016,0,0,0-.532-3.174,60.288,60.288,0,0,1-3.107-6.044,9.028,9.028,0,0,1-.2-3.988,7.2,7.2,0,0,1,1.088-2.652c-.05.595-.084,1.172-.082,1.323,0,.2.455,2.384.65,3.312a.291.291,0,0,0,.284.232.3.3,0,0,0,.06-.006.291.291,0,0,0,.226-.345c-.239-1.14-.623-3.019-.637-3.2,0-.2.082-1.521.184-2.264,0-.006,0-.012,0-.019a6.031,6.031,0,0,1,.825-1.681c.56.066.649.732.656.765a21.145,21.145,0,0,0,.035,3.655c.38,2.074,2.549,5.483,3.433,5.391a1.129,1.129,0,0,0,.837-.406c.324-.432.371-1.243.153-2.628a2.189,2.189,0,0,1,.317-1.708,2.029,2.029,0,0,1,.94-.663,8.413,8.413,0,0,0,.638,3.894,5.462,5.462,0,0,1-.142,4.159,12.02,12.02,0,0,0-.481,1.777,21.042,21.042,0,0,0,.848,6.122.29.29,0,0,0,.352.214.285.285,0,0,0,.092-.043c.035,0,.07,0,.1,0a4.254,4.254,0,0,0,4.325-3.851,23.516,23.516,0,0,0-.157-4.045c-.266-2.755-.54-5.6,1.1-9.127,1.738-3.732,1.984-7.6.61-9.618A3.354,3.354,0,0,0,38.151,171.309Zm2.008,10.834c-1.709,3.668-1.426,6.6-1.153,9.429a23.052,23.052,0,0,1,.157,3.946,3.665,3.665,0,0,1-3.791,3.308,20.191,20.191,0,0,1-.775-5.614,11.562,11.562,0,0,1,.46-1.692,6.013,6.013,0,0,0,.131-4.552,7.04,7.04,0,0,1-.539-4,.293.293,0,0,0-.316-.367,2.531,2.531,0,0,0-2.16,3.145c.229,1.454.1,1.992-.044,2.187-.089.119-.21.146-.408.177-.426-.11-2.426-2.757-2.823-4.918a21.3,21.3,0,0,1-.029-3.529.267.267,0,0,0,.015-.058,19.87,19.87,0,0,1,.411-3c1.075-3.853,8.836-4.7,8.9-4.711a2.764,2.764,0,0,1,2.618,1.209C42.078,174.956,41.814,178.591,40.159,182.143Z" data-name="Path 2728"
            id="Path_2728"
            stroke="#000" stroke-width="0.5" transform="translate(0 -4.859)" />
    </g>
</svg>
