<svg height="35.532" viewBox="0 0 36.16 35.532" width="36.16" xmlns="http://www.w3.org/2000/svg">
    <g data-name="2" id="_2" transform="translate(-27.033 -36.995)">
        <g data-name="Group 1294" id="Group_1294" transform="translate(27.249 46.467)">
            <path d="M77.636,59.777a3.814,3.814,0,0,1-.219-.612A6.161,6.161,0,0,0,75.7,55.607a1.752,1.752,0,0,1-.166-.176c-.432-1.229-1.1-2.505-1.473-2.512h-.045a1.659,1.659,0,0,0-1.561,1.636,25.815,25.815,0,0,1-.033,4.306c-.493,2.689-2.99,5.969-3.473,6.061-.28-.036-.459-.07-.586-.241-.271-.361-.293-1.276-.066-2.72a3.031,3.031,0,0,0-2.585-3.772.289.289,0,0,0-.258.1.3.3,0,0,0-.061.27,8.657,8.657,0,0,1-.66,4.927,7.3,7.3,0,0,0,.161,5.522,14.154,14.154,0,0,1,.565,2.076c.179,1.059-.233,3.961-1.026,7.221a.294.294,0,1,0,.571.139c.823-3.383,1.23-6.309,1.036-7.458a14.616,14.616,0,0,0-.586-2.162,6.734,6.734,0,0,1-.172-5.126,10.063,10.063,0,0,0,.765-4.829,2.57,2.57,0,0,1,1.269.859,2.732,2.732,0,0,1,.4,2.141c-.263,1.675-.209,2.651.176,3.165a1.308,1.308,0,0,0,.982.471c.952.112,3.629-3.832,4.126-6.538a25.127,25.127,0,0,0,.041-4.4c0-.042.106-.99.895-1.054a7.471,7.471,0,0,1,1.041,2.112c0,.011,0,.022,0,.033a14.821,14.821,0,0,1-.912,6.786.294.294,0,0,0,.545.22,15.565,15.565,0,0,0,.925-3.76,21.184,21.184,0,0,0,.1-2.507,5.763,5.763,0,0,1,1.087,2.362.31.31,0,0,0,0,.041c.3,1.394-.783,4.8-.794,4.837a.294.294,0,0,0,.19.37.3.3,0,0,0,.089.014.3.3,0,0,0,.28-.2,23.35,23.35,0,0,0,.785-3.362,6.523,6.523,0,0,1-.01,4.479,49.59,49.59,0,0,1-3.354,6.066c-.331.547-.616,1.017-.811,1.35a14.787,14.787,0,0,0-.642,3.852c-.077.709-.158,1.46-.251,2.2a.293.293,0,0,0,.254.328l.038,0a.293.293,0,0,0,.291-.257c.093-.744.175-1.5.253-2.21a18.231,18.231,0,0,1,.565-3.618c.193-.33.477-.8.806-1.343a47.9,47.9,0,0,0,3.414-6.2A7.071,7.071,0,0,0,77.636,59.777Z" data-name="Path 2729"
                fill="#1e1e1e"
                id="Path_2729" stroke="#000" stroke-width="0.5"
                transform="translate(-42.51 -52.917)" />
            <path d="M40.594,69.006a7.3,7.3,0,0,0,.162-5.522,8.65,8.65,0,0,1-.66-4.927.294.294,0,0,0-.062-.27.287.287,0,0,0-.257-.1,3.031,3.031,0,0,0-2.585,3.772c.228,1.444.206,2.359-.065,2.72a.741.741,0,0,1-.562.24c-.507-.092-3-3.372-3.5-6.06a26.512,26.512,0,0,1-.034-4.355,1.633,1.633,0,0,0-1.6-1.586c-.374.006-1.044,1.283-1.472,2.506a1.528,1.528,0,0,1-.169.182,6.156,6.156,0,0,0-1.719,3.559,3.819,3.819,0,0,1-.219.612,7.069,7.069,0,0,0-.186,5.321,47.815,47.815,0,0,0,3.413,6.2c.33.545.613,1.012.806,1.342a18.339,18.339,0,0,1,.565,3.619c.078.712.16,1.467.253,2.21a.293.293,0,0,0,.291.257l.037,0a.294.294,0,0,0,.255-.328c-.093-.74-.174-1.491-.251-2.2a14.77,14.77,0,0,0-.642-3.852c-.2-.333-.48-.8-.811-1.35a49.493,49.493,0,0,1-3.353-6.066,6.521,6.521,0,0,1-.011-4.479A23.179,23.179,0,0,0,29,63.811a.3.3,0,0,0,.28.2.3.3,0,0,0,.09-.014.294.294,0,0,0,.19-.37c-.011-.033-1.09-3.442-.794-4.837a.249.249,0,0,0,0-.042,5.763,5.763,0,0,1,1.088-2.361,21.182,21.182,0,0,0,.1,2.507,15.548,15.548,0,0,0,.925,3.76.294.294,0,0,0,.545-.22,14.833,14.833,0,0,1-.913-6.786.318.318,0,0,0,0-.033,7.425,7.425,0,0,1,1.042-2.111c.766.059.884.947.894,1a25.825,25.825,0,0,0,.042,4.451c.5,2.708,3.186,6.662,4.127,6.538a1.308,1.308,0,0,0,.981-.471c.385-.514.439-1.49.176-3.165a2.735,2.735,0,0,1,.4-2.136,2.581,2.581,0,0,1,1.273-.862,10.061,10.061,0,0,0,.765,4.828,6.731,6.731,0,0,1-.172,5.126,14.618,14.618,0,0,0-.586,2.162c-.194,1.148.213,4.075,1.036,7.458a.294.294,0,1,0,.571-.139c-.793-3.26-1.206-6.162-1.027-7.221A14.083,14.083,0,0,1,40.594,69.006Z" data-name="Path 2730"
                fill="#1e1e1e"
                id="Path_2730" stroke="#000" stroke-width="0.5"
                transform="translate(-27.249 -52.917)" />
        </g>
        <g data-name="Group 1295" id="Group_1295" transform="translate(28.273 37.277)">
            <path d="M83.525,37.345a.293.293,0,0,0-.413.037c-.1.123-2.512,3.074-3.3,9.162a.294.294,0,0,0,.254.328l.038,0a.293.293,0,0,0,.291-.256c.761-5.9,3.142-8.831,3.166-8.86A.293.293,0,0,0,83.525,37.345Z" data-name="Path 2731"
                fill="#1e1e1e"
                id="Path_2731" stroke="#000" stroke-width="0.5"
                transform="translate(-49.952 -37.277)" />
            <path d="M82.974,80.949a.294.294,0,1,0-.588-.018,27.108,27.108,0,0,0,1.19,8.925.294.294,0,0,0,.558-.186A27.052,27.052,0,0,1,82.974,80.949Z" data-name="Path 2732"
                fill="#1e1e1e"
                id="Path_2732" stroke="#000" stroke-width="0.5"
                transform="translate(-51.007 -55.163)" />
            <path d="M57.127,42.7a.294.294,0,0,0-.294.294V67.528a.294.294,0,0,0,.588,0V43A.294.294,0,0,0,57.127,42.7Z" data-name="Path 2733"
                fill="#1e1e1e"
                id="Path_2733" stroke="#000" stroke-width="0.5"
                transform="translate(-40.474 -39.515)" />
            <path d="M29.1,37.345a.293.293,0,0,0-.038.413c.024.029,2.4,2.957,3.166,8.86a.293.293,0,0,0,.291.256l.038,0a.294.294,0,0,0,.254-.328c-.785-6.087-3.2-9.039-3.3-9.162A.293.293,0,0,0,29.1,37.345Z" data-name="Path 2734"
                fill="#1e1e1e"
                id="Path_2734" stroke="#000" stroke-width="0.5"
                transform="translate(-28.992 -37.277)" />
            <path d="M31.36,80.615a.294.294,0,0,0-.284.3,27.151,27.151,0,0,1-1.153,8.739.3.3,0,0,0,.186.372.3.3,0,0,0,.093.015.294.294,0,0,0,.279-.2A27.15,27.15,0,0,0,31.663,80.9.3.3,0,0,0,31.36,80.615Z" data-name="Path 2735"
                fill="#1e1e1e"
                id="Path_2735" stroke="#000" stroke-width="0.5"
                transform="translate(-29.369 -55.15)" />
        </g>
    </g>
</svg>
