<svg height="35.667" viewBox="0 0 27.94 35.667" width="27.94" xmlns="http://www.w3.org/2000/svg">
    <path d="M410.156,380.556a13.681,13.681,0,0,1-1.375-.431l-.007,0a11.647,11.647,0,0,1-1.264-.55l0,0-2.852-2.888h0l-.715-.724h0l-.456-.462c.165-.8-.941-2.034-1.186-2.3-.031-.39-.24-3.082-.2-3.821.02-.238.229-3.622.238-4.2.021-1.318-.459-1.752-.479-1.77l-.006,0-.3-.8a2.61,2.61,0,0,1,1.616-1.065.936.936,0,0,0,.214-.069,2.627,2.627,0,0,0,.9-.2,1.212,1.212,0,0,0,.927.351h.037a1.751,1.751,0,0,0,1.671-1.534l0-.012a1.756,1.756,0,0,0-.3-1.439,1.7,1.7,0,0,0-1.147-.559,2.236,2.236,0,0,0-1.386-1.042,2.68,2.68,0,0,0-.449-.085l-.015,0c-.059-.005-.117-.009-.174-.009a2.472,2.472,0,0,0-1.5.67l-.191.138a1.154,1.154,0,0,1-.385.105c-.228.039-.425.072-.5.21a.583.583,0,0,0-.005.548l-.142.153a.152.152,0,0,0-.018.184.183.183,0,0,0-.19.041.135.135,0,0,0-.018.025.857.857,0,0,1-.251.283.256.256,0,0,0-.119.194.564.564,0,0,0,.175.455,7.031,7.031,0,0,0,.553.517,1.305,1.305,0,0,1-.528.189H400.3a7.928,7.928,0,0,1-.585-.572l-.605-4.707c.014-.844.1-2.916.154-4.289.031-.752.047-1.146.046-1.2a16.387,16.387,0,0,0-.747-2.276c-.2-.563-.416-1.145-.435-1.25-.029-.169-.124-.194-.178-.194-.325,0-.389,1.141-.4,1.37a5.152,5.152,0,0,0,.711,2.282,28.793,28.793,0,0,0-.755,5.3,11.6,11.6,0,0,1-.2,2.212c-.055.353-.1.659-.113.874-.07,1.471-.146,2.261-.167,2.459a4.109,4.109,0,0,0-1.2,1.6,8.017,8.017,0,0,1-1.626,2.666,6.724,6.724,0,0,0-1.193,1.826,19.6,19.6,0,0,0-4.03,6.905c-.355.016-1.355.247-2.668,2.106l0,.007c-.132.187-.267.391-.405.612l-.005.008c-.068.109-.136.221-.206.339-.466.794-1.733,2.651-1.743,2.665l-.626.835c-.264.3-.355.544-.272.729a.319.319,0,0,0,.144.151.14.14,0,0,0,.076.023h0l.715-.006c.5,0,.763-.079.845-.242a.226.226,0,0,0,.008-.187l-.007-1.018c.225-.2,1.259-1.127,2.4-2.157l0,0c1.163-1.05,2.436-2.208,3.077-2.817a15.645,15.645,0,0,0,4.961-4.7c.126.125.348.384.579.656a17.177,17.177,0,0,0,4.843,4.287,4.422,4.422,0,0,0,1.985,2.806c1.34.731,2.988,1.709,3.419,1.966a1.248,1.248,0,0,0-.093,1.019.96.96,0,0,0,.948.425l3.172-.025a.14.14,0,0,0,.035,0c.049-.014.3-.124.3-.316C410.458,380.7,410.356,380.607,410.156,380.556Zm-3.2.347c-.364,0-.6-.087-.7-.259a.51.51,0,0,1-.058-.267,9.575,9.575,0,0,0,1.565.156,2.724,2.724,0,0,0,.97-.14,13.906,13.906,0,0,0,1.356.422.565.565,0,0,1,.074.024.359.359,0,0,1-.063.039l-3.129.025Zm-4.112-3.36a1.616,1.616,0,0,0,1.128-1.174l.457.463c-.035.657-1.006.872-1.222.912Zm-1.9-2.706a.133.133,0,0,0-.073-.1,16.781,16.781,0,0,1-4.815-4.248c-.459-.538-.65-.759-.774-.8a.134.134,0,0,0-.164.061,14.887,14.887,0,0,1-4.959,4.746.131.131,0,0,0-.022.017c-.5.475-1.4,1.294-2.322,2.134-.555.011-1.065-.584-1.229-.8,1.3-1.808,2.237-1.914,2.434-1.914h.034a.134.134,0,0,0,.147-.089,19.534,19.534,0,0,1,3.936-6.831,4.228,4.228,0,0,0,2.534.923,3.691,3.691,0,0,0,1.755-.455,29.458,29.458,0,0,1,4.189,6.465l.022.045a.134.134,0,0,0,.025.036l.579.586.994,1.006.005.005.48.486c.026.89-.944,1.182-1.185,1.24A4.412,4.412,0,0,1,400.944,374.837ZM387.089,377.3c-.5.027-.833-.617-.928-.821q.134-.214.264-.4a2.292,2.292,0,0,0,1.126.806Zm-2.515,3.439a.131.131,0,0,0,.006.043,1.286,1.286,0,0,1-.595.086l-.68.005a.055.055,0,0,1-.015-.029c-.007-.031-.01-.156.236-.434l.007-.008.194-.258a.967.967,0,0,0,.614.257.7.7,0,0,0,.23-.039Zm.036-1.21a.133.133,0,0,0-.044.1l0,.44a.586.586,0,0,1-.681-.14l.278-.371c.013-.019,1.286-1.883,1.756-2.685l.075-.125a1.567,1.567,0,0,0,.83.789C385.644,378.608,384.631,379.514,384.61,379.532Zm12.506-18.58c.074-.07.143-.131.2-.183l.122-.1a.758.758,0,0,0,.471.131,2.934,2.934,0,0,0,.863-.171,7.081,7.081,0,0,0,.785-.317l.023.024c.052.054.108.112.165.17-.416.272-1.551,1.1-1.359,1.95a1.374,1.374,0,0,0,.761,1,1.668,1.668,0,0,0,.7.14,3.71,3.71,0,0,0,1.61-.449l.1.274.079.208a4.736,4.736,0,0,0-1.632,1.229c-.082.09-.136.155-.157.179-.1.088-.181.169-.253.241a.857.857,0,0,1-.756.33c-.08,0-.162,0-.248-.009s-.189-.011-.291-.011a2.091,2.091,0,0,0-.5.057c-.652.158-.548,1.253-.5,1.609a3.588,3.588,0,0,1-4.02-.454,7.01,7.01,0,0,1,1.129-1.688,8.2,8.2,0,0,0,1.676-2.765A3.655,3.655,0,0,1,397.116,360.952Zm3.081-.048a.128.128,0,0,0,.029.01.471.471,0,0,0,.1.01,1.763,1.763,0,0,0,.754-.277,4.106,4.106,0,0,0,1.581.77,2.81,2.81,0,0,0-1.379,1.116.133.133,0,0,0-.009.114l.092.242a2.55,2.55,0,0,1-2.1.317,1.1,1.1,0,0,1-.612-.814c-.145-.64.814-1.4,1.293-1.7A1.461,1.461,0,0,0,400.2,360.9Zm.192-1.38a1.025,1.025,0,0,0,.288-.3l.067.032a.586.586,0,0,0,.233.08h0a.165.165,0,0,0,.123-.052c.093-.1.008-.216-.083-.339l-.044-.061.152-.163a.135.135,0,0,0,.008-.172.343.343,0,0,1-.036-.35,1.06,1.06,0,0,1,.316-.081,1.249,1.249,0,0,0,.5-.152l.192-.139a2.251,2.251,0,0,1,1.343-.619c.025,0,.051,0,.077,0,.016.038.038.09.061.154a1.848,1.848,0,0,1-.179,1.86,1.292,1.292,0,0,1-.1.1.134.134,0,0,0-.026.171.141.141,0,0,0,.164.053c.19-.078.416-.107.452-.065a.483.483,0,0,1-.166.329.55.55,0,0,1-.4.181.469.469,0,0,1-.133-.023.133.133,0,0,0-.144.043,1.16,1.16,0,0,0-.158.264,1.228,1.228,0,0,0-.049.135,1.137,1.137,0,0,0-.034.143.958.958,0,0,0,.1.632,3.666,3.666,0,0,1-1.589-.7l-.116-.086-.112-.088a6.513,6.513,0,0,1-.609-.557A.288.288,0,0,1,400.389,359.525Zm3.622-2.227a1.881,1.881,0,0,1,1.386,2.4,1.968,1.968,0,0,1-1.188,1.321,2.409,2.409,0,0,1-.6.174c-.046.007-.092.012-.138.016s-.11.008-.166.009h-.045c-.015-.017-.03-.034-.043-.051a.7.7,0,0,1-.151-.393.754.754,0,0,1,.01-.171.874.874,0,0,1,.039-.145,1.054,1.054,0,0,1,.1-.2.7.7,0,0,0,.09.01.858.858,0,0,0,.726-.4c.142-.21.171-.422.073-.541a.4.4,0,0,0-.34-.12,2.23,2.23,0,0,0,.064-1.951C403.886,357.267,403.947,357.28,404.011,357.3Zm-3.824,7.77a.187.187,0,0,1,.139.075.389.389,0,0,1,.021.271.133.133,0,0,0,0,.04c0,.125.106,3.07.262,3.938.1.56.5,2.314.764,3.487a25.82,25.82,0,0,0-3.795-5.625c-.058-.363-.114-1.26.287-1.358a1.831,1.831,0,0,1,.442-.049c.094,0,.187.005.276.01s.175.01.263.01a1.357,1.357,0,0,0,.572-.111,1.292,1.292,0,0,0,.374-.3c.07-.071.15-.151.247-.235a.119.119,0,0,0,.016-.017s.047-.057.124-.142Zm1.836,8.046a.063.063,0,0,1-.027.016.535.535,0,0,1-.312-.072l-.1-.418c.024,0,.047,0,.072,0a.648.648,0,0,0,.321-.083C402,372.8,402.013,372.99,402.023,373.115Zm2.635,3.95,2.617,2.65a.133.133,0,0,0,.06.068,10.391,10.391,0,0,0,.978.447,7.484,7.484,0,0,1-2.073-.117,1.7,1.7,0,0,1,.151-.372.134.134,0,0,0-.047-.182c-.017-.01-1.422-.852-2.794-1.624A1.53,1.53,0,0,0,404.657,377.065Zm-1.428-1.828c-.213-.217-.532-.541-.813-.822l-.548-.555-.112-.487a.709.709,0,0,0,.195.031.418.418,0,0,0,.124-.018l.021-.009A4.442,4.442,0,0,1,403.229,375.237Zm-1.165-10.057c-.009.571-.217,3.94-.237,4.182-.025.517.061,1.9.131,2.873a.393.393,0,0,1-.433.124c-.257-1.13-.571-2.535-.657-3.014-.146-.814-.248-3.625-.257-3.882a.637.637,0,0,0-.06-.466.417.417,0,0,0-.172-.149,3.871,3.871,0,0,1,1.448-1.007A2.873,2.873,0,0,1,402.064,365.18Zm4.345-6.368a1.652,1.652,0,0,1-1.174,2.547,1.119,1.119,0,0,1-.7-.2,2.234,2.234,0,0,0,1.122-1.4,2.262,2.262,0,0,0-.053-1.394A1.375,1.375,0,0,1,406.409,358.812Zm-7.979-8.5a.655.655,0,0,1,.6,0c-.006.149-.013.33-.021.532a.78.78,0,0,0-.452-.106.727.727,0,0,0-.223.056C398.367,350.611,398.4,350.45,398.43,350.313Zm-.612-2.761a4.578,4.578,0,0,1,.115-.907c.073.219.2.571.378,1.061a21.79,21.79,0,0,1,.731,2.187c0,.012,0,.055,0,.121a.89.89,0,0,0-.544-.005c.024-.11.038-.173.039-.177a.134.134,0,0,0-.015-.1A5.128,5.128,0,0,1,397.818,347.551Zm-.356,10.671c.01-.2.056-.5.11-.846a11.811,11.811,0,0,0,.2-2.265,21.216,21.216,0,0,1,.486-3.956.536.536,0,0,1,.32-.153.6.6,0,0,1,.414.151c-.056,1.379-.138,3.4-.151,4.229a.132.132,0,0,0,0,.019l.6,4.664a4.506,4.506,0,0,1-1.533.463.414.414,0,0,1-.353-.122.133.133,0,0,0-.192-.027l-.046.037C397.355,360.033,397.41,359.314,397.462,358.222Z" data-name="4"
        id="_4"
        stroke="#000" stroke-width="0.5" transform="translate(-382.77 -345.753)" />
</svg>
