<svg height="30" viewBox="0 0 31.536 30" width="31.536" xmlns="http://www.w3.org/2000/svg">
    <g data-name="1" id="_1" transform="translate(-492.027 -1246.737)">
        <path
            d="M496.006,1276.005a5.733,5.733,0,0,0,3.133-1,5.585,5.585,0,0,1,3.6-1.584c-.08-.549-.107-1.016-.219-1.461a2.523,2.523,0,0,1,.852-2.694c1.16-1.02,2.351-2.005,3.491-3.046,1.489-1.359,3.013-2.692,4.389-4.161a7.467,7.467,0,0,0,2.071-4.67c.032-.485.248-.862.778-.824s.718.42.652.917c-.042.32-.01.511.374.616a36.742,36.742,0,0,0,7.968,1.474c.492.023.865.187.862.727a.7.7,0,0,1-.876.708c-1.9-.257-3.805-.526-5.7-.857-.976-.172-1.928-.485-2.912-.739-.32.658-.593,1.312-.943,1.923a18.592,18.592,0,0,1-4.253,4.764c-1.552,1.328-3.1,2.661-4.67,3.971a1.553,1.553,0,0,0-.629,1.865,3.5,3.5,0,0,1,.124.7c.2,1.414-.273,1.972-1.663,2.271a4.847,4.847,0,0,0-1.891.883,7.845,7.845,0,0,1-4.041,1.624,2.1,2.1,0,0,1-.284.027c-.725-.016-1.5-.028-1.847-.8s.163-1.335.689-1.793c3.108-2.709,5.214-6.19,7.4-9.6a47.1,47.1,0,0,0,5.345-10.835,26.8,26.8,0,0,1,1.089-2.706,3.045,3.045,0,0,1,3.021-1.878,25.733,25.733,0,0,1,3.386.39,38.813,38.813,0,0,0,7.87.657c.5-.026.873.157.9.681s-.36.775-.839.754c-1.85-.079-3.7-.134-5.544-.311-1.439-.139-2.86-.454-4.292-.674a9.264,9.264,0,0,0-1.206-.089,2.029,2.029,0,0,0-2.132,1.336c-.219.552-.494,1.084-.668,1.649a47.216,47.216,0,0,1-5.7,11.764c-1.758,2.705-3.642,5.332-5.541,7.942A17.819,17.819,0,0,1,496.006,1276.005Z"
            data-name="Path 2808" id="Path_2808" transform="translate(-0.507 -0.702)" />
        <path
            d="M502.21,1257.622a2.668,2.668,0,0,1-.641-.776,9.26,9.26,0,0,1-.294-1.6,2.314,2.314,0,0,0-1.974-2.05c-.591-.119-1.308-.163-1.314-1.018s.707-.911,1.3-1.028a2.333,2.333,0,0,0,2-2.11c.081-.491.171-.981.243-1.474a.856.856,0,0,1,.9-.824.871.871,0,0,1,.892.843q.136.879.311,1.75a2.145,2.145,0,0,0,1.736,1.765,2.368,2.368,0,0,1,.882.24,1.392,1.392,0,0,1,.567.862c.012.264-.338.547-.541.812-.035.046-.129.053-.2.066-1.88.345-2.358.786-2.68,3.169C503.319,1256.862,503.294,1257.518,502.21,1257.622Zm1.665-5.458-1.45-1.6-1.459,1.606,1.456,1.6Z"
            data-name="Path 2858" id="Path_2858" transform="translate(-1.354 0)" />
        <path
            d="M525.35,1277.546c-.469.4-.725.8-1.029.844a1.913,1.913,0,0,0-1.753,2.058,1.272,1.272,0,0,1-.151.684,1.251,1.251,0,0,1-.77.5,1.126,1.126,0,0,1-.75-.518,2.169,2.169,0,0,1-.176-.9,1.751,1.751,0,0,0-1.61-1.777.863.863,0,0,1-.009-1.725,1.778,1.778,0,0,0,1.628-1.842c.063-.609.053-1.361.906-1.374.906-.013.887.766.954,1.4a1.851,1.851,0,0,0,1.645,1.846C524.572,1276.8,524.851,1277.171,525.35,1277.546Zm-2.969.028-.72-.775-.718.774.713.76Z"
            data-name="Path 2880" id="Path_2880" transform="translate(-5.968 -6.08)" />
        <path
            d="M492.027,1267.4c.178-.141.444-.524.757-.566,1.213-.166,1.615-.937,1.717-2.01.02-.212-.006-.488.115-.617.234-.25.552-.565.845-.573.249-.008.6.328.74.6a3.776,3.776,0,0,1,.209,1.113,1.55,1.55,0,0,0,1.379,1.415c.533.088.991.266,1,.9s-.471.828-.991.909a1.579,1.579,0,0,0-1.4,1.478c-.049.3-.1.61-.142.916a.8.8,0,0,1-.853.782.835.835,0,0,1-.847-.8c-.036-.21-.054-.423-.077-.636a1.752,1.752,0,0,0-1.609-1.782C492.351,1268.467,492.046,1268.185,492.027,1267.4Zm3.388,1.037.7-.779-.71-.762-.716.78Z"
            data-name="Path 2882" id="Path_2882" transform="translate(0 -3.841)" />
    </g>
</svg>
