<svg xmlns="http://www.w3.org/2000/svg" width="16.133" height="15.666" viewBox="0 0 16.133 15.666">
  <g id="share" transform="translate(0.15 0.15)">
    <g id="Group_22278" data-name="Group 22278" transform="translate(0 0)">
      <path id="Path_81337" data-name="Path 81337" d="M13.163,14.862A2.667,2.667,0,0,0,11.054,15.9L8.529,14.439a4.475,4.475,0,0,0,0-3.838l2.525-1.458a2.66,2.66,0,1,0-.363-.627L8.166,9.974a4.481,4.481,0,1,0,0,5.092l2.525,1.458a2.67,2.67,0,1,0,2.472-1.661Zm0-9.3a1.946,1.946,0,1,1-1.946,1.946A1.948,1.948,0,0,1,13.163,5.562ZM4.481,16.276A3.756,3.756,0,1,1,8.237,12.52,3.76,3.76,0,0,1,4.481,16.276Zm8.682,3.2a1.946,1.946,0,1,1,1.946-1.946A1.948,1.948,0,0,1,13.163,19.478Z" transform="translate(0 -4.837)" stroke="#000" stroke-width="0.3"/>
    </g>
  </g>
</svg>
