<svg height="18" viewBox="0 0 18 18" width="18" xmlns="http://www.w3.org/2000/svg">
    <path d="M478.571,307.763l-2.59-1.632a.919.919,0,0,0-1.278.3l-.574.957a.172.172,0,0,1-.114.081.16.16,0,0,1-.127-.026,16.465,16.465,0,0,1-3.337-3.337.161.161,0,0,1-.025-.127.172.172,0,0,1,.081-.114l.957-.574a.918.918,0,0,0,.305-1.278l-1.632-2.59a.918.918,0,0,0-1.308-.26,10.021,10.021,0,0,0-1.214.968c-1.54,1.54-.517,4.975,2.328,7.82,1.949,1.95,4.175,3.043,5.88,3.043a2.655,2.655,0,0,0,1.94-.715,10.028,10.028,0,0,0,.969-1.214.918.918,0,0,0-.26-1.307Zm-.352.874a9.548,9.548,0,0,1-.887,1.117c-.558.559-1.547.65-2.784.254a11.4,11.4,0,0,1-6.557-6.557c-.395-1.236-.3-2.225.254-2.784a9.56,9.56,0,0,1,1.116-.887.166.166,0,0,1,.1-.031.16.16,0,0,1,.033,0,.168.168,0,0,1,.11.076l1.632,2.59a.17.17,0,0,1-.057.235l-.957.574a.928.928,0,0,0-.429.6.914.914,0,0,0,.147.714,17.181,17.181,0,0,0,3.517,3.517.919.919,0,0,0,1.316-.282l.574-.957a.168.168,0,0,1,.106-.077.171.171,0,0,1,.129.021l2.59,1.633a.168.168,0,0,1,.048.24ZM478.25,296h-10.5a3.754,3.754,0,0,0-3.75,3.75v10.5a3.754,3.754,0,0,0,3.75,3.75h10.5a3.754,3.754,0,0,0,3.75-3.75v-10.5A3.754,3.754,0,0,0,478.25,296Zm3,14.25a3,3,0,0,1-3,3h-10.5a3,3,0,0,1-3-3v-10.5a3,3,0,0,1,3-3h10.5a3,3,0,0,1,3,3Z"
        fill="#1a1a1a"
        id="shop_number" transform="translate(-464 -296)" />
</svg>
