<svg height="19" viewBox="0 0 16.964 19" width="16.964" xmlns="http://www.w3.org/2000/svg">
    <g id="shop" transform="translate(-1.852 -281.125)">
        <path d="M3.888,281.125a.339.339,0,0,0-.318.217l-1.7,4.411a.34.34,0,0,0-.023.12v2.036a1.7,1.7,0,0,0,1.017,1.553v10.324a.339.339,0,0,0,.341.338H17.458a.339.339,0,0,0,.341-.338V289.463a1.7,1.7,0,0,0,1.017-1.553v-2.036a.34.34,0,0,0-.023-.12l-1.7-4.411a.339.339,0,0,0-.318-.217Zm.233.679H16.547l1.435,3.732H2.686Zm-1.59,4.411H4.567v1.7a1.018,1.018,0,1,1-2.036,0Zm2.716,0H7.279v1.7a1.017,1.017,0,1,1-2.033,0Zm2.712,0H10v1.7a1.018,1.018,0,1,1-2.036,0Zm2.715,0h2.036v1.7a1.018,1.018,0,1,1-2.036,0Zm2.715,0h2.036v1.7a1.018,1.018,0,1,1-2.036,0Zm2.715,0h2.034v1.7a1.017,1.017,0,1,1-2.034,0Zm-11.2,2.7a1.675,1.675,0,0,0,2.713,0,1.677,1.677,0,0,0,2.715,0,1.677,1.677,0,0,0,2.714,0,1.677,1.677,0,0,0,2.715,0,1.69,1.69,0,0,0,1.357.692v9.838H9.656V291.3a.339.339,0,0,0-.341-.341H4.567a.339.339,0,0,0-.341.341v8.142H3.548v-9.838a1.694,1.694,0,0,0,1.358-.692Zm5.767,2.047a.339.339,0,0,0-.338.341v4.748a.339.339,0,0,0,.338.341H16.1a.339.339,0,0,0,.338-.341V291.3a.339.339,0,0,0-.338-.341Zm-5.768.679H8.978v7.8H4.906Zm6.109,0h4.749v4.072H11.014Z"
            id="path4966-2-5"
            transform="translate(0)" />
    </g>
</svg>
