<svg height="12.678" viewBox="0 0 13.184 12.678" width="13.184" xmlns="http://www.w3.org/2000/svg">
    <g fill="none" id="star_2" transform="translate(-1.382 -1.536)">
        <path
            d="M7.4,1.912a.621.621,0,0,1,1.141,0l1.407,3.28a.621.621,0,0,0,.512.373L14,5.9a.621.621,0,0,1,.354,1.082L11.682,9.358a.621.621,0,0,0-.194.6l.777,3.5a.621.621,0,0,1-.924.668l-3.05-1.819a.621.621,0,0,0-.636,0l-3.05,1.819a.621.621,0,0,1-.924-.668l.777-3.5a.621.621,0,0,0-.194-.6L1.591,6.984A.621.621,0,0,1,1.945,5.9l3.539-.336A.621.621,0,0,0,6,5.193Z"
            stroke="none" />
        <path
            d="M 7.973793983459473 3.118583679199219 L 6.914764404296875 5.586830139160156 C 6.680904388427734 6.131870269775391 6.168834686279297 6.505270004272461 5.578404426574707 6.561300277709961 L 2.906844139099121 6.814877510070801 L 4.929144859313965 8.610219955444336 C 5.368914604187012 9.000619888305664 5.562874794006348 9.599770545959473 5.435344696044922 10.17386054992676 L 4.848527908325195 12.81507873535156 L 7.143564224243164 11.44639015197754 C 7.394504547119141 11.29672050476074 7.681594848632812 11.21761035919189 7.973794460296631 11.21761035919189 C 8.265995025634766 11.21761035919189 8.553084373474121 11.29672050476074 8.803984642028809 11.44637107849121 L 11.09906578063965 12.81509304046631 L 10.51226425170898 10.1738805770874 C 10.38470458984375 9.599800109863281 10.57866477966309 9.000640869140625 11.01843452453613 8.610230445861816 L 13.04073715209961 6.814876556396484 L 10.3692045211792 6.561300277709961 C 9.778764724731445 6.505270004272461 9.266695022583008 6.131870269775391 9.032824516296387 5.586820602416992 L 7.973793983459473 3.118583679199219 M 7.973790645599365 1.536125183105469 C 8.20527458190918 1.536125183105469 8.436759948730469 1.661470413208008 8.54432487487793 1.912160873413086 L 9.951805114746094 5.192520141601562 C 10.04133415222168 5.401180267333984 10.23762512207031 5.544320106506348 10.46367454528809 5.565770149230957 L 14.00296401977539 5.901710510253906 C 14.54314422607422 5.952980041503906 14.76224422454834 6.623790740966797 14.35647487640381 6.984020233154297 L 11.68233489990234 9.358050346374512 C 11.51377487182617 9.5076904296875 11.4395637512207 9.736940383911133 11.48845481872559 9.95697021484375 L 12.26592445373535 13.45637035369873 C 12.35787200927734 13.87023448944092 12.02979183197021 14.21365547180176 11.65931701660156 14.21365547180176 C 11.55402374267578 14.21365547180176 11.44537353515625 14.18594837188721 11.34188461303711 14.12423038482666 L 8.291784286499023 12.30523014068604 C 8.19383430480957 12.24681568145752 8.08381462097168 12.21760749816895 7.973794460296631 12.21760749816895 C 7.863774299621582 12.21760749816895 7.753754615783691 12.24681568145752 7.655804634094238 12.30523014068604 L 4.605704307556152 14.1242208480835 C 4.50224494934082 14.18592357635498 4.39353084564209 14.21365070343018 4.288264274597168 14.21365070343018 C 3.917754173278809 14.21365070343018 3.589710235595703 13.87026691436768 3.68166446685791 13.45637035369873 L 4.459144592285156 9.95697021484375 C 4.508024215698242 9.736940383911133 4.43381404876709 9.5076904296875 4.265254020690918 9.358050346374512 L 1.591114044189453 6.984020233154297 C 1.185344696044922 6.623790740966797 1.404444694519043 5.952980041503906 1.944614410400391 5.901710510253906 L 5.483914375305176 5.565770149230957 C 5.709954261779785 5.544320106506348 5.906254768371582 5.401180267333984 5.995784759521484 5.192520141601562 L 7.403264045715332 1.912160873413086 C 7.510824203491211 1.661470413208008 7.742306709289551 1.536125183105469 7.973790645599365 1.536125183105469 Z"
            fill="#d7d7d7" stroke="none" />
    </g>
</svg>
