<svg height="12.678" viewBox="0 0 13.184 12.678" width="13.184" xmlns="http://www.w3.org/2000/svg">
    <path
        d="M7.4,1.912a.621.621,0,0,1,1.141,0l1.407,3.28a.621.621,0,0,0,.512.373L14,5.9a.621.621,0,0,1,.354,1.082L11.682,9.358a.621.621,0,0,0-.194.6l.777,3.5a.621.621,0,0,1-.924.668l-3.05-1.819a.621.621,0,0,0-.636,0l-3.05,1.819a.621.621,0,0,1-.924-.668l.777-3.5a.621.621,0,0,0-.194-.6L1.591,6.984A.621.621,0,0,1,1.945,5.9l3.539-.336A.621.621,0,0,0,6,5.193Z"
        id="star_1" transform="translate(-1.382 -1.536)" />
</svg>
