<svg height="22" viewBox="0 0 26 22" width="26" xmlns="http://www.w3.org/2000/svg">
    <path d="M60.833,214A7.188,7.188,0,0,0,55,216.986a7.175,7.175,0,0,0-13,4.2c0,3.605,2.225,7.309,6.436,10.711a34.84,34.84,0,0,0,6.351,4.059.5.5,0,0,0,.426,0,34.839,34.839,0,0,0,6.351-4.059c4.21-3.4,6.436-7.106,6.436-10.711A7.182,7.182,0,0,0,60.833,214ZM55,234.943c-1.628-.818-12-6.328-12-13.76a6.175,6.175,0,0,1,11.563-3.022.52.52,0,0,0,.873,0A6.175,6.175,0,0,1,67,221.182C67,228.608,56.627,234.124,55,234.943ZM49.167,217A4.179,4.179,0,0,0,45,221.182a.5.5,0,1,0,1,0A3.178,3.178,0,0,1,49.167,218a.5.5,0,0,0,0-1Z"
        id="status"
        transform="translate(-42 -214)" />
</svg>
