<svg xmlns="http://www.w3.org/2000/svg" width="9.31" height="10.944" viewBox="0 0 9.31 10.944">
  <g id="upload" transform="translate(-134.009 -207.953)">
    <path id="Path_88196" data-name="Path 88196" d="M170.518,213.036v-1.141l.325.327a1.152,1.152,0,1,0,1.627-1.632l-.661-.665c-.258-.267-.672.144-.406.4l.661.665a.585.585,0,0,1,0,.824.576.576,0,0,1-.815,0l-.814-.819a.288.288,0,0,0-.489.2v3.679a.577.577,0,1,1-1.155,0V211.2a.286.286,0,0,0-.489-.2l-.814.819a.576.576,0,0,1-.815,0,.586.586,0,0,1,0-.824l2.289-2.3a.577.577,0,0,1,.814,0l1.627,1.636c.258.267.671-.144.406-.4l-1.626-1.635a1.153,1.153,0,0,0-1.628,0l-2.288,2.3a1.152,1.152,0,0,0,1.627,1.632l.325-.327v2.985a1.15,1.15,0,1,0,2.3,0v-1.845Z" transform="translate(-30.705)"/>
    <path id="Path_88198" data-name="Path 88198" d="M142.27,398.775a1.052,1.052,0,0,0-1.049,1.053v.5h-5.113v-.5a1.049,1.049,0,1,0-2.1,0v1.557a1.052,1.052,0,0,0,1.049,1.053h2.079a.286.286,0,0,0,0-.572h-2.079a.479.479,0,0,1-.477-.48v-1.557a.477.477,0,1,1,.954,0v.6a.477.477,0,0,0,.477.477h5.3a.477.477,0,0,0,.477-.477v-.6a.477.477,0,1,1,.954,0v1.557a.479.479,0,0,1-.477.48h-5.132a.286.286,0,0,0,0,.572h5.132a1.052,1.052,0,0,0,1.049-1.053v-1.557A1.052,1.052,0,0,0,142.27,398.775Z" transform="translate(0 -183.541)"/>
  </g>
</svg>
