<svg xmlns="http://www.w3.org/2000/svg" width="16.498" height="15" viewBox="0 0 16.498 15">
  <g id="warning" transform="translate(0 -23.245)">
    <g id="Group_56338" data-name="Group 56338" transform="translate(0 23.245)">
      <g id="Group_56337" data-name="Group 56337" transform="translate(0 0)">
        <path id="Path_201321" data-name="Path 201321" d="M16.143,34.26l-5.591-9.683a2.658,2.658,0,0,0-4.606,0L.355,34.26a2.658,2.658,0,0,0,2.3,3.985H13.84a2.658,2.658,0,0,0,2.3-3.985Zm-2.3,3.5H2.658A2.175,2.175,0,0,1,.774,34.5l5.591-9.683a2.174,2.174,0,0,1,3.769,0L15.724,34.5a2.174,2.174,0,0,1-1.884,3.26Z" transform="translate(0 -23.245)" fill="red"/>
      </g>
    </g>
    <g id="Group_56340" data-name="Group 56340" transform="translate(1.289 24.534)">
      <g id="Group_56339" data-name="Group 56339">
        <path id="Path_201322" data-name="Path 201322" d="M53.738,73.614l-5.591-9.683a1.369,1.369,0,0,0-2.374,0l-3.037,5.26a.242.242,0,0,0,.419.242l3.037-5.26a.886.886,0,0,1,1.537,0l5.591,9.683a.871.871,0,0,1,.118.441.887.887,0,0,1-.886.886H41.369a.887.887,0,0,1-.886-.886.871.871,0,0,1,.118-.441l2.554-4.423a.242.242,0,1,0-.419-.242l-2.554,4.423A1.348,1.348,0,0,0,40,74.3a1.371,1.371,0,0,0,1.369,1.369H52.551A1.371,1.371,0,0,0,53.92,74.3,1.348,1.348,0,0,0,53.738,73.614Z" transform="translate(-40 -63.244)" fill="red"/>
      </g>
    </g>
    <g id="Group_56342" data-name="Group 56342" transform="translate(7.202 26.645)">
      <g id="Group_56341" data-name="Group 56341">
        <path id="Path_201323" data-name="Path 201323" d="M224.547,128.755A1.048,1.048,0,0,0,223.5,129.8v4.35a1.047,1.047,0,0,0,2.094,0V129.8A1.048,1.048,0,0,0,224.547,128.755Zm.564,5.4a.564.564,0,1,1-1.128,0V129.8a.564.564,0,1,1,1.128,0Z" transform="translate(-223.5 -128.755)" fill="red"/>
      </g>
    </g>
    <g id="Group_56344" data-name="Group 56344" transform="translate(7.202 33.573)">
      <g id="Group_56343" data-name="Group 56343" transform="translate(0 0)">
        <path id="Path_201324" data-name="Path 201324" d="M224.547,343.755a1.047,1.047,0,1,0,1.047,1.047A1.048,1.048,0,0,0,224.547,343.755Zm0,1.611a.564.564,0,1,1,.564-.564A.565.565,0,0,1,224.547,345.366Z" transform="translate(-223.5 -343.755)" fill="red"/>
      </g>
    </g>
  </g>
</svg>
