<svg xmlns="http://www.w3.org/2000/svg" width="17.387" height="16.05" viewBox="0 0 17.387 16.05">
  <path id="work" d="M142.384,466.675h-4.347v-1.337A1.339,1.339,0,0,0,136.7,464h-4.012a1.339,1.339,0,0,0-1.337,1.337v1.337H127a1,1,0,0,0-1,1v4.012a2.331,2.331,0,0,0,.669,1.635v5.053a1.674,1.674,0,0,0,1.672,1.672h12.706a1.674,1.674,0,0,0,1.672-1.672v-5.053a2.331,2.331,0,0,0,.669-1.635v-4.012A1,1,0,0,0,142.384,466.675Zm-10.365-1.337a.669.669,0,0,1,.669-.669H136.7a.669.669,0,0,1,.669.669v1.337h-5.35Zm10.031,13.04a1,1,0,0,1-1,1H128.341a1,1,0,0,1-1-1V473.8a2.325,2.325,0,0,0,1,.229h4.347a2.006,2.006,0,0,0,4.012,0h4.347a2.326,2.326,0,0,0,1-.229Zm-8.694-4.347v-1a.335.335,0,0,1,.334-.334H135.7a.335.335,0,0,1,.334.334v1a1.337,1.337,0,1,1-2.675,0Zm9.362-2.341a1.674,1.674,0,0,1-1.672,1.672H136.7v-.334a1,1,0,0,0-1-1h-2.006a1,1,0,0,0-1,1v.334h-4.347a1.674,1.674,0,0,1-1.672-1.672v-4.012a.335.335,0,0,1,.334-.334h5.684v4.012a.334.334,0,0,0,.669,0v-4.012h2.675v4.012a.334.334,0,0,0,.669,0v-4.012h5.684a.335.335,0,0,1,.334.334Zm-7.691,2.675V473.7a.334.334,0,0,0-.669,0v.669a.334.334,0,1,0,.669,0Z" transform="translate(-126 -464)"/>
</svg>
