<svg height="22" viewBox="0 0 22 22" width="22" xmlns="http://www.w3.org/2000/svg">
    <path d="M306.582,307.256a4.654,4.654,0,1,0-3.164,0,8.264,8.264,0,0,0-6.4,4.958.422.422,0,0,0,.09.448,10.991,10.991,0,0,0,15.778,0,.421.421,0,0,0,.091-.448A8.264,8.264,0,0,0,306.582,307.256Zm-5.39-4.371A3.808,3.808,0,1,1,305,306.692,3.812,3.812,0,0,1,301.192,302.885ZM305,315.154a10.069,10.069,0,0,1-7.087-2.885,7.983,7.983,0,0,1,14.173,0A10.069,10.069,0,0,1,305,315.154ZM305,294a11,11,0,0,0-9.13,17.137.423.423,0,0,0,.7-.473,10.154,10.154,0,1,1,16.856,0,.423.423,0,0,0,.7.473A11,11,0,0,0,305,294Z"
        id="profile"
        transform="translate(-294 -294)" />
</svg>
