<svg height="22" viewBox="0 0 26 22" width="26" xmlns="http://www.w3.org/2000/svg">
    <path d="M224,393.5a.5.5,0,0,0-.5-.5h-9a.5.5,0,1,0,0,1h9A.5.5,0,0,0,224,393.5Zm3-3a.5.5,0,0,0-.5-.5h-12a.5.5,0,1,0,0,1h12A.5.5,0,0,0,227,390.5Zm1-3a.5.5,0,0,0-.5-.5h-13a.5.5,0,1,0,0,1h13A.5.5,0,0,0,228,387.5ZM221.5,399h-7a.5.5,0,0,0,0,1h7a.5.5,0,0,0,0-1Zm0-3h-7a.5.5,0,1,0,0,1h7a.5.5,0,1,0,0-1Zm10,1a.5.5,0,0,0-.5.5v4a1.5,1.5,0,0,1-1.5,1.5h-17a1.5,1.5,0,0,1-1.5-1.5v-17a1.5,1.5,0,0,1,1.5-1.5h17a1.5,1.5,0,0,1,1.5,1.5v1a.5.5,0,1,0,1,0v-1a2.5,2.5,0,0,0-2.5-2.5h-17a2.5,2.5,0,0,0-2.5,2.5v17a2.5,2.5,0,0,0,2.5,2.5h17a2.5,2.5,0,0,0,2.5-2.5v-4A.5.5,0,0,0,231.5,397Zm4.486-6.62a4.99,4.99,0,0,0-3.366-3.365.5.5,0,0,0-.474.132l-9,9a.5.5,0,0,0-.147.353v3a.5.5,0,0,0,.5.5h3a.5.5,0,0,0,.354-.146l9-9A.5.5,0,0,0,235.986,390.38ZM226.293,399H224v-2.293l7-7L233.293,392ZM234,391.293,231.707,389l.934-.934a4.162,4.162,0,0,1,2.293,2.293Z"
        id="history"
        transform="translate(-210 -382)" />
</svg>
