<svg height="35.49" viewBox="0 0 26.732 35.49" width="26.732" xmlns="http://www.w3.org/2000/svg">
    <g id="エステ_9" transform="translate(-1602.054 -753.426)">
        <path
            d="M112.429-10550.584h0a2.12,2.12,0,0,1-1.352-.513l-.008,0c-1.084-.864-.927-2.071-.359-3.618l.069-.187-.165-.108c-1.42-.942-2.267-1.86-1.791-3.281a2.489,2.489,0,0,1,2.718-1.56c.2,0,.408.007.63.021l.2.013.058-.188c.566-1.858,1.4-2.766,2.535-2.773h.019c1.15,0,1.961.876,2.55,2.758l.053.175h.186c1.961,0,3.113.53,3.425,1.575.414,1.37-.774,2.526-1.844,3.255l-.157.106.061.181c.615,1.851.459,3.116-.462,3.762a1.892,1.892,0,0,1-1.107.334,4.152,4.152,0,0,1-2.523-1.1l-.173-.141-.159.154a4.138,4.138,0,0,1-2.4,1.142Zm3.281-4.072h0v.749a.954.954,0,0,1-.059.256l-.01.031a.788.788,0,0,0,.287,1.078,7.13,7.13,0,0,0,1.158.739,1.6,1.6,0,0,0,.542.108.9.9,0,0,0,.5-.146,1.258,1.258,0,0,0,.462-1.05,2.755,2.755,0,0,0-2.543-2.622l-.258-.019-.011.258c-.008.191-.021.372-.035.555,0,.018,0,.036,0,.054s0,.036,0,.053Zm-1.185-.616-.64.178-.049.014-.024.007c-.288.08-.561.156-.83.208a1.738,1.738,0,0,0-1.185.593,1.739,1.739,0,0,0-.43,1.267c0,.041.009.083.011.1a1.251,1.251,0,0,0,.436,1.061.906.906,0,0,0,.534.156,2.031,2.031,0,0,0,.656-.13,2.774,2.774,0,0,0,1.583-3.2l-.061-.249Zm4.044-3.523-.019,0a2.949,2.949,0,0,0-2.444,1.615l-.3.409.592.154c.138.047.282.1.4.141a5.674,5.674,0,0,0,.7.261.673.673,0,0,1,.231.151.97.97,0,0,0,.584.266.674.674,0,0,0,.444-.184,6.916,6.916,0,0,0,1.025-.789,1.205,1.205,0,0,0,.359-1.161c-.076-.255-.311-.6-1-.786a2.107,2.107,0,0,0-.582-.08Zm-7.139.045h0a3.2,3.2,0,0,0-.566.05l-.056.006a1.188,1.188,0,0,0-.983.7,1.273,1.273,0,0,0,.337,1.246,2.788,2.788,0,0,0,2.056.908,2.74,2.74,0,0,0,1.432-.4l.213-.127-1.384-2.352h-.143c-.123,0-.252-.007-.389-.015H111.9c-.138-.006-.31-.015-.467-.015Zm2.619-2.42-.1.179a2.815,2.815,0,0,0,.608,3.515l.194.167.162-.2c.062-.076.122-.152.181-.229l.09-.114c.23-.295.422-.539.622-.757a1.707,1.707,0,0,0,.218-2.356,1.329,1.329,0,0,0-1.012-.718l-.032,0-.032,0a1.327,1.327,0,0,0-.885.519l-.013,0Zm-7.7,9.594c-.73,0-1.534-.019-2.325-.053a19.9,19.9,0,0,1-3.791-.463,6.313,6.313,0,0,1-4.641-6.033,9.738,9.738,0,0,1,1.631-6.249c.237-.354.491-.718.715-1.039l.189-.271.035-.051c.492-.7,1-1.426,1.458-2.162a5.974,5.974,0,0,0,.98-4.5,5.553,5.553,0,0,0-.954-1.929c-.375-.523-.47-.717-.162-1a.5.5,0,0,1,.337-.165h.013c.209.008.432.221.622.428a5.2,5.2,0,0,1,1.076,5.269,17.273,17.273,0,0,1-1.671,3.5,18.311,18.311,0,0,1-1.089,1.62c-.292.4-.6.827-.871,1.257a8.334,8.334,0,0,0-1.23,5.434c.311,3.072,2.217,4.9,5.513,5.281.98.07,1.978.106,2.966.106.9,0,1.813-.029,2.7-.088l.13,0H108l.186,0c.443,0,.557.076.61.407a.528.528,0,0,1-.066.406.979.979,0,0,1-.675.258C107.82-10551.6,107.249-10551.577,106.348-10551.577Zm6.233-11.935h-.011a.912.912,0,0,1-.6-.226c-.831-1.088-1.648-2.262-2.5-3.587a8.115,8.115,0,0,1-1.254-4.242,5.057,5.057,0,0,1,1.421-3.59.921.921,0,0,1,.574-.34.508.508,0,0,1,.348.181c.186.2.3.438-.122.877-1.258,1.318-1.5,2.974-.728,5.059a15.9,15.9,0,0,0,1.549,2.8c.29.467.624.934.918,1.345l.017.023c.226.314.446.622.659.94a.632.632,0,0,1,.125.516.362.362,0,0,1-.226.221A.5.5,0,0,1,112.581-10563.512Zm-10.34-2.043h0a.56.56,0,0,1-.4-.287.724.724,0,0,1,.109-.584,5.525,5.525,0,0,0,1.382-3.712v-.007c.024-.319.048-.649.2-.779a.474.474,0,0,1,.3-.08.729.729,0,0,1,.08,0c.453.037.518.29.494,1.084a6.542,6.542,0,0,1-1.448,3.951,1.449,1.449,0,0,1-.714.411Zm2.1-10.956a46.963,46.963,0,0,1-6.764-.877l-.048-.008-.022,0-.014,0a.967.967,0,0,1-.347-.086,4.062,4.062,0,0,1-.388-.574c-.021-.039-.03-.055-.037-.055l-.005,0a.861.861,0,0,1,.683-.4,29.335,29.335,0,0,0,7.3.926c.8,0,1.628-.034,2.449-.1a56.421,56.421,0,0,0,5.84-.829,1.914,1.914,0,0,1,.318-.032.464.464,0,0,1,.516.392.461.461,0,0,1-.011.355.458.458,0,0,1-.255.244.674.674,0,0,1-.173.038l-.752.143-.042.008-.034.007c-1.346.259-2.737.525-4.114.688C107.4-10576.556,105.42-10576.511,104.342-10576.511Zm-4.517-3.066h-.035a.479.479,0,0,1-.359-.125,1.113,1.113,0,0,1-.138-.741,4.284,4.284,0,0,1,1.594-3.1,7.017,7.017,0,0,1,4.373-1.528,7,7,0,0,1,4.413,1.56,4.22,4.22,0,0,1,1.573,3.337.675.675,0,0,1-.183.519.335.335,0,0,1-.22.074.465.465,0,0,1-.069,0,.868.868,0,0,1-.55-.479,4.091,4.091,0,0,0-3.454-3.754,5.775,5.775,0,0,0-1.554-.213,5.674,5.674,0,0,0-3.31,1.058,3.253,3.253,0,0,0-1.544,2.582C100.338-10579.7,100.163-10579.577,99.825-10579.577Z"
            data-name="Subtraction 72" id="Subtraction_72" stroke="rgba(0,0,0,0)"
            stroke-miterlimit="10" stroke-width="1" transform="translate(1507 11339)" />
    </g>
</svg>
