<svg xmlns="http://www.w3.org/2000/svg" width="36.051" height="35.497" viewBox="0 0 36.051 35.497">
  <g id="エステ_5" transform="translate(-1700.021 -755.668)">
    <path id="Subtraction_69" data-name="Subtraction 69" d="M403.65-10536.335h-.058c-.432-.021-.549-.219-.544-.923.006-.994,0-2,0-2.977q0-.595,0-1.188l-.005-2.051a49.667,49.667,0,0,0-.236-11.3c-.052-.534-.124-1.267-.186-1.955a18.355,18.355,0,0,1,.069-3.908,4.775,4.775,0,0,1,3.446-4.163c1.082-.369,2.216-.692,3.217-.978l.094-.027.947-.271c2.008-.58,2.18-.826,2.051-2.932a4.327,4.327,0,0,1-.088-1.094,1.1,1.1,0,0,1,.488-.692.414.414,0,0,1,.164-.037.407.407,0,0,1,.149.029.415.415,0,0,1,.228.215.515.515,0,0,1,.037.207,19.289,19.289,0,0,1,.037,3.443,2.047,2.047,0,0,1-.987,1.218,12.752,12.752,0,0,1-2.457.916c-.443.144-.9.269-1.3.38l-.019,0-.049.014c-.4.109-.894.246-1.357.395-2.728.884-3.717,2.247-3.651,5.03.031,1.237.153,2.488.27,3.7l.006.061v.008c.08.817.171,1.744.225,2.629l.009.143c.133,2.116.27,4.3.267,6.482-.005,1.9-.071,3.841-.134,5.716l-.009.259-.019.563v.013c-.025.725-.051,1.473-.07,2.21C404.168-10536.528,404.047-10536.335,403.65-10536.335Zm32.832-.026h0a.8.8,0,0,1-.509-.4,3.447,3.447,0,0,1-.106-1.141c-.019-.749-.045-1.512-.07-2.249v0l-.02-.583c-.08-2.233-.162-4.542-.1-6.8.048-1.911.221-3.839.387-5.7.1-1.093.217-2.449.3-3.749a19.5,19.5,0,0,0-.1-3.587,3.57,3.57,0,0,0-2.515-3.069c-1.267-.436-2.589-.841-4.041-1.239-3.011-.83-3.4-1.368-3.17-4.431a8.266,8.266,0,0,1,.111-1.013.654.654,0,0,1,.271-.454.327.327,0,0,1,.164-.042.488.488,0,0,1,.164.031,1.355,1.355,0,0,1,.475.428l.034.039-.141.077v.148c0,.215,0,.438,0,.658.005.5.011,1.01-.011,1.493a1.38,1.38,0,0,0,1.077,1.534c.65.2,1.3.385,1.908.563l.5.146q.716.208,1.4.413c4.041,1.218,5.325,3.031,5.089,7.188-.077,1.352-.219,2.725-.357,4.052l-.017.166c-.109,1-.232,2.166-.316,3.29-.1,1.257-.13,2.617-.1,4.157.037,2.032.1,4.095.159,6.089v.008c.031.981.06,1.977.089,2.939v.056c0,.055,0,.116.008.173a1.036,1.036,0,0,1-.016.379,1.155,1.155,0,0,1-.552.443Zm-26.21,0h0a.669.669,0,0,1-.241-.051l-.016,0a.543.543,0,0,1-.322-.271.531.531,0,0,1-.036-.408.878.878,0,0,1,.093-.188,11.954,11.954,0,0,0,.348-8.084c-.062-.25-.1-.44-.135-.618-.112-.584.19-.713.427-.759a.522.522,0,0,1,.133-.017.548.548,0,0,1,.276.077.516.516,0,0,1,.244.332.825.825,0,0,1,.021.146c.219,1.134.422,2.271.618,3.372l0,.017.231,1.233a14.489,14.489,0,0,1-1.09,4.669C410.671-10536.548,410.485-10536.361,410.272-10536.361Zm19.715-.048h0l-.1-.029h-.005a1.03,1.03,0,0,1-.547-.4,13.145,13.145,0,0,1-1.151-4.664l.244-1.363,0-.013c.18-1.018.385-2.172.6-3.312a.753.753,0,0,1,.273-.5.462.462,0,0,1,.249-.069.886.886,0,0,1,.21.029c.247.064.485.21.369.8l-.175.867-.073.363c-.092.455-.187.926-.269,1.394a10.4,10.4,0,0,0,.666,5.863,1.226,1.226,0,0,1,.1.705.641.641,0,0,1-.4.329Zm-4.718-11.046a5.5,5.5,0,0,1-4.157-1.9,9.391,9.391,0,0,1-.578-.757l-.118-.161-.056-.077c-.047-.064-.1-.131-.145-.2l-.241-.318-.183.353a5.57,5.57,0,0,1-3.627,2.86,6.857,6.857,0,0,1-1.613.175,5.768,5.768,0,0,1-3.542-1.2,5.785,5.785,0,0,1-2.08-3.118,6.358,6.358,0,0,1,.454-3.669c.063-.171.137-.345.2-.5l.052-.123a3.7,3.7,0,0,0,.4-2.836,1.148,1.148,0,0,1,.342-.483h0a.855.855,0,0,1,.7.355,2.965,2.965,0,0,1,.019,2.454,15.533,15.533,0,0,0-.833,2.128,4.212,4.212,0,0,0,.069,3.245,4.2,4.2,0,0,0,2.343,2.241,4.128,4.128,0,0,0,1.324.284,4.57,4.57,0,0,0,.783.067,4.644,4.644,0,0,0,2.968-1.083,4.63,4.63,0,0,0,1.6-2.775,4.5,4.5,0,0,0,.064-.565,2.624,2.624,0,0,1,.1-.825,1.239,1.239,0,0,1,.456-.47.867.867,0,0,1,.6.451,3.594,3.594,0,0,1,.157.844l.008.064a4.817,4.817,0,0,0,.122.721,4.445,4.445,0,0,0,3.234,3.457,5.006,5.006,0,0,0,1.35.186,5.039,5.039,0,0,0,3.532-1.451,3.6,3.6,0,0,0,1.048-3.669,14.534,14.534,0,0,0-.963-2.706,3.436,3.436,0,0,1-.069-2.587.648.648,0,0,1,.308-.425.3.3,0,0,1,.13-.027.432.432,0,0,1,.191.049,1.013,1.013,0,0,1,.438.6,3.9,3.9,0,0,0,.491,2.958,6.651,6.651,0,0,1,.629,4.022,5.224,5.224,0,0,1-4.189,4.128A5.531,5.531,0,0,1,425.269-10547.455Z" transform="translate(1297.97 11327)" stroke="rgba(0,0,0,0)" stroke-miterlimit="10" stroke-width="1"/>
  </g>
</svg>
