<svg xmlns="http://www.w3.org/2000/svg" width="36.643" height="36.002" viewBox="0 0 36.643 36.002">
    <path id="エステ_13"
        d="M23.192,32.177c-1.348-2.074-1.377-4.517.219-5.554s3.827.257,5.175,2.332.84,5.417.115,5.925a.958.958,0,0,1-.536.12A7.189,7.189,0,0,1,23.192,32.177Zm.923-4.47a1.521,1.521,0,0,0-.625,1.335,4.475,4.475,0,0,0,.786,2.431,5.306,5.306,0,0,0,2.108,1.7,5.64,5.64,0,0,0,1.548.52,5.117,5.117,0,0,0,.2-1.51,4.7,4.7,0,0,0-.632-2.52,5.322,5.322,0,0,0-1.978-1.876,1.98,1.98,0,0,0-.856-.233A.992.992,0,0,0,24.115,27.707ZM.112,33.5c-.5-.637.736-4.108,2.891-5.674s4.658-1.9,5.686-.489-.349,3.736-2.5,5.3a7.653,7.653,0,0,1-4.3,1.284A2.628,2.628,0,0,1,.112,33.5Zm3.65-4.629A6.685,6.685,0,0,0,1.91,31.184,6.753,6.753,0,0,0,1.359,32.6a6.014,6.014,0,0,0,1.394-.032,5.931,5.931,0,0,0,2.673-.978c1.754-1.276,2.632-2.928,2.217-3.5a1.159,1.159,0,0,0-.97-.361A5.316,5.316,0,0,0,3.762,28.871Zm25.9-2.559c-2.591-.364-4.572-1.96-4.307-3.845s2.838-2.7,5.429-2.335,4.926,2.96,4.835,3.84c-.082.8-2.808,2.387-5.252,2.388A5.061,5.061,0,0,1,29.666,26.311Zm-1.992-4.653c-.433.171-.965.48-1.036.988-.147,1.046,1.292,2.116,3.208,2.386a5.98,5.98,0,0,0,2.872-.462,6.068,6.068,0,0,0,1.477-.805,5.494,5.494,0,0,0-1.071-1.137,5.292,5.292,0,0,0-2.517-1.217,7.327,7.327,0,0,0-1.021-.073A5.321,5.321,0,0,0,27.674,21.659ZM15.266,23.083a.646.646,0,0,1,.891-.935c.024.023,2.51,2.364,4.574,2.116a2.379,2.379,0,0,0,1.751-1.2,5.11,5.11,0,0,0-1.253-6.353A10.4,10.4,0,0,0,17,14.473a.646.646,0,1,1,.321-1.251,11.663,11.663,0,0,1,4.748,2.5,6.407,6.407,0,0,1,1.527,8,3.671,3.671,0,0,1-2.711,1.825,3.874,3.874,0,0,1-.447.025C17.907,25.574,15.379,23.19,15.266,23.083Zm-7,2.2A3.669,3.669,0,0,1,5.527,23.5c-1.333-2.331.016-5.979.074-6.132a.646.646,0,0,1,1.21.455c-.012.032-1.193,3.236-.161,5.039A2.38,2.38,0,0,0,8.44,24,5.124,5.124,0,0,0,13.8,20.364a10.409,10.409,0,0,0,.406-4.772.645.645,0,0,1,1.276-.192,11.66,11.66,0,0,1-.45,5.349A6.407,6.407,0,0,1,8.9,25.312,6.285,6.285,0,0,1,8.265,25.28Zm-.727-8.966H7.493a6.409,6.409,0,0,1-6.264-5.151,3.669,3.669,0,0,1,.906-3.138C3.977,6.07,7.859,6.3,8.022,6.306A.646.646,0,0,1,7.939,7.6c-.034,0-3.442-.2-4.865,1.316a2.381,2.381,0,0,0-.57,2.046,5.112,5.112,0,0,0,5.008,4.064h.036a10.443,10.443,0,0,0,4.683-1.006.646.646,0,1,1,.556,1.166,11.677,11.677,0,0,1-5.012,1.134Zm15.369-.954a.646.646,0,0,1,.215-.888c.029-.018,2.931-1.816,3.228-3.871a2.382,2.382,0,0,0-.707-2,5.11,5.11,0,0,0-6.462-.433,10.389,10.389,0,0,0-3.256,3.51.646.646,0,0,1-1.126-.634A11.663,11.663,0,0,1,18.446,7.1a6.406,6.406,0,0,1,8.121.6,3.669,3.669,0,0,1,1.06,3.09c-.386,2.657-3.693,4.7-3.834,4.786a.647.647,0,0,1-.887-.215ZM12.665,12.674a11.66,11.66,0,0,1-2.7-4.64A6.408,6.408,0,0,1,12.91.442,3.668,3.668,0,0,1,16.175.333C18.6,1.478,19.589,5.239,19.631,5.4a.646.646,0,0,1-1.252.32c-.008-.033-.878-3.334-2.758-4.219a2.38,2.38,0,0,0-2.121.09,5.11,5.11,0,0,0-2.3,6.053,10.394,10.394,0,0,0,2.4,4.141.645.645,0,1,1-.935.89Z"
        transform="translate(0.517 0.502)" stroke="rgba(0,0,0,0)" stroke-miterlimit="10"
        stroke-width="1" />
</svg>
