<svg height="35" viewBox="0 0 32.436 35" width="32.436" xmlns="http://www.w3.org/2000/svg">
    <g id="エステ_4" transform="translate(-1015.758 -908.579)">
        <g data-name="Group 972" id="Group_972" transform="translate(1022.14 908.579)">
            <g data-name="Group 971" id="Group_971" transform="translate(1.947 10.286)">
                <g data-name="Group 970" id="Group_970">
                    <g data-name="Group 969" id="Group_969" transform="translate(0 2.743)">
                        <path
                            d="M1153.8,1155.366a.53.53,0,0,1-.487-.322,3.771,3.771,0,0,1-.3-1.007l-.549-2.211a.53.53,0,1,1,1.028-.255l.553,2.228c0,.011.005.022.007.034a2.781,2.781,0,0,0,.238.8.53.53,0,0,1-.487.738Z"
                            data-name="Path 1868" id="Path_1868"
                            transform="translate(-1151.119 -1147.059)" />
                        <path
                            d="M1192.776,1244.882a4.827,4.827,0,0,1-4.266-2.933.53.53,0,0,1,.934-.5,3.789,3.789,0,0,0,3.332,2.374,3.687,3.687,0,0,0,3.116-2.231.53.53,0,0,1,.94.488A4.523,4.523,0,0,1,1192.776,1244.882Z"
                            data-name="Path 1869" id="Path_1869"
                            transform="translate(-1184.576 -1230.701)" />
                        <path
                            d="M1318.354,1135.783a.53.53,0,0,1-.488-.736,3.075,3.075,0,0,0,.231-.775.5.5,0,0,1,.011-.061l.906-3.641a.53.53,0,0,1,1.028.256l-.9,3.612a4.169,4.169,0,0,1-.3,1.02A.53.53,0,0,1,1318.354,1135.783Z"
                            data-name="Path 1870" id="Path_1870"
                            transform="translate(-1304.813 -1127.542)" />
                        <path d="M1133.647,1092.994" data-name="Path 1871" id="Path_1871"
                            stroke="#474747" stroke-linecap="round" stroke-linejoin="round"
                            stroke-width="15" transform="translate(-1133.647 -1092.994)" />
                    </g>
                    <path
                        d="M1175.463,1060.774a.53.53,0,0,1-.344-.934l6.033-5.13a2.059,2.059,0,0,1,1.394-.541h1.219a.53.53,0,1,1,0,1.06h-1.219a1,1,0,0,0-.683.267l-.017.015-6.041,5.136A.528.528,0,0,1,1175.463,1060.774Z"
                        data-name="Path 1872" id="Path_1872"
                        transform="translate(-1172.016 -1054.17)" />
                    <path
                        d="M1259.709,1109.716a.527.527,0,0,1-.273-.076l-5.3-3.192a.53.53,0,1,1,.547-.908l5.3,3.192a.53.53,0,0,1-.274.984Z"
                        data-name="Path 1873" id="Path_1873"
                        transform="translate(-1245.383 -1101.84)" />
                </g>
            </g>
            <path
                d="M1216.281,1209.149a2.457,2.457,0,0,1-2.553-2.271.53.53,0,1,1,1.06,0,1.425,1.425,0,0,0,1.493,1.212c.7,0,1.493-.518,1.493-1.212a.53.53,0,1,1,1.06,0A2.457,2.457,0,0,1,1216.281,1209.149Z"
                data-name="Path 1874" id="Path_1874" transform="translate(-1206.124 -1185.312)" />
            <path
                d="M1107.847,966.376a.53.53,0,0,1-.486-.319l-1.067-2.458a2.422,2.422,0,0,1,.645-2.813l4.91-4.224a.53.53,0,1,1,.691.8l-4.91,4.224a1.367,1.367,0,0,0-.364,1.588l1.067,2.458a.53.53,0,0,1-.486.741Z"
                data-name="Path 1875" id="Path_1875" transform="translate(-1106.091 -953.052)" />
            <path
                d="M1114.977,1028.511a.53.53,0,0,1-.484-.315l-.492-1.108-.008-.018a2.625,2.625,0,0,1,.633-2.894l4.982-4.729a.53.53,0,1,1,.729.769l-4.982,4.728a1.571,1.571,0,0,0-.382,1.723l.488,1.1a.53.53,0,0,1-.484.745Z"
                data-name="Path 1876" id="Path_1876" transform="translate(-1113.257 -1011.48)" />
            <path
                d="M1240.361,987.857a1.324,1.324,0,0,1-.882-.336l-2.471-2.208a.53.53,0,1,1,.706-.79l2.471,2.208a.263.263,0,0,0,.418-.095l.983-2.738a1.234,1.234,0,0,0-.407-1.4l-5.143-3.98-.034-.029a.961.961,0,0,0-.7-.25l-2.752.145a.949.949,0,0,0-.538.2.53.53,0,1,1-.653-.835,2,2,0,0,1,1.135-.425l2.752-.145a2.027,2.027,0,0,1,1.45.511l5.127,3.967a2.291,2.291,0,0,1,.756,2.592L1241.6,987l-.006.015a1.322,1.322,0,0,1-1.231.839Z"
                data-name="Path 1877" id="Path_1877" transform="translate(-1222.324 -972.335)" />
            <path
                d="M1165.166,916.251a.53.53,0,0,1-.479-.3l-1.939-4.065c-.458-.7-.823-1.015-1.293-1.109a.566.566,0,0,1-.06-.016l-3.324-1.083a1.271,1.271,0,0,0-.61,0l-.014,0-6.2,1.346a.631.631,0,0,0-.452.442l-.306,1.142a.53.53,0,0,1-1.024-.274l.307-1.147a1.694,1.694,0,0,1,1.228-1.194l.014,0,6.2-1.346a2.334,2.334,0,0,1,1.137.011l.029.009,3.313,1.079a3.163,3.163,0,0,1,1.961,1.6.541.541,0,0,1,.033.059l1.954,4.1a.53.53,0,0,1-.478.758Z"
                data-name="Path 1878" id="Path_1878" transform="translate(-1146.384 -908.579)" />
        </g>
        <path
            d="M1294.2,1181.012a.542.542,0,0,1-.1-.009.53.53,0,0,1-.423-.618,5.3,5.3,0,0,1,.8-1.9l-1.548-2.408a2.327,2.327,0,0,1-.111-2.368l.136-.258a.53.53,0,0,1,.876-.09l2.4,2.9a.53.53,0,0,1-.816.677l-1.809-2.182a1.27,1.27,0,0,0,.209.747l1.747,2.718a.53.53,0,0,1-.039.626,4.34,4.34,0,0,0-.8,1.737A.53.53,0,0,1,1294.2,1181.012Z"
            data-name="Path 1879" id="Path_1879" transform="translate(-257.236 -245.898)" />
        <path
            d="M1354.661,1179.7a.53.53,0,0,1-.5-.364l-2.626-7.939a.534.534,0,0,1-.018-.073,2.44,2.44,0,0,1-.005-.834l.754-4.526a1.418,1.418,0,0,0-.151-.9l-.6-1.109a.53.53,0,0,1,.932-.5l.6,1.109a2.483,2.483,0,0,1,.265,1.583l-.754,4.526a1.38,1.38,0,0,0,0,.439l2.613,7.9a.53.53,0,0,1-.5.7Z"
            data-name="Path 1880" id="Path_1880" transform="translate(-311.973 -236.604)" />
        <path
            d="M1278.309,1278.213a.53.53,0,0,1-.526-.475l-.588-5.62a.89.89,0,0,0-.221-.5l-1.391-1.565a.53.53,0,0,1,.792-.7l1.391,1.565a1.945,1.945,0,0,1,.483,1.1l.588,5.62a.53.53,0,0,1-.472.582Z"
            data-name="Path 1881" id="Path_1881" transform="translate(-241.344 -335.116)" />
        <path
            d="M1153.6,1181.013a.53.53,0,0,1-.52-.432,4.341,4.341,0,0,0-.806-1.738.532.532,0,0,1-.038-.625l1.743-2.712a1.28,1.28,0,0,0,.213-.752l-1.809,2.181a.53.53,0,0,1-.816-.677l2.4-2.9a.53.53,0,0,1,.876.09l.136.258a2.329,2.329,0,0,1-.115,2.374l-1.544,2.4a5.3,5.3,0,0,1,.8,1.9.53.53,0,0,1-.423.618A.54.54,0,0,1,1153.6,1181.013Z"
            data-name="Path 1882" id="Path_1882" transform="translate(-126.104 -245.899)" />
        <path
            d="M1093.977,1179.7a.53.53,0,0,1-.5-.7l2.613-7.9a1.384,1.384,0,0,0,0-.439l-.754-4.526a2.483,2.483,0,0,1,.265-1.583l.6-1.109a.53.53,0,1,1,.932.5l-.6,1.109a1.418,1.418,0,0,0-.151.9l.754,4.526a2.44,2.44,0,0,1-.005.834.534.534,0,0,1-.018.073l-2.626,7.939A.53.53,0,0,1,1093.977,1179.7Z"
            data-name="Path 1883" id="Path_1883" transform="translate(-72.2 -236.605)" />
        <path
            d="M1174.978,1278.214l-.056,0a.53.53,0,0,1-.472-.582l.588-5.62a1.944,1.944,0,0,1,.483-1.1l1.391-1.565a.53.53,0,0,1,.792.7l-1.391,1.565a.891.891,0,0,0-.221.5l-.588,5.62A.53.53,0,0,1,1174.978,1278.214Z"
            data-name="Path 1884" id="Path_1884" transform="translate(-147.479 -335.117)" />
        <path
            d="M1016.289,1315.867a.531.531,0,0,1-.514-.66l.66-2.6a3.6,3.6,0,0,1,2.747-2.648l3.614-.777a.53.53,0,1,1,.223,1.036l-3.614.778a2.542,2.542,0,0,0-1.943,1.872l-.66,2.6A.53.53,0,0,1,1016.289,1315.867Z"
            data-name="Path 1885" id="Path_1885" transform="translate(0 -372.287)" />
        <path
            d="M1381.013,1317.727a.53.53,0,0,1-.515-.407l-.61-2.548a2.566,2.566,0,0,0-1.975-1.91l-3.045-.646a.53.53,0,0,1,.22-1.037l3.042.645a3.629,3.629,0,0,1,2.79,2.7l.61,2.548a.531.531,0,0,1-.516.653Z"
            data-name="Path 1886" id="Path_1886" transform="translate(-333.349 -374.147)" />
    </g>
</svg>
