<svg xmlns="http://www.w3.org/2000/svg" width="36.178" height="35" viewBox="0 0 36.178 35">
  <g id="エステ_6" transform="translate(-1007.321 -2338.534)">
    <path id="Path_1702" data-name="Path 1702" d="M1037.683,2480.273a1.45,1.45,0,0,1-.554-.11l-.038-.018-1.843-.926-5.075-1.6-.026-.009a2.352,2.352,0,0,0-.678-.171l-.6.035a2.755,2.755,0,0,1-2.808-2.228l-.01-.06a2.649,2.649,0,0,1,.117-1.332,2.875,2.875,0,0,0,.143-1.568c-1.088-2.081-3.009-3.78-5.042-5.577-3.214-2.843-6.534-5.779-6.75-10.512l-6.717-1.015a.57.57,0,0,1,.17-1.127l7.191,1.087a.57.57,0,0,1,.485.563,9.225,9.225,0,0,0,1.957,5.663,30.054,30.054,0,0,0,4.419,4.487c2.038,1.8,4.146,3.667,5.328,5.963a.565.565,0,0,1,.041.1,3.879,3.879,0,0,1-.151,2.313,1.507,1.507,0,0,0-.068.757l.01.06a1.608,1.608,0,0,0,1.617,1.283l.6-.035a2.93,2.93,0,0,1,1.125.235l5.106,1.6a.564.564,0,0,1,.085.035l1.861.935a.306.306,0,0,0,.344-.475l-5.629-4.945a14.1,14.1,0,0,1-3.014-3.73l-5.351-9.9a1.835,1.835,0,0,1-.016-1.854l.017-.025.519-.74a.57.57,0,0,1,.933.655l-.509.725a.772.772,0,0,0,.059.7l5.347,9.889a12.948,12.948,0,0,0,2.767,3.423l5.659,4.972a.568.568,0,0,1,.046.045,1.446,1.446,0,0,1-1.069,2.418Z" transform="translate(-0.001 -106.739)"/>
    <path id="Path_1703" data-name="Path 1703" d="M1021.5,2348.111a.57.57,0,0,1-.5-.3l-2.323-4.351a4.335,4.335,0,0,0-2.686-1.912l-8.22-1.886a.57.57,0,1,1,.255-1.111l8.22,1.886a5.481,5.481,0,0,1,3.41,2.437l.018.032,2.332,4.368a.57.57,0,0,1-.5.839Z" transform="translate(0)"/>
    <path id="Path_1704" data-name="Path 1704" d="M1213.891,2439.271a.57.57,0,0,1-.494-.853l.291-.509a2.734,2.734,0,0,1,2.368-1.374h.913a.57.57,0,0,1,0,1.14h-.913a1.591,1.591,0,0,0-1.378.8l-.291.509A.57.57,0,0,1,1213.891,2439.271Z" transform="translate(-190.344 -90.553)"/>
    <path id="Path_1705" data-name="Path 1705" d="M1192.642,2466.991a.562.562,0,0,1-.132-.016.571.571,0,0,1-.36-.267l-3.929-6.725a3.445,3.445,0,0,1-.063-3.566l1.469-2.538a1.508,1.508,0,0,1,2.72.234l.236.64h1.2a.57.57,0,0,1,0,1.14h-1.6a.57.57,0,0,1-.535-.373l-.373-1.013a.368.368,0,0,0-.664-.057l-1.469,2.538a2.308,2.308,0,0,0,.046,2.395l.01.017,3.632,6.218,1.357-.88a.57.57,0,0,1,.62.956l-1.858,1.205A.571.571,0,0,1,1192.642,2466.991Z" transform="translate(-166.663 -105.884)"/>
    <path id="Path_1706" data-name="Path 1706" d="M1240.891,2386.031a.57.57,0,0,1-.518-.806l.185-.407a2.821,2.821,0,0,1,1.426-1.453l.02-.009a9.087,9.087,0,0,1,3.786-.821h12.431a.57.57,0,1,1,0,1.14h-12.431a7.957,7.957,0,0,0-3.313.718l-.02.009a1.683,1.683,0,0,0-.853.871l-.005.011-.188.413A.571.571,0,0,1,1240.891,2386.031Z" transform="translate(-215.291 -40.657)"/>
    <path id="Path_1707" data-name="Path 1707" d="M1258.78,2431.5a1.312,1.312,0,0,1-.766-2.38l2.186-1.561a.57.57,0,1,1,.663.927l-2.186,1.562a.172.172,0,0,0-.06.2.174.174,0,0,0,.172.108l3.384-1.414a.578.578,0,0,1,.087-.028.239.239,0,0,0,.143-.1l.654-1.419c.007-.014.014-.029.022-.043a1.456,1.456,0,0,1,1.472-.718l9.578,1.2a.57.57,0,0,1-.141,1.131l-9.585-1.2-.016,0a.31.31,0,0,0-.306.137l-.655,1.42c-.007.015-.014.029-.022.043a1.384,1.384,0,0,1-.828.647l-3.4,1.422a.538.538,0,0,1-.084.028A1.287,1.287,0,0,1,1258.78,2431.5Z" transform="translate(-231.131 -81.39)"/>
  </g>
</svg>
