<svg height="35.497" viewBox="0 0 40.098 35.497" width="40.098" xmlns="http://www.w3.org/2000/svg">
    <g id="エステ_7" transform="translate(-1642.617 -754.365)">
        <path
            d="M278.9-10546.135h0a8.514,8.514,0,0,1-7.924-6.033c-1.043-3.218-.45-6.386.268-9.061.05-.178.1-.355.151-.531l.028-.1,0-.011c.044-.156.09-.317.139-.512a1.315,1.315,0,0,0-.024-.321l-.042-.2h-9.517a.984.984,0,0,1-.722-.207.607.607,0,0,1-.138-.47c.013-.313.127-.6.86-.6.948,0,1.78,0,2.542,0s1.594,0,2.538,0h5.33c.3,0,.685.045.834.258s.041.642-.042.868a20.273,20.273,0,0,0-1.442,8.11,7.873,7.873,0,0,0,2.355,5.451,6.38,6.38,0,0,0,4.7,2.089,6.335,6.335,0,0,0,2.192-.392,6.113,6.113,0,0,0,4.291-5.646c.181-2.352.222-4.748.262-7.065v-.074c.013-.811.027-1.648.048-2.474.024-1.084.066-1.126,1.134-1.126h12.433a1.838,1.838,0,0,0,.212-.013c.033,0,.088-.009.138-.009a.272.272,0,0,1,.12.02l.011.009c.185.15.571.464.576.625,0,.112-.206.376-.587.644a.316.316,0,0,1-.156.025c-.064,0-.138-.006-.2-.011l-.027,0c-.077-.007-.172-.016-.258-.016H286.924l-.029.558,0,.065c-.009.161-.018.327-.023.492-.019.736-.036,1.543-.05,2.467l0,.189c-.028,1.7-.057,3.456-.175,5.175-.3,4.354-2.952,7.337-6.92,7.783A7.524,7.524,0,0,1,278.9-10546.135Zm.072-8.04c-.067,0-.136,0-.2-.006h-.032a4.132,4.132,0,0,1-3.046-1.439,5.189,5.189,0,0,1-1.264-3.983,14.281,14.281,0,0,1,1.721-5.326,25.679,25.679,0,0,1,5.6-7.309c1.964-1.735,4.012-3.4,5.993-5.006l.059-.048.635-.518c.669-.542,1.324-1.074,1.981-1.617l.09-.077a.311.311,0,0,1,.03-.03c.011-.01.018-.017.017-.021s0,0,0,0l.039,0c.077,0,.164,0,.24-.008l.066,0c.088-.006.22-.016.361-.016a.5.5,0,0,1,.066,0,.6.6,0,0,1,.3.074,1.108,1.108,0,0,1-.048.815c-.327.507-.708.985-1.112,1.492l-.02.024c-.273.341-.562.705-.826,1.07-3.948,5.489-5.064,9.024-5.6,11.49-.19.884-.309,1.8-.424,2.68v0l-.005.043,0,.021c-.1.8-.219,1.7-.393,2.561a12.586,12.586,0,0,1-1.123,3.236A3.46,3.46,0,0,1,278.969-10554.175Zm8.258-20.892-.911.653a31.911,31.911,0,0,0-7.669,7.813l-.268.391a18.1,18.1,0,0,0-2.5,5.561,6.93,6.93,0,0,0-.183,1.481,4.071,4.071,0,0,0,.584,2.181,2.788,2.788,0,0,0,2.488,1.519h.141a2.4,2.4,0,0,0,2.286-1.67,15.6,15.6,0,0,0,.906-3.628,29.566,29.566,0,0,1,1.206-6.155,26.908,26.908,0,0,1,2.555-5.72c.184-.312.368-.638.507-.888l.86-1.537Zm-16.14,7.13h-.005a.4.4,0,0,1-.372-.215.889.889,0,0,1,.13-.89h0v-.006a51.358,51.358,0,0,1,7.356-8.89l1.214-1.121-1.145.08c-.3.02-.561.036-.868.063a.626.626,0,0,1-.138.017.581.581,0,0,1-.31-.091.591.591,0,0,1-.266-.364c0-.015,0-.031-.009-.054l-.007-.039a.608.608,0,0,1,.465-.715,1,1,0,0,1,.165-.016c1.15-.159,2.376-.306,3.75-.446a1.4,1.4,0,0,1,.158-.01.684.684,0,0,1,.479.156.79.79,0,0,1,.143.616c-.127,1.227-.3,2.5-.464,3.724v.011l0,.013a.838.838,0,0,1-.268.555.533.533,0,0,1-.333.1,1,1,0,0,1-.129-.009c-.285-.042-.6-.174-.526-.823.021-.189.038-.388.053-.562l.04-.451-.43-.335-.157.136a26.193,26.193,0,0,0-2.077,2.047c-.963,1.184-1.923,2.4-2.852,3.577l-.034.043-.224.283c-.705.893-1.583,2-2.434,3.055a1.437,1.437,0,0,1-.9.563Z"
            data-name="Subtraction 71" id="Subtraction_71" stroke="rgba(0,0,0,0)"
            stroke-miterlimit="10" stroke-width="1" transform="translate(1382 11335.497)" />
    </g>
</svg>
