<svg xmlns="http://www.w3.org/2000/svg" width="35.906" height="35" viewBox="0 0 35.906 35">
    <g id="エステ_12" transform="translate(-3275.614 -913.092)">
        <g id="Group_984" data-name="Group 984" transform="translate(3275.614 913.092)">
            <g id="Group_983" data-name="Group 983" transform="translate(0 5.037)">
                <path id="Path_1923" data-name="Path 1923"
                    d="M3469.148,1065.647a.54.54,0,0,1-.528-.653l.712-3.325.052-.963a.54.54,0,1,1,1.078.058l-.054,1.005a.542.542,0,0,1-.011.084l-.721,3.366A.54.54,0,0,1,3469.148,1065.647Z"
                    transform="translate(-3454.72 -1054.648)" />
                <path id="Path_1924" data-name="Path 1924"
                    d="M3552.662,992.185a.54.54,0,0,1-.031-1.079l2.2-.127a.318.318,0,0,0,.3-.3l-.41-2.108a.54.54,0,0,1,.379-.621l.563-.164-.981-1.518a.538.538,0,0,1-.086-.289l-.017-2.343a.54.54,0,0,1,.536-.544h0a.54.54,0,0,1,.54.536l.015,2.186,1.289,1.995a.539.539,0,0,1-.3.811l-.786.228.325,1.673a.562.562,0,0,1,.009.078,1.4,1.4,0,0,1-1.311,1.458l-2.205.127Z"
                    transform="translate(-3532.225 -983.092)" />
                <path id="Path_1925" data-name="Path 1925"
                    d="M3546.877,1078.613a.54.54,0,0,1-.522-.4l-.882-3.366a.54.54,0,1,1,1.044-.273l.882,3.366a.54.54,0,0,1-.522.677Z"
                    transform="translate(-3526.039 -1067.613)" />
                <path id="Path_1926" data-name="Path 1926"
                    d="M3374.27,1100.509a.539.539,0,0,1-.129-.016l-8.566-2.1a.54.54,0,1,1,.257-1.048l8.566,2.1a.54.54,0,0,1-.128,1.064Z"
                    transform="translate(-3358.72 -1089.109)" />
                <path id="Path_1927" data-name="Path 1927"
                    d="M3544.882,1104.365a.54.54,0,0,1-.108-1.068l8.775-1.8a.54.54,0,0,1,.217,1.057l-8.775,1.8A.548.548,0,0,1,3544.882,1104.365Z"
                    transform="translate(-3525.005 -1092.965)" />
                <path id="Path_1928" data-name="Path 1928"
                    d="M3286.354,1059.553a.54.54,0,0,1-.539-.526l-.3-11.99a1.463,1.463,0,0,0-.714-1.1l-7.673-4.147-.013-.008a2.5,2.5,0,0,1-.356-.246,3.188,3.188,0,0,1,1.059-5.479l.011,0,9.4-2.834a.54.54,0,0,1,.312,1.033l-9.39,2.833a2.109,2.109,0,0,0-.7,3.623,1.42,1.42,0,0,0,.2.136l7.673,4.147.013.008a2.544,2.544,0,0,1,1.256,1.952c0,.013,0,.026,0,.039l.3,12.011a.54.54,0,0,1-.526.553Z"
                    transform="translate(-3275.614 -1029.59)" />
                <path id="Path_1929" data-name="Path 1929"
                    d="M3619.5,1068.635h-.01a.54.54,0,0,1-.53-.55l.221-12.01c0-.014,0-.028,0-.042a2.544,2.544,0,0,1,1.256-1.952l.014-.008,7.673-4.147a1.427,1.427,0,0,0,.2-.136,2.109,2.109,0,0,0-.7-3.623l-7.082-2.129a.54.54,0,0,1,.311-1.034l7.088,2.13.011,0a3.188,3.188,0,0,1,1.059,5.479,2.489,2.489,0,0,1-.356.246l-.014.008-7.673,4.147a1.463,1.463,0,0,0-.714,1.1l-.22,11.988A.54.54,0,0,1,3619.5,1068.635Z"
                    transform="translate(-3594.258 -1038.672)" />
            </g>
            <path id="Path_1930" data-name="Path 1930"
                d="M3454.045,925.081a.538.538,0,0,1-.218-.046,6.291,6.291,0,0,1,2.459-11.943c2.811,0,6.227,1.5,6.606,5.745a.54.54,0,0,1-1.075.1,5.11,5.11,0,0,0-5.53-4.761,4.92,4.92,0,0,0-4.915,4.915,5.035,5.035,0,0,0,2.891,4.961.54.54,0,0,1-.218,1.034Z"
                transform="translate(-3437.723 -913.092)" />
            <path id="Path_1931" data-name="Path 1931"
                d="M3503.958,965.295a.54.54,0,0,1-.2-1.041,6.435,6.435,0,0,0,4.271-4.681.54.54,0,0,1,1.07.144,7.489,7.489,0,0,1-4.94,5.54A.539.539,0,0,1,3503.958,965.295Z"
                transform="translate(-3487.025 -955.796)" />
        </g>
        <path id="Path_1932" data-name="Path 1932"
            d="M3635.222,940.235a.54.54,0,0,1-.54-.54v-7.232h-6.457a.54.54,0,0,1,0-1.079h7a.54.54,0,0,1,.54.54V939.7A.54.54,0,0,1,3635.222,940.235Z"
            transform="translate(-326.736 -16.976)" />
        <path id="Path_1933" data-name="Path 1933"
            d="M3322.46,940.235a.54.54,0,0,1-.54-.54v-7.772a.54.54,0,0,1,.54-.54h7.894a.54.54,0,0,1,0,1.079H3323V939.7A.54.54,0,0,1,3322.46,940.235Z"
            transform="translate(-42.974 -16.976)" />
        <path id="Path_1934" data-name="Path 1934"
            d="M3492.4,1178.213a2.952,2.952,0,1,1,2.483-2.914A2.728,2.728,0,0,1,3492.4,1178.213Zm0-4.749a1.9,1.9,0,1,0,1.4,1.835A1.665,1.665,0,0,0,3492.4,1173.463Z"
            transform="translate(-198.885 -240.634)" />
        <path id="Path_1935" data-name="Path 1935"
            d="M3492.4,1295.213a2.952,2.952,0,1,1,2.483-2.914A2.728,2.728,0,0,1,3492.4,1295.213Zm0-4.749a1.9,1.9,0,1,0,1.4,1.835A1.665,1.665,0,0,0,3492.4,1290.463Z"
            transform="translate(-198.885 -349.215)" />
        <path id="Path_1936" data-name="Path 1936"
            d="M3541.559,1166.415a.54.54,0,0,1-.54-.536,3.528,3.528,0,0,1,1.428-2.385.54.54,0,0,1,.656.857c-.262.2-1.009.916-1,1.52a.54.54,0,0,1-.536.543Z"
            transform="translate(-246.307 -232.281)" />
        <path id="Path_1937" data-name="Path 1937"
            d="M3476.775,1166.415h0a.54.54,0,0,1-.536-.544c0-.61-.742-1.319-1-1.519a.54.54,0,0,1,.656-.857,3.529,3.529,0,0,1,1.428,2.385A.54.54,0,0,1,3476.775,1166.415Z"
            transform="translate(-185.056 -232.281)" />
    </g>
</svg>
