<svg height="32.086" viewBox="0 0 42.815 32.086" width="42.815" xmlns="http://www.w3.org/2000/svg">
    <g id="エステ_11" transform="translate(-1607.483 -11324.34)">
        <path d="M10.039,13.928c-.583-.9-.6-1.955.095-2.4s1.657.111,2.24,1.009a2.559,2.559,0,0,1,.05,2.565.415.415,0,0,1-.232.052A3.112,3.112,0,0,1,10.039,13.928Zm.4-1.935a.658.658,0,0,0-.271.578,1.937,1.937,0,0,0,.34,1.052,2.3,2.3,0,0,0,.913.734,2.441,2.441,0,0,0,.67.225,2.215,2.215,0,0,0,.087-.654,2.035,2.035,0,0,0-.274-1.091,2.3,2.3,0,0,0-.856-.812.857.857,0,0,0-.37-.1A.43.43,0,0,0,10.438,11.993ZM.049,14.5c-.218-.276.318-1.778,1.251-2.456s2.016-.824,2.461-.212-.151,1.617-1.083,2.3a3.313,3.313,0,0,1-1.862.556A1.137,1.137,0,0,1,.049,14.5Zm1.58-2a2.893,2.893,0,0,0-.8,1,2.923,2.923,0,0,0-.239.614,2.6,2.6,0,0,0,.6-.014,2.567,2.567,0,0,0,1.157-.423c.759-.552,1.139-1.267.96-1.514A.5.5,0,0,0,2.889,12,2.3,2.3,0,0,0,1.629,12.5Zm11.212-1.108c-1.121-.158-1.979-.849-1.864-1.664s1.228-1.168,2.35-1.011S15.458,10,15.419,10.376c-.035.347-1.216,1.033-2.273,1.033A2.191,2.191,0,0,1,12.841,11.389Zm-.862-2.014c-.188.074-.418.208-.449.428-.063.453.559.916,1.389,1.033a2.589,2.589,0,0,0,1.243-.2,2.626,2.626,0,0,0,.639-.349,2.378,2.378,0,0,0-.463-.492,2.291,2.291,0,0,0-1.089-.527,3.171,3.171,0,0,0-.442-.031A2.3,2.3,0,0,0,11.979,9.375Zm-5.37.617a.28.28,0,0,1,.386-.4C7,9.6,8.08,10.61,8.974,10.5a1.03,1.03,0,0,0,.758-.52,2.212,2.212,0,0,0-.542-2.75,4.5,4.5,0,0,0-1.833-.969A.28.28,0,1,1,7.5,5.723,5.049,5.049,0,0,1,9.551,6.807a2.773,2.773,0,0,1,.661,3.462,1.589,1.589,0,0,1-1.174.79,1.677,1.677,0,0,1-.193.011A3.933,3.933,0,0,1,6.608,9.992Zm-3.031.951a1.588,1.588,0,0,1-1.185-.771,3.7,3.7,0,0,1,.032-2.654.28.28,0,0,1,.524.2,3.213,3.213,0,0,0-.07,2.181,1.03,1.03,0,0,0,.775.494,2.218,2.218,0,0,0,2.32-1.574,4.505,4.505,0,0,0,.176-2.066A.279.279,0,0,1,6.7,6.666a5.047,5.047,0,0,1-.195,2.316,2.773,2.773,0,0,1-2.654,1.975A2.72,2.72,0,0,1,3.578,10.942ZM3.263,7.061H3.243A2.774,2.774,0,0,1,.532,4.832,1.588,1.588,0,0,1,.924,3.473a3.7,3.7,0,0,1,2.548-.744.28.28,0,0,1-.036.558,3.21,3.21,0,0,0-2.106.57,1.031,1.031,0,0,0-.247.885A2.213,2.213,0,0,0,3.251,6.5h.016a4.52,4.52,0,0,0,2.027-.435.28.28,0,1,1,.241.5,5.055,5.055,0,0,1-2.169.491Zm6.652-.413a.28.28,0,0,1,.093-.384c.013-.008,1.269-.786,1.4-1.676a1.031,1.031,0,0,0-.306-.866,2.212,2.212,0,0,0-2.8-.187,4.5,4.5,0,0,0-1.41,1.519.28.28,0,0,1-.487-.274,5.048,5.048,0,0,1,1.579-1.7,2.773,2.773,0,0,1,3.515.258,1.588,1.588,0,0,1,.459,1.338C11.792,5.82,10.36,6.7,10.3,6.742a.28.28,0,0,1-.384-.093ZM5.482,5.486A5.047,5.047,0,0,1,4.314,3.478,2.774,2.774,0,0,1,5.588.191,1.588,1.588,0,0,1,7,.144,3.7,3.7,0,0,1,8.5,2.337a.28.28,0,0,1-.542.139c0-.014-.38-1.443-1.194-1.826a1.03,1.03,0,0,0-.918.039,2.212,2.212,0,0,0-1,2.62A4.5,4.5,0,0,0,5.887,5.1a.279.279,0,1,1-.4.385Z" data-name="Union 40"
            id="Union_40"
            stroke="#000" stroke-miterlimit="10" stroke-width="0.3"
            transform="translate(1611.32 11324.49)" />
        <g data-name="Group 56681" id="Group_56681" transform="translate(1607.984 11326.146)">
            <g data-name="Group 56683" id="Group_56683" transform="translate(0 16.014)">
                <g data-name="Group 56682" id="Group_56682">
                    <g data-name="Group 56681" id="Group_56681-2">
                        <g data-name="Group 56684" id="Group_56684"
                            transform="translate(39.368 3.813)">
                            <path d="M1.948,1.042h0L.458.91h0A.443.443,0,0,1,.137.779.453.453,0,0,1,.451,0,.626.626,0,0,1,.557.01L2.018.14A.457.457,0,0,1,2.4.659a.449.449,0,0,1-.391.381Z" data-name="Subtraction 75"
                                id="Subtraction_75"
                                stroke="rgba(0,0,0,0)" stroke-miterlimit="10" stroke-width="1" />
                        </g>
                        <g data-name="Group 56685" id="Group_56685"
                            transform="translate(32.439 3.19)">
                            <path d="M1.705,1.015H1.643L.372.9A.455.455,0,0,1,.435,0l1.28.116a.454.454,0,0,1-.01.9Z" data-name="Subtraction 76"
                                id="Subtraction_76"
                                stroke="rgba(0,0,0,0)" stroke-miterlimit="10"
                                stroke-width="1" transform="translate(0)" />
                        </g>
                        <g data-name="Group 56686" id="Group_56686"
                            transform="translate(17.532 1.784)">
                            <path d="M4.414,2.632A3.5,3.5,0,0,1,3.97,2.6,3.067,3.067,0,0,1,2.659,2.09l-.023-.013c-.2-.118-.5-.3-.927-.507L.3.881A.452.452,0,0,1,.043.644a.451.451,0,0,1,.224-.6A.436.436,0,0,1,.453,0,.443.443,0,0,1,.614.029a1.016,1.016,0,0,1,.1.048L2.1.76c.435.212.731.387.968.528l.032.019a2.214,2.214,0,0,0,.986.4,2.59,2.59,0,0,0,.326.021A2.635,2.635,0,0,0,5.6,1.449l.555-.273A4.26,4.26,0,0,1,7.65.762.469.469,0,0,1,7.968.9a.456.456,0,0,1-.229.762,3.229,3.229,0,0,0-1.193.325l-.557.273A3.623,3.623,0,0,1,4.414,2.632Z" data-name="Subtraction 78"
                                id="Subtraction_78"
                                stroke="rgba(0,0,0,0)" stroke-miterlimit="10"
                                stroke-width="1" transform="translate(0)" />
                        </g>
                        <g data-name="Group 56687" id="Group_56687" transform="translate(4.369)">
                            <path d="M.453,10.357A.456.456,0,0,1,0,9.9c0-.008,0-.015,0-.024s0-.018,0-.025L.7,4.306A4.916,4.916,0,0,1,6.192.039l.113.017.029,0,.053.009L8.719.456a.443.443,0,0,1,.273.211.456.456,0,0,1-.381.684H8.589L6.24.958A3.924,3.924,0,0,0,5.575.9,4.022,4.022,0,0,0,1.618,4.258c-.01.056-.017.111-.024.162L.965,9.452l1.225-.01A2.746,2.746,0,0,0,4.818,7.386l.624-3.4A1.828,1.828,0,0,1,7.084,2.5l.485-.041a.449.449,0,0,1,.448.458.453.453,0,0,1-.357.441l-.5.041a.92.92,0,0,0-.827.75L5.7,7.6A3.648,3.648,0,0,1,2.2,10.344Z" data-name="Subtraction 80"
                                id="Subtraction_80"
                                stroke="rgba(0,0,0,0)" stroke-miterlimit="10"
                                stroke-width="1" transform="translate(0)" />
                        </g>
                        <g data-name="Group 56688" id="Group_56688"
                            transform="translate(10.906 6.216)">
                            <path d="M4.551,3.966h0c-.095,0-.191,0-.345-.011L.358,3.5a.454.454,0,0,1-.287-.2.445.445,0,0,1-.06-.339A.451.451,0,0,1,.44,2.6H.447l3.86.46c.083.007.167.011.251.011a2.94,2.94,0,0,0,1.957-.743A3.005,3.005,0,0,0,7.495.444.455.455,0,0,1,7.948,0H7.96a.449.449,0,0,1,.317.141A.441.441,0,0,1,8.4.463a.519.519,0,0,1-.012.111A3.871,3.871,0,0,1,4.551,3.966Z" data-name="Subtraction 82"
                                id="Subtraction_82"
                                stroke="rgba(0,0,0,0)" stroke-miterlimit="10"
                                stroke-width="1" transform="translate(0)" />
                        </g>
                        <g data-name="Group 56689" id="Group_56689"
                            transform="translate(12.607 0.067)">
                            <path d="M3.015,2.987h0a.456.456,0,0,1-.176-.868.537.537,0,0,0,.34-.392.494.494,0,0,0-.108-.386.667.667,0,0,0-.424-.246L1.635.925A.681.681,0,0,0,1.486.907a.609.609,0,0,0-.579.448.534.534,0,0,0,.2.473.456.456,0,0,1-.267.824.461.461,0,0,1-.264-.084A.672.672,0,0,1,.5,2.5,1.4,1.4,0,0,1,.018,1.2,1.489,1.489,0,0,1,1.476,0a1.556,1.556,0,0,1,.29.028L2.793.2a1.57,1.57,0,0,1,.986.579,1.385,1.385,0,0,1,.287,1.089,1.42,1.42,0,0,1-.887,1.079A.488.488,0,0,1,3.015,2.987Z" data-name="Subtraction 79"
                                id="Subtraction_79"
                                stroke="rgba(0,0,0,0)" stroke-miterlimit="10"
                                stroke-width="1" transform="translate(0)" />
                        </g>
                        <g data-name="Group 56690" id="Group_56690" transform="translate(0 8.757)">
                            <path d="M20.036,5.008H1.107A1.115,1.115,0,0,1,0,3.868,1.1,1.1,0,0,1,.687,2.845l.752-.282.046-.016c.24-.061.274-.119.415-.414a4.447,4.447,0,0,1,.277-.507L2.741.241A.464.464,0,0,1,3.009.019.511.511,0,0,1,3.144,0a.461.461,0,0,1,.212.051.455.455,0,0,1,.229.516l-.6,1.466a.462.462,0,0,1-.051.091,2.851,2.851,0,0,0-.236.426,1.386,1.386,0,0,1-.972.867l-.7.265L.9,3.812l.022.295H20.034l.128-.118-.014-.234-.967-.335a1.8,1.8,0,0,1-1.054-.983l-.244-.565a.451.451,0,0,1,.029-.345.46.46,0,0,1,.265-.226.439.439,0,0,1,.141-.022.446.446,0,0,1,.39.222l.248.578a.883.883,0,0,0,.521.488l.844.294a1.106,1.106,0,0,1,.634.562,1.109,1.109,0,0,1-.919,1.587Z" data-name="Subtraction 81"
                                id="Subtraction_81"
                                stroke="rgba(0,0,0,0)" stroke-miterlimit="10" stroke-width="1" />
                        </g>
                        <g data-name="Group 56691" id="Group_56691"
                            transform="translate(18.043 7.264)">
                            <path d="M23.3,6.5H6.2A2.764,2.764,0,0,1,3.6,4.658L2.786,2.337a1.2,1.2,0,0,0-.675-.715L.322.89A.453.453,0,0,1,.02.323.464.464,0,0,1,.24.054.485.485,0,0,1,.454,0,.462.462,0,0,1,.582.019c.028.01.055.021.1.039l.006,0,1.77.728a2.115,2.115,0,0,1,1.186,1.25l.817,2.321A1.86,1.86,0,0,0,6.2,5.6L23.3,5.6a.455.455,0,0,1,.007.9Z" data-name="Subtraction 83"
                                id="Subtraction_83"
                                stroke="rgba(0,0,0,0)" stroke-miterlimit="10"
                                stroke-width="1" transform="translate(0)" />
                        </g>
                        <g data-name="Group 56692" id="Group_56692"
                            transform="translate(25.697 8.092)">
                            <path d="M15.656,1.683l-.015-.14L.48.91H.454A.454.454,0,0,1,.116.152.445.445,0,0,1,.427,0H.449A.74.74,0,0,1,.536.007l15.13.634a.456.456,0,0,1,.4.5.451.451,0,0,1-.415.4l.01.14Z" data-name="Subtraction 84"
                                id="Subtraction_84"
                                stroke="rgba(0,0,0,0)" stroke-miterlimit="10"
                                stroke-width="1" transform="translate(0 0)" />
                        </g>
                    </g>
                    <g data-name="Group 56693" id="Group_56693" transform="translate(25.045 1.382)">
                        <path d="M3.212,3.7C.313,3.7,0,2.52,0,2.01,0,.864,1.381,0,3.212,0S6.423.864,6.423,2.01C6.423,2.52,6.11,3.7,3.212,3.7Zm0-2.8C1.89.9.9,1.488.9,2.013c0,.464.95.789,2.31.789s2.307-.325,2.307-.789C5.519,1.488,4.533.9,3.214.9Z" data-name="Subtraction 77"
                            id="Subtraction_77"
                            stroke="rgba(0,0,0,0)" stroke-miterlimit="10" stroke-width="1"
                            transform="translate(0 0)" />
                    </g>
                    <g data-name="Group 56694" id="Group_56694" transform="translate(33.764 2.19)">
                        <path d="M3.212,3.7C.313,3.7,0,2.52,0,2.01,0,.864,1.381,0,3.212,0S6.426.864,6.426,2.01C6.426,2.52,6.112,3.7,3.212,3.7Zm0-2.8C1.89.9.9,1.49.9,2.013c0,.464.95.789,2.31.789s2.31-.325,2.31-.789C5.521,1.49,4.535.9,3.214.9Z" data-name="Subtraction 74"
                            id="Subtraction_74"
                            stroke="rgba(0,0,0,0)" stroke-miterlimit="10" stroke-width="1"
                            transform="translate(0 0)" />
                    </g>
                </g>
            </g>
            <g data-name="Group 56695" id="Group_56695" transform="translate(26.899 0)">
                <path d="M5.022,16.415c-.168,0-.343,0-.518-.013a1.212,1.212,0,0,1-.972-.4,1.376,1.376,0,0,1-.121-1.155l.046-.186-.188-.033c-.172-.033-.343-.062-.473-.084l-.089-.017-.1-.018-.1-.018H2.492c-.438-.076-.851-.148-1.258-.254C.376,14.007,0,13.615,0,12.966a1.485,1.485,0,0,1,1.275-1.481,14.7,14.7,0,0,1,1.794-.109c.22,0,.443.007.6.012h.005a8.391,8.391,0,0,1,.84.058l.028,0c.133.015.284.029.461.044a1.849,1.849,0,0,0,.228.015,1.813,1.813,0,0,0,1.436-.72l.265-.34q.4-.514.8-1.024C8.793,8.067,9.887,6.666,10.91,5.232c.682-.959,1.295-1.953,1.967-3.061l.2-.318c.2-.334.423-.69.644-1.04.126-.2.225-.352.333-.5A.644.644,0,0,1,14.474,0L14.5,0a.325.325,0,0,1,.227.1.819.819,0,0,1,.147.717c-.441.69-.881,1.4-1.306,2.086l-.042.068-.05.081A56.968,56.968,0,0,1,7.87,11.033a3.845,3.845,0,0,1-3.047,1.489,3.92,3.92,0,0,1-.685-.061,12.394,12.394,0,0,0-1.694-.12l-.244,0a4.966,4.966,0,0,0-1.042.239l-.121.043v.555l2.421.431.167.029.023,0,.03,0,.015,0a2.948,2.948,0,0,1,.346.07c.756.216.9.526.692,1.444l-.053.227.231,0c1.317-.015,2.8-.151,3.715-1.6l.229-.365,0-.007,0-.005c.371-.589.755-1.2,1.176-1.764,1.016-1.378,2.082-2.78,3.175-4.215l.417-.547a.766.766,0,0,1,.473-.339h.032a.471.471,0,0,1,.327.153c.26.236.238.433-.1.884-.849,1.142-1.7,2.312-2.529,3.442l-.1.134-.265.362-1.2,1.641a7.273,7.273,0,0,0-.458.7A4.969,4.969,0,0,1,5.022,16.415Z" data-name="Subtraction 73"
                    id="Subtraction_73"
                    stroke="rgba(0,0,0,0)" stroke-miterlimit="10" stroke-width="1"
                    transform="translate(0)" />
            </g>
        </g>
    </g>
</svg>
