<svg height="36.257" viewBox="0 0 23.443 36.257" width="23.443" xmlns="http://www.w3.org/2000/svg">
    <g id="エステ_10" transform="translate(-110.869 -78.233)">
        <g data-name="Group 1260" id="Group_1260" transform="translate(111.399 78.839)">
            <g data-name="Group 1259" id="Group_1259" transform="translate(0 0)">
                <g data-name="Group 1258" id="Group_1258">
                    <path d="M208.039,237.525c-.241-.847-1.211-4.114-1.5-4.8" data-name="Path 2576"
                        fill="none"
                        id="Path_2576" stroke="#000" stroke-linecap="round"
                        stroke-linejoin="round" stroke-width="1" transform="translate(-187.864 -202.525)" />
                    <path d="M200.918,181.824c-.617-2.264-3.009-4.037-3.633-4.875" data-name="Path 2577"
                        fill="none"
                        id="Path_2577" stroke="#000" stroke-linecap="round"
                        stroke-linejoin="round" stroke-width="1" transform="translate(-180.428 -157.693)" />
                    <path d="M167.519,226.348a6.141,6.141,0,0,0,7.658-1.045,8.777,8.777,0,0,0,1.263-1.814" data-name="Path 2578"
                        fill="none"
                        id="Path_2578" stroke="#000" stroke-linecap="round"
                        stroke-linejoin="round" stroke-width="1" transform="translate(-156.504 -195.099)" />
                    <path d="M180.54,245.371c.148-.365.731-1.958,1.058-2.881" data-name="Path 2579"
                        fill="none"
                        id="Path_2579" stroke="#000" stroke-linecap="round"
                        stroke-linejoin="round" stroke-width="1" transform="translate(-166.97 -210.371)" />
                    <path d="M130.233,164.736c1.721,2.493,1.238,5.62-.568,8.228a6.863,6.863,0,0,0-1.316,4.141c0,2.607,1.713,4.29,1.713,5.772" data-name="Path 2580"
                        fill="none"
                        id="Path_2580" stroke="#000" stroke-linecap="round"
                        stroke-linejoin="round" stroke-width="1" transform="translate(-125.022 -147.877)" />
                    <path d="M130.606,160.933c-.729-1.05-1.726-2.618-2.4-3.592a15.026,15.026,0,0,1,1.912-2.689c.418-.535.842-1,1.507-.667,1.137.681,1.7,2.137,2.641,2.826,1.981,1.453,4.211.872,4.522-.525a3,3,0,0,0,2.976.763c1.231-.307,1.2-1.722.776-2.656-.436-.966-1.855-1.442-2.206-2.2" data-name="Path 2581"
                        fill="none"
                        id="Path_2581" stroke="#000" stroke-linecap="round"
                        stroke-linejoin="round" stroke-width="1" transform="translate(-124.906 -137.794)" />
                    <path d="M123.1,87.254c-.488,1.3.046,1.841.716,2.194a6.923,6.923,0,0,0,1.3.564c.365-.021,1.653-1.536,1.734-1.637.2-.244.062-1.109.257-1.477.135-.256.6-.541.735-.94a3.636,3.636,0,0,0,.167-.716c.173.053.526.138.71-.1-.488-1.089.263-1.534.029-2.5a1.169,1.169,0,0,0-1.165-.868c.011-.846-1.05-1.979-2.859-2.644a4.249,4.249,0,0,0-5.422,2.156c-1.16,2.5-.109,4.76-2.1,5.962.592,1.187,2.295,1.58,2.909,1.645,0,1.4-1.713,1.875-2.925,1.942a4.543,4.543,0,0,0-3.539,2.561c-.354.818-1.421,2.515-2.065,4.007a2.916,2.916,0,0,0,.366,2.683c.331.51,2.444,2.463,3.985,4" data-name="Path 2582"
                        fill="none"
                        id="Path_2582" stroke="#000" stroke-linecap="round"
                        stroke-linejoin="round" stroke-width="1" transform="translate(-111.399 -78.839)" />
                    <path d="M174.2,132.893c-.233.546-.178,1.233.906,1.442a9.561,9.561,0,0,1,2.985.638c1.476,1.007,4.21,4.8,4.661,5.358.821,1.007,1.347,3.608,1.44,6.179a4.994,4.994,0,0,1-.262,1.91,6.683,6.683,0,0,1-.906,1.506c-.865,1.2-2.166.775-1.86,0,.173-.436.478-1.29.531-1.5-.138.288-.592.457-.743.331-.364-.3-.008-1.146.271-1.518a4.068,4.068,0,0,1,1.051-.831c-.13-.865-1.45-3.409-1.35-4.55-.257-.1-1.042-.675-1.444-.938" data-name="Path 2583"
                        fill="none"
                        id="Path_2583" stroke="#000" stroke-linecap="round"
                        stroke-linejoin="round" stroke-width="1" transform="translate(-161.781 -122.284)" />
                </g>
            </g>
        </g>
    </g>
</svg>
