<svg xmlns="http://www.w3.org/2000/svg" width="33.571" height="35.517" viewBox="0 0 33.571 35.517">
  <g id="エステ_3" transform="translate(-1757.083 -757.506)">
    <path id="Subtraction_68" data-name="Subtraction 68" d="M664.167-10534.816h0l-.066-.008h-.04a.547.547,0,0,1-.549-.53.615.615,0,0,1,.013-.154c.02-.556.054-1.105.1-1.761.027-.39.049-.715.066-1.048.032-.611.069-1.223.106-1.813v-.009l.007-.111c.1-1.539.2-3.131.213-4.72a20.525,20.525,0,0,0-.485-3.239l-.069-.3-.281.13a8.951,8.951,0,0,1-3.8.839,9.076,9.076,0,0,1-2.624-.389c-.062-.015-.131-.025-.2-.035l-.012,0-.037-.007a.708.708,0,0,1-.247-.067,4.378,4.378,0,0,1-.451-.6l0-.006c-.023-.036-.033-.053-.04-.053a.006.006,0,0,0,0,0,1.036,1.036,0,0,1,.719-.487,15.176,15.176,0,0,1,1.7.334,12.42,12.42,0,0,0,1.564.1c.267,0,.534-.009.794-.026a4.361,4.361,0,0,0,4.059-4.25,16.843,16.843,0,0,0-.459-3.865l-.037-.186c-.109-.543-.115-.732.225-.9a.657.657,0,0,1,.281-.076c.234,0,.437.2.661.645l.2.408.233-.393c.282-.473.485-.665.7-.665a.61.61,0,0,1,.284.087c.39.208.38.458.154,1.056a7.727,7.727,0,0,0-.385,4.443,4.4,4.4,0,0,0,4.321,3.711h.058a18.024,18.024,0,0,0,3.4-.393,2.894,2.894,0,0,1,.484-.055.454.454,0,0,1,.514.381c.085.3,0,.44-.08.525a1.485,1.485,0,0,1-.631.3,10.048,10.048,0,0,1-2.912.428,10.1,10.1,0,0,1-3.784-.73l-.263-.1-.074.273a16.76,16.76,0,0,0-.5,3.136c.05,2.07.177,4.173.3,6.205l.006.092v.021c.049.807.1,1.64.142,2.462.008.114.013.231.016.35l.013.313c.032.611-.258.711-.515.729l-.061,0a.549.549,0,0,1-.372-.116.859.859,0,0,1-.215-.589q-.077-1.279-.153-2.554l0-.05q-.1-1.6-.192-3.189c-.021-.374-.047-.654-.072-.925v-.008c-.034-.363-.069-.739-.092-1.347-.01-.242-.02-.443-.029-.615a5.641,5.641,0,0,1,.029-1.318,9.14,9.14,0,0,1,.276-1.212c.123-.359.212-.724.3-1.076v0c.078-.32.159-.651.265-.978a.953.953,0,0,0-.058-.719c-.192-.32-.419-.643-.6-.9l-.027-.039-.361-.512-.207.153a2.291,2.291,0,0,0-.783,2.889,10.509,10.509,0,0,1,.422,3.868c-.025,1.705-.226,6.974-.249,7.569v.007c-.013.269-.041.549-.065.795v.014l-.021.255C664.652-10535.023,664.476-10534.82,664.167-10534.816Zm13.855-.15a.417.417,0,0,1-.143-.024l-.021,0a1.076,1.076,0,0,1-.544-.615l.032-.454,0-.044c.185-2.648.376-5.388.753-8.036a16.768,16.768,0,0,1,1.3-3.952c1.581-3.785,1.6-7.863.074-12.471-.8-2.4-1.35-4.244-1.788-5.964a6.984,6.984,0,0,1,.045-2.244.652.652,0,0,1,.255-.5.361.361,0,0,1,.194-.056.444.444,0,0,1,.151.029.955.955,0,0,1,.507.705,9.787,9.787,0,0,0,.682,4.729c.166.487.347.981.522,1.46l.018.051.043.118a22.061,22.061,0,0,1,1.52,5.688c.048.577.086,1.153.122,1.711l.05.754a13.628,13.628,0,0,1-1.207,6.093c-1.579,3.287-1.841,6.783-2,10.683-.027.595-.088,1.19-.154,1.8C678.4-10535.24,678.263-10534.967,678.022-10534.967Zm-24.939-.008c-.361,0-.519-.251-.561-.895-.036-.53-.07-1.1-.109-1.854-.075-1.433-.16-3.058-.393-4.61a22.931,22.931,0,0,0-1.329-4.828,17.317,17.317,0,0,1-1.459-6.637,22.469,22.469,0,0,1,1.533-8.106,45.388,45.388,0,0,0,1.411-4.889,6.1,6.1,0,0,0-.026-1.78c-.032-.533.165-.681.472-.737a.556.556,0,0,1,.149-.021.51.51,0,0,1,.491.371.521.521,0,0,1,.021.181,16.509,16.509,0,0,1-.215,3.615,47.011,47.011,0,0,1-1.523,4.608,16.933,16.933,0,0,0,.276,12.942,20.958,20.958,0,0,1,1.653,7.895c.061,1.269.136,2.551.223,3.812a1.2,1.2,0,0,1-.122.793.6.6,0,0,1-.451.141Z" transform="translate(1108.352 11327.339)" stroke="rgba(0,0,0,0)" stroke-miterlimit="10" stroke-width="1"/>
  </g>
</svg>
