<svg height="35.299" viewBox="0 0 40.899 35.299" width="40.899" xmlns="http://www.w3.org/2000/svg">
    <g id="フィットネス_5" transform="translate(-864.301 -738.827)">
        <path
            d="M903.956,770.2c-.917-.328-2.574-.775-2.586-.778a6.46,6.46,0,0,1-1.194-1.362c-.494-.64-1.079-1.4-1.738-2.131a1.148,1.148,0,0,0-.017-.127.164.164,0,0,0-.194-.128h0l-.016.005a8.4,8.4,0,0,0-3.887-2.643l-3.37-4.181a9.239,9.239,0,0,0-6.3-3.271l-4.308-.447a3.428,3.428,0,0,0-2.253-.708,5.655,5.655,0,0,0-.812.059.606.606,0,0,1-.473-.457,9.146,9.146,0,0,1-.09-1.711,25.548,25.548,0,0,0-.18-3.475,18.266,18.266,0,0,0-.7-2.642,12.575,12.575,0,0,1-.7-2.9,2.917,2.917,0,0,1,.067-.5,5.058,5.058,0,0,0-.356-3.312c-.163-.363-.3-.518-.472-.518-.242,0-.376.314-.4.939l-.012,3.207a.065.065,0,0,0,0,.02,6.42,6.42,0,0,1,.018.92,18.76,18.76,0,0,0,.6,5.221c.078,1.416-.164,5.4-.2,5.938a.159.159,0,0,0-.047.116l.007.919a.161.161,0,0,0,.047.114c-.062.31-.48.409-.838.435l-.174.012c.033-.062.065-.124.1-.183a.761.761,0,0,0,.047-.658.337.337,0,0,0-.224-.2,1.208,1.208,0,0,1-.458-.278.218.218,0,0,0-.031-.023.208.208,0,0,0-.1-.027.309.309,0,0,0-.19.079c.026-.115.019-.209-.08-.266l-.264-.152a.794.794,0,0,0-.223-.721.481.481,0,0,0-.339-.1,3.278,3.278,0,0,0-.4.036,1.7,1.7,0,0,1-.564.017l-.31-.1a5.036,5.036,0,0,0-1.6-.375,2.65,2.65,0,0,0-1.459.487,3.083,3.083,0,0,0-1.406,1.95,2.342,2.342,0,0,0-1.294,1.205,2.42,2.42,0,0,0,.192,2.017l.007.013a2.532,2.532,0,0,0,2.2,1.43,2.306,2.306,0,0,0,.628-.087,1.668,1.668,0,0,0,1.129-.863,3.457,3.457,0,0,0,.382.021,3.563,3.563,0,0,0,1.135-.184h.006a4.1,4.1,0,0,0,1.125-.59c.527-.014,1.213-.03,1.738-.03a5.464,5.464,0,0,1,.734.025.334.334,0,0,1,.147.086l.015.015a1.712,1.712,0,0,1,.378.738.158.158,0,0,0-.022.084v.507s-.051,4.584-.067,6.1c-.075,1.252-.174,2.577-.274,3.63a.153.153,0,0,0-.054.059.162.162,0,0,0,.03.193,10.778,10.778,0,0,1-.249,1.715l-3.4.867a.164.164,0,0,0-.061.03.346.346,0,0,0-.14.373c.078.225.413.322,1.122.322h.063c1.469-.012,3.077-.019,3.077-.019a.136.136,0,0,0,.056-.01,1.215,1.215,0,0,0,.757-1.352,6.532,6.532,0,0,1,.2-1.28l.012-.007a.164.164,0,0,0,.046-.227h0c.123-.492.275-1.022.425-1.545a22.037,22.037,0,0,0,.655-2.662,21.445,21.445,0,0,0,.154-3.342,7.6,7.6,0,0,1,.073-1.58c.045-.249.25-.417.594-.489a3.073,3.073,0,0,0,3.082-.94,1.372,1.372,0,0,1,.98-.259,2.234,2.234,0,0,1,.263.009c.51,1.957,2.424,3.655,5.546,4.918a25.071,25.071,0,0,0,4.627,1.339,13.465,13.465,0,0,0,2.795,2.377h0a8.9,8.9,0,0,0,1.051.56.142.142,0,0,0,.028.012,11.71,11.71,0,0,0,2.416.738,6.367,6.367,0,0,1,2.079.71,5.721,5.721,0,0,1,.54,1.73,1.2,1.2,0,0,0,.247.878.663.663,0,0,0,.5.188,2.417,2.417,0,0,0,.612-.11c.078-.021.154-.041.226-.057a.6.6,0,0,0,.434-.282c.143-.269,0-.633-.182-1.093l-.052-.13h0a3.673,3.673,0,0,0-.593-.925l1.527,1.313a1.525,1.525,0,0,0,.838.389h0a.572.572,0,0,0,.561-.474,1.609,1.609,0,0,0-.862-2.107C904.028,770.23,903.992,770.216,903.956,770.2Zm.415,2.3h0a1.23,1.23,0,0,1-.622-.308l-2.683-2.306-.028-.019c-.009,0-.949-.522-2.168-1.23l-1.37-.939a1.565,1.565,0,0,0,.928-1.278c.57.654,1.075,1.306,1.487,1.84.724.938,1.083,1.393,1.365,1.477.015,0,1.661.448,2.565.772a1.323,1.323,0,0,1,.791,1.7c-.006.018-.013.036-.02.053C904.545,772.5,904.423,772.5,904.371,772.5Zm-1.829.622a.3.3,0,0,1-.214.116c-.077.017-.157.038-.24.06a2.2,2.2,0,0,1-.527.1.345.345,0,0,1-.264-.09.862.862,0,0,1-.152-.572,1.52,1.52,0,0,0,.5.093,1.061,1.061,0,0,0,.316-.046.936.936,0,0,0,.447-.3C902.52,772.762,902.6,773.013,902.542,773.126Zm-4.274-3.224a12.15,12.15,0,0,1-2.066-.6,1.872,1.872,0,0,0,.88-1.463l.029-.008,1.577,1.081h0l2.064,1.414a6.982,6.982,0,0,1,1.511,1.782.678.678,0,0,1-.4.359,1.127,1.127,0,0,1-.773-.109,6.891,6.891,0,0,0-.327-1.142,1.384,1.384,0,0,0-.283-.539h0a6.587,6.587,0,0,0-2.213-.775Zm-3.109-1.1a1.894,1.894,0,0,0,.99-1.623l.563.386c.238.866-.618,1.436-.876,1.586-.22-.1-.445-.22-.678-.352Zm-3.051-2.529a.165.165,0,0,0-.094-.051c-.088-.015-8.718-1.485-9.95-5.971a3.481,3.481,0,0,0,2.242-1.455,4.3,4.3,0,0,0,.536-2.86,8.892,8.892,0,0,1,5.854,3.132l3.405,4.225a.159.159,0,0,0,.092.057,7.148,7.148,0,0,1,3.171,1.955,1.358,1.358,0,0,1-1.057,1.583l-.23-.158-.016-.011L893,764.625c-.069-.078-.146-.161-.232-.246a54.591,54.591,0,0,0-5.789-4.33.16.16,0,0,0-.07-.026.845.845,0,0,0-.1-.006c-.261,0-.369.1-.414.192-.1.2.064.429.119.5A60.138,60.138,0,0,0,892.1,764.4l.7.482h0l3.017,2.067a1.585,1.585,0,0,1-1,1.647,13.3,13.3,0,0,1-2.708-2.324Zm-13.923-5.032a2.775,2.775,0,0,1-.353-.025,3.013,3.013,0,0,1-.411-.082c-.039-.011-.078-.02-.118-.032a1.031,1.031,0,0,0-.27-.314,1.213,1.213,0,0,0-.766-.238q-.105,0-.207.012c-.606.068-1.1.106-1.349.123v-.4l.012-.015a.167.167,0,0,0,.027-.123,2.329,2.329,0,0,0-.275-.73h.137a3.435,3.435,0,0,0,2.118-.569,1.231,1.231,0,0,0,.432-.917,1.381,1.381,0,0,0-.381-1.027,3.464,3.464,0,0,0-2.1-.8v-.6a9.767,9.767,0,0,0,1.312-.1c.583-.09,1.135-.259,1.3-.573l0-.009a5.216,5.216,0,0,1,.544-.055c.083,0,.171-.007.264-.007a3.071,3.071,0,0,1,2.071.657.155.155,0,0,0,.095.043l4.244.44a4.058,4.058,0,0,1-.474,2.71,3.22,3.22,0,0,1-2.177,1.344c-.058-.006-.2-.018-.385-.018a1.582,1.582,0,0,0-1.232.376,2.863,2.863,0,0,1-2.063.924Zm-6.379-2.312a7.48,7.48,0,0,0,1.387-1.759c.124-.007.253-.015.388-.025.839-.062,1.083-.411,1.137-.7a3.092,3.092,0,0,1,1.822.688,1.052,1.052,0,0,1,.291.79.9.9,0,0,1-.319.68,3.75,3.75,0,0,1-2.319.473.606.606,0,0,0-.27-.138,5.151,5.151,0,0,0-.795-.031c-.392,0-.881.009-1.322.019Zm-1.056.359c-.081.045-.164.086-.249.124.01-.044.018-.087.025-.13a1.346,1.346,0,0,0,0-.37,1.59,1.59,0,0,0-.667-1.02.164.164,0,0,0-.185,0,.671.671,0,0,1-.171.086.81.81,0,0,1-.664-.1.642.642,0,0,1-.324-.359c.041-.1.378-.147.651-.123a.153.153,0,0,0,.084-.017.161.161,0,0,0,.09-.105.165.165,0,0,0-.093-.191c-.053-.024-.1-.05-.153-.077a2.6,2.6,0,0,1-1.032-2.474,1.5,1.5,0,0,1,.017-.2,1.937,1.937,0,0,1,.674-.126,4.825,4.825,0,0,1,1.491.358l.312.106a.815.815,0,0,0,.269.037,3.465,3.465,0,0,0,.443-.04,3.176,3.176,0,0,1,.352-.034.341.341,0,0,1,.11.012h0a.5.5,0,0,1,.109.507.163.163,0,0,0,.072.2l.283.163c-.012.038-.028.084-.039.116-.07.2-.13.372.019.458a.192.192,0,0,0,.1.027c.115,0,.213-.091.336-.207.025-.023.06-.056.09-.082a1.393,1.393,0,0,0,.518.285.4.4,0,0,1-.031.389c-.056.111-.119.23-.187.353-.031.055-.063.112-.1.169s-.066.111-.1.168a6.5,6.5,0,0,1-1.523,1.755c-.078.06-.157.117-.239.171s-.189.114-.288.168Zm-2.019.406a2.751,2.751,0,0,1-2.128-1.277,2.632,2.632,0,0,1,.678-3.662c.06-.042.123-.081.187-.118.09-.057.177-.107.262-.153a3.075,3.075,0,0,0,.907,2.612.562.562,0,0,0-.43.3c-.077.189.045.449.312.663a1.168,1.168,0,0,0,1.106.228.907.907,0,0,0,.128-.056,1.1,1.1,0,0,1,.383,1.261c-.009.023-.021.047-.033.071a3.263,3.263,0,0,1-.975.149,3.417,3.417,0,0,1-.392-.022Zm29.39,6.391a1.315,1.315,0,0,1-.951,1.4l-.517-.354a1.6,1.6,0,0,0,1.049-1.485q.213.21.419.435Zm-6.9-2.6a42.72,42.72,0,0,1-4.437-2.959.451.451,0,0,1-.086-.158.348.348,0,0,1,.116-.016h.024c.318.205,2.669,1.774,4.385,3.126Zm-16.92-18.6a.847.847,0,0,1,.794.051h.008c.022.079.044.158.068.238a1.13,1.13,0,0,0-.862.038c0-.116,0-.226-.006-.33Zm0-4.952a2.183,2.183,0,0,1,.086-.573,1.565,1.565,0,0,1,.154.281,4.768,4.768,0,0,1,.332,3.118,3.135,3.135,0,0,0-.073.562,5.59,5.59,0,0,0,.2,1.219,1.139,1.139,0,0,0-.7-.005c0-.163.005-.313.008-.451a6.946,6.946,0,0,0-.019-.957Zm.027,5.645a.158.158,0,0,0,.052-.026.811.811,0,0,1,.86.014.137.137,0,0,0,.053.017c.072.238.15.482.228.729a18.074,18.074,0,0,1,.691,2.585,25.215,25.215,0,0,1,.177,3.431,9.539,9.539,0,0,0,.094,1.771.871.871,0,0,0,.483.626,4.17,4.17,0,0,1-2.25.457c.047-.767.271-4.529.192-5.919a.125.125,0,0,0,0-.027,23.118,23.118,0,0,1-.577-3.662Zm-6.806,14.994a2.316,2.316,0,0,1-2.63-2.928,1.949,1.949,0,0,1,.934-.949,3.121,3.121,0,0,0,.5,1.9,3.082,3.082,0,0,0,2.079,1.391,1.521,1.521,0,0,1-.881.582Zm7.637,10.535a1.166,1.166,0,0,1-.854-.028c.008-.082.018-.168.027-.26a1.619,1.619,0,0,0,.469.072,1.2,1.2,0,0,0,.429-.076q-.035.147-.069.288Zm-.246,1.537a.889.889,0,0,1-.519,1c-.233,0-1.7.008-3.046.019h-.06a2.007,2.007,0,0,1-.785-.091l3.407-.868a.177.177,0,0,0,.043-.018c.08-.048.175-.1.314-1.266a1.683,1.683,0,0,0,.536.093,1.232,1.232,0,0,0,.27-.029,6.049,6.049,0,0,0-.161,1.135l0,.021Zm1.571-10.742a7.82,7.82,0,0,0-.078,1.646,21.2,21.2,0,0,1-.152,3.293,21.92,21.92,0,0,1-.645,2.614c-.091.316-.182.635-.268.948a.173.173,0,0,0-.068.025,1.049,1.049,0,0,1-.909.056c.024-.255.049-.538.076-.857.117-1.4.2-2.794.2-2.816.014-1.286.052-4.735.064-5.8.242-.016.755-.055,1.389-.126.056-.006.113-.009.17-.01a.79.79,0,0,1,.745.375.875.875,0,0,0-.521.648Z"
            data-name="Path 203004" id="Path_203004" />
        <path
            d="M871.352,774.126h-.064c-.793,0-1.16-.123-1.264-.424a.547.547,0,0,1-.018-.131l-.047-.015.048-.012a.5.5,0,0,1,.214-.388.328.328,0,0,1,.108-.052l3.312-.843a10.568,10.568,0,0,0,.221-1.547.31.31,0,0,1-.009-.308.3.3,0,0,1,.043-.062c.1-1.019.193-2.315.268-3.567l.066-6.6a.312.312,0,0,1,.015-.1,1.566,1.566,0,0,0-.333-.627.2.2,0,0,0-.09-.056,5.192,5.192,0,0,0-.688-.018c-.514,0-1.174.014-1.693.028a4.246,4.246,0,0,1-1.127.583l-.03.009a3.8,3.8,0,0,1-1.457.171,1.813,1.813,0,0,1-1.181.85,2.414,2.414,0,0,1-.661.091,2.679,2.679,0,0,1-2.335-1.514,2.575,2.575,0,0,1-.205-2.146,2.5,2.5,0,0,1,1.308-1.266,3.246,3.246,0,0,1,1.457-1.966,2.763,2.763,0,0,1,1.533-.51,5.173,5.173,0,0,1,1.661.387l.3.1a1.513,1.513,0,0,0,.488-.021,3.458,3.458,0,0,1,.419-.039.644.644,0,0,1,.435.132.95.95,0,0,1,.293.759l.176.1a.318.318,0,0,1,.148.172c.013,0,.027-.014.041,0a.346.346,0,0,1,.182.047.243.243,0,0,1,.058.043,1.085,1.085,0,0,0,.4.245.48.48,0,0,1,.315.288.9.9,0,0,1-.023.724c.219-.024.5-.088.585-.252a.308.308,0,0,1-.032-.138l-.007-.918a.315.315,0,0,1,.05-.173c.061-.933.269-4.565.2-5.874a18.749,18.749,0,0,1-.6-5.232,6.463,6.463,0,0,0-.018-.9l.012-3.242c.01-.272.041-1.088.549-1.088.3,0,.468.292.609.607a5.218,5.218,0,0,1,.366,3.408,2.756,2.756,0,0,0-.063.473,12.559,12.559,0,0,0,.69,2.84,18.285,18.285,0,0,1,.707,2.667,25.706,25.706,0,0,1,.183,3.505,9.146,9.146,0,0,0,.088,1.687.454.454,0,0,0,.331.326c.272-.038.54-.044.806-.057a3.631,3.631,0,0,1,2.31.714l4.266.441a9.447,9.447,0,0,1,6.4,3.325l3.344,4.148a8.541,8.541,0,0,1,3.86,2.614.313.313,0,0,1,.294.252h0a.708.708,0,0,1,.015.093c.642.715,1.2,1.441,1.7,2.082l.023.03a6.3,6.3,0,0,0,1.141,1.308c.251.068,1.715.469,2.564.773.038.013.077.028.115.043a1.763,1.763,0,0,1,.942,2.3.707.707,0,0,1-.7.567,1.679,1.679,0,0,1-.939-.429l-.725-.623.029.064.054.135c.189.477.351.888.175,1.219a.749.749,0,0,1-.547.36c-.049.012-.113.028-.179.046a2.727,2.727,0,0,1-.67.122.78.78,0,0,1-.613-.23,1.349,1.349,0,0,1-.294-.983,5.525,5.525,0,0,0-.5-1.623,6.144,6.144,0,0,0-1.988-.671,11.977,11.977,0,0,1-2.453-.749,9.387,9.387,0,0,1-1.1-.582,13.713,13.713,0,0,1-2.794-2.367,25.386,25.386,0,0,1-4.6-1.337c-3.11-1.258-5.045-2.956-5.607-4.915-.045,0-.1,0-.147,0a1.218,1.218,0,0,0-.891.23,3.28,3.28,0,0,1-2.386,1.069,3.356,3.356,0,0,1-.786-.1c-.263.062-.413.184-.445.362a7.442,7.442,0,0,0-.07,1.544,21.893,21.893,0,0,1-.155,3.37,22.3,22.3,0,0,1-.661,2.688l-.017.058c-.136.477-.278.969-.393,1.426a.314.314,0,0,1-.085.341,6.56,6.56,0,0,0-.181,1.2,1.347,1.347,0,0,1-.854,1.482.279.279,0,0,1-.109.02S872.82,774.113,871.352,774.126Zm-.982-.438a1.915,1.915,0,0,0,.918.137h.063c1.467-.012,3.076-.019,3.076-.019a1.062,1.062,0,0,0,.666-1.184,6.615,6.615,0,0,1,.2-1.345l.013-.048h0l.046-.186c.119-.476.266-.99.409-1.488l.018-.062a21.847,21.847,0,0,0,.651-2.647,21.36,21.36,0,0,0,.152-3.311,7.8,7.8,0,0,1,.074-1.607c.04-.223.2-.505.712-.614l.034-.007.034.008a3.047,3.047,0,0,0,.745.1,3,3,0,0,0,2.188-.99,1.513,1.513,0,0,1,1.109-.307,1.493,1.493,0,0,1,.266.009l.1.014.025.1c.5,1.91,2.384,3.575,5.457,4.818a25.092,25.092,0,0,0,4.6,1.33l.05.01.034.038a13.424,13.424,0,0,0,2.764,2.35c.091.056.182.11.274.162l-.082-.247c-.031.015-.063.028-.094.04l-.072.029-.065-.042a13.618,13.618,0,0,1-2.477-2.065v.008l-.261-.291-.006,0c-.366-.064-8.839-1.591-10.071-6.08l-.044-.158.162-.029a3.353,3.353,0,0,0,2.145-1.393,4.153,4.153,0,0,0,.512-2.751l-.031-.194.195.021a9.005,9.005,0,0,1,5.953,3.185l3.406,4.227a7.322,7.322,0,0,1,3.256,2l.03.031.008.043a1.515,1.515,0,0,1-1.174,1.758l-.063.014-3.356-2.3c-.094-.1-.168-.181-.252-.264q-.625-.535-1.273-1.056l-.079.276-.168-.09q-.879-.51-1.738-1.064,1.362.9,2.766,1.718l3.784,2.593.007.069a1.737,1.737,0,0,1-.838,1.677l.034.02a1.746,1.746,0,0,0,.838-1.451L896,766.9l.837.574.015.052c.265.964-.656,1.588-.945,1.756l-.069.04-.071-.035c-.229-.109-.425-.21-.612-.314l-.03.016c.221.123.448.238.677.341a11.7,11.7,0,0,0,2.41.739,6.475,6.475,0,0,1,2.123.726l.041.023.021.041a5.837,5.837,0,0,1,.554,1.776l0,.019,0,.02a1.035,1.035,0,0,0,.216.767.543.543,0,0,0,.374.132,2.347,2.347,0,0,0,.575-.1c.105-.029.173-.047.239-.061a.454.454,0,0,0,.338-.214c.106-.2-.026-.536-.194-.959l-.051-.13a3.453,3.453,0,0,0-.567-.881l.21-.213,1.528,1.313a1.378,1.378,0,0,0,.759.354.421.421,0,0,0,.394-.352,1.473,1.473,0,0,0-.772-1.942c-.032-.014-.066-.027-.1-.038h0c-.9-.324-2.557-.771-2.572-.775l-.061-.032a6.576,6.576,0,0,1-1.222-1.393c-.509-.66-1.076-1.394-1.724-2.112l-.034-.037,0-.05c-.005-.055-.011-.093-.013-.1l-.1.035-.081-.1a8.224,8.224,0,0,0-3.818-2.6l-.042-.014-.028-.035-3.37-4.181a9.142,9.142,0,0,0-6.2-3.216l-4.353-.451-.034-.025a3.3,3.3,0,0,0-2.154-.678,4.78,4.78,0,0,0-.8.058l-.025,0-.025-.005a.759.759,0,0,1-.59-.571,9.315,9.315,0,0,1-.094-1.751,25.361,25.361,0,0,0-.179-3.451,18.041,18.041,0,0,0-.693-2.611,12.741,12.741,0,0,1-.707-2.931,3.074,3.074,0,0,1,.069-.55,4.915,4.915,0,0,0-.345-3.215c-.144-.322-.239-.408-.3-.427l.1.141a1.682,1.682,0,0,1,.169.311,4.92,4.92,0,0,1,.34,3.208,3.072,3.072,0,0,0-.07.534,5.53,5.53,0,0,0,.2,1.173l.076.271-.268-.088a.97.97,0,0,0-.607-.005l-.2.062v-.205c0-.119,0-.231.006-.338l0-.116a6.851,6.851,0,0,0-.019-.94l.012-3.21a2.333,2.333,0,0,1,.092-.612l.037-.131a1.448,1.448,0,0,0-.154.734l-.012,3.2a6.521,6.521,0,0,1,.018.947c-.007.275-.008.548,0,.823l.039-.08.112.026-.042-.091a.994.994,0,0,1,.9.037h.072l.188.629-.276-.1a1,1,0,0,0-.659,0l0,.037a.95.95,0,0,1,.857.091l.1.011.016.088c.073.237.149.482.228.729a18.163,18.163,0,0,1,.7,2.6,25.393,25.393,0,0,1,.18,3.461,9.255,9.255,0,0,0,.093,1.746.719.719,0,0,0,.4.513l.2.1.041-.011a5.42,5.42,0,0,1,.559-.056l.126,0c.047,0,.1,0,.145,0a3.24,3.24,0,0,1,2.165.689l4.374.464.02.111a4.213,4.213,0,0,1-.492,2.811,3.387,3.387,0,0,1-2.286,1.417c-.092,0-.229-.015-.407-.015a1.444,1.444,0,0,0-1.133.339,3.012,3.012,0,0,1-2.012.955v.007l-.151,0a2.734,2.734,0,0,1-.372-.028,2.9,2.9,0,0,1-.43-.086l-.18-.049-.03-.054a.838.838,0,0,0-.23-.268,1.029,1.029,0,0,0-.669-.207,1.754,1.754,0,0,0-.195.012c-.569.062-1.052.1-1.356.123l-.16.012v-.613l.034-.041a1.956,1.956,0,0,0-.25-.7l-.132-.225h.4a3.3,3.3,0,0,0,2.034-.543,1.076,1.076,0,0,0,.366-.794,1.241,1.241,0,0,0-.34-.922,3.311,3.311,0,0,0-2-.753l-.145,0v-.888l.148-.01c.128,0,.255,0,.383-.01a2.373,2.373,0,0,1-.357-.014l-.147-.012.008-.146c.046-.743.271-4.52.193-5.9a23.723,23.723,0,0,1-.563-3.5l-.029.007a18.6,18.6,0,0,0,.561,3.471c.079,1.375-.138,5.129-.2,5.985l0,.055-.038.04,0,.93.055.057-.011.087c-.045.225-.25.5-.974.556l-.444.03.126-.238c.046-.086.073-.139.1-.189a.609.609,0,0,0,.036-.527.188.188,0,0,0-.123-.11,1.382,1.382,0,0,1-.524-.316.174.174,0,0,0-.117.035l-.348.309.1-.455c.02-.087.005-.1-.009-.1l-.356-.205.021-.106a.641.641,0,0,0-.181-.584.335.335,0,0,0-.22-.059,2.848,2.848,0,0,0-.385.036,1.819,1.819,0,0,1-.608.016l-.337-.11a4.888,4.888,0,0,0-1.562-.368,2.474,2.474,0,0,0-1.362.46,2.959,2.959,0,0,0-1.349,1.86l-.017.078-.075.029a2.186,2.186,0,0,0-1.211,1.128,2.262,2.262,0,0,0,.185,1.879,2.389,2.389,0,0,0,2.082,1.367,2.157,2.157,0,0,0,.583-.081,1.517,1.517,0,0,0,1.006-.73l-.054.073a1.656,1.656,0,0,1-.9.621l0,.007-.076.017a2.465,2.465,0,0,1-2.861-2,2.494,2.494,0,0,1,.061-1.12,2.11,2.11,0,0,1,1.014-1.043l.231-.11-.016.255a3,3,0,0,0,2.453,3.134l.216.037.01-.021.1.01a3.494,3.494,0,0,0,1.454-.156l.028-.008a3.975,3.975,0,0,0,1.061-.559l.038-.029.047,0,.27-.007v-.283c-.093.083-.188.164-.285.242s-.166.124-.251.18c-.068.045-.154.094-.238.141l-.059.035c-.085.047-.172.09-.261.13l-.276.123.068-.294a.95.95,0,0,0,.023-.116,1.127,1.127,0,0,0,0-.328,1.437,1.437,0,0,0-.6-.917,1.383,1.383,0,0,1-.224.1.967.967,0,0,1-.793-.117.771.771,0,0,1-.383-.433l-.02-.054.022-.054c.112-.274.776-.219.8-.216a.317.317,0,0,0-.117-.088l-.037-.02a2.754,2.754,0,0,1-1.112-2.628,1.317,1.317,0,0,1,.013-.17l.012-.089.087-.061a2.081,2.081,0,0,1,.727-.135,4.964,4.964,0,0,1,1.549.37l.3.1a.56.56,0,0,0,.216.03,3.182,3.182,0,0,0,.424-.038,3.3,3.3,0,0,1,.369-.036.417.417,0,0,1,.156.018l.041.011.029.031a.648.648,0,0,1,.141.658l.394.245-.077.234c-.062.174-.084.259-.048.28.086.006.171-.078.257-.159l.194-.173.1.086a1.252,1.252,0,0,0,.463.255l.065.019.028.062a.55.55,0,0,1-.043.534c-.047.1-.111.218-.18.343-.035.062-.069.121-.106.178-.022.035-.042.069-.061.1l-.035.061a6.666,6.666,0,0,1-1.225,1.509h.045a7.328,7.328,0,0,0,1.313-1.681l.041-.072.081,0c.123-.007.252-.015.386-.025.412-.031.921-.156,1-.578l.024-.128.13.006a3.252,3.252,0,0,1,1.91.721,1.2,1.2,0,0,1,.346.915,1.043,1.043,0,0,1-.371.786,3.972,3.972,0,0,1-2.434.508l-.047-.006-.035-.032a.45.45,0,0,0-.2-.1,5.748,5.748,0,0,0-.758-.028c-.379,0-.84.008-1.263.017l-.028.026c.431-.01.9-.019,1.285-.019a5.946,5.946,0,0,1,.75.025.508.508,0,0,1,.24.132,1.861,1.861,0,0,1,.43.825l.014.056-.03.052,0,.516-.067,6.1c-.076,1.287-.176,2.611-.274,3.643l-.007.071-.06.04.048.048,0,.088a11.047,11.047,0,0,1-.253,1.739l-.02.09-3.489.889a.245.245,0,0,0-.065.063l3.534-.9a2.967,2.967,0,0,0,.245-1.157l.022-.184.175.06a1.336,1.336,0,0,0,.726.06l.233-.052-.055.234a5.839,5.839,0,0,0-.157,1.1l.008.046v.006a1.041,1.041,0,0,1-.618,1.106l-.059.013c-.233,0-1.7.008-3.045.018h-.061a2.225,2.225,0,0,1-.831-.1Zm4.024-2.075c-.13,1.012-.225,1.118-.364,1.2a.369.369,0,0,1-.083.035l-2.605.663h.006c1.293-.01,2.7-.018,3.013-.019a.739.739,0,0,0,.4-.818l-.011-.052.008-.016a6.331,6.331,0,0,1,.117-.947c-.026,0-.051,0-.077,0A1.817,1.817,0,0,1,874.394,771.613Zm21.062-2.821c.116.062.238.124.371.188.285-.179.9-.654.753-1.323l-.3-.209A2.044,2.044,0,0,1,895.456,768.792Zm-3.5-2.915.261.294a13.264,13.264,0,0,0,2.612,2.255,1.44,1.44,0,0,0,.841-1.4l-3.658-2.509a60.8,60.8,0,0,1-5.586-3.693l-.029-.028a.616.616,0,0,1-.135-.658.549.549,0,0,1,.548-.276,1.142,1.142,0,0,1,.118.007.306.306,0,0,1,.134.049,54.8,54.8,0,0,1,5.8,4.342c.1.094.176.18.247.26l3.221,2.2a1.216,1.216,0,0,0,.887-1.352,7,7,0,0,0-3.074-1.882.313.313,0,0,1-.167-.107l-3.4-4.225a8.709,8.709,0,0,0-5.562-3.054,4.47,4.47,0,0,1-.582,2.764,3.659,3.659,0,0,1-2.182,1.492c1.282,4.023,8.8,5.529,9.705,5.7ZM886.8,760.2h.023l.1.024c.334.214,2.392,1.588,4.057,2.869-1.31-1.033-2.676-2.013-4.074-2.921a.477.477,0,0,0-.089-.007.331.331,0,0,0-.27.092l.11-.034A.47.47,0,0,1,886.8,760.2Zm-9.4.772.059.015a2.734,2.734,0,0,0,.391.078c.086.012.17.019.255.023l.076,0a2.722,2.722,0,0,0,1.955-.875,1.736,1.736,0,0,1,1.361-.423c.188.011.322.011.382.017a3.077,3.077,0,0,0,2.038-1.281,3.9,3.9,0,0,0,.468-2.486l-4.13-.428a.32.32,0,0,1-.182-.084,2.936,2.936,0,0,0-1.96-.616l-.142,0c-.045,0-.088,0-.13,0-.145.007-.3.021-.452.043a2,2,0,0,1-1.374.592,10.369,10.369,0,0,1-1.185.1v.312a3.629,3.629,0,0,1,2.046.827,1.544,1.544,0,0,1,.435,1.15,1.376,1.376,0,0,1-.485,1.024,3.675,3.675,0,0,1-2.1.609,2.49,2.49,0,0,1,.174.547.312.312,0,0,1-.037.214v.187c.3-.022.711-.058,1.183-.111a2.4,2.4,0,0,1,.269-.014,1.362,1.362,0,0,1,.81.269A1.129,1.129,0,0,1,877.4,760.974Zm9.223-.372.453.333c-.129-.1-.257-.193-.384-.289a.618.618,0,0,1-.138-.233l-.034-.105A.431.431,0,0,0,886.624,760.6Zm-20.953-3.647a1.813,1.813,0,0,0-.643.752,2.171,2.171,0,0,0,2.413,2.727l.049-.012a1.363,1.363,0,0,0,.634-.343,3.242,3.242,0,0,1-1.924-1.4A3.3,3.3,0,0,1,865.671,756.955Zm4.1.759a.308.308,0,0,1,.176.055,1.746,1.746,0,0,1,.73,1.116,1.461,1.461,0,0,1,.015.262c.092-.049.19-.1.267-.155s.155-.106.23-.164a6.325,6.325,0,0,0,1.486-1.713l.033-.056c.022-.039.044-.078.069-.117s.064-.105.093-.156c.069-.125.131-.243.187-.352a.277.277,0,0,0,.046-.2,1.553,1.553,0,0,1-.393-.207.662.662,0,0,1-.433.243.349.349,0,0,1-.174-.047c-.257-.15-.159-.43-.086-.636l-.177-.1a.313.313,0,0,1-.138-.382.346.346,0,0,0-.049-.317.081.081,0,0,0-.022,0c-.114.005-.226.017-.337.033a3.385,3.385,0,0,1-.461.042,1.07,1.07,0,0,1-.318-.044l-.315-.106a4.73,4.73,0,0,0-1.455-.352,1.76,1.76,0,0,0-.525.087c0,.031-.005.059-.005.09a2.466,2.466,0,0,0,.972,2.353l.02.009c.034.018.068.036.1.051a.312.312,0,0,1,0,.572.283.283,0,0,1-.154.029,1.434,1.434,0,0,0-.447.027.487.487,0,0,0,.2.17.682.682,0,0,0,.558.091.6.6,0,0,0,.126-.064A.313.313,0,0,1,869.767,757.714Zm4.487,1.219a3.619,3.619,0,0,0,2.183-.459.754.754,0,0,0,.244-.552.909.909,0,0,0-.249-.685,2.953,2.953,0,0,0-1.6-.634c-.107.3-.419.631-1.239.692-.107.008-.21.015-.31.02a7.664,7.664,0,0,1-1.1,1.453c.328-.006.661-.011.944-.011a5.707,5.707,0,0,1,.812.032A.732.732,0,0,1,874.254,758.933Zm2.876-4.123-.094.048a4.322,4.322,0,0,1-1.286.429c.074-.009.148-.018.221-.029A1.91,1.91,0,0,0,877.13,754.81Zm-2.255.232a4.1,4.1,0,0,0,1.789-.338,1.019,1.019,0,0,1-.328-.577,9.588,9.588,0,0,1-.1-1.8,25.032,25.032,0,0,0-.177-3.407,17.789,17.789,0,0,0-.683-2.553q-.108-.339-.208-.662l0,0a.67.67,0,0,0-.68-.035,22.851,22.851,0,0,0,.567,3.538l.005.022v.048C875.133,750.578,874.936,754.036,874.875,755.042Zm-.74-9.916q.008.218.018.435l.128-.171-.12.056,0-.33Zm.32-.138V745a1.323,1.323,0,0,1,.224-.039A.752.752,0,0,0,874.455,744.988Zm0-5.052-.013,3.192a6.851,6.851,0,0,1,.02.964l0,.113c0,.046,0,.093,0,.141a1.4,1.4,0,0,1,.342-.005,5.768,5.768,0,0,1-.145-1.012,3.516,3.516,0,0,1,.077-.6,4.627,4.627,0,0,0-.27-2.909C874.453,739.857,874.452,739.9,874.451,739.936Zm27.08,33.618a.5.5,0,0,1-.336-.131,1.025,1.025,0,0,1-.2-.7l.018-.2.183.068a1.388,1.388,0,0,0,.451.083.968.968,0,0,0,.27-.039.79.79,0,0,0,.375-.252l.16-.194.094.233c.143.351.215.6.128.765l-.013.022a.455.455,0,0,1-.321.174c-.044.01-.109.027-.176.045l-.039.01a2.281,2.281,0,0,1-.555.1Zm-.229-.612a.708.708,0,0,0,.118.285.332.332,0,0,0,.128.026,2.082,2.082,0,0,0,.494-.094l.046-.013c.072-.018.141-.036.208-.05a.186.186,0,0,0,.115-.048.688.688,0,0,0-.063-.295,1.11,1.11,0,0,1-.343.178,1.224,1.224,0,0,1-.362.052A1.619,1.619,0,0,1,901.3,772.942Zm3.069-.288-.026,0a1.38,1.38,0,0,1-.7-.344l-2.679-2.3c-.172-.1-1.051-.58-2.174-1.233l-1.6-1.1.247-.109a1.412,1.412,0,0,0,.839-1.155l.035-.345.228.261c.579.664,1.085,1.321,1.492,1.848.629.813,1.044,1.351,1.289,1.425h0c.283.063,1.826.505,2.574.772a1.475,1.475,0,0,1,.881,1.89l-.023.058A.4.4,0,0,1,904.371,772.654Zm-3.06-2.75,2.535,2.179a1.1,1.1,0,0,0,.536.271c.022,0,.056-.021.09-.135l.023-.061a1.175,1.175,0,0,0-.7-1.505C903.013,770.375,901.625,769.987,901.311,769.9Zm-3.523-2.186,1.167.8c.775.451,1.437.823,1.821,1.037a15.007,15.007,0,0,1-.98-1.2c-.357-.462-.79-1.024-1.281-1.6A1.721,1.721,0,0,1,897.788,767.718Zm3.832,4.924a1.256,1.256,0,0,1-.6-.152l-.063-.033-.014-.07a6.708,6.708,0,0,0-.319-1.117,1.267,1.267,0,0,0-.241-.476,6.4,6.4,0,0,0-2.139-.743l0-.039-.007.038a12.331,12.331,0,0,1-2.092-.609l-.28-.108.256-.159a1.723,1.723,0,0,0,.809-1.345l.007-.107.17-.046.087.031,3.64,2.5a7.112,7.112,0,0,1,1.556,1.83l.04.068-.033.072a.838.838,0,0,1-.488.437A1.327,1.327,0,0,1,901.62,772.642Zm-.4-.385a.972.972,0,0,0,.608.063.517.517,0,0,0,.259-.209,6.8,6.8,0,0,0-1.435-1.67l-3.452-2.365a2.029,2.029,0,0,1-.688,1.184,12.033,12.033,0,0,0,1.781.495h0a6.718,6.718,0,0,1,2.258.791l.039.033a1.529,1.529,0,0,1,.315.6A6.943,6.943,0,0,1,901.223,772.257Zm-26.456-.932a1.315,1.315,0,0,1-.522-.108l-.1-.044.056-.55.175.053a1.275,1.275,0,0,0,.8,0l.264-.1-.163.616-.07.056A1.322,1.322,0,0,1,874.767,771.325Zm-.01-.613a1.172,1.172,0,0,1-.45-.089l-.1-.042.01-.11c.024-.255.049-.537.076-.857.116-1.386.2-2.76.2-2.806.013-1.285.052-4.734.064-5.8v-.139l.138-.009c.246-.017.753-.055,1.383-.126.06-.007.122-.009.184-.011a.954.954,0,0,1,.875.447l.091.148-.161.069a.722.722,0,0,0-.431.537l-.009.042a7.712,7.712,0,0,0-.069,1.571,21.257,21.257,0,0,1-.154,3.32,21.889,21.889,0,0,1-.651,2.641c-.089.313-.18.63-.266.943l-.027.1-.1.012A1.225,1.225,0,0,1,874.757,770.712Zm-.233-.331a.9.9,0,0,0,.676-.083l.017-.011c.08-.289.164-.582.247-.873a21.774,21.774,0,0,0,.642-2.6,20.97,20.97,0,0,0,.15-3.261,8.009,8.009,0,0,1,.079-1.673l.013-.051a1.025,1.025,0,0,1,.431-.626.634.634,0,0,0-.5-.179,1.6,1.6,0,0,0-.165.01c-.535.06-.983.1-1.259.117-.014,1.2-.049,4.427-.062,5.662,0,.033-.086,1.452-.2,2.827C874.566,769.911,874.544,770.156,874.524,770.381Zm22.619-2.733-.815-.558.273-.1a1.457,1.457,0,0,0,.951-1.345l0-.352.251.246c.144.142.286.288.424.441l.04.043v.054a1.462,1.462,0,0,1-1.061,1.553Zm-.188-.492.239.164a1.159,1.159,0,0,0,.781-1.175c-.052-.058-.1-.114-.159-.169A1.763,1.763,0,0,1,896.955,767.156Zm-27.828-7.294c-.12,0-.241-.007-.361-.018h-.046a2.917,2.917,0,0,1-2.244-1.347,2.784,2.784,0,0,1,.72-3.866c.064-.044.13-.085.2-.124.086-.055.176-.107.264-.154l.259-.14-.039.291a2.941,2.941,0,0,0,.863,2.485l.225.219-.311.037a.411.411,0,0,0-.315.221c-.045.109.065.31.273.476a1.016,1.016,0,0,0,.967.2.868.868,0,0,0,.1-.045l.083-.044.075.055a1.258,1.258,0,0,1,.436,1.433c-.013.032-.026.06-.04.088l-.029.057-.061.019A3.408,3.408,0,0,1,869.127,759.862Zm-.437-.327.061.006a3.248,3.248,0,0,0,1.245-.1v0a.953.953,0,0,0-.265-1.03l-.056.022a1.318,1.318,0,0,1-1.254-.255c-.321-.259-.458-.579-.353-.834a.744.744,0,0,1,.3-.311,3.247,3.247,0,0,1-.809-2.269l-.007,0c-.068.038-.126.075-.183.114a2.485,2.485,0,0,0-.64,3.454,2.616,2.616,0,0,0,1.958,1.208Z"
            data-name="Path 203005" id="Path_203005" />
    </g>
</svg>
