<svg height="23.586" viewBox="0 0 43.807 23.586" width="43.807" xmlns="http://www.w3.org/2000/svg">
    <g id="フィットネス_2" transform="translate(-255.225 -101.786)">
        <path
            d="M280.59,127.552a11.153,11.153,0,0,1-.473-2.678h-.2l.2,0v0h-.2l.2,0a.434.434,0,0,0-.146-.333l-.173.2.176-.194,0,0-.173.2.176-.194,0,0a1.4,1.4,0,0,1-.224-.292,1.211,1.211,0,0,1-.117-1.013l0-.012a1.317,1.317,0,0,1,.2-.386,4.914,4.914,0,0,1,.839-.855,17.487,17.487,0,0,1,1.749-1.243c.285-.182.551-.345.775-.484s.4-.252.535-.345a3.445,3.445,0,0,0,.9-1.028,4.607,4.607,0,0,0,.306-.6.431.431,0,1,0-.8-.32h0a3.886,3.886,0,0,1-.26.5,2.586,2.586,0,0,1-.644.744c-.068.049-.188.127-.338.221-.529.331-1.433.872-2.256,1.486a9.087,9.087,0,0,0-1.13.974,2.79,2.79,0,0,0-.7,1.1l.415.118-.411-.131a2.174,2.174,0,0,0,.593,2.215l.285-.324-.431-.009v.014a11.9,11.9,0,0,0,.5,2.907.431.431,0,0,0,.832-.229Z"
            data-name="Path 182" id="Path_182" transform="translate(-16.731 -11.334)" />
        <path
            d="M290.45,106.564v0h0v0a3.159,3.159,0,0,1-.943-.273,2.41,2.41,0,0,1-.677-.465,1.918,1.918,0,0,1-.48-.79l-.411.131.4.155a.463.463,0,0,1,.108-.154,2.863,2.863,0,0,1,.352-.273,1.5,1.5,0,0,0,.214-.18.7.7,0,0,0,.113-.156.562.562,0,0,0,.065-.259,1.252,1.252,0,0,0-.033-.271,2.858,2.858,0,0,0-.149-.456l-.4.17.03.43a3.239,3.239,0,0,0,.538-.094,2.535,2.535,0,0,0,1.009-.495,4.883,4.883,0,0,1,.852-.6,2.573,2.573,0,0,1,1.2-.339,1.834,1.834,0,0,1,.642.115,1.673,1.673,0,0,1,.475.307,3.62,3.62,0,0,1,.78.981,2.621,2.621,0,0,1,.348,1.226,1.647,1.647,0,0,1-.129.652,2.065,2.065,0,0,1-.829.913,5.763,5.763,0,0,1-1.993.724,3.228,3.228,0,0,0-.928.319,1.548,1.548,0,0,0-.486.408,1.135,1.135,0,0,0-.234.694,1.279,1.279,0,0,0,.01.158l.013.064a6.841,6.841,0,0,1,.25,1.866,10.167,10.167,0,0,1-.579,3.2,5.455,5.455,0,0,0-.206.938,8.04,8.04,0,0,0-.077,1.094,4.3,4.3,0,0,0,.149,1.224,1.473,1.473,0,0,0,.255.505.909.909,0,0,0,.231.2.8.8,0,0,0,.315.11.425.425,0,0,0,.175-.014,6.135,6.135,0,0,1,1.72-.284,3,3,0,0,1,1.111.192,2.759,2.759,0,0,1,1.108.827,9.142,9.142,0,0,1,.816,1.217.431.431,0,0,0,.341.208,6.885,6.885,0,0,1,1.647.369c.891.3,1.828.72,2.634,1.075.4.177.774.337,1.1.457.163.06.314.11.457.146a1.716,1.716,0,0,0,.42.062,2.755,2.755,0,0,0,.852-.159,11.828,11.828,0,0,1,3.353-.9c.136-.012.285-.018.447-.017a25.56,25.56,0,0,1,4.1.531c.723.135,1.416.269,2.012.372a9.788,9.788,0,0,0,1.462.175c.058,0,.113,0,.168-.006a3,3,0,0,0,1.518-.592c.172-.122.313-.231.415-.3a.693.693,0,0,1,.115-.061l.024-.008h0l0-.016v.016h0l0-.016v-.112l-.041.123a.138.138,0,0,0,.041.005v-.128l-.041.123a.425.425,0,0,1,.088.054,2.7,2.7,0,0,1,.356.338c.2.224.428.506.629.762.1.129.2.251.285.359s.167.2.246.282a1.607,1.607,0,0,0,.563.337,7.182,7.182,0,0,0,.894.253c.135.032.257.062.347.089.045.013.082.026.106.036l.025.011,0,0,.035-.061-.039.059,0,0,.035-.061-.039.059.01.008h0l.06-.054-.072.032.013.021.06-.054-.072.032.178-.08h-.193a.2.2,0,0,0,.016.08l.178-.08h.024l-.172-.136a.226.226,0,0,0-.045.136h.218l-.172-.136.1.077-.08-.1-.018.019.1.077-.08-.1.024.029-.022-.031,0,0,.024.029-.022-.031-.033.016a1.608,1.608,0,0,1-.543.066,9.573,9.573,0,0,1-1.95-.312c-.758-.177-1.562-.394-2.275-.541a3.029,3.029,0,0,0-.423-.049c-.16-.009-.343-.014-.547-.014-1.351,0-3.656.183-5.641.364s-3.632.363-3.634.363a.412.412,0,0,0-.089.02h0a6.781,6.781,0,0,1-1.9.281,4.994,4.994,0,0,1-1.033-.1.429.429,0,0,0-.121-.008c-1.619.12-3.006.171-4.193.171a18.917,18.917,0,0,1-5.69-.647,5.727,5.727,0,0,1-1.128-.489c-.262-.15-.425-.278-.626-.388a8.633,8.633,0,0,1-1.049-.641,2.154,2.154,0,0,1-.353-.317.5.5,0,0,1-.067-.1l-.005-.014-.065.017h.066v-.017l-.065.017h-.062l.123.037.005-.037h-.129l.123.037a.431.431,0,0,0-.137-.455,5.153,5.153,0,0,1-1.219-1.511,18.871,18.871,0,0,1-.816-1.8.431.431,0,0,0-.795.336,19.428,19.428,0,0,0,.856,1.882,6.019,6.019,0,0,0,1.42,1.755l.277-.331-.413-.124a.731.731,0,0,0-.031.212.858.858,0,0,0,.087.366,1.61,1.61,0,0,0,.354.463,4.811,4.811,0,0,0,.731.55c.262.166.53.315.758.436.1.05.3.2.6.373a7.7,7.7,0,0,0,2.29.828,23.732,23.732,0,0,0,4.958.424c1.212,0,2.619-.052,4.257-.173l-.032-.43-.089.422a5.861,5.861,0,0,0,1.212.121,7.575,7.575,0,0,0,2.176-.325l-.136-.409.047.429.287-.031c.647-.069,2.3-.242,4.084-.4s3.688-.294,4.809-.293c.192,0,.359,0,.5.012a2.241,2.241,0,0,1,.3.033c.676.14,1.477.354,2.253.536a10.274,10.274,0,0,0,2.147.335,2.242,2.242,0,0,0,.915-.15.843.843,0,0,0,.318-.239.645.645,0,0,0,.14-.4.691.691,0,0,0-.123-.386.887.887,0,0,0-.244-.239,1.1,1.1,0,0,0-.242-.116c-.138-.048-.286-.085-.445-.124-.237-.057-.5-.116-.709-.185a1.986,1.986,0,0,1-.273-.107.535.535,0,0,1-.133-.085c-.064-.064-.2-.229-.352-.423-.232-.294-.517-.665-.8-.975a3.453,3.453,0,0,0-.44-.413,1.361,1.361,0,0,0-.248-.153.785.785,0,0,0-.329-.078.925.925,0,0,0-.337.066,2.028,2.028,0,0,0-.436.254,2.576,2.576,0,0,1-1.372.639c-.025,0-.058,0-.1,0a9.249,9.249,0,0,1-1.316-.162c-.873-.149-1.991-.377-3.11-.568a20.189,20.189,0,0,0-3.152-.347c-.181,0-.355.006-.52.02a9.821,9.821,0,0,0-2.7.624c-.33.122-.61.235-.846.312a1.938,1.938,0,0,1-.585.116,1.288,1.288,0,0,1-.315-.066,11.552,11.552,0,0,1-1.117-.441c-.675-.294-1.484-.665-2.312-.978a9,9,0,0,0-2.456-.623l-.029.43.37-.222a7.344,7.344,0,0,0-1.3-1.747,3.408,3.408,0,0,0-1.05-.656,3.863,3.863,0,0,0-1.426-.252,6.984,6.984,0,0,0-1.964.319l.122.414.053-.428-.008.064.034-.055-.026-.008-.008.064.034-.055-.012.02.014-.019h0l-.012.02.014-.019-.015-.016a1.042,1.042,0,0,1-.145-.41,4.216,4.216,0,0,1-.062-.77,7.227,7.227,0,0,1,.069-.975,4.646,4.646,0,0,1,.17-.785,11,11,0,0,0,.623-3.471,7.705,7.705,0,0,0-.282-2.1l-.415.117.428-.054,0-.05a.267.267,0,0,1,.059-.174.929.929,0,0,1,.385-.255,2.849,2.849,0,0,1,.509-.146,5.64,5.64,0,0,0,2.8-1.234,2.685,2.685,0,0,0,.651-.91,2.513,2.513,0,0,0,.2-.99,3.721,3.721,0,0,0-.744-2.1,4.336,4.336,0,0,0-.682-.756,2.5,2.5,0,0,0-.741-.464,2.7,2.7,0,0,0-.94-.168,3.429,3.429,0,0,0-1.611.441,5.734,5.734,0,0,0-1.005.7,1.7,1.7,0,0,1-.664.315,2.654,2.654,0,0,1-.281.057l-.079.01-.019,0h0l.011.142-.01-.142h0l.011.142-.01-.142a.431.431,0,0,0-.367.6l.13-.056-.13.055h0l.13-.056-.13.055s.033.079.062.17c.015.045.028.094.037.135a.434.434,0,0,1,.012.081h.284l-.239-.161a.292.292,0,0,0-.046.161h.284l-.239-.161.1.068-.091-.083-.011.014.1.068-.091-.083-.006.006c-.017.016-.066.053-.131.1a3.365,3.365,0,0,0-.361.282,1.357,1.357,0,0,0-.353.5.433.433,0,0,0-.008.286,2.789,2.789,0,0,0,.721,1.167,3.51,3.51,0,0,0,1.393.8,3.666,3.666,0,0,0,.737.157.431.431,0,1,0,.071-.859Z"
            data-name="Path 183" id="Path_183" transform="translate(-21.565)" />
        <path
            d="M317.762,110.59l-.024-.071.024.072h0l-.024-.071.024.072a4.241,4.241,0,0,1,1.193-.192,1.707,1.707,0,0,1,.973.246.967.967,0,0,1,.309.354,1.653,1.653,0,0,1,.166.661v0c0,.026,0,.052,0,.078a2.26,2.26,0,0,1-.173.791c-.164.432-.429.9-.665,1.384a3.655,3.655,0,0,0-.451,1.549,1.812,1.812,0,0,0,.119.654,1.945,1.945,0,0,0,.386.612l.319-.291-.4-.17.38.163-.273-.311a.414.414,0,0,0-.108.148l.38.163-.273-.311.264.3-.1-.389a.4.4,0,0,0-.164.087l.264.3-.1-.389.088.343v-.354a.341.341,0,0,0-.088.011l.088.343v-.1l.039-.248-.039,0v.251l.039-.248-.012.075.019-.074h-.007l-.012.075.019-.074a.662.662,0,0,1-.1-.041,2.383,2.383,0,0,1-.8-.694,2.472,2.472,0,0,1-.486-1.5,3.812,3.812,0,0,1,.306-1.428l-.4-.161.37.222a1.3,1.3,0,0,0,.2-.672,1.146,1.146,0,0,0-.14-.546,1.377,1.377,0,0,0-.54-.537,1.446,1.446,0,0,0-.7-.191.431.431,0,1,0,0,.862.627.627,0,0,1,.367.139.471.471,0,0,1,.117.137.28.28,0,0,1,.036.136.446.446,0,0,1-.075.229l-.03.061a4.675,4.675,0,0,0-.369,1.75,3.337,3.337,0,0,0,.9,2.313,3.256,3.256,0,0,0,.687.563,2.054,2.054,0,0,0,.3.151,1.129,1.129,0,0,0,.14.047.671.671,0,0,0,.171.024.5.5,0,0,0,.183-.034.462.462,0,0,0,.134-.081.449.449,0,0,0,.117-.161.432.432,0,0,0-.078-.461,1.078,1.078,0,0,1-.218-.341.947.947,0,0,1-.061-.344,2.066,2.066,0,0,1,.171-.739c.164-.418.431-.885.668-1.38a3.805,3.805,0,0,0,.45-1.606c0-.043,0-.085,0-.129v0a2.506,2.506,0,0,0-.262-1,1.86,1.86,0,0,0-.937-.86,2.825,2.825,0,0,0-1.109-.2,5.043,5.043,0,0,0-1.472.238.431.431,0,0,0,.279.816Z"
            data-name="Path 184" id="Path_184" transform="translate(-44.152 -5.522)" />
        <path
            d="M268.453,127.248h0c-.008.1-.189,3.047-4.228,7.262a.44.44,0,0,0-.09.14,34.532,34.532,0,0,1-2.043,4.2,17.975,17.975,0,0,1-1.377,2.078A5.157,5.157,0,0,1,259.4,142.2l.215.374-.041-.429c-.121.012-.24.017-.357.017a6.4,6.4,0,0,1-1.038-.1,6.394,6.394,0,0,0-.975-.114,1.943,1.943,0,0,0-.319.025,2.293,2.293,0,0,0-.4.1c-.161.059-.263.119-.306.136l-.051.017a.468.468,0,0,1-.1.008,1.656,1.656,0,0,1-.179-.012h0l-.045.241.151-.187a.246.246,0,0,0-.105-.055l-.045.241.151-.187-.225.279.321-.157a.36.36,0,0,0-.1-.121l-.225.279.321-.157-.327.16h.365a.37.37,0,0,0-.037-.16l-.327.16h.055l.281.134a.308.308,0,0,0,.028-.134h-.31l.281.134-.161-.077.15.1.011-.019-.161-.077.15.1-.035-.022.033.025,0,0-.035-.022.033.025a1.293,1.293,0,0,1,.2-.174c.168-.126.4-.274.614-.4l.294-.178c.088-.053.159-.1.217-.135l-.093-.14.036.166a.172.172,0,0,0,.057-.026l-.093-.14.036.166,0-.015,0,.015h0l0-.015,0,.015h.026a1.314,1.314,0,0,1,.227.029c.151.029.341.077.538.121a2.985,2.985,0,0,0,.618.084,1.2,1.2,0,0,0,.275-.03.816.816,0,0,0,.293-.131.432.432,0,0,0,.146-.185c.137-.334.383-.87.7-1.505.474-.953,1.107-2.133,1.774-3.229a16.222,16.222,0,0,1,1.963-2.71.433.433,0,0,0,.1-.168c.128-.394.3-.975.526-1.641a21.931,21.931,0,0,1,1.278-3.147,6.738,6.738,0,0,1,.8-1.233,1.907,1.907,0,0,1,.785-.6.431.431,0,1,0-.273-.818,2.342,2.342,0,0,0-.815.5,5.9,5.9,0,0,0-1.124,1.5,19.177,19.177,0,0,0-1.247,2.874c-.335.948-.592,1.808-.754,2.306l.41.133-.308-.3a12.933,12.933,0,0,0-1.389,1.777A38.437,38.437,0,0,0,259.9,138.8c-.577,1.09-1.032,2.049-1.258,2.6l.4.164-.254-.349.057.078-.038-.089-.018.011.057.078-.038-.089v0h0v0a.321.321,0,0,1-.079.007,3.133,3.133,0,0,1-.615-.105c-.124-.029-.251-.06-.378-.084a2.111,2.111,0,0,0-.39-.044.971.971,0,0,0-.209.021.692.692,0,0,0-.238.1c-.049.033-.178.11-.329.2-.229.139-.519.315-.765.492a2.852,2.852,0,0,0-.335.274,1.04,1.04,0,0,0-.141.17.572.572,0,0,0-.1.315.5.5,0,0,0,.066.249.525.525,0,0,0,.249.218.746.746,0,0,0,.217.055,2.49,2.49,0,0,0,.275.017,1.171,1.171,0,0,0,.544-.12c.076-.037.12-.06.18-.083a1.351,1.351,0,0,1,.27-.069,1.1,1.1,0,0,1,.177-.013,5.826,5.826,0,0,1,.838.1,7.222,7.222,0,0,0,1.175.114c.142,0,.289-.006.44-.021a.445.445,0,0,0,.174-.056,5.934,5.934,0,0,0,1.565-1.481,22.419,22.419,0,0,0,2.1-3.367c.619-1.186,1.13-2.33,1.447-3.128l-.4-.159.311.3c4.311-4.489,4.468-7.736,4.468-7.83a.431.431,0,1,0-.862-.03Z"
            data-name="Path 185" id="Path_185" transform="translate(0 -17.717)" />
    </g>
</svg>
