<svg height="33.143" viewBox="0 0 29.551 33.143" width="29.551" xmlns="http://www.w3.org/2000/svg">
    <g id="フィットネス_6" transform="translate(-638.196 -789.184)">
        <path d="M664.382,845.557v-.471a7.072,7.072,0,0,0-4.412,1.542l.293.369-.262-.392c-1.108.743-2.953,2.025-4.711,3.464a30.432,30.432,0,0,0-2.474,2.233,10.7,10.7,0,0,0-1.749,2.228,4.847,4.847,0,0,0-.689,2.283,2.483,2.483,0,0,0,.308,1.233,2.561,2.561,0,0,0,1.023.981,2.686,2.686,0,0,0,.62.248.491.491,0,0,0,.107.012h11.946a7.1,7.1,0,0,0,0-14.2v.943a6.158,6.158,0,0,1,0,12.316H652.436v.471l.107-.459-.039.168.042-.167h0l-.039.168.042-.167a1.961,1.961,0,0,1-.651-.331,1.5,1.5,0,0,1-.4-.462,1.537,1.537,0,0,1-.177-.752,3.94,3.94,0,0,1,.574-1.832,9.854,9.854,0,0,1,1.595-2.019,35.2,35.2,0,0,1,3.694-3.186c1.291-.986,2.523-1.837,3.342-2.386l.031-.022a6.128,6.128,0,0,1,3.825-1.338Z" data-name="Path 94"
            id="Path_94"
            transform="translate(-8.352 -38.331)" />
        <path d="M654.656,892.574h2.685a.471.471,0,1,0,0-.943h-2.685a.471.471,0,0,0,0,.943" data-name="Path 95"
            id="Path_95"
            transform="translate(-10.964 -70.247)" />
        <path d="M704.521,892.574h2.685a.471.471,0,0,0,0-.943h-2.685a.471.471,0,1,0,0,.943" data-name="Path 96"
            id="Path_96"
            transform="translate(-45.156 -70.247)" />
        <path d="M702.57,831.875l1.653-6.678h4.768a.471.471,0,1,0,0-.943h-5.136a.472.472,0,0,0-.458.358l-1.742,7.036a.471.471,0,1,0,.915.227Z" data-name="Path 97"
            id="Path_97"
            transform="translate(-43.503 -24.047)" />
        <path d="M707.724,833.226l1.93-7.777a.472.472,0,0,0-.916-.227L706.809,833a.472.472,0,1,0,.915.227" data-name="Path 98"
            id="Path_98"
            transform="translate(-47.038 -24.465)" />
        <path d="M649.313,799.321c0,.01-.071.861-.071,2.244a40.5,40.5,0,0,0,.827,8.228,22.449,22.449,0,0,0,4.132,9.416.472.472,0,1,0,.734-.592,21.524,21.524,0,0,1-3.944-9.02,39.606,39.606,0,0,1-.807-8.031c0-.676.017-1.219.034-1.593.008-.187.017-.332.023-.428,0-.049.006-.085.008-.109l0-.035a.471.471,0,0,0-.94-.078Z" data-name="Path 99"
            id="Path_99"
            transform="translate(-7.574 -6.654)" />
        <path d="M654.009,801.383c-.021.308-.056.95-.056,1.831a34.131,34.131,0,0,0,.826,7.509,20.977,20.977,0,0,0,4.12,8.8.472.472,0,1,0,.723-.606,20.035,20.035,0,0,1-3.924-8.4,33.2,33.2,0,0,1-.8-7.3c0-.857.034-1.477.053-1.766a.471.471,0,1,0-.94-.065Z" data-name="Path 100"
            id="Path_100"
            transform="translate(-10.804 -8.063)" />
        <path d="M712.771,812.139l-.457.117.008.034c.02.082.073.3.119.553a4.392,4.392,0,0,1,.085.717.823.823,0,0,1-.008.123l0,.011v0l.164.05-.144-.09-.019.04.164.05-.144-.09.4.25-.067-.467c-.013,0-.063.007-.131.009s-.157,0-.26,0c-.628,0-1.8-.044-3.107-.072-.58-.012-1.188-.021-1.792-.021-.635,0-1.265.01-1.855.036l.021.471.133-.452a.252.252,0,0,1-.065-.026l-.007,0h0l-.04.04.052-.021-.012-.019-.04.04.052-.021-.049.02.052-.01,0-.01-.049.02.052-.01-.021,0,.021,0v0l-.021,0,.021,0h0a.319.319,0,0,1,.074-.158.625.625,0,0,1,.241-.188,1.691,1.691,0,0,1,.56-.057c.3,0,.688.019,1.148.019a11.945,11.945,0,0,0,2.133-.178c.435-.078.9-.212,1.317-.323.21-.056.409-.105.583-.139a2.256,2.256,0,0,1,.419-.052.544.544,0,0,1,.091.006l.013,0h0l.056-.138-.111.095a.157.157,0,0,0,.055.043l.056-.138-.111.095.124-.106-.163.031.039.075.124-.106-.163.031.007.031.457-.117.464-.087a.782.782,0,0,0-.137-.32.8.8,0,0,0-.4-.282,1.281,1.281,0,0,0-.4-.058,3.152,3.152,0,0,0-.6.07c-.31.062-.64.153-.965.24s-.645.171-.917.219a10.977,10.977,0,0,1-1.968.164c-.436,0-.814-.018-1.148-.019a2.408,2.408,0,0,0-.932.133,1.566,1.566,0,0,0-.618.482,1.22,1.22,0,0,0-.268.731.891.891,0,0,0,.2.566,1.062,1.062,0,0,0,.536.339.458.458,0,0,0,.154.019c.57-.025,1.188-.035,1.813-.035.595,0,1.2.009,1.772.021,1.3.027,2.463.072,3.127.072q.166,0,.294,0a2.287,2.287,0,0,0,.23-.018.472.472,0,0,0,.333-.217.846.846,0,0,0,.112-.314,1.7,1.7,0,0,0,.021-.281,5.621,5.621,0,0,0-.123-1c-.059-.3-.118-.529-.119-.534l-.457.118.464-.087Z" data-name="Path 101"
            id="Path_101"
            transform="translate(-45.723 -15.228)" />
        <path d="M718.191,820.66v-1.644a.471.471,0,0,0-.943,0v1.644a.471.471,0,0,0,.943,0" data-name="Path 102"
            id="Path_102"
            transform="translate(-54.205 -20.133)" />
        <path d="M688.8,858.143h.471a4.251,4.251,0,1,0-4.25,4.251,4.25,4.25,0,0,0,4.25-4.251h-.943a3.307,3.307,0,1,1-.969-2.339,3.295,3.295,0,0,1,.969,2.339Z" data-name="Path 103"
            id="Path_103"
            transform="translate(-29.194 -44.37)" />
        <path d="M691.936,863.928h.472a1.6,1.6,0,1,0-1.6,1.6,1.6,1.6,0,0,0,1.6-1.6h-.943a.656.656,0,1,1-.656-.655.657.657,0,0,1,.656.655Z" data-name="Path 104"
            id="Path_104"
            transform="translate(-34.98 -50.156)" />
        <path d="M679.68,866.119l-3.026,4.406-2.451-1.044a.471.471,0,1,0-.37.867l2.806,1.2a.471.471,0,0,0,.573-.167l3.244-4.724a.471.471,0,0,0-.777-.534Z" data-name="Path 105"
            id="Path_105"
            transform="translate(-24.24 -52.614)" />
        <path d="M648.324,793.972l-.44-.169a.514.514,0,0,1-.666.3l-7.749-2.976a.516.516,0,0,1-.33-.481.508.508,0,0,1,.035-.184.515.515,0,0,1,.665-.3l7.749,2.977a.513.513,0,0,1,.3.665l.44.169.44.169a1.456,1.456,0,0,0-.838-1.884l-7.749-2.977A1.458,1.458,0,1,0,639.131,792l7.749,2.977a1.457,1.457,0,0,0,1.884-.838Z" data-name="Path 106"
            id="Path_106"
            transform="translate(0 0)" />
        <path d="M707.789,881.534a6.038,6.038,0,0,0-.187,1.446,3.357,3.357,0,0,0,.226,1.287,2.02,2.02,0,0,0,.383.6,1.82,1.82,0,0,0,.638.441.472.472,0,0,0,.362-.871.873.873,0,0,1-.31-.213,1.242,1.242,0,0,1-.273-.529,2.811,2.811,0,0,1-.083-.718,5.01,5.01,0,0,1,.078-.843c.02-.112.039-.2.053-.264.007-.03.013-.054.017-.069l0-.016v0l-.072-.019.072.02h0l-.072-.019.072.02a.472.472,0,1,0-.909-.25Z" data-name="Path 107"
            id="Path_107"
            transform="translate(-47.591 -63.086)" />
    </g>
</svg>
