<svg height="27.425" viewBox="0 0 44.936 27.425" width="44.936" xmlns="http://www.w3.org/2000/svg">
    <g id="フィットネス_3" transform="translate(-911.837 -744.177)">
        <path
            d="M956.277,747.363a.174.174,0,0,0-.064-.006s-.266.025-.677.025a8.764,8.764,0,0,1-2.934-.463c-.471-.173-.835-.111-1.04.162a.991.991,0,0,0-.169.583.133.133,0,0,0,0,.04h0a1.664,1.664,0,0,0,.022.254c-.062.005-.131.008-.206.008a12.1,12.1,0,0,1-1.46-.142,18.037,18.037,0,0,0-2.344-.2,4.034,4.034,0,0,0-3.288,1.226,7.094,7.094,0,0,1-2.274.316c-.146,0-.3,0-.457-.01-.711.015-1.34.021-1.9.026a12.321,12.321,0,0,0-3.924.362c-.434-.108-.812-.2-1-.234a34.176,34.176,0,0,0-5.5-.709,2.19,2.19,0,0,0-1,.149.17.17,0,0,0-.145.04l-1.229,1.113a4.1,4.1,0,0,1-.788-.113,3.023,3.023,0,0,0,.324-2.165,1.408,1.408,0,0,0,.563-1,1.968,1.968,0,0,0-1.381-2.142l-.014-.006a1.977,1.977,0,0,0-1.651.06,1.905,1.905,0,0,0-.835,1.152,2.512,2.512,0,0,0-1.407,1.337,2.939,2.939,0,0,0-.176.472.162.162,0,0,1-.01.036,2.6,2.6,0,0,0,.415,1.963l.116.235a1.3,1.3,0,0,1,.041.434c0,.262,0,.489.143.6a.644.644,0,0,0,.408.143.753.753,0,0,0,.2-.027l.133.174a.192.192,0,0,0,.183.07.2.2,0,0,0,.025.2.125.125,0,0,0,.028.028.95.95,0,0,1,.257.32.357.357,0,0,0,.355.2h0a.7.7,0,0,0,.4-.132c.1-.065.2-.136.3-.214a2.028,2.028,0,0,1,.955.428l-.34.245a7.37,7.37,0,0,0-2.235-.28,14.039,14.039,0,0,0-1.548.092c-.31,0-5.61-.382-5.789-.412a1.741,1.741,0,0,0-.361-.02c-.823,0-2.765.122-2.848.128a.168.168,0,0,0-.164.172.165.165,0,0,0,.064.128,4.916,4.916,0,0,0,1.913.891,3.282,3.282,0,0,0,.67.075,1.4,1.4,0,0,0,.786-.187c.582.118,4.38.887,5.54,1.072,1.312.209,3.544.344,5.011.416a8.6,8.6,0,0,0,.791,1.069,1.174,1.174,0,0,0,.814.292,3.25,3.25,0,0,0,1.42-.446,5.957,5.957,0,0,0,2.3.429,7.176,7.176,0,0,0,3.282-.814c0,.175-.025.5-.054.807-.134,1.476-.384,4.214.975,6.184l.467,7.87a27.546,27.546,0,0,1-3.233,1.043c-.248.068-.374.182-.373.34,0,.221.277.362.378.388a.07.07,0,0,0,.043.006s1.751-.008,3.609,0h.011a1.07,1.07,0,0,0,.978-.423.983.983,0,0,0,.137-.524v-.038a2.226,2.226,0,0,0-.182-.783v-.039a11.689,11.689,0,0,1,.522-2.489,12.987,12.987,0,0,0,.425-1.729v-.012c.046-.283.084-.591.111-.936h0a4.111,4.111,0,0,0-.455-1.917,2.639,2.639,0,0,1-.308-1.066,65.572,65.572,0,0,0,.364-8.122c1.481-.173,4.91-.742,7.133-2.446l7.915-1.887c.078-.019,1.388-.337,2.33-.606h0a6.763,6.763,0,0,0,.883-.293c.1-.048.388-.194.368-.434S956.33,747.378,956.277,747.363Zm-.966.722a15.51,15.51,0,0,0-3.567-.584.531.531,0,0,1,.086-.219c.114-.152.339-.165.657-.049a9.113,9.113,0,0,0,3.05.484c.341,0,.582-.016.671-.023a.582.582,0,0,1,.055.028.72.72,0,0,1-.163.1,6.289,6.289,0,0,1-.789.262Zm-6.21,1.533a2.409,2.409,0,0,0-.184-1.561c.271.031.536.066.788.1a12.335,12.335,0,0,0,1.5.145,2.272,2.272,0,0,0,.443-.037.168.168,0,0,0,.131-.2l0-.013a1.337,1.337,0,0,1-.043-.216,12.639,12.639,0,0,1,2.92.428c-.642.172-1.328.343-1.7.433Zm-.827.2a2.5,2.5,0,0,0-.448-1.85c.23.01.46.027.687.049a2.082,2.082,0,0,1,.215,1.693Zm-3.268.779a.173.173,0,0,0-.064.031c-2.207,1.71-5.7,2.256-7.1,2.412l-.068.008a.167.167,0,0,0-.146.187v0a62.829,62.829,0,0,1-.345,8.218,2.869,2.869,0,0,0,.334,1.225,4.03,4.03,0,0,1,.433,1.677,3.366,3.366,0,0,1-2.071.113l-.163-2.739a.171.171,0,0,0-.03-.087c-1.319-1.871-1.074-4.557-.943-6,.062-.684.082-.97,0-1.119a4.048,4.048,0,0,0-.489-3.772l.022-.021c.028-.027.057-.055.088-.082l.009-.009a.464.464,0,0,1,.064-.054l.017-.013a3.66,3.66,0,0,1,.8-.57c.078-.04.156-.077.238-.11a3.6,3.6,0,0,1,.619-.19,18.06,18.06,0,0,1,3.286-.189c.556-.005,1.187-.011,1.889-.026.155.007.31.01.461.01a6.984,6.984,0,0,0,2.438-.355.163.163,0,0,0,.067-.049,3.648,3.648,0,0,1,2.976-1.137c.148.092.754.56.6,1.941Zm-7.48,16.455a11.922,11.922,0,0,0-.536,2.561v.1a.162.162,0,0,0,.016.072,1.933,1.933,0,0,1,.16.567,7.124,7.124,0,0,1-2.271.063,10.541,10.541,0,0,0,1.314-.5.169.169,0,0,0,.09-.158l-.242-4.075a2.076,2.076,0,0,0,.841.169,2.827,2.827,0,0,0,.991-.193q-.147.7-.363,1.39Zm.431-1.78a2.015,2.015,0,0,1-1.924.025l-.028-.478a4.784,4.784,0,0,0,.955.1,2.9,2.9,0,0,0,1.064-.181c-.02.186-.042.363-.068.53Zm-6.671-9.987a5.5,5.5,0,0,1-2.23-.431.166.166,0,0,0-.156,0,3.092,3.092,0,0,1-1.331.444.839.839,0,0,1-.59-.206,6.669,6.669,0,0,1-.6-.8c-.075-.11-.153-.226-.233-.347-.194-.291-.4-.607-.6-.914-.133-.208-.262-.411-.381-.6l.061-.044.25-.18.032.041a3.988,3.988,0,0,0,.569.6,1.873,1.873,0,0,0,.62.36.988.988,0,0,0,.3.05.817.817,0,0,0,.484-.156,1.208,1.208,0,0,0,.3-.321,1.655,1.655,0,0,0-.079-1.856c-.062-.1-.128-.2-.2-.295a4.345,4.345,0,0,0-.379-.434c-.049-.049-.095-.093-.134-.129l.381-.345.469-.425.023-.021a1.609,1.609,0,0,0,.191.542,1.859,1.859,0,0,0,.814.736,3.406,3.406,0,0,0,.928.294l.016.014a3.055,3.055,0,0,0,2,.473,14.426,14.426,0,0,0,2.156-.185.168.168,0,0,0,.116-.079c.011-.019.026-.038.039-.057a3.721,3.721,0,0,1,.382,3.439,6.884,6.884,0,0,1-3.219.829Zm2.562-4.452a14.19,14.19,0,0,1-2.027.169,4.52,4.52,0,0,1-1.345-.156l3.437-.1a.772.772,0,0,0-.065.084Zm-5.586-1.818a2.424,2.424,0,0,1,.8-.082,32.593,32.593,0,0,1,5.442.7c.123.023.329.07.58.13a4.1,4.1,0,0,0-.745.551.785.785,0,0,0-.1.081l-4.342.126c-1.3-.223-1.623-.867-1.7-1.263Zm-4.383,2.407-.066.046a.373.373,0,0,1-.208.074.14.14,0,0,1-.05-.007,1.163,1.163,0,0,0-.261-.36l.038-.054c.093-.13.2-.277.1-.409a.188.188,0,0,0-.15-.072.641.641,0,0,0-.261.094l-.061.03-.141-.185a.167.167,0,0,0-.212-.046.427.427,0,0,1-.176.039.307.307,0,0,1-.191-.063,1.345,1.345,0,0,1-.024-.347,1.405,1.405,0,0,0-.075-.582l-.117-.237a2.371,2.371,0,0,1-.411-1.65c.052-.012.123-.027.21-.042a2.035,2.035,0,0,1,1.933.526,1.477,1.477,0,0,1,.1.148.168.168,0,0,0,.206.068.177.177,0,0,0,.1-.192.827.827,0,0,1,.005-.485.6.6,0,0,1,.323.263.587.587,0,0,1,.1.426.512.512,0,0,1-.046.138.169.169,0,0,0,.023.187,1.3,1.3,0,0,0,.932.438,1.05,1.05,0,0,0,.314-.048,3.321,3.321,0,0,1-.331.7,5.783,5.783,0,0,1-1.6,1.6Zm-2.085-4.258a2.064,2.064,0,0,1,1.9-1.282,2.311,2.311,0,0,1,.971.22,2.175,2.175,0,0,1,1.216,1.539,2.6,2.6,0,0,1,.041,1.065c-.025.015-.049.028-.073.04a.85.85,0,0,1-.951-.165.617.617,0,0,0,.024-.087.975.975,0,0,0-.306-.891c-.167-.16-.413-.293-.6-.185a.447.447,0,0,0-.2.33,2.5,2.5,0,0,0-2.087-.424c.019-.052.041-.1.067-.161Zm2.107-2.341a1.821,1.821,0,0,1,2.545,1.749,1.236,1.236,0,0,1-.322.7,2.508,2.508,0,0,0-1.324-1.477,2.648,2.648,0,0,0-1.11-.251,2.4,2.4,0,0,0-.406.036,1.5,1.5,0,0,1,.619-.758Zm.733,6.444a5.65,5.65,0,0,0,1.075-1.178,4.672,4.672,0,0,0,.97.147c.248.216,1.487,1.372.829,2.358a.613.613,0,0,1-.508.328c-.417,0-.9-.475-1.2-.841a1.625,1.625,0,0,0-.142-.188l-.006-.009a.169.169,0,0,0-.029-.031,2.138,2.138,0,0,0-.987-.587Zm-9.229,1.179h-.03a.186.186,0,0,0-.121.048.965.965,0,0,1-.627.151,2.954,2.954,0,0,1-.6-.068,4.468,4.468,0,0,1-1.373-.554c.648-.037,1.774-.1,2.335-.1a1.713,1.713,0,0,1,.286.012c.026.006.127.016.284.03a1.213,1.213,0,0,0-.016.509Zm.5.1a.881.881,0,0,1-.012-.556l.279.022a1.416,1.416,0,0,0-.006.587Zm5.1.983c-.843-.134-3.1-.581-4.476-.857a1.087,1.087,0,0,1-.018-.634c1.716.126,4.6.316,4.63.316h.024a13.516,13.516,0,0,1,1.518-.091,7.072,7.072,0,0,1,2.15.27c.127.2.5.8.9,1.4-1.453-.08-3.5-.211-4.728-.407Zm15.377,17.577H932.8a.389.389,0,0,1-.076-.045.719.719,0,0,1,.089-.03c.463-.126.915-.257,1.334-.384a10.855,10.855,0,0,0,1.8.162,5.687,5.687,0,0,0,1.2-.113.519.519,0,0,1-.061.143.765.765,0,0,1-.694.267h0v.167Z"
            data-name="Path 203002" id="Path_203002" />
        <path
            d="M936.52,771.6a1.24,1.24,0,0,1-.136-.008c-1.852-.01-3.6,0-3.6,0a.2.2,0,0,1-.1-.019c-.139-.034-.469-.22-.469-.526,0-.159.082-.374.483-.485a27.29,27.29,0,0,0,3.117-1l-.458-7.719c-1.362-2.01-1.112-4.761-.978-6.244.021-.217.036-.4.044-.55a7.386,7.386,0,0,1-3.121.717,6.057,6.057,0,0,1-2.289-.414,3.4,3.4,0,0,1-1.421.43,1.261,1.261,0,0,1-.924-.328,8.861,8.861,0,0,1-.777-1.037c-1.581-.078-3.693-.213-4.949-.413-1.149-.184-4.852-.933-5.493-1.063a1.539,1.539,0,0,1-.819.179,3.57,3.57,0,0,1-.692-.078,5.03,5.03,0,0,1-1.974-.919.318.318,0,0,1,.189-.569c.011,0,2-.128,2.851-.128a2.183,2.183,0,0,1,.385.022c.226.035,5.506.41,5.765.41a13.609,13.609,0,0,1,1.547-.092c.149-.005.3,0,.448,0a.331.331,0,0,1-.017-.032.819.819,0,0,0-.215-.267.281.281,0,0,1-.056-.058.338.338,0,0,1-.067-.161.346.346,0,0,1-.137-.1l-.078-.1a.748.748,0,0,1-.143.011.8.8,0,0,1-.5-.176c-.2-.155-.2-.429-.2-.718a1.191,1.191,0,0,0-.036-.4l-.106-.208a2.743,2.743,0,0,1-.427-2.057l.151.015-.14-.053a3.065,3.065,0,0,1,.186-.505,2.671,2.671,0,0,1,1.418-1.385,2.043,2.043,0,0,1,.88-1.168,2.142,2.142,0,0,1,1.789-.071,2.112,2.112,0,0,1,1.486,2.306,1.559,1.559,0,0,1-.546,1.04,3.169,3.169,0,0,1-.265,2,4.13,4.13,0,0,0,.509.064l1.182-1.071a.39.39,0,0,1,.225-.081,2.335,2.335,0,0,1,1.034-.146,34.407,34.407,0,0,1,5.518.712c.179.031.529.116.969.226a12.441,12.441,0,0,1,3.934-.357l.128,0c.524-.006,1.107-.011,1.759-.025.166.01.317.01.46.01a6.777,6.777,0,0,0,2.193-.3,4.151,4.151,0,0,1,3.383-1.244,18.039,18.039,0,0,1,2.352.2,11.854,11.854,0,0,0,1.443.139h.034c0-.037-.005-.073-.005-.11a.23.23,0,0,1,0-.062,1.091,1.091,0,0,1,.193-.646.986.986,0,0,1,1.216-.219,8.229,8.229,0,0,0,2.88.453c.4,0,.663-.023.665-.023a.3.3,0,0,1,.119.011c.049.013.416.128.453.465.014.164-.054.394-.453.586a6.839,6.839,0,0,1-.91.3c-.976.28-2.32.6-2.332.607l-7.884,1.88c-2.2,1.672-5.564,2.256-7.047,2.44a65.872,65.872,0,0,1-.367,8.005,2.5,2.5,0,0,0,.291.979,4.256,4.256,0,0,1,.473,1.99c-.027.342-.063.652-.113.959a12.91,12.91,0,0,1-.43,1.762,11.483,11.483,0,0,0-.515,2.452,2.358,2.358,0,0,1,.182.806v.045a1.137,1.137,0,0,1-.158.6A1.237,1.237,0,0,1,936.52,771.6Zm-1.928-.311,1.8,0a.929.929,0,0,0,.868-.362.835.835,0,0,0,.107-.432v-.041a2.085,2.085,0,0,0-.17-.724l-.012-.1a11.821,11.821,0,0,1,.529-2.536,12.943,12.943,0,0,0,.42-1.708c.048-.309.084-.611.11-.934a3.966,3.966,0,0,0-.439-1.837,2.779,2.779,0,0,1-.325-1.124,66.353,66.353,0,0,0,.364-8.13l0-.136.135-.016c1.386-.161,4.848-.721,7.06-2.416l.056-.027,7.915-1.886c.013,0,1.349-.326,2.324-.606l.067-.017-.127-.036a15.44,15.44,0,0,0-3.533-.579l-.166-.006.024-.165a.678.678,0,0,1,.112-.282c.111-.149.342-.285.831-.1a8.928,8.928,0,0,0,3,.473c.338,0,.575-.014.662-.021l.035,0,.033.014a.456.456,0,0,1,.076.039l.119.073c-.049-.111-.221-.159-.223-.16h0l-.006,0c-.015,0-.281.026-.694.026a9.2,9.2,0,0,1-2.982-.471c-.285-.1-.663-.167-.872.11a.829.829,0,0,0-.139.488v.044a1.506,1.506,0,0,0,.02.231l.026.161-.162.012c-.066.005-.139.009-.218.009a12.374,12.374,0,0,1-1.483-.143,17.629,17.629,0,0,0-2.324-.2,3.875,3.875,0,0,0-3.177,1.18l-.027.028-.037.012a7.426,7.426,0,0,1-2.322.322,4.523,4.523,0,0,1-.463-.01c-.64.013-1.224.02-1.749.025l-.14,0a12.152,12.152,0,0,0-3.887.356l-.037.009-.037-.009c-.451-.111-.811-.2-.99-.231a34.277,34.277,0,0,0-5.481-.707,2.067,2.067,0,0,0-.937.139l-.041.015-.042-.008-1.292,1.159-.062,0a4.327,4.327,0,0,1-.816-.117l-.2-.047.1-.173a2.869,2.869,0,0,0,.308-2.058l-.022-.1.006,0-.08-.239a2.373,2.373,0,0,0-1.245-1.389,2.508,2.508,0,0,0-1.048-.237,2.273,2.273,0,0,0-.379.034l-.257.044.09-.244a1.668,1.668,0,0,1,.681-.834l.051.083-.041-.088h0l.029.052-.024-.054a1.97,1.97,0,0,1,2.755,1.893,1.385,1.385,0,0,1-.362.8l-.166.18.067-.049a1.267,1.267,0,0,0,.5-.894,1.814,1.814,0,0,0-1.276-1.984,1.837,1.837,0,0,0-1.554.044,1.744,1.744,0,0,0-.757,1.055l-.019.076-.073.028a2.375,2.375,0,0,0-1.323,1.257,2.911,2.911,0,0,0-.163.432l-.015.053a2.46,2.46,0,0,0,.394,1.84l.126.254a1.427,1.427,0,0,1,.056.511c0,.2,0,.4.086.471a.494.494,0,0,0,.312.111h0a.561.561,0,0,0,.16-.022l.1-.027.2.256a.043.043,0,0,0,.038.013l.271-.047-.107.253a.05.05,0,0,0,.006.05,1.089,1.089,0,0,1,.3.372.2.2,0,0,0,.207.118.559.559,0,0,0,.327-.1c.1-.066.2-.135.295-.21l.051-.04.065.01a2.186,2.186,0,0,1,1.026.46l.152.123-.559.4-.069-.019a7.191,7.191,0,0,0-2.19-.275,13.573,13.573,0,0,0-1.534.092h0c-.306,0-5.617-.379-5.83-.413a1.647,1.647,0,0,0-.329-.02c-.847,0-2.826.127-2.844.128a.587.587,0,0,0,.047.04l.436-.024c.572-.033,1.761-.1,2.344-.1a1.779,1.779,0,0,1,.3.015c.042.008.136.016.279.028l.175.016-.042.17a1.067,1.067,0,0,0-.015.446l.04.219-.355-.072v0a.032.032,0,0,0-.02.008,1.133,1.133,0,0,1-.743.19,3.115,3.115,0,0,1-.617-.071,4.612,4.612,0,0,1-1.42-.573l-.2-.121a4.272,4.272,0,0,0,1.619.724,3.193,3.193,0,0,0,.639.071,1.233,1.233,0,0,0,.709-.167l.049-.028.056.011c.442.089,4.353.882,5.534,1.071,1.264.2,3.413.337,4.994.415l.078,0,.042.065a8.7,8.7,0,0,0,.777,1.052.948.948,0,0,0,.7.239,3.119,3.119,0,0,0,1.349-.424l.063-.039.069.028a5.8,5.8,0,0,0,2.168.419h.074a7.078,7.078,0,0,0,3.215-.8l.189-.1-.02-.037.025-.064a3.9,3.9,0,0,0-.471-3.633l-.076-.108.095-.088c.05-.048.082-.079.115-.108a.628.628,0,0,1,.083-.07,3.8,3.8,0,0,1,.835-.595,2.732,2.732,0,0,1,.253-.116,3.63,3.63,0,0,1,.643-.2,18.2,18.2,0,0,1,3.322-.193h.144c.518-.006,1.1-.011,1.737-.025.162.007.315.01.464.01a6.792,6.792,0,0,0,2.39-.347,3.75,3.75,0,0,1,3.1-1.193l.066.021c.2.123.832.637.67,2.086l-.012.1-3.028.723c-2.238,1.734-5.766,2.287-7.179,2.445l-.067.008v.009l-.015.029a62.769,62.769,0,0,1-.345,8.238,2.709,2.709,0,0,0,.317,1.138,4.193,4.193,0,0,1,.451,1.743l0,.106-.1.038a3.5,3.5,0,0,1-2.163.119l-.1-.028-.17-2.848c-1.353-1.924-1.105-4.643-.973-6.105a4.069,4.069,0,0,0,.035-.994v.165c0,.2-.03.554-.055.82-.132,1.458-.377,4.162.95,6.085l.023.034.476,8.021-.1.04a27.582,27.582,0,0,1-3.251,1.048.478.478,0,0,0-.235.124l.128-.055a.811.811,0,0,1,.111-.038c.46-.125.911-.255,1.329-.382l.034-.011.035.007a10.936,10.936,0,0,0,1.775.159,4.965,4.965,0,0,0,1.169-.11l.236-.047-.061.232a.641.641,0,0,1-.079.184.923.923,0,0,1-.671.345v.01l-.3.009v-.025l-3.505-.015a.567.567,0,0,1-.1-.059l-.113-.083a.46.46,0,0,0,.255.193S933.538,771.291,934.592,771.291Zm1.809-.335.123.007a.6.6,0,0,0,.215-.049c-.128.017-.257.028-.386.035Zm-.2,0h0Zm-2.574,0h2.123a11.229,11.229,0,0,1-1.6-.154C933.986,770.853,933.811,770.9,933.632,770.956Zm2.49-6.6a3.186,3.186,0,0,0,1.773-.1,3.893,3.893,0,0,0-.412-1.506,3.051,3.051,0,0,1-.35-1.287,63.211,63.211,0,0,0,.345-8.221.317.317,0,0,1,.277-.343l.07-.008c1.388-.155,4.851-.7,7.025-2.381a.3.3,0,0,1,.123-.059l2.816-.672c.1-1.141-.359-1.565-.512-1.674a3.5,3.5,0,0,0-2.816,1.094.293.293,0,0,1-.12.085,7.383,7.383,0,0,1-2.5.366h-.007c-.146,0-.3,0-.456-.01-.63.013-1.211.019-1.73.025l-.15,0a17.766,17.766,0,0,0-3.266.187,3.58,3.58,0,0,0-.585.18,2.453,2.453,0,0,0-.226.1,3.491,3.491,0,0,0-.766.546l-.031.024a.313.313,0,0,0-.043.037l-.032.028a4.19,4.19,0,0,1,.454,3.747,3.23,3.23,0,0,1-.012,1.138c-.129,1.427-.369,4.075.917,5.9a.33.33,0,0,1,.057.164ZM913.2,752.144a4.42,4.42,0,0,0,.861.287,2.846,2.846,0,0,0,.57.064.824.824,0,0,0,.543-.127.308.308,0,0,1,.2-.072,1.28,1.28,0,0,1,.009-.2c-.075-.008-.124-.014-.141-.018a2.136,2.136,0,0,0-.247-.01C914.562,752.073,913.8,752.11,913.2,752.144Zm10.907-.28a7.548,7.548,0,0,1,.8.173l.114-.082a1.871,1.871,0,0,0-.661-.267C924.272,751.751,924.188,751.809,924.1,751.864Zm31.356-3.665v.048a6.507,6.507,0,0,0,.736-.252c.16-.077.258-.165.274-.248l-.114.092a.871.871,0,0,1-.2.12A6.446,6.446,0,0,1,955.461,748.2Zm-.4-.338c.083.022.166.044.248.068.072-.019.145-.04.217-.062C955.374,747.868,955.218,747.866,955.063,747.861Zm-3.1-.5c.192.011.383.027.574.044l-.094-.031C952.3,747.323,952.054,747.255,951.958,747.362Zm-28.269-1.968a2.822,2.822,0,0,1,1.175.265,2.682,2.682,0,0,1,1.3,1.307,1.109,1.109,0,0,0,.133-.411,1.672,1.672,0,0,0-2.325-1.6,1.364,1.364,0,0,0-.435.443C923.587,745.4,923.638,745.4,923.689,745.394Zm12.147,25.232a7.364,7.364,0,0,1-.961-.064l-.024-.292a10.277,10.277,0,0,0,1.295-.494l-.253-4.329.223.1a1.963,1.963,0,0,0,.767.156h.014a2.664,2.664,0,0,0,.937-.182l.258-.1-.056.271c-.1.464-.218.929-.36,1.382l-.008.03a11.857,11.857,0,0,0-.529,2.529v.083a2.171,2.171,0,0,1,.175.621l.017.14-.138.026A7.31,7.31,0,0,1,935.836,770.626Zm-.216-.3a6.944,6.944,0,0,0,1.374-.093,1.826,1.826,0,0,0-.124-.383.3.3,0,0,1-.03-.135v-.083a11.97,11.97,0,0,1,.536-2.6l.007-.027c.116-.367.218-.742.3-1.118a2.98,2.98,0,0,1-.786.117h-.016a2.255,2.255,0,0,1-.664-.1l.229,3.846a.321.321,0,0,1-.171.3C936.061,770.146,935.842,770.237,935.62,770.322Zm1.352-4.642a2.162,2.162,0,0,1-1.009-.25l-.075-.04-.044-.757.191.04a5.31,5.31,0,0,0,.978.1,2.752,2.752,0,0,0,.959-.172l.227-.084-.026.24c-.019.178-.04.347-.064.508l.02.082-.1.059A2.158,2.158,0,0,1,936.972,765.68Zm-.795-.479a1.866,1.866,0,0,0,1.641-.024c.011-.073.021-.148.03-.224a3.462,3.462,0,0,1-.891.116,4.935,4.935,0,0,1-.791-.067Zm-8.643-9.753a.983.983,0,0,1-.654-.244,6.81,6.81,0,0,1-.628-.831c-.072-.106-.15-.223-.231-.345-.164-.245-.335-.508-.505-.769l-.1-.146-.382-.6-.075-.119.543-.393.12.156a3.9,3.9,0,0,0,.549.579,1.732,1.732,0,0,0,.571.331.793.793,0,0,0,.253.041h0a.669.669,0,0,0,.392-.127,1.024,1.024,0,0,0,.26-.28,1.49,1.49,0,0,0-.073-1.685,3.2,3.2,0,0,0-.2-.294,4.114,4.114,0,0,0-.365-.418c-.047-.047-.092-.09-.13-.125l-.12-.112L927.943,749l.067.253a1.448,1.448,0,0,0,.173.491,1.708,1.708,0,0,0,.747.675,3.31,3.31,0,0,0,.89.282l.04.006.032.027a2.9,2.9,0,0,0,1.9.452,14.386,14.386,0,0,0,2.149-.184c.012-.014.022-.027.031-.039l-.1.018a14.228,14.228,0,0,1-2.048.171,4.895,4.895,0,0,1-1.386-.161l.035-.3,3.784-.11-.231.26a.292.292,0,0,0-.027.033v.052l.118-.16.131.16a3.87,3.87,0,0,1,.4,3.577l-.02.051-.049.026a7.065,7.065,0,0,1-3.084.843h0l-.2.007a5.834,5.834,0,0,1-2.29-.443,3.59,3.59,0,0,1-1.415.454Zm-2.167-2.977.3.479.1.145c.169.259.34.522.5.767.08.12.157.237.231.345a6.659,6.659,0,0,0,.59.786.727.727,0,0,0,.47.155,2.963,2.963,0,0,0,1.259-.421.315.315,0,0,1,.306,0,5.37,5.37,0,0,0,1.95.412h0l.206,0a6.767,6.767,0,0,0,3.1-.784,3.57,3.57,0,0,0-.284-3.089.354.354,0,0,1-.106.039,14.629,14.629,0,0,1-2.182.187,3.2,3.2,0,0,1-2.08-.495,3.529,3.529,0,0,1-.93-.3,2,2,0,0,1-.878-.793,1.772,1.772,0,0,1-.149-.338l-.566.512.02.02a4.61,4.61,0,0,1,.392.449,3.556,3.556,0,0,1,.209.308,1.787,1.787,0,0,1,.078,2.013,1.379,1.379,0,0,1-.338.363.96.96,0,0,1-.568.185H927a1.163,1.163,0,0,1-.347-.057,2.038,2.038,0,0,1-.67-.389,4.242,4.242,0,0,1-.532-.549Zm.657,1.629-.3-.017c-2.113-.116-3.612-.241-4.57-.382h0l-.174-.024c-.862-.137-3.178-.6-4.482-.859l-.084-.017-.028-.082a1.23,1.23,0,0,1-.021-.721l.032-.119.123.009c1.7.125,4.535.312,4.625.315a13.866,13.866,0,0,1,1.536-.091,7.294,7.294,0,0,1,2.193.276l.054.015.116.184c.169.268.482.766.813,1.263Zm-5.169-.749.174.027c.893.143,2.339.27,4.414.39-.269-.412-.51-.795-.652-1.02l-.054-.086a6.648,6.648,0,0,0-2.05-.248,12.951,12.951,0,0,0-1.5.09h-.042c-.04,0-2.823-.185-4.51-.308a.958.958,0,0,0,.016.346c1.233.247,3.268.65,4.208.81Zm6.153-.28c-.514,0-1.05-.56-1.324-.895a1.651,1.651,0,0,0-.139-.183l-.022-.032a2.031,2.031,0,0,0-.926-.55l.032-.121-.09-.139a5.484,5.484,0,0,0,1.046-1.146l.06-.088.1.026a4.6,4.6,0,0,0,.939.144l.052,0,.039.034c.271.235,1.583,1.465.855,2.554a.75.75,0,0,1-.624.394Zm-2.076-1.863a2.28,2.28,0,0,1,.8.542.234.234,0,0,1,.04.042,2.174,2.174,0,0,1,.155.207,1.8,1.8,0,0,0,1.074.772.457.457,0,0,0,.375-.247c.569-.853-.455-1.87-.756-2.14a5.053,5.053,0,0,1-.846-.124A5.832,5.832,0,0,1,924.932,751.208Zm-8.574,1.584-.566-.116-.028-.08a1.033,1.033,0,0,1-.014-.65l.035-.115.571.046-.038.168a1.273,1.273,0,0,0-.005.525Zm7.239-1.1a.3.3,0,0,1-.085-.013l-.065-.019-.029-.062a1,1,0,0,0-.227-.314l-.095-.09.113-.16c.091-.127.131-.2.1-.231a.273.273,0,0,0-.209.057l-.187.094-.217-.284a.913.913,0,0,1-.265.053h-.007a.47.47,0,0,1-.279-.1l-.044-.034-.011-.056a1.513,1.513,0,0,1-.027-.385,1.254,1.254,0,0,0-.066-.523l-.11-.221a2.489,2.489,0,0,1-.426-1.734l.013-.1.1-.023c.054-.012.128-.028.218-.043a2.175,2.175,0,0,1,2.063.566.346.346,0,1,0,.163-.4l.029-.093a.3.3,0,0,0-.088.185l-.026.264-.213-.159a2.347,2.347,0,0,0-1.961-.4l-.271.066.024-.066-.012.006.082-.2c.016-.044.035-.091.057-.139l.01-.027a2.208,2.208,0,0,1,2.038-1.376,2.453,2.453,0,0,1,1.036.236,2.33,2.33,0,0,1,1.3,1.644,2.761,2.761,0,0,1,.042,1.12l-.011.067-.058.035a.83.83,0,0,1-.086.048,1,1,0,0,1-1.122-.193l-.068-.066.031-.09a.512.512,0,0,0,.019-.07.813.813,0,0,0-.26-.747c-.126-.122-.293-.215-.4-.177l.1.036a.754.754,0,0,1,.4.329.725.725,0,0,1,.119.525.615.615,0,0,1-.06.183,1.112,1.112,0,0,0,.826.407.922.922,0,0,0,.265-.041l.279-.086-.093.277a3.42,3.42,0,0,1-.346.731,5.917,5.917,0,0,1-1.645,1.647l-.065.045a.511.511,0,0,1-.288.1Zm-.109-.532a1.248,1.248,0,0,1,.158.225.234.234,0,0,0,.078-.037l.09-.061a5.635,5.635,0,0,0,1.543-1.55,3.076,3.076,0,0,0,.221-.422c-.026,0-.053,0-.079,0a1.459,1.459,0,0,1-1.044-.488.318.318,0,0,1-.045-.355.332.332,0,0,0,.032-.095.439.439,0,0,0-.075-.315.467.467,0,0,0-.089-.111.669.669,0,0,0,.028.2.331.331,0,0,1-.181.371.321.321,0,0,1-.4-.126,1.522,1.522,0,0,0-.091-.135,1.886,1.886,0,0,0-1.777-.471l-.109.02a2.22,2.22,0,0,0,.4,1.44l.128.257a1.528,1.528,0,0,1,.09.661,1.29,1.29,0,0,0,.01.239c.018.005.03,0,.054.008a.262.262,0,0,0,.115-.026.315.315,0,0,1,.394.092l.064.084a.762.762,0,0,1,.263-.081.369.369,0,0,1,.285.128A.44.44,0,0,1,923.488,751.16Zm1.579-2.63a.709.709,0,0,0,.718.08,2.459,2.459,0,0,0-.05-.932,2.035,2.035,0,0,0-1.133-1.44,2.154,2.154,0,0,0-.909-.206,1.906,1.906,0,0,0-1.67,1l-.044.1a2.618,2.618,0,0,1,1.755.385.6.6,0,0,1,.2-.218.687.687,0,0,1,.786.2,1.119,1.119,0,0,1,.35,1.026Zm4.834,2.142c-1.427-.243-1.771-.972-1.852-1.386l-.006-.033.1-.359.083-.023a2.566,2.566,0,0,1,.85-.087,32.861,32.861,0,0,1,5.464.7c.121.023.329.071.583.132l.366.088-.326.188a3.885,3.885,0,0,0-.718.53.963.963,0,0,0-.1.079l-.042.041-.058,0Zm-1.55-1.41c.092.407.443.918,1.571,1.112l4.257-.127c.024-.019.049-.039.075-.057a3.961,3.961,0,0,1,.448-.362c-.091-.02-.168-.037-.226-.048a32.546,32.546,0,0,0-5.42-.7,2.36,2.36,0,0,0-.672.056Zm19.74.755.034-.222a2.354,2.354,0,0,0-.42-1.739l-.185-.252.313.014c.232.011.465.028.694.05l.075.008.039.063a2.23,2.23,0,0,1,.231,1.815l-.026.082Zm.02-1.882a2.663,2.663,0,0,1,.336,1.488l.16-.038a1.932,1.932,0,0,0-.185-1.426C948.319,748.15,948.215,748.142,948.111,748.135Zm.793,1.684.051-.233a2.27,2.27,0,0,0-.173-1.463l-.118-.245.27.03c.272.03.538.067.791.1a12.159,12.159,0,0,0,1.485.142,1.432,1.432,0,0,0,.411-.033c-.012-.1-.028-.182-.037-.264l-.02-.171.173.005a12.754,12.754,0,0,1,2.955.434l.539.145-.54.144c-.643.173-1.33.344-1.7.434Zm.251-1.583a2.574,2.574,0,0,1,.132,1.184l3.631-.866c.261-.064.677-.167,1.124-.283a12.565,12.565,0,0,0-2.127-.277l.005.02.008.039a.3.3,0,0,1-.049.223.309.309,0,0,1-.2.136,2.7,2.7,0,0,1-.476.04,12.635,12.635,0,0,1-1.52-.146C949.513,748.282,949.336,748.259,949.155,748.236Z"
            data-name="Path 203003" id="Path_203003" />
    </g>
</svg>
