<svg height="30.64" viewBox="0 0 40.942 30.64" width="40.942" xmlns="http://www.w3.org/2000/svg">
    <path
        d="M14.781,28.083a.438.438,0,0,1-.1-.305,9.01,9.01,0,0,0-.189-2.364,33.362,33.362,0,0,0-1.823-4.106A4.96,4.96,0,0,1,10.9,18.651l-.043-.168-.16.069A8.032,8.032,0,0,1,7.56,19.2l-.175,0A11.5,11.5,0,0,1,.712,16.5a1.927,1.927,0,0,1-.259-2.735,3.453,3.453,0,0,0,.4-.962A11.347,11.347,0,0,1,2.2,9.318c.311-.556.665-1.135.973-1.634l.147-.242c.34-.556.644-1.059.933-1.587A11.778,11.778,0,0,1,5.6,3.6c.614-.672,1.994-.811,3.6-.913l.339-.022c.041,0,.083,0,.123,0,1.228,0,1.914,1.223,2.208,1.746l.07.123a.434.434,0,0,1-.193.582.455.455,0,0,1-.069.027c.39.076.746.242.829.605a1.254,1.254,0,0,1-.686,1.419.6.6,0,0,1-.06.023A10.3,10.3,0,0,1,9.276,7.6H9.253a.468.468,0,0,1-.184-.041c-.269-.13-.575-.3-.866-.462l-.08-.044c-.243-.135-.545-.3-.748-.391l-.131-.057-.062.128c-.032.061-.067.137-.1.2l-.068.148a7.149,7.149,0,0,0-.708,2.759c-.008.232,0,.477.014.689l0,.065a6.978,6.978,0,0,1,0,1.114l-.019.242.225-.092a5.837,5.837,0,0,1,2.206-.431,5.909,5.909,0,0,1,1.03.091l.037.008h.037l.047-.038a5.761,5.761,0,0,1,5.661-.925,4.306,4.306,0,0,0,1.284-1.676.449.449,0,0,1,.026-.051,8.976,8.976,0,0,1-.521-1l-.022-.049-.047-.025a1.678,1.678,0,0,1-.752-.781,2.834,2.834,0,0,1-.152-2.371,2.261,2.261,0,0,1,.128-.214l.025-.038V4.316A4.326,4.326,0,0,1,19.842,0h.008a4.327,4.327,0,0,1,4.316,4.332v.047l.027.038a1.84,1.84,0,0,1,.319,1.176A2.461,2.461,0,0,1,23.4,7.785l-.039.024-.016.04a9.13,9.13,0,0,1-.468.909.435.435,0,0,1,.092.135,4.253,4.253,0,0,0,1.27,1.662,5.761,5.761,0,0,1,5.625.938l.054.044.067-.014a5.989,5.989,0,0,1,1.03-.09,5.853,5.853,0,0,1,2.206.43l.225.092-.019-.242a6.977,6.977,0,0,1,0-1.114l0-.065c.011-.211.022-.456.014-.689a7.17,7.17,0,0,0-.708-2.759l-.068-.148c-.03-.066-.065-.141-.1-.2l-.062-.128-.131.057c-.2.088-.5.256-.749.391l-.079.044c-.291.163-.6.331-.866.462a.471.471,0,0,1-.185.042h-.023a10.254,10.254,0,0,1-2.487-.417.6.6,0,0,1-.06-.023,1.254,1.254,0,0,1-.686-1.419c.083-.364.439-.53.83-.605a.432.432,0,0,1-.22-.6l.078-.141c.266-.474.973-1.734,2.194-1.734.043,0,.086,0,.131,0l.34.022c1.545.095,2.98.232,3.559.866A12.126,12.126,0,0,1,35.572,5.9c.3.55.651,1.122,1.013,1.708l.06.1c.334.545.66,1.079.964,1.62a11.336,11.336,0,0,1,1.328,3.46,3.34,3.34,0,0,0,.418.986,1.918,1.918,0,0,1-.228,2.689l-.035.023A11.473,11.473,0,0,1,32.448,19.2c-.059,0-.119,0-.178,0a8.083,8.083,0,0,1-3.17-.648l-.16-.068-.044.167a4.976,4.976,0,0,1-1.433,2.368q-.009.022-.02.043a34.878,34.878,0,0,0-2.12,4.521,9.215,9.215,0,0,0-.2,2.495.436.436,0,0,1-.111.314c-.043.051-1.1,1.253-5,1.253C16.953,29.64,15.285,28.661,14.781,28.083Zm5.842.716a7.9,7.9,0,0,0,3.538-.84l.085-.043,0-.1a10.1,10.1,0,0,1,.241-2.473.408.408,0,0,1,.021-.061,35.554,35.554,0,0,1,1.476-3.325,5.015,5.015,0,0,1-1.173.325,6.511,6.511,0,0,1-1.415.157h-.07a3.932,3.932,0,0,1-1.9-.471,2.155,2.155,0,0,1-.983-1.417.436.436,0,0,1,.35-.5.559.559,0,0,1,.077-.005.428.428,0,0,1,.418.316,1.3,1.3,0,0,0,.617.887,4.36,4.36,0,0,0,1.66.329,4.176,4.176,0,0,0,1.084-.141,4.136,4.136,0,0,0,3.534-3.606.429.429,0,0,1,.015-.114c.547-1.976,1.779-2.13,2.144-2.13a1.225,1.225,0,0,1,.254.023.431.431,0,0,1,.329.518.431.431,0,0,1-.422.338.449.449,0,0,1-.077-.006.654.654,0,0,0-.086-.005c-.244,0-.815.12-1.2,1.153a7.52,7.52,0,0,0,3.2.721h.08a10.6,10.6,0,0,0,6.111-2.5c.622-.554.474-.894.05-1.679a4.038,4.038,0,0,1-.49-1.213,10.383,10.383,0,0,0-1.227-3.181c-.3-.544-.634-1.08-.924-1.554l-.047-.078C35.506,7.51,35.135,6.9,34.8,6.287A11.494,11.494,0,0,0,33.485,4.1c-.312-.339-1.6-.466-2.948-.553l-.347-.023c-.021,0-.043,0-.063,0-.63,0-1.087.658-1.45,1.3l-.084.146a.442.442,0,0,1-.108.115c.187-.012.363-.012.5-.012h.148c.059.005.119.008.178.008a2.234,2.234,0,0,0,.88-.185l-.016-.155.055.14a.407.407,0,0,1,.154-.03.433.433,0,0,1,.156.838,3.171,3.171,0,0,1-1.248.257c-.083,0-.167,0-.249-.01-.05,0-.1,0-.149,0a4.4,4.4,0,0,0-.67.05l-.2.03.089.184a.379.379,0,0,0,.139.153l.038.017a9.445,9.445,0,0,0,2.072.358l.041,0,.036-.018c.221-.112.447-.238.68-.367a3.71,3.71,0,0,1,1.45-.611.613.613,0,0,1,.294.071,1.668,1.668,0,0,1,.608.81l.043.095A8.049,8.049,0,0,1,34.3,9.8c.01.263,0,.532-.017.792l0,.04a6.266,6.266,0,0,0,0,1.023,7.947,7.947,0,0,0,.188,1.066q.015.017.03.037a3.348,3.348,0,0,1,.525,1.111.428.428,0,0,1-.29.522l-.02.005a.418.418,0,0,1-.109.016.435.435,0,0,1-.418-.322,2.48,2.48,0,0,0-.3-.695.434.434,0,0,1-.1-.079,3.623,3.623,0,0,0-2.707-1.02,5.89,5.89,0,0,0-1,.085l-.017,0a5.072,5.072,0,0,0-2.091.985.437.437,0,0,1-.269.093h0a.433.433,0,0,1-.267-.772,6,6,0,0,1,1.441-.841,4.878,4.878,0,0,0-2.661-.787,4.806,4.806,0,0,0-1.8.347.438.438,0,0,1-.072.04c-.031.014-3.158,1.338-3.051,3.2a.429.429,0,0,1-.111.314.421.421,0,0,1-.293.141h-.031a.432.432,0,0,1-.429-.408c-.105-1.85,1.9-3.171,2.952-3.737a5.137,5.137,0,0,1-1.057-1.4,3.257,3.257,0,0,1-2.481,1.4A3.205,3.205,0,0,1,17.43,9.647a5.152,5.152,0,0,1-1.012,1.316,8.95,8.95,0,0,1,1.27.815,3.583,3.583,0,0,1,1.68,2.923.433.433,0,0,1-.431.407v.14h0l-.024-.14a.43.43,0,0,1-.3-.142.435.435,0,0,1-.11-.313c.1-1.712-2.539-2.967-2.992-3.17a.444.444,0,0,1-.074-.024,4.8,4.8,0,0,0-1.9-.39,4.877,4.877,0,0,0-2.642.774,6.006,6.006,0,0,1,1.468.852.437.437,0,0,1,.069.609.431.431,0,0,1-.338.163h0a.438.438,0,0,1-.268-.094,5.088,5.088,0,0,0-1.886-.937.437.437,0,0,1-.07-.011,5.481,5.481,0,0,0-1.2-.126,3.62,3.62,0,0,0-2.707,1.021h0a2.446,2.446,0,0,0-.355.773.417.417,0,0,1-.4.325.47.47,0,0,1-.13-.019.433.433,0,0,1-.263-.2.425.425,0,0,1-.045-.327,3.443,3.443,0,0,1,.481-1.044,7.962,7.962,0,0,0,.214-1.169,6.266,6.266,0,0,0,0-1.023l0-.04c-.014-.261-.027-.53-.017-.792a8.041,8.041,0,0,1,.792-3.1l.043-.095a1.663,1.663,0,0,1,.608-.81.6.6,0,0,1,.294-.071,3.693,3.693,0,0,1,1.449.611c.233.13.46.255.68.367l.036.018.041,0a9.5,9.5,0,0,0,2.072-.358l.038-.017A.391.391,0,0,0,11.64,6.2l.089-.184-.2-.03a4.4,4.4,0,0,0-.67-.051l-.149,0c-.083.006-.167.01-.25.01A3.186,3.186,0,0,1,9.21,5.692a.434.434,0,0,1-.249-.559.429.429,0,0,1,.229-.241.422.422,0,0,1,.175-.038.407.407,0,0,1,.154.03l.055-.139L9.558,4.9a2.246,2.246,0,0,0,.88.184c.059,0,.12,0,.178-.007h.148c.151,0,.35,0,.559.017a.4.4,0,0,1-.117-.11l-.087-.152c-.381-.678-.818-1.3-1.442-1.3a.6.6,0,0,0-.072,0l-.36.023c-1.34.086-2.628.218-2.98.6A11.107,11.107,0,0,0,5.022,6.243c-.35.643-.708,1.229-1.055,1.8l-.06.1c-.348.566-.661,1.077-.959,1.612A10.439,10.439,0,0,0,1.71,12.957a4.077,4.077,0,0,1-.49,1.209c-.422.778-.568,1.116.066,1.685a10.644,10.644,0,0,0,6.141,2.485h.086a7.311,7.311,0,0,0,3.154-.719c-.38-1.04-.955-1.161-1.2-1.161a.637.637,0,0,0-.085.005.412.412,0,0,1-.075.006.433.433,0,0,1-.422-.358.428.428,0,0,1,.325-.5,1.263,1.263,0,0,1,.247-.023c.365,0,1.6.154,2.15,2.13a.428.428,0,0,1,.016.106,4.114,4.114,0,0,0,3.465,3.6,4.37,4.37,0,0,0,1.135.149,4.452,4.452,0,0,0,1.7-.337,1.31,1.31,0,0,0,.6-.872.434.434,0,0,1,.421-.342.386.386,0,0,1,.091.011.436.436,0,0,1,.331.517,2.149,2.149,0,0,1-.974,1.417,3.915,3.915,0,0,1-1.9.472h-.079a6.821,6.821,0,0,1-1.484-.167A4.955,4.955,0,0,1,14,22.041a33.491,33.491,0,0,1,1.314,3.138,9.829,9.829,0,0,1,.232,2.37l0,.085.072.045A7.21,7.21,0,0,0,19.444,28.8c.185,0,.372-.007.554-.022C20.2,28.79,20.415,28.8,20.623,28.8ZM19.676.864a3.591,3.591,0,0,0-3.293,3.654.42.42,0,0,1-.122.311.65.65,0,0,0-.115.159A1.987,1.987,0,0,0,16.287,6.6a.829.829,0,0,0,.491.454.421.421,0,0,1,.266.243c.352.839,1.33,2.792,2.8,2.8,1.411-.007,2.359-1.759,2.8-2.8a.435.435,0,0,1,.289-.25c.444-.125.717-.868.716-1.483a.99.99,0,0,0-.238-.739.423.423,0,0,1-.108-.3A3.63,3.63,0,0,0,19.832.851L19.676.845ZM16.433,26.4v-.828a1.523,1.523,0,0,1,1.418-1.589h1.129A1.547,1.547,0,0,1,20,24.444a1.521,1.521,0,0,1,.989-.468h1.131a1.559,1.559,0,0,1,1.458,1.632V26.4a.43.43,0,1,1-.86,0v-.807a.673.673,0,0,0-.15-.5.708.708,0,0,0-.482-.252l-1.077,0a.668.668,0,0,0-.572.59,1.54,1.54,0,0,1,0,.164.451.451,0,0,1-.008.053.431.431,0,0,1-.36.352.438.438,0,0,1-.081.008h-.005A.435.435,0,0,1,19.6,25.7a.435.435,0,0,1-.022-.106,1.539,1.539,0,0,1,0-.161.673.673,0,0,0-.629-.593l-1.078,0a.664.664,0,0,0-.572.7V26.4a.432.432,0,1,1-.863,0Z"
        id="フィットネス_4" stroke="rgba(0,0,0,0)" stroke-miterlimit="10" stroke-width="1"
        transform="translate(0.501 0.5)" />
</svg>
