<svg height="35" viewBox="0 0 27.49 35" width="27.49" xmlns="http://www.w3.org/2000/svg">
    <g id="フィットネス_1" transform="translate(-109.432 -75.186)">
        <path d="M134.97,140.381a15.006,15.006,0,0,1,.107,1.724,8.249,8.249,0,0,1-.3,2.335,3.667,3.667,0,0,1-1.018,1.719.481.481,0,1,0,.643.716,4.621,4.621,0,0,0,1.3-2.158,9.184,9.184,0,0,0,.337-2.611,15.866,15.866,0,0,0-.114-1.835.481.481,0,0,0-.956.112Z" data-name="Path 108"
            id="Path_108"
            transform="translate(-16.417 -43.914)" />
        <path d="M135.145,127.674l.376-.3-.425.226a.478.478,0,0,0,.049.074l.376-.3-.425.226.425-.226-.442.189.018.038.425-.226-.442.189.441-.188-.451.164.01.024.441-.188-.451.164.4-.144-.4.136,0,.008.4-.144-.4.136c0,.007.077.232.181.6a.481.481,0,0,0,.926-.262c-.114-.4-.194-.643-.2-.647a.481.481,0,0,0-.913.305A.472.472,0,0,0,135.145,127.674Z" data-name="Path 109"
            id="Path_109"
            transform="translate(-17.392 -35.117)" />
        <path d="M138.712,131.3a1.8,1.8,0,1,1-2.939-1.978.481.481,0,1,0-.681-.681,2.767,2.767,0,1,0,4.506,3.034.481.481,0,1,0-.886-.375Z" data-name="Path 110"
            id="Path_110"
            transform="translate(-16.878 -36.209)" />
        <path d="M163.527,140.27a15.863,15.863,0,0,0-.114,1.835,9.184,9.184,0,0,0,.337,2.611,4.621,4.621,0,0,0,1.3,2.158.481.481,0,1,0,.643-.716,3.667,3.667,0,0,1-1.018-1.719,8.25,8.25,0,0,1-.3-2.335,14.921,14.921,0,0,1,.107-1.723.481.481,0,1,0-.956-.112Z" data-name="Path 111"
            id="Path_111"
            transform="translate(-36.662 -43.914)" />
        <path d="M166.194,127.221c0,.006-.082.244-.2.647a.481.481,0,0,0,.926.262c.055-.193.1-.346.133-.449.016-.052.029-.091.037-.117l.009-.029,0-.008a.481.481,0,1,0-.912-.306Z" data-name="Path 112"
            id="Path_112"
            transform="translate(-38.406 -35.117)" />
        <path d="M153.676,131.675a2.767,2.767,0,1,0,4.506-3.034.481.481,0,1,0-.68.681,1.8,1.8,0,1,1-2.939,1.978.481.481,0,0,0-.886.375Z" data-name="Path 113"
            id="Path_113"
            transform="translate(-30.024 -36.209)" />
        <path d="M119.779,160.949a7.833,7.833,0,0,1,2.274.571,40.345,40.345,0,0,1,4.187,1.968c.671.352,1.3.688,1.846.971s1.008.512,1.367.656a14.572,14.572,0,0,0,1.485.525,4.574,4.574,0,0,0,1.245.175,8.277,8.277,0,0,0,1.342-.134l.029-.006a18.808,18.808,0,0,1,2.207-.388c.522-.056.876-.061,1.231-.088l.06,0a.754.754,0,0,1,.462.157.49.49,0,0,1,.109.115l.009.015,0,0,.132-.051h-.139a.139.139,0,0,0,.007.051l.132-.051h.113l-.245-.065a.259.259,0,0,0-.008.065h.253l-.245-.065.116.031-.113-.041,0,.01.116.031-.113-.041.014.005-.014-.006h0l.014.005-.014-.006a.641.641,0,0,1-.118.15,2,2,0,0,1-.566.381,3.177,3.177,0,0,1-1,.271l.053.478.047-.479c-.341-.033-.657-.047-.96-.047-.575,0-1.1.047-1.669.091s-1.19.089-1.974.089c-.363,0-.762-.009-1.206-.033h-.007c-5.936-.218-9.326-1.046-11.171-1.979a4.579,4.579,0,0,1-1.758-1.383,2,2,0,0,1-.387-1.167,2.072,2.072,0,0,1,.146-.753,1.923,1.923,0,0,1,.1-.212l.029-.05.006-.009h0l-.253-.167.252.169,0,0-.253-.167.252.169-.4-.269.385.289-.237-.177.226.191.011-.013-.237-.177.226.191-.03-.025.029.026h0l-.03-.025.029.026a1.319,1.319,0,0,1,.469-.28,4.9,4.9,0,0,1,1.833-.285,15.9,15.9,0,0,1,4.162.675.481.481,0,1,0,.257-.928,16.827,16.827,0,0,0-4.418-.71,5.573,5.573,0,0,0-2.333.416,1.906,1.906,0,0,0-.728.52l-.014.02a2.488,2.488,0,0,0-.228.454,3.031,3.031,0,0,0-.213,1.106,2.973,2.973,0,0,0,.559,1.717,4.852,4.852,0,0,0,1.409,1.293,13.453,13.453,0,0,0,4.325,1.6,45.554,45.554,0,0,0,7.949.878l.018-.481-.025.481c.461.024.877.034,1.256.034.819,0,1.473-.046,2.049-.091s1.073-.089,1.594-.088c.275,0,.558.012.867.042a.472.472,0,0,0,.1,0,3.865,3.865,0,0,0,1.792-.638,2.328,2.328,0,0,0,.5-.463,1.3,1.3,0,0,0,.157-.253.779.779,0,0,0,.078-.328.908.908,0,0,0-.153-.484,1.528,1.528,0,0,0-.544-.5,1.717,1.717,0,0,0-.839-.219c-.044,0-.089,0-.134.005-.311.024-.7.031-1.259.091a19.78,19.78,0,0,0-2.319.406l.107.469-.078-.475a7.383,7.383,0,0,1-1.186.122,3.6,3.6,0,0,1-.992-.141,13.627,13.627,0,0,1-1.383-.492c-.393-.155-1.057-.5-1.846-.912-1.188-.626-2.677-1.428-4.133-2.088a20.935,20.935,0,0,0-2.127-.844,7.218,7.218,0,0,0-1.887-.389.481.481,0,0,0-.037.962Z" data-name="Path 114"
            id="Path_114"
            transform="translate(-4.434 -57.071)" />
        <path d="M168.929,165.048a5.272,5.272,0,0,0,1.97-1.652,2.957,2.957,0,0,0,.523-1.663,3.03,3.03,0,0,0-.213-1.106,2.465,2.465,0,0,0-.228-.454l-.014-.02a1.906,1.906,0,0,0-.728-.52,5.574,5.574,0,0,0-2.333-.416,16.828,16.828,0,0,0-4.418.71.481.481,0,1,0,.257.928,15.9,15.9,0,0,1,4.162-.675,4.633,4.633,0,0,1,1.931.328,1.492,1.492,0,0,1,.32.191l.048.044,0,0,.057-.051-.059.048,0,0,.057-.051-.059.048.264-.217-.273.2.009.012.264-.217-.273.2.385-.289-.4.269.251-.169-.253.167,0,0,.251-.169-.253.167,0,0a2.057,2.057,0,0,1,.277,1.021,1.988,1.988,0,0,1-.36,1.128,4.329,4.329,0,0,1-1.622,1.338.481.481,0,1,0,.452.849Z" data-name="Path 115"
            id="Path_115"
            transform="translate(-36.473 -57.071)" />
        <path d="M120.1,174.859c-.045,0-.09-.005-.134-.005a1.711,1.711,0,0,0-1.056.363,1.44,1.44,0,0,0-.328.356.909.909,0,0,0-.153.484.779.779,0,0,0,.078.328,1.538,1.538,0,0,0,.315.431,2.959,2.959,0,0,0,.84.57,4.139,4.139,0,0,0,1.295.353.467.467,0,0,0,.1,0c1.782-.175,3.792-.024,6.741-.178a.481.481,0,0,0-.05-.961c-2.89.153-4.877,0-6.784.181l.047.479.053-.478a2.9,2.9,0,0,1-1.346-.47,1.379,1.379,0,0,1-.294-.266.376.376,0,0,1-.043-.065h0l-.2.075h.215a.221.221,0,0,0-.011-.075l-.2.075h.064l.145.05a.171.171,0,0,0,.006-.05h-.151l.145.05-.009,0,.008,0h0l-.009,0,.008,0a.493.493,0,0,1,.173-.171.755.755,0,0,1,.408-.119l.06,0a.481.481,0,0,0,.074-.96Z" data-name="Path 116"
            id="Path_116"
            transform="translate(-6.114 -67.691)" />
        <path d="M159.437,161.615a7.186,7.186,0,0,0-1.865.379,43.077,43.077,0,0,0-6.151,2.877.481.481,0,1,0,.449.852c1.193-.629,2.634-1.4,4.015-2.029a19.228,19.228,0,0,1,1.981-.783,6.3,6.3,0,0,1,1.608-.333.481.481,0,1,0-.037-.962Z" data-name="Path 117"
            id="Path_117"
            transform="translate(-28.343 -58.699)" />
        <path d="M134.1,105.622l.277-.1-.278.093v0l.277-.1-.278.093,0,0a1.39,1.39,0,0,1-.49,1.485,3.333,3.333,0,0,1-1.425.611h-.005a17.432,17.432,0,0,0-1.865.51,5.06,5.06,0,0,0-1.066.5,2.756,2.756,0,0,0-1.063,1.23,4.794,4.794,0,0,0-.336,1.867c-.019,1.25-.038,2.751-.038,4.009,0,.629,0,1.2.017,1.646.006.225.014.42.025.581a2.975,2.975,0,0,0,.046.4.481.481,0,1,0,.941-.2,2.462,2.462,0,0,1-.027-.263c-.028-.43-.04-1.231-.039-2.165,0-1.249.019-2.746.038-3.994a4.17,4.17,0,0,1,.205-1.373,1.785,1.785,0,0,1,.372-.617,2.815,2.815,0,0,1,1.076-.656,14.731,14.731,0,0,1,1.93-.542l-.107-.469.1.47a3.756,3.756,0,0,0,2.2-1.173,2.291,2.291,0,0,0,.421-.779,2.362,2.362,0,0,0,.1-.7,2.271,2.271,0,0,0-.106-.7.481.481,0,0,0-.908.32Z" data-name="Path 118"
            id="Path_118"
            transform="translate(-12.486 -20.236)" />
        <path d="M123.4,145.572a2.166,2.166,0,0,0-1.069.5A9.18,9.18,0,0,0,120.1,148.8a.481.481,0,0,0,.828.491,8.277,8.277,0,0,1,1.982-2.453,2.051,2.051,0,0,1,.482-.281.621.621,0,0,1,.089-.028h.006l-.012-.065.008.065h0l-.012-.065.008.065-.041-.338.022.339.019,0-.041-.338.022.339a.481.481,0,0,0-.062-.961Z" data-name="Path 119"
            id="Path_119"
            transform="translate(-7.201 -47.803)" />
        <path d="M126.788,137.879c0,.005-.069,1.051-.069,2.029a8.528,8.528,0,0,0,.075,1.312l0,.065a1.712,1.712,0,0,1-.2.683,4.19,4.19,0,0,1-1.157,1.4,4.681,4.681,0,0,1-2.134.947.481.481,0,1,0,.163.949,5.622,5.622,0,0,0,3.172-1.7,4.877,4.877,0,0,0,.821-1.174,2.615,2.615,0,0,0,.3-1.105,1.35,1.35,0,0,0-.019-.229,7.857,7.857,0,0,1-.061-1.147c0-.467.017-.961.034-1.336.008-.188.017-.346.023-.457s.011-.173.011-.173a.481.481,0,1,0-.961-.063Z" data-name="Path 120"
            id="Path_120"
            transform="translate(-9.152 -42.273)" />
        <path d="M114.99,151.99a1.775,1.775,0,0,0-.351-.234,1.906,1.906,0,0,0-.875-.219,1.783,1.783,0,0,0-.338.032l.091.473.247-.413a1.8,1.8,0,0,1-.3-.246c-.176-.171-.367-.39-.551-.579a2.723,2.723,0,0,0-.288-.264,1.063,1.063,0,0,0-.182-.114.665.665,0,0,0-.292-.07.581.581,0,0,0-.116.012.481.481,0,1,0,.191.943l-.075-.369v.376l.075-.008-.075-.369V151l-.105.3a.318.318,0,0,0,.105.017V151l-.105.3.048-.138-.074.127.025.011.048-.138-.074.127a1.1,1.1,0,0,1,.161.142c.129.129.3.317.476.5a3.17,3.17,0,0,0,.608.518.48.48,0,0,0,.339.06.834.834,0,0,1,.156-.015.947.947,0,0,1,.432.111,1,1,0,0,1,.126.077l.028.021,0,0,.155-.182-.159.178,0,0,.155-.182-.159.178a.481.481,0,0,0,.642-.717Z" data-name="Path 121"
            id="Path_121"
            transform="translate(-1.508 -51.051)" />
        <path d="M109.52,152.152a3.2,3.2,0,0,0-.089.782,3.132,3.132,0,0,0,.358,1.487,3.077,3.077,0,0,0,1.6,1.375l0,0,.512.2a.481.481,0,1,0,.357-.894l-.512-.2-.179.447.183-.445a2.11,2.11,0,0,1-1.12-.942,2.176,2.176,0,0,1-.243-1.03,2.593,2.593,0,0,1,.03-.4c.007-.047.015-.084.02-.107l.005-.023v0l-.2-.051.2.053v0l-.2-.051.2.053a.481.481,0,1,0-.929-.252Z" data-name="Path 122"
            id="Path_122"
            transform="translate(0 -52.031)" />
        <path d="M187.458,152.4l.2-.053-.2.051v0l.2-.053-.2.051a2.327,2.327,0,0,1,.057.532,2.177,2.177,0,0,1-.243,1.03,2.107,2.107,0,0,1-1.12.942l.183.445-.178-.447-.512.2A.481.481,0,0,0,186,156l.512-.2,0,0a3.076,3.076,0,0,0,1.6-1.375,3.133,3.133,0,0,0,.358-1.487,3.209,3.209,0,0,0-.09-.782.481.481,0,1,0-.929.252Z" data-name="Path 123"
            id="Path_123"
            transform="translate(-51.555 -52.031)" />
        <path d="M154.543,105.3a2.249,2.249,0,0,0-.106.7,2.332,2.332,0,0,0,.894,1.846,4.273,4.273,0,0,0,1.83.807l.1-.47-.108.469a16.5,16.5,0,0,1,1.759.479,4.136,4.136,0,0,1,.865.4,1.783,1.783,0,0,1,.706.81,3.868,3.868,0,0,1,.254,1.494c.019,1.247.039,2.743.039,3.991,0,.625,0,1.187-.017,1.623-.006.217-.014.4-.023.546a2.363,2.363,0,0,1-.027.263.481.481,0,0,0,.941.2,3.034,3.034,0,0,0,.046-.4c.031-.482.041-1.285.042-2.231,0-1.258-.019-2.756-.038-4.005a5.1,5.1,0,0,0-.265-1.691,2.741,2.741,0,0,0-.572-.941,3.751,3.751,0,0,0-1.432-.9,15.545,15.545,0,0,0-2.061-.583h-.005a2.825,2.825,0,0,1-1.658-.843,1.339,1.339,0,0,1-.246-.454,1.41,1.41,0,0,1-.061-.416,1.5,1.5,0,0,1,.03-.3c.007-.035.014-.061.018-.077l0-.015h0l-.278-.093.277.1,0,0-.278-.093.277.1a.481.481,0,1,0-.908-.32Z" data-name="Path 124"
            id="Path_124"
            transform="translate(-30.566 -20.236)" />
        <path d="M173.331,146.532l.019-.294-.04.291.021,0,.019-.294-.04.291,0-.026,0,.026h0l0-.026,0,.026a1.771,1.771,0,0,1,.706.412,8.833,8.833,0,0,1,1.853,2.351.481.481,0,0,0,.828-.491,9.18,9.18,0,0,0-2.234-2.733,2.166,2.166,0,0,0-1.069-.5.481.481,0,0,0-.062.961Z" data-name="Path 125"
            id="Path_125"
            transform="translate(-43.093 -47.803)" />
        <path d="M166.99,137.942s0,.063.01.174c.019.332.057,1.092.057,1.793a7.854,7.854,0,0,1-.061,1.147,1.347,1.347,0,0,0-.019.229,2.606,2.606,0,0,0,.3,1.105,5.143,5.143,0,0,0,1.424,1.729,5.645,5.645,0,0,0,2.57,1.142.481.481,0,0,0,.163-.949,4.66,4.66,0,0,1-2.632-1.406,3.912,3.912,0,0,1-.659-.938,1.705,1.705,0,0,1-.2-.683l0-.064a8.492,8.492,0,0,0,.076-1.312c0-.978-.069-2.024-.07-2.029a.481.481,0,1,0-.96.063Z" data-name="Path 126"
            id="Path_126"
            transform="translate(-39.083 -42.273)" />
        <path d="M183.262,152.707l-.159-.178.155.182,0,0-.159-.178.155.182a1,1,0,0,1,.589-.212.839.839,0,0,1,.156.015.479.479,0,0,0,.339-.06,2.674,2.674,0,0,0,.474-.383c.214-.21.412-.437.569-.6a1.868,1.868,0,0,1,.182-.17l.019-.013h0l-.129-.245v.272a.275.275,0,0,0,.129-.027l-.129-.245v-.1l-.074.368.074.008v-.376l-.074.368a.481.481,0,1,0,.19-.943.575.575,0,0,0-.116-.012.7.7,0,0,0-.36.107,1.877,1.877,0,0,0-.356.295c-.161.162-.325.349-.485.514a2.367,2.367,0,0,1-.409.359l.247.413.091-.473a1.783,1.783,0,0,0-.338-.032,1.906,1.906,0,0,0-.875.219,1.775,1.775,0,0,0-.351.234.481.481,0,1,0,.642.717Z" data-name="Path 127"
            id="Path_127"
            transform="translate(-49.598 -51.051)" />
        <path d="M136.557,115.263a9.268,9.268,0,0,0,.715,2.962,5.554,5.554,0,0,0,1.524,2.1,4.417,4.417,0,0,0,2.876.981,4.076,4.076,0,0,0,1.982-.516,5.9,5.9,0,0,0,2.167-2.218,9.586,9.586,0,0,0,1.139-3.143.481.481,0,1,0-.947-.171,8.066,8.066,0,0,1-1.549,3.589,4.391,4.391,0,0,1-1.274,1.1,3.108,3.108,0,0,1-1.518.4,3.447,3.447,0,0,1-2.267-.764,5.34,5.34,0,0,1-1.593-2.7,8.846,8.846,0,0,1-.246-1.186c-.02-.151-.033-.272-.04-.354,0-.041-.006-.072-.007-.092v-.026a.481.481,0,1,0-.962.044Z" data-name="Path 128"
            id="Path_128"
            transform="translate(-18.423 -26.877)" />
        <path d="M137.8,154.472a11.322,11.322,0,0,0,4.374.783,14.54,14.54,0,0,0,4.609-.765.481.481,0,0,0-.3-.913,13.577,13.577,0,0,1-4.3.715,11.9,11.9,0,0,1-2.927-.355c-.345-.089-.612-.176-.791-.241-.089-.032-.156-.059-.2-.076l-.047-.02-.01,0h0a.481.481,0,1,0-.4.875Z" data-name="Path 129"
            id="Path_129"
            transform="translate(-19.073 -53.224)" />
        <path d="M141.152,77.623a4.294,4.294,0,0,1,1.524-1.064,4.735,4.735,0,0,1,1.822-.41,2.258,2.258,0,0,1,.844.143,1.019,1.019,0,0,1,.491.383l.4-.261-.417.24a1.45,1.45,0,0,1,.229.712.759.759,0,0,1-.066.315,1.336,1.336,0,0,1-.46.513,4.989,4.989,0,0,1-1.38.629c-.527.166-1.073.286-1.51.382a2.669,2.669,0,0,0-1.119.517,2.287,2.287,0,0,0-.744,1.1,2.147,2.147,0,0,0-.107.607l.005.069a9.41,9.41,0,0,0,.653,2.219,5.027,5.027,0,0,0,1.061,1.59,2.913,2.913,0,0,0,.829.566,2.563,2.563,0,0,0,1.051.221h0a2.312,2.312,0,0,0,.97-.22A3.321,3.321,0,0,0,146.47,84.8a7.594,7.594,0,0,0,1-2.014,9.417,9.417,0,0,0,.3-1.059.481.481,0,0,0-.943-.193l0,.007a9.007,9.007,0,0,1-.687,1.948,4.151,4.151,0,0,1-.828,1.172,1.88,1.88,0,0,1-.5.342,1.342,1.342,0,0,1-.553.123h0a1.6,1.6,0,0,1-.66-.138,2.337,2.337,0,0,1-.917-.8,6.232,6.232,0,0,1-.837-1.839c-.084-.287-.141-.539-.177-.716-.018-.089-.031-.159-.039-.206l-.009-.053,0-.012v0l-.476.069h.221l.261,0v0h-.261l.261,0s0-.015,0-.046a1.418,1.418,0,0,1,.221-.619,1.283,1.283,0,0,1,.347-.353,1.777,1.777,0,0,1,.641-.266,12.826,12.826,0,0,0,2.494-.744,3.682,3.682,0,0,0,1.139-.761,2,2,0,0,0,.388-.568,1.724,1.724,0,0,0,.15-.707,2.394,2.394,0,0,0-.358-1.192l-.013-.022a1.983,1.983,0,0,0-.935-.752,3.208,3.208,0,0,0-1.207-.214,5.682,5.682,0,0,0-2.205.49,5.244,5.244,0,0,0-1.869,1.317.481.481,0,1,0,.728.63Z" data-name="Path 130"
            id="Path_130"
            transform="translate(-20.969)" />
        <path d="M155.814,89.123c0-.033,0-.068,0-.1a2.729,2.729,0,0,0-.129-.823,2.6,2.6,0,0,0-.926-1.3,3.978,3.978,0,0,0-2.11-.71.481.481,0,0,0-.078.96,3.6,3.6,0,0,1,1.221.29,1.769,1.769,0,0,1,.854.765,1.739,1.739,0,0,1,.2.816l0,.064a.481.481,0,0,0,.962.039Z" data-name="Path 131"
            id="Path_131"
            transform="translate(-29 -7.472)" />
        <path d="M158.429,80.569l.112-.272-.117.27.006,0,.112-.272-.117.27h0a1.474,1.474,0,0,1,.485.411,2.34,2.34,0,0,1,.457,1.511c0,.11,0,.227-.016.351a.481.481,0,0,0,.959.083c.013-.15.019-.295.019-.434a3.264,3.264,0,0,0-.734-2.193,2.3,2.3,0,0,0-.8-.617.481.481,0,0,0-.365.891Z" data-name="Path 132"
            id="Path_132"
            transform="translate(-33.074 -3.027)" />
        <path d="M141.015,94.271c-.012,0-.041,0-.082,0a1.04,1.04,0,0,0-.5.121.816.816,0,0,0-.307.292.891.891,0,0,0-.124.467,1.446,1.446,0,0,0,.081.454l.015.04a1.721,1.721,0,0,0,.653.79,1.2,1.2,0,0,0,.454.178.481.481,0,1,0,.132-.953l-.032.232.052-.228-.02,0-.032.232.052-.228-.008,0a.432.432,0,0,1-.144-.083.833.833,0,0,1-.224-.318l-.441.193L141,95.3a.515.515,0,0,1-.032-.15v-.007l-.114-.014.088.067.026-.054-.114-.014.088.067-.114-.087.075.123.038-.035-.114-.087.075.123-.029-.047.019.053.01-.005-.029-.047.019.053.042-.005h0l.013-.245-.023.244h.01l.013-.245-.023.244a.481.481,0,0,0,.09-.958Z" data-name="Path 133"
            id="Path_133"
            transform="translate(-20.763 -12.96)" />
        <path d="M160.2,95.215v-.17l-.012.169h.011v-.17l-.012.169.027,0,.017.005.02-.044-.029.038.009.006.02-.044-.029.038.087-.117-.129.067.041.05.087-.117-.129.067.125-.065-.137.032.012.033.125-.065-.137.032.052-.012h-.055l0,.012.052-.012h-.055a.433.433,0,0,1-.047.153l.439.2-.42-.235a.757.757,0,0,1-.316.33.381.381,0,0,1-.087.032l-.011,0,.029.233-.009-.234h-.02l.029.233-.009-.234a.481.481,0,1,0,.036.962,1.2,1.2,0,0,0,.47-.132,1.72,1.72,0,0,0,.728-.722L161,95.67a1.341,1.341,0,0,0,.131-.546.842.842,0,0,0-.169-.517.852.852,0,0,0-.258-.222,1.055,1.055,0,0,0-.332-.116,1.04,1.04,0,0,0-.166-.016.481.481,0,1,0-.007.963Z" data-name="Path 134"
            id="Path_134"
            transform="translate(-33.857 -12.95)" />
        <path d="M149.945,102.823a1.111,1.111,0,0,0,.206.181.965.965,0,0,0,.544.18,1.049,1.049,0,0,0,.743-.351.16.16,0,1,0-.227-.227.728.728,0,0,1-.516.257.644.644,0,0,1-.362-.124.869.869,0,0,1-.108-.088l-.027-.028-.006-.007h0l-.047.039.047-.039h0l-.047.039.047-.039a.16.16,0,0,0-.246.206Z" data-name="Path 135"
            id="Path_135"
            transform="translate(-27.49 -18.591)" />
        <path d="M152.624,100.2l.039.047-.023-.057-.016.011.039.047-.023-.057-.024,0a.247.247,0,0,1-.087-.019.159.159,0,0,0-.157.025.435.435,0,0,1-.27.116h0a.16.16,0,0,0,0,.321v0h0v0a.756.756,0,0,0,.471-.186l-.1-.125-.057.15a.56.56,0,0,0,.2.04.335.335,0,0,0,.214-.067.16.16,0,0,0-.206-.246Z" data-name="Path 136"
            id="Path_136"
            transform="translate(-28.87 -16.963)" />
        <path d="M150.039,100.447a.335.335,0,0,0,.214.067.561.561,0,0,0,.2-.04l-.057-.15-.1.125a.755.755,0,0,0,.471.186v0h0v0a.16.16,0,0,0,0-.321h0a.434.434,0,0,1-.27-.116.16.16,0,0,0-.157-.025.246.246,0,0,1-.087.019l-.024,0-.023.057.039-.047-.016-.011-.023.057.039-.047a.16.16,0,0,0-.206.246Z" data-name="Path 137"
            id="Path_137"
            transform="translate(-27.54 -16.963)" />
        <path d="M137.1,80.253a5.623,5.623,0,0,0-.9,1.306,7.911,7.911,0,0,0-.866,3.667,11.959,11.959,0,0,0,1.871,6.081.481.481,0,1,0,.829-.489,11,11,0,0,1-1.738-5.592A6.945,6.945,0,0,1,137.06,82a5.6,5.6,0,0,1,.513-.817c.069-.09.125-.156.162-.2l.041-.045.008-.009-.021-.021.021.021h0l-.021-.021.021.021a.481.481,0,0,0-.68-.681Z" data-name="Path 138"
            id="Path_138"
            transform="translate(-17.596 -3.345)" />
        <path d="M161.77,97.2a14.962,14.962,0,0,0,.454,3.565,4.469,4.469,0,0,0,.638,1.4,2.262,2.262,0,0,0,.5.509,1.761,1.761,0,0,0,.662.3.481.481,0,1,0,.2-.941.8.8,0,0,1-.3-.136,1.7,1.7,0,0,1-.492-.634,6.367,6.367,0,0,1-.512-1.8,17.943,17.943,0,0,1-.192-2.281.481.481,0,0,0-.962.026Z" data-name="Path 139"
            id="Path_139"
            transform="translate(-35.546 -14.616)" />
        <path d="M161.8,88.469c-.033.581-.061,1.3-.061,2.063a.481.481,0,1,0,.963,0c0-.743.027-1.441.06-2.007a.481.481,0,1,0-.961-.055Z" data-name="Path 140"
            id="Path_140"
            transform="translate(-35.524 -8.713)" />
        <path d="M154.269,93.1l.007,0a2.3,2.3,0,0,1,.543-.06,2.61,2.61,0,0,1,.369.026h0a1.616,1.616,0,0,1,.448.116.669.669,0,0,1,.09.047l.017.012,0-.006,0,.005h0l0-.006,0,.005a.16.16,0,0,0,.209-.243,1.424,1.424,0,0,0-.723-.249l-.021.159.022-.159a2.945,2.945,0,0,0-.414-.029,2.522,2.522,0,0,0-.638.074.16.16,0,0,0,.088.309Z" data-name="Path 141"
            id="Path_141"
            transform="translate(-30.313 -11.906)" />
        <path d="M146.733,92.791a2.522,2.522,0,0,0-.638-.074,2.951,2.951,0,0,0-.414.029l.023.159-.021-.159a1.419,1.419,0,0,0-.723.249.16.16,0,1,0,.209.243l-.005-.006,0,.006h0l-.005-.006,0,.006a1.234,1.234,0,0,1,.555-.174h0a2.606,2.606,0,0,1,.369-.026,2.545,2.545,0,0,1,.4.032c.048.008.086.016.111.021l.028.007.007,0a.16.16,0,1,0,.088-.309Z" data-name="Path 142"
            id="Path_142"
            transform="translate(-24.092 -11.906)" />
        <path d="M154.574,95.779l-.015-.061.014.062h0l-.015-.061.014.062a.376.376,0,0,1,.072-.007.323.323,0,0,1,.111.018c.032.012.116.053.22.09a1.2,1.2,0,0,0,.392.071,1.007,1.007,0,0,0,.469-.116.16.16,0,0,0-.148-.285.684.684,0,0,1-.321.08.881.881,0,0,1-.287-.053c-.086-.03-.152-.064-.213-.087a.634.634,0,0,0-.224-.039.627.627,0,0,0-.148.016.16.16,0,1,0,.077.311Z" data-name="Path 143"
            id="Path_143"
            transform="translate(-30.524 -13.764)" />
        <path d="M147.337,95.468a.627.627,0,0,0-.148-.016.634.634,0,0,0-.224.039c-.062.023-.127.057-.213.087a.884.884,0,0,1-.287.053.682.682,0,0,1-.321-.08.16.16,0,1,0-.148.285,1,1,0,0,0,.469.116,1.2,1.2,0,0,0,.392-.071c.1-.037.189-.078.22-.09a.326.326,0,0,1,.111-.018l.056,0,.014,0h0l.014-.062-.015.061h0l.014-.062-.015.061a.16.16,0,1,0,.077-.311Z" data-name="Path 144"
            id="Path_144"
            transform="translate(-24.775 -13.764)" />
    </g>
</svg>
