<svg xmlns="http://www.w3.org/2000/svg" width="42.161" height="35.435" viewBox="0 0 42.161 35.435">
  <g id="リラクゼーション_3" transform="translate(-4414.363 -6786)">
    <path id="Path_202975" data-name="Path 202975" d="M2.408,10.557c-.508-.1-.983-.157-1.441-.277C.3,10.1,0,9.764,0,9.261A1.185,1.185,0,0,1,1.012,8.093a10.517,10.517,0,0,1,1.709-.068c.317,0,.635.05.952.074a1.156,1.156,0,0,0,1.056-.448c1-1.3,2.031-2.577,2.982-3.911.712-1-.66,1.01-.006-.029.077-.121.155-.242.237-.359.184-.262.462-.375.685-.151a.7.7,0,0,1,.113.651A18.539,18.539,0,0,1,5.774,7.979,2.858,2.858,0,0,1,3.025,9.035a8.44,8.44,0,0,0-1.334-.082,3.263,3.263,0,0,0-.7.162v.192l1.6.287c.141.025.285.041.422.079.6.171.743.456.573,1.17A2.654,2.654,0,0,0,6.093,9.774c.325-.511.642-1.029,1-1.516C7.926,7.13,8.777,6.016,9.626,4.9c.206-.271.483-.415.775-.15s.153.521-.051.8c-.97,1.3-1.923,2.617-2.88,3.93a4.98,4.98,0,0,0-.314.48A3.808,3.808,0,0,1,3.3,11.816C2.552,11.783,2.222,11.321,2.408,10.557Z" transform="translate(4455.949 6807.397) rotate(74)" stroke="rgba(0,0,0,0)" stroke-miterlimit="10" stroke-width="1"/>
    <path id="Path_202976" data-name="Path 202976" d="M2.408,1.267c-.508.1-.983.157-1.441.277C.3,1.72,0,2.059,0,2.562A1.185,1.185,0,0,0,1.012,3.73,10.514,10.514,0,0,0,2.721,3.8c.317,0,.635-.05.952-.074a1.156,1.156,0,0,1,1.056.448c1,1.3,2.031,2.577,2.982,3.911.712,1,1.32,2.07,1.974,3.108.077.121.155.242.237.359.184.262.462.375.685.151a.7.7,0,0,0,.113-.651A54.619,54.619,0,0,0,5.774,3.844,2.858,2.858,0,0,0,3.025,2.788a8.442,8.442,0,0,1-1.334.082,3.26,3.26,0,0,1-.7-.162V2.517l1.6-.287c.14-.025.285-.04.422-.079.6-.171.743-.456.573-1.17A2.654,2.654,0,0,1,6.093,2.049c.325.511.642,1.029,1,1.516.831,1.129,1.682,2.243,2.532,3.357.206.271.483.415.775.15s.153-.521-.051-.8c-.97-1.3-1.923-2.617-2.88-3.93a4.971,4.971,0,0,1-.314-.48A3.808,3.808,0,0,0,3.3.008C2.552.04,2.222.5,2.408,1.267Z" transform="translate(4429.332 6793.459) rotate(106)" stroke="rgba(0,0,0,0)" stroke-miterlimit="10" stroke-width="1"/>
    <g id="New_Symbol_6" data-name="New Symbol 6" transform="translate(4423.534 6786)">
      <g id="Group_53" data-name="Group 53" transform="translate(0 0)">
        <circle id="Ellipse_14" data-name="Ellipse 14" cx="0.569" cy="0.569" r="0.569" transform="translate(9.783 10.241)"/>
        <circle id="Ellipse_15" data-name="Ellipse 15" cx="0.569" cy="0.569" r="0.569" transform="translate(9.214 12.516)"/>
        <circle id="Ellipse_16" data-name="Ellipse 16" cx="0.711" cy="0.711" r="0.711" transform="translate(8.503 14.934)"/>
        <circle id="Ellipse_17" data-name="Ellipse 17" cx="0.853" cy="0.853" r="0.853" transform="translate(10.068 17.84)"/>
        <circle id="Ellipse_18" data-name="Ellipse 18" cx="0.853" cy="0.853" r="0.853" transform="translate(11.205 21.416)"/>
        <circle id="Ellipse_19" data-name="Ellipse 19" cx="0.711" cy="0.711" r="0.711" transform="translate(10.779 27.572)"/>
        <circle id="Ellipse_20" data-name="Ellipse 20" cx="0.711" cy="0.711" r="0.711" transform="translate(11.348 24.565)"/>
        <circle id="Ellipse_21" data-name="Ellipse 21" cx="0.569" cy="0.569" r="0.569" transform="translate(9.783 30.721)"/>
        <path id="Path_202977" data-name="Path 202977" d="M1095.785,750.237a.569.569,0,0,1-.405-.968,5.39,5.39,0,0,0,1.543-3.93c0-2.63-1.531-4.757-3.413-4.757s-3.413,2.127-3.413,4.739a5.407,5.407,0,0,0,1.543,3.948.569.569,0,0,1-.81.8,6.541,6.541,0,0,1-1.871-4.763c0-3.223,2.042-5.86,4.551-5.86s4.551,2.636,4.551,5.877a6.527,6.527,0,0,1-1.871,4.746A.568.568,0,0,1,1095.785,750.237Z" transform="translate(-1083.156 -739.444)"/>
        <path id="Path_202978" data-name="Path 202978" d="M1108.682,778.2a.588.588,0,0,1-.062,0,.569.569,0,0,1-.5-.628c.561-5.085-.014-15.352-.945-16.9-.244-.405-1.436-.578-2.487-.73-2.042-.3-4.84-.7-4.84-3.357v-.569a.569.569,0,1,1,1.138,0v.569c0,1.554,1.53,1.892,3.865,2.23,1.49.216,2.777.4,3.3,1.27,1.21,2.01,1.613,12.976,1.1,17.612A.57.57,0,0,1,1108.682,778.2Z" transform="translate(-1087.85 -746.341)"/>
        <path id="Path_202979" data-name="Path 202979" d="M1080.329,778.2a.568.568,0,0,1-.569-.569c0-1.307-.227-3.258-.467-5.324-.529-4.552-.822-7.624-.107-8.812a8.415,8.415,0,0,1,2.638-2.076c2.016-1.262,4.526-2.831,4.526-4.837v-.569a.569.569,0,0,1,1.138,0v.569c0,2.636-2.806,4.391-5.061,5.8a8.881,8.881,0,0,0-2.266,1.7c-.568.944-.108,4.909.263,8.094.244,2.1.474,4.083.474,5.456A.569.569,0,0,1,1080.329,778.2Z" transform="translate(-1078.762 -746.341)"/>
        <path id="Path_202980" data-name="Path 202980" d="M1108.528,785.082a.558.558,0,0,1-.114-.011.569.569,0,0,1-.443-.671c1.586-7.777.705-11.25.474-11.96a.565.565,0,0,1-.166-.329.6.6,0,0,1,.272-.621.587.587,0,0,1,.634.023c.5.349,1.689,4.345-.1,13.115A.569.569,0,0,1,1108.528,785.082Z" transform="translate(-1091.348 -753.223)"/>
        <path id="Path_202981" data-name="Path 202981" d="M1087.236,786.391a.623.623,0,0,1-.086-.006.568.568,0,0,1-.477-.648,13.861,13.861,0,0,0-.867-7.361,14.874,14.874,0,0,1-.844-3.3.569.569,0,1,1,1.132-.117,14.006,14.006,0,0,0,.789,3.057,15,15,0,0,1,.914,7.9A.568.568,0,0,1,1087.236,786.391Z" transform="translate(-1081.434 -754.532)"/>
      </g>
    </g>
  </g>
</svg>
