<svg height="25.177" viewBox="0 0 42.199 25.177" width="42.199" xmlns="http://www.w3.org/2000/svg">
    <g id="リラクゼーション_4" transform="translate(-237.122 -1714.367)">
        <g data-name="Group 967" id="Group_967" transform="translate(246.844 1714.367)">
            <path
                d="M479.175,1760.077a.636.636,0,0,1-.55-.954,59.642,59.642,0,0,0,2.641-5.629,7.22,7.22,0,0,0-1.1-.343c-.092-.023-.162-.042-.2-.054a.969.969,0,0,1-.574-.5l-1.072.886a.636.636,0,0,1-1.039-.546l.137-1.56a2.4,2.4,0,0,1-.937-.014c-.6-.18-.576-.844-.55-1.486,0,0,0-.005,0-.008l-.394.169a4.777,4.777,0,0,1-2.231.649,6.041,6.041,0,0,1-1.956-1.1,3.26,3.26,0,0,0-.964-.393.636.636,0,1,1,.285-1.24,4.531,4.531,0,0,1,1.381.571.675.675,0,0,1,.059.042,5.6,5.6,0,0,0,1.4.86,8.573,8.573,0,0,0,1.519-.561c.984-.425,1.391-.6,1.775-.373.442.262.42.8.395,1.431,0,.055,0,.121-.007.189.238-.021.543-.057.83-.1a.636.636,0,0,1,.729.685l-.073.831.556-.46a.636.636,0,0,1,1.015.309,3.2,3.2,0,0,0,.211.527l.019.005c.886.225,2.1.533,2.126,1.37.005.167.014.448-1.184,3.047-.653,1.417-1.352,2.825-1.7,3.425A.636.636,0,0,1,479.175,1760.077Z"
                data-name="Path 1859" id="Path_1859" transform="translate(-459.869 -1745.098)" />
            <path
                d="M591.207,1850.421a4.163,4.163,0,0,1-1.977-.5,13.44,13.44,0,0,1-2.4-1.62.636.636,0,0,1,.849-.947,12.476,12.476,0,0,0,2.151,1.448,2.892,2.892,0,0,0,1.895.3l6.689-1.3a.636.636,0,0,1,.243,1.249l-6.695,1.3A4.2,4.2,0,0,1,591.207,1850.421Z"
                data-name="Path 1860" id="Path_1860" transform="translate(-566.699 -1835.927)" />
            <path
                d="M352.371,1720.565a.636.636,0,0,1-.552-.951c2.013-3.531,5.359-5.247,10.23-5.247a.636.636,0,1,1,0,1.272c-4.373,0-7.358,1.506-9.125,4.6A.636.636,0,0,1,352.371,1720.565Z"
                data-name="Path 1861" id="Path_1861" transform="translate(-351.736 -1714.367)" />
            <path
                d="M427.835,1945.144h-9.663a5.49,5.49,0,0,1-4.43-2.259l-1.717-2.365a13.978,13.978,0,0,1-3.207,1.406,10.772,10.772,0,0,1-8.391-.782.636.636,0,1,1,.611-1.116,9.4,9.4,0,0,0,7.38.69,12.192,12.192,0,0,0,3.394-1.574.637.637,0,0,1,.889.141l2.071,2.854a4.214,4.214,0,0,0,3.4,1.734h9.663a.636.636,0,1,1,0,1.272Z"
                data-name="Path 1862" id="Path_1862" transform="translate(-395.994 -1919.967)" />
            <path d="M649.79,1910.465h-6.531a.636.636,0,0,1,0-1.272h6.531a.636.636,0,0,1,0,1.272Z"
                data-name="Path 1863" id="Path_1863" transform="translate(-617.949 -1892.667)" />
        </g>
        <path
            d="M255.175,1804.02h-.014l-4.242-.09a.636.636,0,0,1,.013-1.272h.014l4.208.09,4.764-.4a.629.629,0,0,0-.045-.071.59.59,0,0,0-.447-.243c-1.554-.091-4.549-.316-6.338-.449-.628-.047-1.174-.088-1.269-.094-.219,0-.433-.036-2.368-1.583a.636.636,0,0,1,.4-1.133h0l2.9.013.052,0a.869.869,0,0,0,.735-.3l-3.753-.922a1.56,1.56,0,0,0-.967.11l-4.593,2.124a2.358,2.358,0,0,1-1.444.248l-.031-.005-5.119-1a.636.636,0,0,1,.244-1.249l5.1,1a1.1,1.1,0,0,0,.666-.121l.033-.017,4.609-2.131a2.841,2.841,0,0,1,1.776-.2l.018,0,4.521,1.111a.636.636,0,0,1,.428.88l-.319.7a.631.631,0,0,1-.05.09,2.14,2.14,0,0,1-1.937.947l-.989,0c.105.075.192.134.253.172l1.193.089c1.785.133,4.773.357,6.318.448a1.87,1.87,0,0,1,1.7,2.321.636.636,0,0,1-.564.48l-5.415.451Z"
            data-name="Path 1864" id="Path_1864" transform="translate(0 -74.952)" />
        <path
            d="M250.7,1887.7a3.586,3.586,0,0,1-1.18-.229l-6.926-2.412a1.945,1.945,0,0,0-.541-.109h-.015l-4.325-.341a.636.636,0,1,1,.1-1.268l4.318.34a3.212,3.212,0,0,1,.884.178l6.926,2.412a2.323,2.323,0,0,0,.775.157l8.008-.83a.636.636,0,0,1,.131,1.266l-8.033.833-.045,0Z"
            data-name="Path 1865" id="Path_1865" transform="translate(-0.001 -154.635)" />
        <path
            d="M407.988,1871.673a.636.636,0,0,1-.048-1.27l7.388-.568-.3-.871a.636.636,0,1,1,1.2-.42l.577,1.651a.636.636,0,0,1-.552.844l-8.212.632Z"
            data-name="Path 1866" id="Path_1866" transform="translate(-155.791 -140.709)" />
        <path
            d="M330.175,1934.824H317.3a3.762,3.762,0,0,1-3.677-3.834v-.051a3.864,3.864,0,0,1,1.456-3.056.636.636,0,0,1,.789,1,2.6,2.6,0,0,0-.973,2.058v.051a2.49,2.49,0,0,0,2.405,2.562h12.875a2.49,2.49,0,0,0,2.405-2.562v-.051a2.68,2.68,0,0,0-.213-1.055.636.636,0,0,1,1.171-.5,3.946,3.946,0,0,1,.314,1.553v.051A3.762,3.762,0,0,1,330.175,1934.824Z"
            data-name="Path 1867" id="Path_1867" transform="translate(-70.012 -195.28)" />
    </g>
</svg>
