<svg height="35.198" viewBox="0 0 27.701 35.198" width="27.701" xmlns="http://www.w3.org/2000/svg">
    <g id="リラクゼーション_7" transform="translate(-2470.979 -4676.779)">
        <g data-name="Group 56674" id="Group_56674">
            <path
                d="M2482.54,4687.041a.377.377,0,0,0-.468-.253h0a9.235,9.235,0,0,0-4.1,2.556.376.376,0,0,0,.551.513,8.491,8.491,0,0,1,3.77-2.348A.377.377,0,0,0,2482.54,4687.041Z"
                data-name="Path 2406" id="Path_2406" />
            <path
                d="M2478.246,4690.078a.471.471,0,0,1-.324-.128.477.477,0,0,1-.025-.674,9.369,9.369,0,0,1,4.074-2.561v-.026h.087a.465.465,0,0,1,.347.041.478.478,0,0,1-.083.876,8.412,8.412,0,0,0-3.727,2.321.473.473,0,0,1-.331.151Zm3.873-3.2-.019.006a9.162,9.162,0,0,0-4.056,2.528.277.277,0,0,0,.014.391.306.306,0,0,0,.2.074.274.274,0,0,0,.193-.089,8.616,8.616,0,0,1,3.814-2.375.277.277,0,0,0,.181-.344h0a.281.281,0,0,0-.134-.164A.264.264,0,0,0,2482.119,4686.879Z"
                data-name="Path 202323" id="Path_202323" />
        </g>
        <g data-name="Group 56675" id="Group_56675">
            <path
                d="M2477.37,4690.685a.375.375,0,0,0-.518.122h0a9.13,9.13,0,0,0-1.017,2.319.376.376,0,0,0,.714.235c0-.012.007-.024.01-.036a8.44,8.44,0,0,1,.934-2.129A.375.375,0,0,0,2477.37,4690.685Z"
                data-name="Path 2407" id="Path_2407" />
            <path
                d="M2476.19,4693.72a.447.447,0,0,1-.147-.024.475.475,0,0,1-.3-.6,9.315,9.315,0,0,1,1.012-2.317v-.071h.048a.475.475,0,0,1,.622-.107h0a.476.476,0,0,1,.156.649,8.352,8.352,0,0,0-.923,2.1l-.009.037A.482.482,0,0,1,2476.19,4693.72Zm.751-2.866,0,.006a9.107,9.107,0,0,0-1.006,2.294.277.277,0,1,0,.524.177l.006-.027a8.569,8.569,0,0,1,.947-2.159.277.277,0,0,0-.091-.375h0a.273.273,0,0,0-.376.084Z"
                data-name="Path 202324" id="Path_202324" />
        </g>
        <g data-name="Group 56676" id="Group_56676">
            <path
                d="M2497.03,4708.767h-.535V4695.63a11.558,11.558,0,0,0-9.337-11.342V4681.1a.376.376,0,0,0-.376-.376H2485.2v-.658a1.617,1.617,0,1,0-.753,0v.658h-1.578a.376.376,0,0,0-.376.376v3.186a11.558,11.558,0,0,0-9.337,11.342v13.137h-.53a1.555,1.555,0,0,0,0,3.11h24.4a1.555,1.555,0,0,0,0-3.11Zm-13.067-30.273a.865.865,0,1,1,.866.864h0a.865.865,0,0,1-.861-.864Zm2.442,2.984v2.689a11.473,11.473,0,0,0-1.2-.089v-2.6Zm-3.156,0h1.2v2.6a11.453,11.453,0,0,0-1.2.089Zm-9.337,14.152a10.812,10.812,0,0,1,10.8-10.8h.226a10.814,10.814,0,0,1,10.8,10.8v13.137h-21.83Zm23.908,14.7a.793.793,0,0,1-.791.791h-24.4a.8.8,0,0,1,0-1.6h24.4a.792.792,0,0,1,.8.783v.03Z"
                data-name="Path 2408" id="Path_2408" />
            <path
                d="M2497.03,4711.977h-24.4a1.655,1.655,0,0,1,0-3.31h.431V4695.63a11.684,11.684,0,0,1,9.337-11.425v-3.1a.476.476,0,0,1,.476-.476h1.478v-.481a1.717,1.717,0,1,1,.953,0v.481h1.478a.477.477,0,0,1,.476.476v3.1a11.683,11.683,0,0,1,9.337,11.425v13.037h.435a1.655,1.655,0,0,1,0,3.31Zm-24.4-3.111a1.455,1.455,0,0,0,0,2.911h24.4a1.455,1.455,0,0,0,0-2.911h-.634V4695.63a11.483,11.483,0,0,0-9.256-11.245l-.081-.016V4681.1a.277.277,0,0,0-.276-.277H2485.1v-.837l.076-.018a1.517,1.517,0,1,0-.706,0l.077.018v.837h-1.678a.277.277,0,0,0-.276.277v3.267l-.081.016a11.485,11.485,0,0,0-9.256,11.245v13.236Zm24.4,2.354h-24.4a.9.9,0,0,1,0-1.8h24.411a.892.892,0,0,1,.89.883l-.008.188-.016-.008A.893.893,0,0,1,2497.029,4711.22Zm.01-1.6H2472.63a.7.7,0,0,0-.7.7.7.7,0,0,0,.7.7h24.4a.694.694,0,0,0,.691-.692v-.116A.692.692,0,0,0,2497.039,4709.62Zm-1.2-.754h-22.03l0-13.236a10.932,10.932,0,0,1,10.9-10.9h.226a10.933,10.933,0,0,1,10.9,10.9Zm-21.83-.2h21.63V4695.63a10.732,10.732,0,0,0-10.7-10.7h-.226a10.732,10.732,0,0,0-10.7,10.7Zm12.5-24.387-.113-.013a11.555,11.555,0,0,0-1.19-.09l-.1,0v-2.8h1.4Zm-1.2-.3c.337.012.673.037,1,.075v-2.477h-1Zm-2.157.3v-2.9h1.4v2.8l-.1,0a11.55,11.55,0,0,0-1.19.09Zm.2-2.7v2.477c.326-.038.662-.063,1-.075v-2.4Zm1.48-2.12a.968.968,0,0,1-.957-.864h-.005l0-.1a.965.965,0,0,1,.964-.965h0a.965.965,0,1,1,0,1.929Zm-.762-1.042v.078a.766.766,0,0,0,.761.765.765.765,0,0,0,0-1.53h0a.765.765,0,0,0-.76.687Z"
                data-name="Path 202325" id="Path_202325" />
        </g>
        <g data-name="Group 56677" id="Group_56677">
            <path
                d="M2487.6,4695.523a1.25,1.25,0,0,0-2.073,0c-.078.114-.16.235-.244.363a28.788,28.788,0,0,0-1.675-2.768,1.147,1.147,0,0,0-1.593-.308,1.134,1.134,0,0,0-.307.308c-.959,1.416-2.731,4.24-2.731,5.957a3.672,3.672,0,0,0,3.4,3.926l.1.006a4.124,4.124,0,0,0,8.213-.741C2490.69,4700.329,2488.687,4697.129,2487.6,4695.523Zm-7.87,3.551c0-1.077.948-3.094,2.6-5.535a.392.392,0,0,1,.545-.108.382.382,0,0,1,.108.108,26.516,26.516,0,0,1,1.825,3.079c-.888,1.411-2.369,3.962-2.379,5.632a2.939,2.939,0,0,1-2.7-3.158l0-.018Zm6.832,6.86a3.371,3.371,0,0,1-3.39-3.352,3.046,3.046,0,0,1,.013-.317c0-1.721,1.994-4.9,2.964-6.32a.5.5,0,0,1,.694-.134.505.505,0,0,1,.134.134c1.884,2.781,2.965,5.084,2.965,6.32a3.379,3.379,0,0,1-3.079,3.656c-.1.009-.2.013-.3.013Z"
                data-name="Path 2409" id="Path_2409" />
            <path
                d="M2486.563,4706.778a4.222,4.222,0,0,1-4.18-3.676h-.017a3.77,3.77,0,0,1-3.493-4.033c0-1.609,1.494-4.155,2.748-6a1.245,1.245,0,0,1,1.269-.527,1.238,1.238,0,0,1,.8.527,28.837,28.837,0,0,1,1.6,2.628c.052-.077.1-.152.151-.224a1.365,1.365,0,0,1,.362-.362,1.352,1.352,0,0,1,1.877.361h0c1.163,1.712,3.112,4.872,3.108,6.8a4.211,4.211,0,0,1-3.751,4.487A4.141,4.141,0,0,1,2486.563,4706.778Zm-3.912-14.065a1.051,1.051,0,0,0-.864.461c-1.014,1.5-2.714,4.254-2.714,5.9a3.571,3.571,0,0,0,3.306,3.826l.184.011.009.084a4.024,4.024,0,0,0,8.014-.724c0-1.881-1.924-5-3.073-6.693h0a1.141,1.141,0,0,0-.736-.484,1.158,1.158,0,0,0-.864.177,1.181,1.181,0,0,0-.308.307c-.077.115-.159.236-.243.363l-.093.14-.079-.148a28.506,28.506,0,0,0-1.669-2.758,1.041,1.041,0,0,0-.669-.443A1.169,1.169,0,0,0,2482.651,4692.713Zm3.887,13.32a3.475,3.475,0,0,1-3.471-3.45c0-.11,0-.219.014-.327,0-1.79,2.085-5.05,2.981-6.368a.6.6,0,0,1,.993,0c1.9,2.8,2.983,5.122,2.983,6.377a3.481,3.481,0,0,1-3.171,3.756c-.1.008-.2.012-.308.012v0Zm.021-10.208a.4.4,0,0,0-.331.175c-.692,1.017-2.947,4.473-2.947,6.265a3.147,3.147,0,0,0-.013.317,3.274,3.274,0,0,0,3.27,3.252h.021c.1,0,.194,0,.291-.013a3.279,3.279,0,0,0,2.988-3.548c0-1.224-1.075-3.507-2.948-6.273a.4.4,0,0,0-.107-.1A.4.4,0,0,0,2486.559,4695.825Zm-4.034,6.533-.108-.008a3.043,3.043,0,0,1-2.792-3.266v-.011c0-1.1.955-3.133,2.618-5.59a.493.493,0,0,1,.819,0,26.643,26.643,0,0,1,1.831,3.088l.025.051-.03.048c-1.539,2.445-2.356,4.375-2.363,5.58Zm-2.7-3.384h.007l-.009.108a2.847,2.847,0,0,0,2.5,3.058c.05-1.252.844-3.111,2.361-5.528a26.309,26.309,0,0,0-1.793-3.016.274.274,0,0,0-.081-.082.294.294,0,0,0-.406.081C2480.817,4695.945,2479.884,4697.894,2479.828,4698.974Z"
                data-name="Path 202326" id="Path_202326" />
        </g>
    </g>
</svg>
