<svg height="35" viewBox="0 0 34.654 35" width="34.654" xmlns="http://www.w3.org/2000/svg">
    <g id="リラクゼーション_1" transform="translate(-2522.221 -911.362)">
        <g data-name="Group 965" id="Group_965" transform="translate(2522.221 916.364)">
            <path d="M2708.751,1063.879a.536.536,0,0,1-.524-.648l.707-3.3.052-.956a.536.536,0,1,1,1.07.058l-.054,1a.508.508,0,0,1-.011.083l-.716,3.342A.536.536,0,0,1,2708.751,1063.879Z" data-name="Path 1844"
                id="Path_1844"
                transform="translate(-2694.926 -1052.958)" />
            <path d="M2792.264,990.39a.536.536,0,0,1-.03-1.071l2.188-.126a.315.315,0,0,0,.294-.3l-.407-2.093a.536.536,0,0,1,.376-.617l.56-.163-.974-1.507a.537.537,0,0,1-.086-.287l-.016-2.327a.536.536,0,0,1,.532-.54h0a.536.536,0,0,1,.536.532l.015,2.171,1.28,1.981a.536.536,0,0,1-.3.805l-.781.227.323,1.661a.556.556,0,0,1,.009.078,1.392,1.392,0,0,1-1.3,1.447l-2.19.126Z" data-name="Path 1845"
                id="Path_1845"
                transform="translate(-2772.472 -981.362)" />
            <path d="M2786.474,1076.851a.536.536,0,0,1-.518-.4l-.875-3.342a.536.536,0,1,1,1.037-.271l.875,3.342a.536.536,0,0,1-.383.654A.542.542,0,0,1,2786.474,1076.851Z" data-name="Path 1846"
                id="Path_1846"
                transform="translate(-2766.283 -1065.93)" />
            <path d="M2613.812,1098.756a.54.54,0,0,1-.128-.016l-8.505-2.085a.536.536,0,0,1,.255-1.041l8.505,2.085a.536.536,0,0,1-.127,1.056Z" data-name="Path 1847"
                id="Path_1847"
                transform="translate(-2598.872 -1087.437)" />
            <path d="M2784.485,1102.614a.536.536,0,0,1-.107-1.061l8.713-1.788a.536.536,0,0,1,.215,1.05l-8.713,1.788A.537.537,0,0,1,2784.485,1102.614Z" data-name="Path 1848"
                id="Path_1848"
                transform="translate(-2765.249 -1091.295)" />
            <path d="M2532.385,1048.278a.536.536,0,0,1-.531-.474l-.3-2.566v-.01a1.452,1.452,0,0,0-.717-1.114l-7.125-4.122a2.475,2.475,0,0,1-.354-.244,3.166,3.166,0,0,1,1.052-5.441l8.832-2.815a.536.536,0,1,1,.325,1.021l-8.829,2.814a2.094,2.094,0,0,0-.693,3.6,1.449,1.449,0,0,0,.2.139l7.126,4.122a2.527,2.527,0,0,1,1.246,1.933l.3,2.561a.536.536,0,0,1-.47.594A.544.544,0,0,1,2532.385,1048.278Z" data-name="Path 1849"
                id="Path_1849"
                transform="translate(-2522.221 -1027.887)" />
            <path d="M2859.108,1057.363l-.046,0a.536.536,0,0,1-.488-.58l.219-2.566a2.529,2.529,0,0,1,1.248-1.944l7.125-4.122a1.432,1.432,0,0,0,.2-.139,2.094,2.094,0,0,0-.7-3.6l-6.538-2.115a.536.536,0,0,1,.33-1.02l6.538,2.115a3.166,3.166,0,0,1,1.052,5.441,2.489,2.489,0,0,1-.354.244l-7.125,4.122a1.452,1.452,0,0,0-.717,1.114l-.219,2.559A.536.536,0,0,1,2859.108,1057.363Z" data-name="Path 1850"
                id="Path_1850"
                transform="translate(-2834.539 -1036.972)" />
            <path d="M2808.062,1259.956a.536.536,0,0,1-.533-.482l-.556-5.5-1.416-.741a.537.537,0,0,1-.245-.267l-1.273-3.024a.536.536,0,0,1,.269-.695,1.728,1.728,0,0,1,2.26.773l.391.753,2.058.426a.536.536,0,1,1-.217,1.049l-2.308-.477a.536.536,0,0,1-.367-.277l-.509-.979a.656.656,0,0,0-.3-.289l.9,2.147,1.5.786a.536.536,0,0,1,.284.421l.585,5.787a.536.536,0,0,1-.479.587Z" data-name="Path 1851"
                id="Path_1851"
                transform="translate(-2783.864 -1229.958)" />
            <path d="M2868.285,1234.507a.537.537,0,0,1-.511-.374l-1.6-5.039a2.2,2.2,0,0,1-.122-.723v-3.656l-1.787-2.159a.536.536,0,0,1,.826-.683l1.91,2.308a.535.535,0,0,1,.123.342v3.849a1.133,1.133,0,0,0,.064.376l0,.015,1.6,5.046a.536.536,0,0,1-.511.7Z" data-name="Path 1852"
                id="Path_1852"
                transform="translate(-2839.71 -1204.509)" />
            <path d="M2652.8,1259.956l-.054,0a.536.536,0,0,1-.479-.587l.585-5.787a.536.536,0,0,1,.284-.421l1.5-.786.9-2.147a.657.657,0,0,0-.3.289l-.509.979a.537.537,0,0,1-.367.277l-2.308.477a.536.536,0,1,1-.217-1.049l2.058-.426.391-.753a1.728,1.728,0,0,1,2.26-.773.536.536,0,0,1,.269.694l-1.273,3.024a.537.537,0,0,1-.245.267l-1.416.741-.556,5.5A.536.536,0,0,1,2652.8,1259.956Z" data-name="Path 1853"
                id="Path_1853"
                transform="translate(-2642.182 -1229.957)" />
            <path d="M2602.551,1234.508a.536.536,0,0,1-.511-.7l1.605-5.046,0-.015a1.132,1.132,0,0,0,.064-.376v-3.849a.537.537,0,0,1,.123-.342l1.91-2.308a.536.536,0,1,1,.826.683l-1.787,2.159v3.656a2.2,2.2,0,0,1-.122.723l-1.6,5.039A.536.536,0,0,1,2602.551,1234.508Z" data-name="Path 1854"
                id="Path_1854"
                transform="translate(-2596.313 -1204.51)" />
            <path d="M2775.577,1168.736l-.046,0a.536.536,0,0,1-.488-.579l.224-2.636a3.189,3.189,0,0,1,1.131-2.183l.664-.559a.536.536,0,1,1,.69.82l-.664.559a2.125,2.125,0,0,0-.753,1.454l-.224,2.635A.536.536,0,0,1,2775.577,1168.736Z" data-name="Path 1855"
                id="Path_1855"
                transform="translate(-2756.977 -1149.698)" />
            <path d="M2709.468,1168.736a.536.536,0,0,1-.533-.49l-.224-2.635a2.125,2.125,0,0,0-.753-1.454l-.664-.559a.536.536,0,1,1,.69-.82l.664.559a3.189,3.189,0,0,1,1.131,2.183l.224,2.635a.536.536,0,0,1-.489.579Z" data-name="Path 1856"
                id="Path_1856"
                transform="translate(-2693.893 -1149.698)" />
        </g>
        <path d="M2693.626,923.266a.534.534,0,0,1-.216-.046,6.246,6.246,0,0,1,2.442-11.858c2.791,0,6.183,1.494,6.559,5.7a.536.536,0,1,1-1.067.1,5.075,5.075,0,0,0-5.491-4.728,4.886,4.886,0,0,0-4.88,4.88,5,5,0,0,0,2.871,4.926.536.536,0,0,1-.217,1.026Z" data-name="Path 1857"
            id="Path_1857"
            transform="translate(-155.698)" />
        <path d="M2743.56,963.506a.536.536,0,0,1-.2-1.034,6.443,6.443,0,0,0,4.24-4.645.536.536,0,0,1,1.063.141,7.435,7.435,0,0,1-4.906,5.5A.534.534,0,0,1,2743.56,963.506Z" data-name="Path 1858"
            id="Path_1858"
            transform="translate(-205.027 -42.712)" />
    </g>
</svg>
