<svg xmlns="http://www.w3.org/2000/svg" width="36.508" height="35" viewBox="0 0 36.508 35">
  <g id="リラクゼーション_2" transform="translate(-236.567 -2329.779)">
    <path id="Path_1708" data-name="Path 1708" d="M266.053,2464.5a.549.549,0,0,1-.515-.358c-.005-.014-.538-1.442-.882-2.208-1.453-2.9-3.765-4.784-6-6.608-2.918-2.381-5.68-4.634-6.182-8.794l-6.527-.479a.549.549,0,1,1,.08-1.1l6.988.512a.549.549,0,0,1,.507.505c.308,4,2.866,6.083,5.828,8.5,2.328,1.9,4.735,3.863,6.294,6.977l.01.021c.358.8.891,2.225.914,2.286a.549.549,0,0,1-.515.741Z" transform="translate(-8.221 -106.745)"/>
    <path id="Path_1709" data-name="Path 1709" d="M555.037,2708.25a.549.549,0,0,1-.288-1.017l.862-.531a.549.549,0,0,1,.575.936l-.863.531A.546.546,0,0,1,555.037,2708.25Z" transform="translate(-294.642 -349.25)"/>
    <path id="Path_1710" data-name="Path 1710" d="M493.447,2533.033a.549.549,0,0,1-.081-1.092l2.663-.4a.549.549,0,0,1,.077-.006l2.445-.019a.294.294,0,0,0,.083-.559l-9.306-2.464a.553.553,0,0,1-.11-.042c-3.5-1.8-6.308-8.518-6.426-8.8a.549.549,0,0,1,1.015-.419c.027.066,2.738,6.564,5.861,8.219l9.281,2.457.052.017a1.392,1.392,0,0,1-.374,2.692l-.041,0-2.432.018-2.625.395A.554.554,0,0,1,493.447,2533.033Z" transform="translate(-228.158 -175.263)"/>
    <path id="Path_1711" data-name="Path 1711" d="M253.229,2341.754a.549.549,0,0,1-.463-.254l-4.974-7.787a4.176,4.176,0,0,0-2.722-1.638l-8.035-1.2a.549.549,0,1,1,.163-1.086l8.035,1.2a5.279,5.279,0,0,1,3.455,2.089l.02.029,4.984,7.8a.549.549,0,0,1-.462.845Z" transform="translate(0 0)"/>
    <path id="Path_1712" data-name="Path 1712" d="M436.035,2424.431a.549.549,0,0,1-.143-1.079l3.515-.952a.555.555,0,0,1,.2-.016l3.489.35,12.813-.786a.549.549,0,0,1,.067,1.1l-12.858.788a.563.563,0,0,1-.088,0l-3.432-.344-3.417.925A.553.553,0,0,1,436.035,2424.431Z" transform="translate(-184.354 -85.42)"/>
    <path id="Path_1713" data-name="Path 1713" d="M457.846,2478.834a1.264,1.264,0,0,1-.816-2.234l.038-.029,2.695-1.883a.549.549,0,1,1,.629.9l-2.668,1.865a.166.166,0,0,0-.031.191.168.168,0,0,0,.182.09l3.308-1.523.792-1.32a1.4,1.4,0,0,1,1.344-.771l12.188.443a.549.549,0,0,1-.04,1.1l-12.2-.443h-.022a.3.3,0,0,0-.293.17.525.525,0,0,1-.026.049l-.892,1.486a.55.55,0,0,1-.241.216l-3.5,1.612a.55.55,0,0,1-.058.023A1.25,1.25,0,0,1,457.846,2478.834Z" transform="translate(-203.9 -133.769)"/>
    <path id="Path_1714" data-name="Path 1714" d="M507.835,2674.777a.549.549,0,0,1-.489-.3l-2.566-4.974a2.465,2.465,0,0,0-2.152-1.03l-1.6.088a.553.553,0,0,1-.477-.229l-2.037-2.852a.275.275,0,0,0-.468.287l1.355,2.592a.549.549,0,0,1-.489.8l-4.481-.022a.549.549,0,0,1-.392-.167l-1.317-1.361a.955.955,0,0,0-.846-.279l2.245,2.682,8.557.628a.549.549,0,0,1,.5.438l.618,3.035a.549.549,0,1,1-1.076.219l-.535-2.627-8.374-.615a.55.55,0,0,1-.381-.2l-2.831-3.38a.549.549,0,0,1,.059-.766l.023-.02a2.052,2.052,0,0,1,2.832.116l1.156,1.195,3.338.016-.933-1.783a1.373,1.373,0,0,1,2.335-1.435l1.862,2.606,1.3-.071a3.558,3.558,0,0,1,3.132,1.527.549.549,0,0,1,.038.063l2.583,5.008a.549.549,0,0,1-.488.8Z" transform="translate(-235.308 -309.998)"/>
  </g>
</svg>
