<svg height="35" viewBox="0 0 28.185 35" width="28.185" xmlns="http://www.w3.org/2000/svg">
    <g id="リラクゼーション_5" transform="translate(-1806.524 -2323.533)">
        <path d="M1933.43,2339.958a.536.536,0,0,1-.529-.62l.57-3.554a1.293,1.293,0,0,0-.219-.823,2.357,2.357,0,0,1-.057-2.542l.141-.233a1.311,1.311,0,0,0,.19-.638l-1.064-7.4a.535.535,0,0,1,1.059-.152l1.069,7.444a.527.527,0,0,1,.005.076,2.376,2.376,0,0,1-.345,1.226l-.14.233a1.28,1.28,0,0,0,.032,1.4,2.351,2.351,0,0,1,.392,1.53c0,.012,0,.024,0,.035l-.573,3.573A.535.535,0,0,1,1933.43,2339.958Z" data-name="Path 1715"
            id="Path_1715"
            transform="translate(-116.945 -0.001)" />
        <path d="M1922.852,2626.775a1.639,1.639,0,0,1-1.14-.452,1.537,1.537,0,0,1-2.118.055,1.414,1.414,0,0,1-2.031-.07,1.554,1.554,0,0,1-2.222-.079,1.331,1.331,0,0,1-.333-1c0-.013,0-.026,0-.039l.712-4.343a.535.535,0,1,1,1.056.173l-.708,4.319a.273.273,0,0,0,.073.188.448.448,0,0,0,.32.143.4.4,0,0,0,.434-.283l.232-1.76a.535.535,0,0,1,1.065.034l.123,1.848c.008.107.14.2.292.2a.281.281,0,0,0,.291-.189l.252-1.892a.535.535,0,0,1,1.066.071v1.7a.374.374,0,0,0,.4.315.39.39,0,0,0,.4-.276l.239-1.8a.535.535,0,0,1,1.066.07v1.591a.532.532,0,0,0,1.04,0l0-1.988a.535.535,0,0,1,1.065-.074l.227,1.637,0,.021a.957.957,0,0,0,1,.787h.031a1.063,1.063,0,0,0,.771-.342.77.77,0,0,0,.2-.567l-.644-3.706a.535.535,0,0,1,1.054-.183l.648,3.729c0,.014,0,.027.006.041a1.827,1.827,0,0,1-.465,1.4,2.18,2.18,0,0,1-3.109.1A1.623,1.623,0,0,1,1922.852,2626.775Z" data-name="Path 1716"
            id="Path_1716"
            transform="translate(-100.738 -275.68)" />
        <path d="M2046.665,2339.639a.535.535,0,0,1-.526-.441l-.584-3.255c0-.014,0-.028-.006-.042a2.43,2.43,0,0,1,.36-1.528,1.363,1.363,0,0,0,.031-1.4l-.139-.247a2.453,2.453,0,0,1-.318-1.2.526.526,0,0,1,.006-.077l1.082-7.453a.535.535,0,1,1,1.059.154l-1.076,7.412a1.383,1.383,0,0,0,.18.64l.139.247a2.42,2.42,0,0,1-.054,2.492,1.37,1.37,0,0,0-.207.84l.58,3.233a.535.535,0,0,1-.432.621A.55.55,0,0,1,2046.665,2339.639Z" data-name="Path 1717"
            id="Path_1717"
            transform="translate(-221.908)" />
        <path d="M1880.524,2582.665a.535.535,0,0,1-.535-.524l-.176-8.791a.532.532,0,0,1,.023-.168l.874-2.842a.535.535,0,0,1,.208-.283l4.3-2.969a.62.62,0,0,0-.127-1.088.61.61,0,0,0-.522.033c-2.784,1.518-4.26,2.32-4.389,2.384a.535.535,0,0,1-.479-.958c.056-.028.592-.314,4.355-2.366a1.69,1.69,0,0,1,1.769,2.875l-4.148,2.863-.794,2.582.175,8.7a.535.535,0,0,1-.524.546Z" data-name="Path 1718"
            id="Path_1718"
            transform="translate(-67.682 -224.132)" />
        <path d="M1807.06,2525.689h-.033a.535.535,0,0,1-.5-.567l.673-11.018a.535.535,0,0,1,.054-.2l3.327-6.768a3.323,3.323,0,0,1,1.627-1.567l4.457-1.985a.535.535,0,1,1,.435.978l-4.457,1.985a2.251,2.251,0,0,0-1.1,1.062l-3.279,6.672-.667,10.911A.535.535,0,0,1,1807.06,2525.689Z" data-name="Path 1719"
            id="Path_1719"
            transform="translate(0 -167.156)" />
        <path d="M2034.466,2582.665h-.011a.535.535,0,0,1-.524-.546l.175-8.7-.795-2.582-4.148-2.863a1.69,1.69,0,0,1,1.769-2.875c3.763,2.052,4.3,2.338,4.355,2.366a.535.535,0,0,1-.478.958c-.128-.064-1.6-.866-4.389-2.384a.611.611,0,0,0-.522-.033.62.62,0,0,0-.127,1.088l4.3,2.969a.535.535,0,0,1,.208.283l.874,2.842a.528.528,0,0,1,.023.168l-.176,8.791A.535.535,0,0,1,2034.466,2582.665Z" data-name="Path 1720"
            id="Path_1720"
            transform="translate(-206.075 -224.132)" />
        <path d="M2059.505,2525.689a.535.535,0,0,1-.534-.5l-.667-10.911-3.28-6.674a2.251,2.251,0,0,0-1.1-1.06l-4.437-1.984a.535.535,0,1,1,.437-.977l4.438,1.985a3.324,3.324,0,0,1,1.623,1.565l3.328,6.771a.535.535,0,0,1,.054.2l.673,11.018a.535.535,0,0,1-.5.567Z" data-name="Path 1721"
            id="Path_1721"
            transform="translate(-225.332 -167.156)" />
    </g>
</svg>
