<svg xmlns="http://www.w3.org/2000/svg" width="32.837" height="32.562" viewBox="0 0 32.837 32.562">
    <g id="リラクゼーション_8" transform="translate(-996.492 -204.483)">
        <g id="Group_941" data-name="Group 941" transform="translate(998.893 217.732)">
            <path id="Path_1722" data-name="Path 1722"
                d="M1042.792,530.573c-5.556,0-9.908-2.273-9.908-5.175a5.909,5.909,0,0,1,1.461-3.986c1.26-1.411,3.274-2.288,5.987-2.6a.495.495,0,0,1,.115.983c-2.465.288-4.27,1.055-5.364,2.28a4.934,4.934,0,0,0-1.21,3.327c0,2.269,4.084,4.185,8.918,4.185s8.918-1.917,8.918-4.185a4.953,4.953,0,0,0-1.281-3.43c-1.173-1.256-3.125-2.008-5.8-2.233a.495.495,0,1,1,.083-.986c2.928.247,5.095,1.1,6.441,2.544a5.926,5.926,0,0,1,1.547,4.105C1052.7,528.3,1048.347,530.573,1042.792,530.573Z"
                transform="translate(-1032.884 -511.26)" />
            <path id="Path_1723" data-name="Path 1723"
                d="M1131.252,549.4a6.755,6.755,0,0,1-3.442-.721.495.495,0,0,1,.562-.815,5.9,5.9,0,0,0,2.88.546,6.086,6.086,0,0,0,2.857-.531.495.495,0,1,1,.538.831A6.951,6.951,0,0,1,1131.252,549.4Z"
                transform="translate(-1121.347 -538.373)" />
            <path id="Path_1724" data-name="Path 1724"
                d="M1066.7,614.9a.493.493,0,0,1-.258-.073c-.081-.049-.161-.1-.238-.152a.495.495,0,0,1,.547-.825c.067.045.137.089.208.133a.495.495,0,0,1-.259.917Z"
                transform="translate(-1063.798 -600.01)" />
            <path id="Path_1725" data-name="Path 1725"
                d="M1097.329,616.279a15.18,15.18,0,0,1-5.734-1.045.495.495,0,1,1,.378-.915,14.188,14.188,0,0,0,5.356.97,12.458,12.458,0,0,0,6.972-1.848.495.495,0,0,1,.578.8A13.268,13.268,0,0,1,1097.329,616.279Z"
                transform="translate(-1087.435 -599.619)" />
            <path id="Path_1726" data-name="Path 1726"
                d="M1175.825,484.419a.5.5,0,0,1-.495-.495v-3.756a.495.495,0,0,1,.99,0v3.756A.5.5,0,0,1,1175.825,484.419Z"
                transform="translate(-1165.931 -474.765)" />
            <path id="Path_1727" data-name="Path 1727"
                d="M1145.394,412.616a.5.5,0,0,1-.076-.006,2.677,2.677,0,0,1-2.468-2.408,4.539,4.539,0,0,1,.758-2.832,5.135,5.135,0,0,1,2.426-2.049.495.495,0,0,1,.579.752,2.394,2.394,0,0,0-.328.721.873.873,0,0,0,.3,1.009c1.419,1.1,1.525,2.451,1,3.3a.495.495,0,0,1-.842-.521c.291-.471.167-1.27-.766-2a1.8,1.8,0,0,1-.724-1.626,3.9,3.9,0,0,0-1.425,3.137,1.708,1.708,0,0,0,1.634,1.537.495.495,0,0,1-.075.984Z"
                transform="translate(-1135.577 -405.287)" />
        </g>
        <g id="Group_942" data-name="Group 942" transform="translate(1013.439 217.548)">
            <path id="Path_1728" data-name="Path 1728"
                d="M1272.532,499.015a.495.495,0,0,1-.193-.951,10.46,10.46,0,0,1,2.851-.706.495.495,0,1,1,.115.983,9.479,9.479,0,0,0-2.58.635A.494.494,0,0,1,1272.532,499.015Z"
                transform="translate(-1270.803 -491.095)" />
            <path id="Path_1729" data-name="Path 1729"
                d="M1343.472,506.494a.495.495,0,1,1,0-.99,12.031,12.031,0,0,0,5.226-1.07c1.259-.626,1.981-1.452,1.981-2.265,0-1.853-.991-4.146-5.712-4.544a.495.495,0,0,1,.083-.986,7.984,7.984,0,0,1,5.328,2.11,4.906,4.906,0,0,1,1.29,3.421C1351.669,504.595,1348.068,506.494,1343.472,506.494Z"
                transform="translate(-1337.062 -490.425)" />
            <path id="Path_1730" data-name="Path 1730"
                d="M1306.827,521.9a5.613,5.613,0,0,1-2.868-.606.495.495,0,0,1,.562-.815,4.824,4.824,0,0,0,2.306.431,4.9,4.9,0,0,0,2.289-.42.495.495,0,1,1,.538.831A5.687,5.687,0,0,1,1306.827,521.9Z"
                transform="translate(-1300.419 -512.61)" />
            <path id="Path_1731" data-name="Path 1731"
                d="M1254.005,575.494a.492.492,0,0,1-.258-.073q-.1-.062-.2-.126a.495.495,0,0,1,.547-.825c.055.036.11.072.167.107a.495.495,0,0,1-.259.917Z"
                transform="translate(-1253.328 -563.045)" />
            <path id="Path_1732" data-name="Path 1732"
                d="M1343.3,576.624a.495.495,0,1,1,0-.99,10.1,10.1,0,0,0,5.652-1.5.495.495,0,1,1,.578.8A10.946,10.946,0,0,1,1343.3,576.624Z"
                transform="translate(-1336.9 -562.726)" />
            <path id="Path_1733" data-name="Path 1733"
                d="M1343.3,467.5a.5.5,0,0,1-.495-.495v-3.16a.495.495,0,0,1,.99,0v3.16A.5.5,0,0,1,1343.3,467.5Z"
                transform="translate(-1336.9 -459.336)" />
            <path id="Path_1734" data-name="Path 1734"
                d="M1318.4,408.661a.492.492,0,0,1-.076-.006,2.275,2.275,0,0,1-2.095-2.05,3.8,3.8,0,0,1,.634-2.376,4.291,4.291,0,0,1,2.028-1.712.495.495,0,0,1,.58.752c-.061.085-.589.862-.036,1.291a2.133,2.133,0,0,1,.84,2.817.495.495,0,0,1-.842-.521c.217-.351.114-.955-.606-1.515a1.56,1.56,0,0,1-.631-1.205,3.139,3.139,0,0,0-.983,2.361,1.3,1.3,0,0,0,1.262,1.179.495.495,0,0,1-.075.984Z"
                transform="translate(-1312.064 -402.484)" />
        </g>
        <path id="Path_1735" data-name="Path 1735"
            d="M1011.639,217.342a.5.5,0,0,1-.495-.495V215.5a1.241,1.241,0,0,0-1.24-1.239h-5.711a1.721,1.721,0,0,1,0-3.442h.957a.671.671,0,1,0,0-1.343h-6.16a2.5,2.5,0,0,1,0-5h20.331a.495.495,0,1,1,0,.99H998.99a1.509,1.509,0,0,0,0,3.017h6.16a1.661,1.661,0,1,1,0,3.322h-.957a.731.731,0,0,0,0,1.462h5.711a2.232,2.232,0,0,1,2.229,2.229v1.344A.5.5,0,0,1,1011.639,217.342Z"
            transform="translate(0 0)" />
        <path id="Path_1736" data-name="Path 1736"
            d="M1385,205.473h-.219a.495.495,0,1,1,0-.99H1385a.495.495,0,1,1,0,.99Z"
            transform="translate(-362.206 0)" />
        <path id="Path_1737" data-name="Path 1737"
            d="M1476.544,205.473h-.219a.495.495,0,1,1,0-.99h.219a.495.495,0,0,1,0,.99Z"
            transform="translate(-447.71 0)" />
        <path id="Path_1738" data-name="Path 1738"
            d="M1414.7,205.473h-1.947a.495.495,0,1,1,0-.99h1.947a.495.495,0,1,1,0,.99Z"
            transform="translate(-388.337 0)" />
        <path id="Path_1739" data-name="Path 1739"
            d="M1271.678,266.2h-.363a.495.495,0,0,1,0-.99h.363a.495.495,0,0,1,0,.99Z"
            transform="translate(-256.227 -56.721)" />
        <path id="Path_1740" data-name="Path 1740"
            d="M1180.407,276.248a.495.495,0,0,1,0-.99,1.181,1.181,0,0,0,1.18-1.18,1.693,1.693,0,0,1,1.691-1.691.7.7,0,0,0,.7-.7A1.693,1.693,0,0,1,1185.67,270h1.645a.731.731,0,1,0,0-1.462h-8.791a1.661,1.661,0,1,1,0-3.322h3.461a.495.495,0,1,1,0,.99h-3.461a.671.671,0,1,0,0,1.343h8.791a1.721,1.721,0,0,1,0,3.442h-1.645a.7.7,0,0,0-.7.7,1.693,1.693,0,0,1-1.691,1.691.7.7,0,0,0-.7.7A2.172,2.172,0,0,1,1180.407,276.248Z"
            transform="translate(-168.469 -56.721)" />
    </g>
</svg>
