<svg height="28.595" viewBox="0 0 35.56 28.595" width="35.56" xmlns="http://www.w3.org/2000/svg">
    <g id="リラクゼーション_6" transform="translate(-2532.167 -1675.78)">
        <path d="M2638.419,1793.135a1.81,1.81,0,0,1-.556-.088l-5.735-1.847a.577.577,0,0,1-.151-.074l-3.666-2.538a.573.573,0,1,1,.653-.943l3.6,2.49,5.655,1.821a.662.662,0,0,0,.437-1.249l-5.424-2.054a.571.571,0,0,1-.167-.1l-4.23-3.572a.573.573,0,0,1,.74-.876l4.155,3.509,5.332,2.019a1.809,1.809,0,0,1-.638,3.5Z" data-name="Path 1947"
            id="Path_1947"
            transform="translate(-88.564 -99.92)" />
        <path d="M2582.263,1701.367h-11.135a2.077,2.077,0,0,1,0-4.155h1.056a3.56,3.56,0,0,1-.924-1.966l-.816-5.092a12.379,12.379,0,0,1-.154-2.152l.077-4.866-.281-4.254c0-.012,0-.025,0-.038a3.064,3.064,0,0,1,6.129,0v2.86a1.5,1.5,0,0,1-1.673,1.494l-1.648-.187a.573.573,0,1,1,.129-1.14l1.648.187a.357.357,0,0,0,.4-.354v-2.86a1.918,1.918,0,0,0-3.835-.018l.281,4.257c0,.016,0,.031,0,.047l-.077,4.89a11.236,11.236,0,0,0,.14,1.952l.818,5.1,0,.018a2.433,2.433,0,0,0,2.409,2.121h4.313a.573.573,0,1,1,0,1.147h-7.99a.931.931,0,0,0,0,1.861h11.135a1.358,1.358,0,0,0,.739-2.5l-5.915-2.8a.573.573,0,0,1-.32-.424l-.752-4.512a.573.573,0,1,1,1.131-.189l.7,4.216,5.676,2.69a.561.561,0,0,1,.056.03,2.5,2.5,0,0,1-1.317,4.635Z" data-name="Path 1948"
            id="Path_1948"
            transform="translate(-34.064)" />
        <path d="M2885.592,1820.275a.574.574,0,0,1-.473-.9l1.546-2.274.966-3.354c0-.009.006-.019.009-.028a3.064,3.064,0,1,1,5.794,2l-.932,2.7a1.5,1.5,0,0,1-2.068.867l-1.5-.714a.573.573,0,0,1,.494-1.035l1.5.714a.356.356,0,0,0,.49-.206l.933-2.7a1.918,1.918,0,0,0-3.621-1.263l-.987,3.427a.57.57,0,0,1-.077.164l-1.6,2.35A.573.573,0,0,1,2885.592,1820.275Z" data-name="Path 1949"
            id="Path_1949"
            transform="translate(-325.874 -125.487)" />
        <path d="M2761.357,1894.227a.571.571,0,0,1-.244-.055l-9.776-4.606a.573.573,0,1,1,.489-1.038l9.776,4.606a.573.573,0,0,1-.245,1.092Z" data-name="Path 1950"
            id="Path_1950"
            transform="translate(-202.109 -196.431)" />
        <path d="M2782.634,1870.585a.57.57,0,0,1-.224-.046l-10.152-4.324a.573.573,0,1,1,.449-1.055l10.152,4.324a.573.573,0,0,1-.225,1.1Z" data-name="Path 1951"
            id="Path_1951"
            transform="translate(-221.411 -174.858)" />
        <path d="M2555.392,1931.464h-21.148a2.077,2.077,0,1,1,0-4.155h16.164a13.4,13.4,0,0,0,2.984-.5,5.379,5.379,0,0,0,3.1-2.165l.776-1.126a.573.573,0,1,1,.944.651l-.776,1.126a6.526,6.526,0,0,1-3.767,2.625,14.348,14.348,0,0,1-3.266.539h-16.164a.931.931,0,0,0,0,1.861h21.148a7.945,7.945,0,0,0,4.354-1.3,6.777,6.777,0,0,0,2.906-4.152l.643-2.757a.573.573,0,0,1,1.117.261l-.643,2.757a7.919,7.919,0,0,1-3.4,4.852A9.089,9.089,0,0,1,2555.392,1931.464Z" data-name="Path 1952"
            id="Path_1952"
            transform="translate(0 -227.089)" />
    </g>
</svg>
