<svg height="33.132" viewBox="0 0 20.89 33.132" width="20.89" xmlns="http://www.w3.org/2000/svg">
    <g id="整骨_整体_9" transform="translate(-1208.56 -753.124)">
        <g data-name="Group 1226" id="Group_1226">
            <g data-name="Group 1221" id="Group_1221">
                <g data-name="Group 1220" id="Group_1220">
                    <path
                        d="M1216.408,764.1a2.793,2.793,0,0,1-1.576-.486.5.5,0,1,1,.563-.826,1.806,1.806,0,0,0,1.951.05.5.5,0,0,1,.519.853A2.793,2.793,0,0,1,1216.408,764.1Z"
                        data-name="Path 202959" id="Path_202959" />
                    <path
                        d="M1221.6,764.1a2.793,2.793,0,0,1-1.457-.409.5.5,0,1,1,.519-.853,1.806,1.806,0,0,0,1.951-.05.5.5,0,1,1,.563.826A2.8,2.8,0,0,1,1221.6,764.1Z"
                        data-name="Path 202960" id="Path_202960" />
                    <path
                        d="M1218.995,770.757a5.766,5.766,0,0,1-5.358-3.68c-.718-.1-1.307-.769-1.755-1.993a2.425,2.425,0,0,1,.112-2.333,1.283,1.283,0,0,1,.667-.45,6.512,6.512,0,0,1,1.378-4.9,7.857,7.857,0,0,1,9.932,0,6.512,6.512,0,0,1,1.375,4.9,1.291,1.291,0,0,1,.667.45,2.427,2.427,0,0,1,.112,2.334c-.449,1.221-1.039,1.888-1.757,1.991a5.777,5.777,0,0,1-5.373,3.681Zm-5-4.679a.5.5,0,0,1,.477.35,4.754,4.754,0,0,0,9.068,0,.5.5,0,0,1,.551-.344c.464.062.857-.692,1.1-1.345a1.542,1.542,0,0,0,.041-1.369.345.345,0,0,0-.358-.117.5.5,0,0,1-.407-.14.5.5,0,0,1-.149-.4c.192-2.077-.172-3.636-1.082-4.632a6.914,6.914,0,0,0-8.454,0c-.909,1-1.273,2.555-1.084,4.633a.5.5,0,0,1-.148.4.515.515,0,0,1-.407.14.355.355,0,0,0-.359.116,1.545,1.545,0,0,0,.042,1.37c.24.655.637,1.417,1.095,1.345A.51.51,0,0,1,1213.992,766.078Z"
                        data-name="Path 202961" id="Path_202961" />
                    <path
                        d="M1218.833,786.256c-2.766,0-5.179-1.221-6.145-3.263-2.3-.932-3.588-4.179-3.253-8.212-1.055-1.728-1.273-5.452,0-8.164-.741-6.141,1.467-10.915,5.922-12.787a8.845,8.845,0,0,1,10.267,2.457c2.17.932,3.608,4.206,3.377,7.721a19.478,19.478,0,0,1,0,8.3c.843,8.388-3.439,12.543-7.737,13.634A9.9,9.9,0,0,1,1218.833,786.256Zm.025-32.133a8.026,8.026,0,0,0-3.114.629c-4.052,1.7-6.033,6.145-5.3,11.886a.5.5,0,0,1-.048.285c-1.32,2.672-.9,6.2-.037,7.447a.494.494,0,0,1,.087.331c-.349,3.705.791,6.758,2.773,7.423a.5.5,0,0,1,.3.282c.942,2.27,4.236,3.4,7.5,2.573,3.908-.993,7.794-4.834,6.98-12.644a.482.482,0,0,1,.009-.161,18.451,18.451,0,0,0,0-8.019.5.5,0,0,1-.011-.145c.228-3.139-1.029-6.144-2.86-6.842a.488.488,0,0,1-.215-.157A7.706,7.706,0,0,0,1218.858,754.123Z"
                        data-name="Path 202962" id="Path_202962" />
                    <path
                        d="M1214.175,775.987a11.446,11.446,0,0,1-4.42-.872.5.5,0,1,1,.385-.924,11.855,11.855,0,0,0,10.25-.867c3.922-2.1,6.911-5.78,7.615-9.378a.5.5,0,0,1,.98.192c-.758,3.881-3.948,7.833-8.124,10.068A14.187,14.187,0,0,1,1214.175,775.987Z"
                        data-name="Path 202963" id="Path_202963" />
                    <path
                        d="M1215.218,783.278a13.524,13.524,0,0,1-2.241-.189.5.5,0,1,1,.166-.986c7.3,1.222,13.12-4.221,14.874-9.969a.5.5,0,0,1,.957.291C1227.276,777.984,1222.019,783.278,1215.218,783.278Z"
                        data-name="Path 202964" id="Path_202964" />
                    <path
                        d="M1211.714,767.752a3.209,3.209,0,0,1-2.091-.672.5.5,0,0,1,.648-.762c.894.759,2.629.42,3.431-.148a.5.5,0,1,1,.578.816A4.6,4.6,0,0,1,1211.714,767.752Z"
                        data-name="Path 202965" id="Path_202965" />
                    <path
                        d="M1224.515,759.825a.5.5,0,0,1-.4-.795,3.667,3.667,0,0,0,.7-2.312.5.5,0,0,1,.48-.521.494.494,0,0,1,.52.48,4.69,4.69,0,0,1-.9,2.943A.5.5,0,0,1,1224.515,759.825Z"
                        data-name="Path 202966" id="Path_202966" />
                </g>
            </g>
        </g>
    </g>
</svg>
