<svg xmlns="http://www.w3.org/2000/svg" width="32.786" height="33.258" viewBox="0 0 32.786 33.258">
    <g id="整骨_整体_11" transform="translate(-22708.707 -3307.064)">
        <path id="Subtraction_111" data-name="Subtraction 111"
            d="M16.847,29.66h-.013c-.423-.005-.647-.3-.65-.84q0-.606,0-1.213t0-1.213a.2.2,0,0,0-.02-.069c-.008-.019-.017-.042-.027-.071a10.376,10.376,0,0,1-3.989.831,10.438,10.438,0,0,1-4.069-.862c0,.3,0,.6,0,.885v.014c0,.572,0,1.123,0,1.674s-.226.863-.652.863H7.393c-.429-.011-.648-.3-.651-.846,0-.346,0-.7,0-1.039,0-.638,0-1.3-.014-1.943a.757.757,0,0,0-.269-.524,10.686,10.686,0,0,1-2.2-2.14,9.988,9.988,0,0,1-1.456-2.7.723.723,0,0,0-.409-.367,3.617,3.617,0,0,1-1.527-.982,3.3,3.3,0,0,1-.736-3.145,3.665,3.665,0,0,1,.938-1.577,1.1,1.1,0,0,0,.268-.7c.014-.694.01-1.4.006-2.084-.007-1.24-.014-2.521.086-3.773a8.407,8.407,0,0,1,2.723-5.5A8.6,8.6,0,0,1,9.862.025l.522-.007C10.988.009,11.614,0,12.228,0c1.132,0,2.048.032,2.884.1a8.37,8.37,0,0,1,5.5,2.767,8.877,8.877,0,0,1,1.67,2.643A8.356,8.356,0,0,1,22.9,8.618c0,.633.006,1.287.006,1.943-.732,1.067-1.649,2.4-2.29,3.331q0-.072-.005-.144a7.949,7.949,0,0,1,.034-1.454,3.62,3.62,0,0,0-.251-1.986,6.429,6.429,0,0,0-1.084-1.664l-.079-.095c-.059-.071-.119-.144-.182-.213A9.671,9.671,0,0,0,16.4,6.182,6.61,6.61,0,0,0,13.289,5.4a7.954,7.954,0,0,0-2.227.337,12.72,12.72,0,0,0-7.181,4.832,1.1,1.1,0,0,0-.249.586c0,.622-.013,1.254-.024,1.865-.027,1.642-.055,3.34.056,5a8.135,8.135,0,0,0,2.6,5.394,8.62,8.62,0,0,0,5.594,2.336c.093,0,.188,0,.282,0a8.573,8.573,0,0,0,7.5-4.524l-.069,2.45a10.091,10.091,0,0,1-1.694,1.531.789.789,0,0,0-.381.74c.022.883.015,1.782.008,2.65l0,.23C17.506,29.368,17.27,29.66,16.847,29.66ZM2.264,15.181a2,2,0,0,0-.887,2.01,1.936,1.936,0,0,0,.887,1.346V15.181Zm9.373-13.83c-.73,0-1.373.014-1.965.041a7.135,7.135,0,0,0-2.9.762,7.307,7.307,0,0,0-2.284,1.8,7.515,7.515,0,0,0-1.459,2.66,7.647,7.647,0,0,0-.287,3.163l.1-.117,0,0c.059-.07.1-.121.142-.172A13.881,13.881,0,0,1,12.993,4.1a2.271,2.271,0,0,0,1.62-.777c.346-.377.716-.741,1.108-1.126.183-.18.372-.365.57-.563-.206-.033-.394-.069-.575-.1a5.771,5.771,0,0,0-.995-.136l-.743-.014C13.211,1.366,12.417,1.351,11.637,1.351Zm6.04.963c-.159,0-.3.141-.58.421l-.006.006-.783.783-.841.841a10.211,10.211,0,0,1,3.469,1.971,13.161,13.161,0,0,1,2.528,3c.019-.024.034-.042.047-.056a.135.135,0,0,0,.038-.057,1.272,1.272,0,0,0,.013-.2,7.723,7.723,0,0,0-.811-3.63,7.749,7.749,0,0,0-2.483-2.767C17.976,2.422,17.817,2.314,17.677,2.314ZM12.113,23.343h0c-.215-.041-.43-.08-.638-.118-.484-.087-.941-.17-1.4-.282a.853.853,0,0,1-.559-.361.644.644,0,0,1-.049-.508.605.605,0,0,1,.623-.477,1.158,1.158,0,0,1,.352.061,5.355,5.355,0,0,0,3.365,0,1.186,1.186,0,0,1,.359-.062.605.605,0,0,1,.62.469.646.646,0,0,1-.046.514.84.84,0,0,1-.554.36c-.476.115-.968.2-1.443.288-.206.037-.419.075-.628.115Zm.011-3.114c-.25,0-.5-.008-.753-.024a.654.654,0,0,1,.028-1.3c.085-.007.177-.01.287-.01.079,0,.159,0,.237,0l.23,0c.073,0,.146,0,.217,0s.145,0,.217,0c.1,0,.189,0,.268.01a.654.654,0,0,1,.021,1.3C12.624,20.222,12.371,20.229,12.124,20.229ZM7.387,16.851h0c-.185-.083-.367-.159-.543-.233a10.27,10.27,0,0,1-1.133-.53A.625.625,0,0,1,5.4,15.7a.735.735,0,0,1,.129-.573.588.588,0,0,1,.506-.277.812.812,0,0,1,.472.166,1.53,1.53,0,0,0,.905.33,1.543,1.543,0,0,0,.906-.328.825.825,0,0,1,.476-.167.586.586,0,0,1,.5.275.74.74,0,0,1,.128.575.618.618,0,0,1-.315.389,10.523,10.523,0,0,1-1.169.535c-.178.073-.362.149-.549.23Zm9.478-.01h0c-.181-.076-.362-.146-.536-.214a8.885,8.885,0,0,1-1.138-.5.7.7,0,0,1-.354-.456.68.68,0,0,1,.117-.542.6.6,0,0,1,.5-.266.971.971,0,0,1,.524.181,1.378,1.378,0,0,0,1.727,0,.991.991,0,0,1,.533-.186.594.594,0,0,1,.492.26.664.664,0,0,1-.223,1,8.81,8.81,0,0,1-1.106.5c-.174.07-.353.142-.536.221Zm-1.424-4.7a.591.591,0,0,1-.584-.5.615.615,0,0,1,.48-.812c.338-.086.689-.148,1.028-.208.148-.026.3-.053.453-.082.157.028.314.054.467.08.356.059.691.114,1.027.2a.717.717,0,0,1,.47.328.634.634,0,0,1,.045.507.606.606,0,0,1-.592.49A.863.863,0,0,1,18,12.1a4.177,4.177,0,0,0-2.334,0A.84.84,0,0,1,15.442,12.139Zm-9.423,0a.6.6,0,0,1-.591-.476.651.651,0,0,1,.041-.52.7.7,0,0,1,.457-.325c.35-.087.713-.146,1.063-.2.152-.025.309-.05.463-.078.152.029.305.056.453.081.346.06.672.117,1,.205a.707.707,0,0,1,.459.336.638.638,0,0,1,.028.514.6.6,0,0,1-.591.465.9.9,0,0,1-.251-.038,4.051,4.051,0,0,0-1.126-.163,4.278,4.278,0,0,0-1.158.166A.9.9,0,0,1,6.019,12.137Z"
            transform="translate(22709.209 3307.565)" stroke="rgba(0,0,0,0)" stroke-miterlimit="10"
            stroke-width="1" />
        <path id="Path_203006" data-name="Path 203006"
            d="M629.981,1294.124c-.728.365-1.449.745-2.188,1.085a5.125,5.125,0,0,1-1.062.328c-.192.041-.29.091-.264.3a1.261,1.261,0,0,1,0,.2.445.445,0,1,1-.89.008c-.007-.133,0-.267,0-.425h-4.515c-.086.323.122.844-.45.862-.605.018-.412-.523-.509-.887h-1.867c-.113,0-.227,0-.34,0a.449.449,0,1,1,.008-.9c.611-.01,1.222,0,1.833,0h.387c.007-.151.017-.262.017-.373,0-1.3,0-2.6,0-3.9a.438.438,0,0,0-.247-.458,1.24,1.24,0,0,1-.661-1.148q-.009-2.716,0-5.432a1.351,1.351,0,0,1,2.7-.031c.017,1.822.01,3.644,0,5.467a1.317,1.317,0,0,1-.715,1.19.4.4,0,0,0-.184.273c-.009,1.437,0,2.874,0,4.312a.328.328,0,0,0,.034.082h4.477c.008-.112.02-.211.02-.31,0-1.324,0-2.649,0-3.973a.414.414,0,0,0-.241-.427,1.244,1.244,0,0,1-.667-1.145c-.007-1.822-.01-3.645,0-5.467a1.326,1.326,0,0,1,1.312-1.332,1.312,1.312,0,0,1,1.385,1.288c.021,1.856.012,3.712,0,5.568a1.294,1.294,0,0,1-.673,1.111.482.482,0,0,0-.22.318c-.014,1.392-.009,2.784-.008,4.176a1.778,1.778,0,0,0,.039.23,8.669,8.669,0,0,0,.9-.315c.664-.315,1.317-.652,1.97-.99C630.066,1293.048,630.584,1293.822,629.981,1294.124Zm-4.412-8.03c0,.847,0,1.694,0,2.541,0,.4.168.624.462.619.276,0,.451-.225.452-.6q.005-2.574,0-5.149c0-.372-.185-.589-.467-.583s-.445.217-.447.6C625.568,1284.378,625.57,1285.237,625.569,1286.094Zm-5.433,0c0,.847,0,1.694,0,2.541,0,.4.169.623.463.618.276,0,.45-.225.451-.6q.005-2.575,0-5.149c0-.372-.185-.589-.468-.582s-.445.217-.446.6C620.134,1284.379,620.136,1285.237,620.136,1286.1Z"
            transform="translate(22111.246 2039.965)" />
        <path id="Path_203008" data-name="Path 203008" d="M24.139-6.848,0,22.57"
            transform="translate(22714.959 3316.556)" fill="none" stroke="#000"
            stroke-linecap="round" stroke-width="1.7" />
    </g>
</svg>
