<svg height="35.602" viewBox="0 0 29.24 35.602" width="29.24" xmlns="http://www.w3.org/2000/svg">
    <g id="整骨_整体_2" transform="translate(-1358.115 -752.578)">
        <g data-name="Group 56707" id="Group_56707">
            <path d="M304.735-10657.32a.326.326,0,0,1-.058,0c-.265-.008-.569-.106-.572-.8,0-.3,0-.61,0-.908v-.3c0-.761.005-1.542-.016-2.318a1.119,1.119,0,0,0-.4-.766,11.674,11.674,0,0,1-4.253-5.641,1.06,1.06,0,0,0-.6-.536,3.761,3.761,0,0,1-2.239-1.842,3.761,3.761,0,0,1-.283-2.887,3.859,3.859,0,0,1,1.052-1.68,1.517,1.517,0,0,0,.365-.95c.017-.854.013-1.723.008-2.471-.01-1.372-.022-2.928.1-4.426a10,10,0,0,1,9.757-9.037l.62-.011c.6-.009,1.383-.02,2.163-.02,1.345,0,2.423.037,3.392.116a10.072,10.072,0,0,1,9.016,9.854c.011,1.979.011,3.98,0,5.951a1.362,1.362,0,0,0,.443,1.09,3.713,3.713,0,0,1,1.149,2.627,3.7,3.7,0,0,1-1.044,2.667,3.72,3.72,0,0,1-1.543.969,1.079,1.079,0,0,0-.767.738,11.031,11.031,0,0,1-4.06,5.369,1.13,1.13,0,0,0-.545,1.05c.027,1.05.019,2.135.008,3.155v.239a.89.89,0,0,1-.2.636.531.531,0,0,1-.386.137h-.039c-.2,0-.539-.1-.541-.792l-.016-2.909a1.246,1.246,0,0,0-.075-.2l-.083-.174-.177.077a11.529,11.529,0,0,1-4.63.961,11.562,11.562,0,0,1-4.719-1l-.279-.124v3.344a.957.957,0,0,1-.2.689A.491.491,0,0,1,304.735-10657.32Zm6.911-28.626a9.638,9.638,0,0,0-2.689.406,15.264,15.264,0,0,0-8.579,5.77,1.565,1.565,0,0,0-.338.815c0,.732-.016,1.477-.029,2.2-.032,1.936-.065,3.938.07,5.922a10.141,10.141,0,0,0,3.62,6.929,10.072,10.072,0,0,0,6.534,2.38c.312,0,.624-.014.926-.04a10.213,10.213,0,0,0,9.185-8.6,36.373,36.373,0,0,0,.046-4.744h.121l-.013-.212a17.218,17.218,0,0,1,.019-2.469,5.4,5.4,0,0,0-1.618-4.454l-.062-.072-.049-.059-.008-.01c-.064-.076-.129-.154-.2-.228C316.463-10684.792,314.194-10685.946,311.646-10685.946Zm10.041,11.387h0v4.683l.309-.193a2.538,2.538,0,0,0,1.124-1.586,2.516,2.516,0,0,0-.33-1.913,2.493,2.493,0,0,0-.794-.8Zm-22.863-.019h0l-.311.2a2.58,2.58,0,0,0-1.132,2.57,2.507,2.507,0,0,0,1.138,1.729l.306.193v-4.693Zm10.884-16.152c-.88,0-1.651.018-2.357.054a8.931,8.931,0,0,0-6.185,3.012,8.929,8.929,0,0,0-2.241,6.5c.011.2.03.408.056.611l.083.422.3-.352c.126-.15.193-.231.263-.317a16.182,16.182,0,0,1,11.668-6.281,2.853,2.853,0,0,0,2.047-.979c.373-.4.761-.786,1.172-1.192l.132-.131.022-.021c.208-.205.424-.418.649-.644l.26-.258-.357-.078a14.659,14.659,0,0,0-1.892-.29l-.947-.019-.215,0C311.449-10690.713,310.56-10690.73,309.708-10690.73Zm7.1,1.139c-.233,0-.435.165-.831.561l-2.141,2.142.3.1a13.073,13.073,0,0,1,6.969,5.78l.056.1h.217l.059-.08a.7.7,0,0,1,.048-.057l0-.006a.322.322,0,0,0,.087-.163,1.666,1.666,0,0,0,.016-.258,8.927,8.927,0,0,0-3.971-7.72A1.629,1.629,0,0,0,316.81-10689.592Z" data-name="Subtraction 86"
                id="Subtraction_86"
                stroke="rgba(0,0,0,0)" stroke-miterlimit="10" stroke-width="1"
                transform="translate(1062.484 11445)" />
        </g>
        <path d="M303.895-10677.209h0c-.241-.046-.475-.089-.711-.132-.555-.1-1.1-.2-1.65-.332a.813.813,0,0,1-.534-.333.548.548,0,0,1-.038-.442.536.536,0,0,1,.255-.352.6.6,0,0,1,.29-.064,1.148,1.148,0,0,1,.349.059,6.474,6.474,0,0,0,2.047.334,6.474,6.474,0,0,0,2.047-.334,1.275,1.275,0,0,1,.369-.063.585.585,0,0,1,.281.063.529.529,0,0,1,.252.349.556.556,0,0,1-.032.448.79.79,0,0,1-.531.33c-.532.131-1.088.232-1.626.329l-.019,0-.078.014-.083.015-.141.025c-.148.027-.3.054-.447.083Zm.026-3.675c-.3,0-.607-.01-.9-.028a.493.493,0,0,1-.352-.15.491.491,0,0,1-.14-.359.785.785,0,0,1,.008-.11.48.48,0,0,1,.134-.354.481.481,0,0,1,.341-.161h.048c.1,0,.2-.008.3-.008.084,0,.173,0,.28,0h.09l.186,0c.113,0,.213,0,.307-.006h.049l.212,0c.107,0,.2,0,.289.009h.005a.5.5,0,0,1,.352.142.5.5,0,0,1,.15.362l.2.011-.2.043a.5.5,0,0,1-.424.574l-.026,0h-.013l-.039,0C304.487-10680.893,304.2-10680.884,303.921-10680.884Zm-5.6-4h0c-.2-.091-.4-.173-.579-.247l-.029-.013a11.788,11.788,0,0,1-1.275-.6.545.545,0,0,1-.228-.735.8.8,0,0,1,.078-.112.584.584,0,0,1,.368-.239.894.894,0,0,1,.1-.008.572.572,0,0,1,.325.1.535.535,0,0,1,.064.051,1.872,1.872,0,0,0,1.2.438,1.873,1.873,0,0,0,1.2-.442.6.6,0,0,1,.413-.15.581.581,0,0,1,.4.188l.006.007,0,0c.013.017.027.033.046.062a.542.542,0,0,1,.127.4.529.529,0,0,1-.186.364.568.568,0,0,1-.107.072,12.32,12.32,0,0,1-1.352.62l-.075.03-.086.035c-.135.056-.275.113-.416.176Zm11.184-.008h0a18.736,18.736,0,0,1-1.886-.813.6.6,0,0,1-.3-.341.584.584,0,0,1,.032-.45.77.77,0,0,1,.051-.086.622.622,0,0,1,.494-.241.629.629,0,0,1,.376.128l.008.006.007.006a.4.4,0,0,1,.041.037,1.838,1.838,0,0,0,1.148.4,1.8,1.8,0,0,0,1.125-.389.988.988,0,0,1,.517-.186.508.508,0,0,1,.425.229.573.573,0,0,1,.121.43.584.584,0,0,1-.217.389.883.883,0,0,1-.1.062,19.557,19.557,0,0,1-1.849.821Zm1.6-5.528a.542.542,0,0,1-.1-.01.622.622,0,0,1-.1-.032,5.135,5.135,0,0,0-1.425-.2,5.194,5.194,0,0,0-1.457.207.513.513,0,0,1-.187.035.5.5,0,0,1-.473-.322.822.822,0,0,1-.038-.143.537.537,0,0,1,.021-.4.517.517,0,0,1,.3-.269.614.614,0,0,1,.1-.026c.391-.1.8-.171,1.167-.236l.019,0,.064-.011c.148-.025.3-.052.452-.083l.264.047.091.016.174.031c.4.063.8.129,1.2.231a.547.547,0,0,1,.363.215.555.555,0,0,1,.106.413.9.9,0,0,1-.03.12A.529.529,0,0,1,311.1-10690.42Zm-11.139,0a.536.536,0,0,1-.133-.016.624.624,0,0,1-.091-.032,4.984,4.984,0,0,0-1.4-.2,4.983,4.983,0,0,0-1.428.207.53.53,0,0,1-.2.036.526.526,0,0,1-.494-.329.754.754,0,0,1-.032-.107.552.552,0,0,1,.02-.426.551.551,0,0,1,.315-.285.414.414,0,0,1,.107-.026c.377-.087.767-.151,1.167-.215l.206-.033.384-.063c.143.027.287.053.448.08l.062.011.01,0c.375.065.762.134,1.155.237a.563.563,0,0,1,.357.223.559.559,0,0,1,.094.41.993.993,0,0,1-.035.121.541.541,0,0,1-.247.33A.534.534,0,0,1,299.963-10690.425Z" data-name="Subtraction 87"
            id="Subtraction_87"
            stroke="rgba(0,0,0,0)" stroke-miterlimit="10" stroke-width="1"
            transform="translate(1068.836 11457.426)" />
    </g>
</svg>
