<svg height="35.652" viewBox="0 0 27.307 35.652" width="27.307" xmlns="http://www.w3.org/2000/svg">
    <g id="整骨_整体_3" transform="translate(-1306.171 -751.301)">
        <g data-name="Group 56708" id="Group_56708">
            <path
                d="M192.144-10662.314a44.945,44.945,0,0,1-9.186-.953,14.248,14.248,0,0,1-2.9-1.062,1.805,1.805,0,0,1-1.026-1.816c.03-2.006.056-4.651-.008-7.318a1.99,1.99,0,0,1,1.34-2.136c1.313-.451,2.687-.807,4.016-1.15l.059-.016.742-.192a12.023,12.023,0,0,1,1.509-.2,2.732,2.732,0,0,1,.391-.032.661.661,0,0,1,.426.109.545.545,0,0,1,.158.407c.03.492-.238.558-.8.648l-.627.1-.041.007-.023,0c-1.258.215-2.56.437-3.837.737a12.7,12.7,0,0,0-2.034.847l-.113.059.029.51.086.054a7.136,7.136,0,0,0,1.535.726,54.456,54.456,0,0,0,6.118,1.112,40.446,40.446,0,0,0,4.415.242,40.142,40.142,0,0,0,9.232-1.078,20.337,20.337,0,0,0,2.337-.9l.113-.051.011-.527-.088-.062a5.7,5.7,0,0,0-1.294-.673c-1.268-.312-2.552-.581-3.794-.843l-.011,0-1.131-.238a1.9,1.9,0,0,0-.3-.031h-.018a.774.774,0,0,1-.335-.054c-.258-.211-.455-.487-.439-.616a.79.79,0,0,1,.464-.463,16.652,16.652,0,0,1,7.206,1.773,1.852,1.852,0,0,1,.938,1.742l0,.252c-.021,2.3-.043,4.675.013,7.069a1.993,1.993,0,0,1-1.329,2.144,26.287,26.287,0,0,1-4.59,1.278A45.225,45.225,0,0,1,192.144-10662.314Zm-11.938-9.845h0v4.095c0,2.941.083,3.044,2.958,3.669a44.3,44.3,0,0,0,9,.927,44.261,44.261,0,0,0,7.008-.56,26.463,26.463,0,0,0,4.089-1.1,1.354,1.354,0,0,0,.817-.959c.04-1.435.035-2.888.029-4.293,0-.512,0-1.028,0-1.527v-.263l-.255.072a43.361,43.361,0,0,1-11.7,1.61,43.4,43.4,0,0,1-11.687-1.6Z"
                data-name="Subtraction 88" id="Subtraction_88" stroke="rgba(0,0,0,0)"
                stroke-miterlimit="10" stroke-width="1" transform="translate(1127.676 11448.768)" />
        </g>
        <g data-name="Group 56709" id="Group_56709">
            <path
                d="M182.06-10664.365a7.768,7.768,0,0,1-2.144-.3,1.148,1.148,0,0,1-.9-1.27c.019-2.1.016-4.23.013-6.292,0-.542,0-1.081,0-1.624v-.021c0-.553,0-1.109,0-1.675a1.161,1.161,0,0,1,.2-.872,1.156,1.156,0,0,1,.755-.479l.113-.02a7.361,7.361,0,0,1,1.962-.268,7.543,7.543,0,0,1,2.045.287,1.135,1.135,0,0,1,.758.429,1.119,1.119,0,0,1,.23.836l-.011.094c0,1.607,0,3.244,0,4.826,0,.467,0,.938-.005,1.394v.2c-.005,1.037-.011,2.11.02,3.186a1.157,1.157,0,0,1-.954,1.291A7.753,7.753,0,0,1,182.06-10664.365Zm-1.89-10.4v2.153c0,2.072,0,4.215.024,6.36a.782.782,0,0,0,.5.579l.059.011c.552.023,1.106.026,1.527.026h.694l.892,0v-9.125Z"
                data-name="Subtraction 89" id="Subtraction_89" stroke="rgba(0,0,0,0)"
                stroke-miterlimit="10" stroke-width="1" transform="translate(1137.77 11440.252)" />
        </g>
        <g data-name="Group 56710" id="Group_56710">
            <path
                d="M180.664-10667.336a.66.66,0,0,1-.318-.1c-.355-.2-.385-.452-.118-.979a3.155,3.155,0,0,0-.488-3.9,2.968,2.968,0,0,1,.268-4.181,3.294,3.294,0,0,1,.445-.324c.234-.11.489-.215.758-.311.045.039.093.079.142.118.088.071.294.238.3.289a1.233,1.233,0,0,1-.346.764,2.6,2.6,0,0,1-.4.367,2.128,2.128,0,0,0-.571.595,1.829,1.829,0,0,0,.456,2.168,4.241,4.241,0,0,1,.469,4.923.953.953,0,0,1-.482.552A.389.389,0,0,1,180.664-10667.336Z"
                data-name="Subtraction 90" id="Subtraction_90" stroke="rgba(0,0,0,0)"
                stroke-miterlimit="10" stroke-width="1" transform="translate(1139.416 11429)" />
        </g>
    </g>
</svg>
