<svg xmlns="http://www.w3.org/2000/svg" width="23.411" height="36.009" viewBox="0 0 23.411 36.009">
  <g id="整骨_整体_8" transform="translate(-1164.554 -750.542)">
    <g id="Group_1260" data-name="Group 1260">
      <g id="Group_1259" data-name="Group 1259">
        <g id="Group_1258" data-name="Group 1258">
          <path id="Path_202967" data-name="Path 202967" d="M1185.22,786.551a.5.5,0,0,1-.481-.363c-.252-.884-1.206-4.092-1.48-4.743a.5.5,0,1,1,.922-.388c.311.741,1.326,4.176,1.519,4.857a.5.5,0,0,1-.344.617A.457.457,0,0,1,1185.22,786.551Z"/>
          <path id="Path_202968" data-name="Path 202968" d="M1185.535,775.682a.5.5,0,0,1-.482-.369,9.558,9.558,0,0,0-2.692-3.788,9.41,9.41,0,0,1-.86-.92.5.5,0,0,1,.8-.6,9.239,9.239,0,0,0,.761.807,10.341,10.341,0,0,1,2.953,4.235.5.5,0,0,1-.483.632Z"/>
          <path id="Path_202969" data-name="Path 202969" d="M1179.228,783.681a6.6,6.6,0,0,1-3.427-.953.5.5,0,0,1,.517-.856,5.667,5.667,0,0,0,7.036-.96,8.268,8.268,0,0,0,1.183-1.7.5.5,0,1,1,.887.463,9.3,9.3,0,0,1-1.335,1.917A6.666,6.666,0,0,1,1179.228,783.681Z"/>
          <path id="Path_202970" data-name="Path 202970" d="M1178.615,786.551a.514.514,0,0,1-.187-.036.5.5,0,0,1-.277-.652c.147-.36.725-1.942,1.05-2.86a.5.5,0,0,1,.944.334c-.33.927-.916,2.531-1.066,2.9A.5.5,0,0,1,1178.615,786.551Z"/>
          <path id="Path_202971" data-name="Path 202971" d="M1170.085,786.551a.5.5,0,0,1-.5-.5,4.994,4.994,0,0,0-.63-1.867,8.939,8.939,0,0,1-1.083-3.905,7.418,7.418,0,0,1,1.411-4.435c1.83-2.641,2.042-5.5.562-7.65a.5.5,0,0,1,.822-.568c1.728,2.5,1.515,5.79-.568,8.8a6.416,6.416,0,0,0-1.227,3.849,8,8,0,0,0,.988,3.487,5.687,5.687,0,0,1,.725,2.292A.5.5,0,0,1,1170.085,786.551Z"/>
          <path id="Path_202972" data-name="Path 202972" d="M1170.745,774.69a.5.5,0,0,1-.411-.214c-.381-.549-.835-1.239-1.278-1.912-.405-.615-.8-1.216-1.122-1.682a.5.5,0,0,1-.026-.528,15.573,15.573,0,0,1,1.976-2.778,1.657,1.657,0,0,1,2.1-.781,6.078,6.078,0,0,1,1.688,1.714,5.5,5.5,0,0,0,1.026,1.156,3.172,3.172,0,0,0,2.913.61,1.213,1.213,0,0,0,.824-.84.5.5,0,0,1,.843-.245,2.5,2.5,0,0,0,2.481.636.786.786,0,0,0,.57-.427,1.971,1.971,0,0,0-.108-1.542,3.188,3.188,0,0,0-1.064-1.046,3.3,3.3,0,0,1-1.14-1.151.5.5,0,1,1,.906-.42,2.823,2.823,0,0,0,.827.765,3.949,3.949,0,0,1,1.382,1.44,2.959,2.959,0,0,1,.1,2.39,1.766,1.766,0,0,1-1.208.956,3.481,3.481,0,0,1-2.909-.449,2.389,2.389,0,0,1-1.149.869,4.2,4.2,0,0,1-3.857-.739,6.331,6.331,0,0,1-1.237-1.367,5.252,5.252,0,0,0-1.365-1.434c-.208-.1-.362-.086-.856.546a14.627,14.627,0,0,0-1.716,2.356c.288.425.619.928.957,1.441.438.666.886,1.348,1.264,1.891a.5.5,0,0,1-.411.785Z"/>
          <path id="Path_202973" data-name="Path 202973" d="M1169.579,776.8a.5.5,0,0,1-.353-.146c-.5-.5-1.071-1.051-1.616-1.579a25.7,25.7,0,0,1-2.435-2.5,3.41,3.41,0,0,1-.418-3.125c.392-.91.9-1.834,1.35-2.648.315-.57.586-1.063.727-1.388a5.028,5.028,0,0,1,3.936-2.858c.251-.015,1.99-.139,2.4-1.037a4.029,4.029,0,0,1-2.77-1.83.5.5,0,0,1,.189-.652c.964-.582,1.058-1.468,1.188-2.694a9.154,9.154,0,0,1,.718-3.051,5.19,5.19,0,0,1,9.175.248,1.659,1.659,0,0,1,1.207,1.191,2.463,2.463,0,0,1-.077,1.34,1.361,1.361,0,0,0,.021,1.084.5.5,0,0,1-.061.511.917.917,0,0,1-.7.35c-.028.107-.059.214-.095.32a2.134,2.134,0,0,1-.574.8,1.805,1.805,0,0,0-.193.21,2.311,2.311,0,0,0-.069.563,1.684,1.684,0,0,1-.243,1c-.142.178-1.441,1.783-2.093,1.819a.427.427,0,0,1-.179-.023,7.385,7.385,0,0,1-1.393-.6,2,2,0,0,1-.94-2.807.5.5,0,0,1,.936.352c-.383,1.02-.009,1.317.481,1.576a6.63,6.63,0,0,0,1.075.482,15.633,15.633,0,0,0,1.335-1.425c0-.03.015-.264.023-.419a2.378,2.378,0,0,1,.184-.98,1.9,1.9,0,0,1,.37-.449,1.422,1.422,0,0,0,.333-.418,3.18,3.18,0,0,0,.144-.618.5.5,0,0,1,.225-.357.514.514,0,0,1,.34-.075,2.532,2.532,0,0,1,.112-1.158,1.515,1.515,0,0,0,.071-.828.686.686,0,0,0-.663-.487.492.492,0,0,1-.366-.143.5.5,0,0,1-.149-.364c.006-.511-.774-1.522-2.532-2.167a3.752,3.752,0,0,0-4.8,1.9,8.231,8.231,0,0,0-.63,2.734,4.224,4.224,0,0,1-1.238,3.143,3.979,3.979,0,0,0,2.277,1.022.5.5,0,0,1,.447.5c0,1.663-1.755,2.351-3.4,2.441a4.016,4.016,0,0,0-3.114,2.276c-.153.353-.434.865-.762,1.457-.438.795-.934,1.7-1.3,2.534a2.411,2.411,0,0,0,.314,2.2,31.493,31.493,0,0,0,2.305,2.346c.548.532,1.118,1.084,1.627,1.589a.5.5,0,0,1-.354.855Z"/>
          <path id="Path_202974" data-name="Path 202974" d="M1185.054,779.944a1.328,1.328,0,0,1-.641-.156.989.989,0,0,1-.45-1.278c.053-.133.115-.3.179-.473a.665.665,0,0,1-.246-.128c-.682-.563-.166-1.727.192-2.2a4.646,4.646,0,0,1,.877-.768c-.095-.3-.257-.723-.415-1.131a11.6,11.6,0,0,1-.862-2.882c-.2-.122-.457-.3-.787-.527-.162-.11-.313-.215-.43-.293a.5.5,0,1,1,.547-.835c.124.08.282.189.451.306a10.159,10.159,0,0,0,.9.583.507.507,0,0,1,.318.51,9.162,9.162,0,0,0,.795,2.776,9.63,9.63,0,0,1,.551,1.656.5.5,0,0,1-.253.511,3.618,3.618,0,0,0-.922.73,1.834,1.834,0,0,0-.245.51.519.519,0,0,1,.528-.1.484.484,0,0,1,.3.564c-.063.252-.383,1.139-.551,1.563-.01.031.053.079.179.063a1.163,1.163,0,0,0,.811-.54,6.234,6.234,0,0,0,.852-1.413,4.479,4.479,0,0,0,.222-1.682c-.095-2.63-.642-5.049-1.329-5.893-.078-.1-.22-.282-.409-.532a29.774,29.774,0,0,0-4.1-4.7,9.007,9.007,0,0,0-2.772-.584,1.745,1.745,0,0,1-1.343-.816,1.517,1.517,0,0,1,0-1.322.5.5,0,1,1,.92.392.606.606,0,0,0-.038.461.823.823,0,0,0,.579.294,9.8,9.8,0,0,1,3.071.663.565.565,0,0,1,.1.053c1.3.886,3.38,3.63,4.38,4.949.18.239.315.416.388.507,1.018,1.248,1.472,4.27,1.552,6.477a5.49,5.49,0,0,1-.289,2.09,7.2,7.2,0,0,1-.988,1.655A2.047,2.047,0,0,1,1185.054,779.944Z"/>
        </g>
      </g>
    </g>
  </g>
</svg>
