<svg height="35.299" viewBox="0 0 39.213 35.299" width="39.213" xmlns="http://www.w3.org/2000/svg">
    <g id="整骨_整体_1" transform="translate(-1401.986 -751.493)">
        <path d="M402.627-10614.708h-.005a.61.61,0,0,1-.607-.62c-.011-.175-.008-.354-.005-.543v-.008l.005-.692h-10.33l-.069.263a3.051,3.051,0,0,0-.067.719c-.011.693-.065.857-.572.871-.561,0-.621-.159-.658-.9l0-.04a3.324,3.324,0,0,0-.089-.706l-.067-.259h-5.039a.64.64,0,0,1-.435-.161.612.612,0,0,1-.2-.425.6.6,0,0,1,.16-.443.6.6,0,0,1,.425-.2l-.016-.351.112.351c.685-.01,1.385-.011,1.986-.011H388l2.269,0,.032-.625c.01-.178.019-.352.019-.523v-1.8c0-2.163,0-4.4.008-6.551a1.273,1.273,0,0,0-.716-1.345,2.345,2.345,0,0,1-1.235-2.159c-.013-3.875-.013-7.806,0-11.686a2.561,2.561,0,0,1,2.526-2.582h.032a2.562,2.562,0,0,1,2.552,2.523c.035,3.806.021,7.623.008,11.314v.439a2.494,2.494,0,0,1-1.368,2.259,1.2,1.2,0,0,0-.569.885c-.017,2.42-.012,4.879-.007,7.256v.73l.005,1.288.011.088a1,1,0,0,0,.11.262l.1.174h10.164l.04-.545a4.7,4.7,0,0,0,.029-.471v-1.868c0-1.979,0-4.313.008-6.631a1.236,1.236,0,0,0-.706-1.27,2.341,2.341,0,0,1-1.246-2.151c-.013-3.5-.024-7.643,0-11.755a2.519,2.519,0,0,1,2.491-2.515c.043,0,.091,0,.146,0a2.465,2.465,0,0,1,2.457,2.332l.005.1c.044,3.943.025,7.909,0,11.963a2.464,2.464,0,0,1-1.283,2.1,1.4,1.4,0,0,0-.639.98c-.025,2.379-.022,4.8-.019,7.136v.589l.005,1.3a4.1,4.1,0,0,0,.091.537l.083.358.355-.1a19.025,19.025,0,0,0,1.988-.694c1.444-.688,2.9-1.435,4.25-2.139a9.3,9.3,0,0,1,4.377-1.083h.148c.032,0,.063,0,.095,0,.106,0,.215-.008.336-.017l.056,0,.564-.032.04-.543c.014-.154.029-.334.029-.511v-2.025c0-2.107-.005-4.286.011-6.4a1.277,1.277,0,0,0-.738-1.314,2.3,2.3,0,0,1-1.221-2.093l0-.656c-.013-3.465-.027-7.392.008-11.174a2.435,2.435,0,0,1,.7-1.74,2.432,2.432,0,0,1,1.722-.739c.06,0,.128,0,.211,0a2.461,2.461,0,0,1,1.761.754,2.57,2.57,0,0,1,.719,1.822c.019,3.894.011,7.715,0,11.613a2.59,2.59,0,0,1-1.336,2.31,1.48,1.48,0,0,0-.591,1.059c-.019,1.619-.019,3.266-.019,4.858l0,.872v.09c0,.936,0,1.9-.009,2.871a1.042,1.042,0,0,0,.251.772.917.917,0,0,0,.688.234l.092,0c.55-.011,1.155-.016,1.848-.016.752,0,1.5.006,2.062.011h.094a.93.93,0,0,1,.674.213.561.561,0,0,1,.134.423c-.008.17-.026.569-.818.574-1.518.011-3.074.011-4.578.011h-.273l-.067.265a3.73,3.73,0,0,0-.083.746c-.026.706-.034.919-.622.919h-.025c-.522-.016-.577-.188-.585-.922a3.476,3.476,0,0,0-.048-.687l-.048-.249-.254-.029a7.993,7.993,0,0,0-.875-.049,7.817,7.817,0,0,0-3.444.795l-1.248.633-.07.036-.034.018c-1.09.552-2.216,1.122-3.335,1.639a10.89,10.89,0,0,1-2.218.679c-.307.066-.946.2-.845,1a2.654,2.654,0,0,1,0,.411A.613.613,0,0,1,402.627-10614.708Zm.065-29.165-.09,0c-.812.019-1.3.631-1.3,1.639,0,1.28,0,2.579,0,3.835l0,7.166a1.813,1.813,0,0,0,.449,1.341,1.208,1.208,0,0,0,.874.34h.024c.8-.014,1.315-.659,1.318-1.644.008-3.674.008-7.4,0-11.073a1.716,1.716,0,0,0-.449-1.259A1.167,1.167,0,0,0,402.693-10643.873Zm-11.662,0c-.038,0-.071,0-.108,0-.812.016-1.3.627-1.3,1.636-.005,1.416-.005,2.852-.005,4.239l0,6.765a1.809,1.809,0,0,0,.449,1.339,1.216,1.216,0,0,0,.877.339h.029c.794-.013,1.31-.658,1.312-1.644.008-3.675.008-7.4,0-11.073a1.7,1.7,0,0,0-.449-1.256A1.13,1.13,0,0,0,391.031-10643.875Zm25.225-3.9a1.232,1.232,0,0,0-.885.353,1.754,1.754,0,0,0-.452,1.27c-.008,3.675-.008,7.4,0,11.073,0,.972.537,1.628,1.336,1.633.818,0,1.328-.62,1.331-1.619l0-11.076c0-1-.5-1.627-1.318-1.633Z" data-name="Subtraction 85"
            id="Subtraction_85"
            stroke="rgba(0,0,0,0)" stroke-miterlimit="10" stroke-width="1"
            transform="translate(1018 11401)" />
    </g>
</svg>
