<svg height="28.338" viewBox="0 0 36.752 28.338" width="36.752" xmlns="http://www.w3.org/2000/svg">
    <g id="整骨_整体_6" transform="translate(-21997.488 -3305.169)">
        <g data-name="Group 56703" id="Group_56703" transform="translate(21997.488 3305.169)">
            <g data-name="Group 149" id="Group_149" transform="translate(1.499 0)">
                <path d="M3458.407,209.85a1.213,1.213,0,0,1-.6-.157,10.065,10.065,0,0,0-4.778-1.285,1.217,1.217,0,0,1-1.159-1.533l.651-2.422a1.734,1.734,0,0,1,1.7-1.284,10.916,10.916,0,0,1,5.184,1.394h0a1.734,1.734,0,0,1,.826,1.963l-.651,2.422a1.221,1.221,0,0,1-1.176.9Zm-4.206-5.83a.883.883,0,0,0-.853.654l-.651,2.422a.366.366,0,0,0,.348.46,10.92,10.92,0,0,1,5.184,1.394.365.365,0,0,0,.532-.224l.652-2.422a.883.883,0,0,0-.421-1,10.061,10.061,0,0,0-4.778-1.285Z" data-name="Path 609"
                    id="Path_609"
                    transform="translate(-3449.994 -203.169)" />
                <path d="M3421.922,217.621a.421.421,0,0,1-.064,0l-1.443-.218a1.119,1.119,0,0,1-.117-2.188l2.086-.548a.426.426,0,0,1,.217.824l-2.086.548a.267.267,0,0,0-.19.189.267.267,0,0,0,.218.333l1.443.218a.426.426,0,0,1-.063.847Z" data-name="Path 610"
                    id="Path_610"
                    transform="translate(-3419.464 -213.996)" />
                <path d="M3578.552,250.82a1.117,1.117,0,0,1-.41-.078l-1.358-.535a.426.426,0,1,1,.312-.792l1.358.535a.267.267,0,0,0,.286-.438l-1.53-1.52a.426.426,0,1,1,.6-.6l1.53,1.52a1.118,1.118,0,0,1-.789,1.912Z" data-name="Path 611"
                    id="Path_611"
                    transform="translate(-3567.596 -244.76)" />
            </g>
            <g data-name="Group 150" id="Group_150" transform="translate(0 7.271)">
                <path d="M3438.936,336.964a1.229,1.229,0,0,1-.3-.038,10.063,10.063,0,0,0-4.948,0,1.217,1.217,0,0,1-1.517-1.18v-2.508a1.734,1.734,0,0,1,1.307-1.682,10.917,10.917,0,0,1,5.368,0h0a1.734,1.734,0,0,1,1.307,1.682v2.508a1.219,1.219,0,0,1-1.214,1.218Zm-2.777-1.2a10.89,10.89,0,0,1,2.684.335.366.366,0,0,0,.456-.354v-2.508a.883.883,0,0,0-.666-.856h0a10.062,10.062,0,0,0-4.948,0,.883.883,0,0,0-.666.856v2.508a.365.365,0,0,0,.456.354A10.9,10.9,0,0,1,3436.159,335.765Z" data-name="Path 612"
                    id="Path_612"
                    transform="translate(-3429.947 -331.221)" />
                <path d="M3394.181,356.663a1.119,1.119,0,0,1-.556-2.09l1.872-1.071a.426.426,0,1,1,.423.739l-1.872,1.071a.267.267,0,0,0,.163.5l1.45-.164a.426.426,0,1,1,.1.846l-1.45.164A1.123,1.123,0,0,1,3394.181,356.663Z" data-name="Path 613"
                    id="Path_613"
                    transform="translate(-3393.062 -352.184)" />
                <path d="M3559.7,356.664a1.13,1.13,0,0,1-.125-.007l-1.45-.164a.426.426,0,1,1,.1-.846l1.45.164a.267.267,0,0,0,.3-.265.267.267,0,0,0-.134-.232l-1.872-1.071a.426.426,0,1,1,.423-.739l1.872,1.071a1.119,1.119,0,0,1-.556,2.09Z" data-name="Path 614"
                    id="Path_614"
                    transform="translate(-3548.394 -352.185)" />
            </g>
            <g data-name="Group 151" id="Group_151" transform="translate(1.443 13.735)">
                <path d="M3451.284,451.759a1.22,1.22,0,0,1-1.174-.891l-.674-2.416a1.734,1.734,0,0,1,.807-1.971,10.919,10.919,0,0,1,5.17-1.442h0a1.735,1.735,0,0,1,1.711,1.269l.674,2.416a1.217,1.217,0,0,1-1.145,1.544,10.061,10.061,0,0,0-4.766,1.329A1.214,1.214,0,0,1,3451.284,451.759Zm4.15-5.869a10.061,10.061,0,0,0-4.766,1.33.882.882,0,0,0-.411,1l.674,2.416a.366.366,0,0,0,.534.219,10.918,10.918,0,0,1,5.171-1.442.365.365,0,0,0,.344-.464l-.674-2.416a.881.881,0,0,0-.871-.646Zm-.01-.426h0Z" data-name="Path 615"
                    id="Path_615"
                    transform="translate(-3447.617 -445.038)" />
                <path d="M3419.588,493.635a1.118,1.118,0,0,1-.8-1.9l1.515-1.535a.426.426,0,0,1,.606.6l-1.515,1.535a.268.268,0,0,0-.067.259.267.267,0,0,0,.357.176l1.353-.547a.426.426,0,1,1,.319.79l-1.353.547A1.12,1.12,0,0,1,3419.588,493.635Z" data-name="Path 616"
                    id="Path_616"
                    transform="translate(-3418.47 -487.512)" />
                <path d="M3570.644,459.293a.426.426,0,0,1-.067-.846l1.441-.232a.267.267,0,0,0,.023-.522l-2.091-.529a.426.426,0,1,1,.209-.826l2.091.529a1.119,1.119,0,0,1-.1,2.189l-1.441.232A.435.435,0,0,1,3570.644,459.293Z" data-name="Path 617"
                    id="Path_617"
                    transform="translate(-3561.045 -455.685)" />
            </g>
            <g data-name="Group 152" id="Group_152" transform="translate(4.017 4.416)">
                <path d="M3464.238,283.5a.426.426,0,0,1-.423-.479,3.752,3.752,0,0,1,.774-1.938.426.426,0,0,1,.637.565,2.978,2.978,0,0,0-.566,1.479A.426.426,0,0,1,3464.238,283.5Z" data-name="Path 618"
                    id="Path_618"
                    transform="translate(-3463.811 -280.937)" />
                <path d="M3540.371,301.174a.426.426,0,0,1-.41-.543l.253-.884a.426.426,0,0,1,.819.234l-.253.884A.426.426,0,0,1,3540.371,301.174Z" data-name="Path 619"
                    id="Path_619"
                    transform="translate(-3535.621 -298.388)" />
            </g>
            <g data-name="Group 153" id="Group_153" transform="translate(1.499 20.639)">
                <path d="M3458.407,573.314a1.213,1.213,0,0,1-.6-.157,10.064,10.064,0,0,0-4.778-1.285,1.217,1.217,0,0,1-1.159-1.533l.651-2.422a1.734,1.734,0,0,1,1.676-1.285h.024a10.916,10.916,0,0,1,5.184,1.394h0a1.734,1.734,0,0,1,.826,1.963l-.651,2.422a1.221,1.221,0,0,1-1.176.9Zm-4.206-5.83a.883.883,0,0,0-.853.654l-.651,2.422a.366.366,0,0,0,.348.46,10.92,10.92,0,0,1,5.184,1.394.365.365,0,0,0,.532-.224l.652-2.422a.883.883,0,0,0-.421-1h0a10.06,10.06,0,0,0-4.778-1.285Z" data-name="Path 620"
                    id="Path_620"
                    transform="translate(-3449.994 -566.632)" />
                <path d="M3421.922,581.086a.434.434,0,0,1-.064,0l-1.442-.218a1.119,1.119,0,0,1-.117-2.188l2.086-.548a.426.426,0,0,1,.217.824l-2.086.548a.267.267,0,0,0-.19.189.267.267,0,0,0,.218.333l1.443.218a.426.426,0,0,1-.063.847Z" data-name="Path 621"
                    id="Path_621"
                    transform="translate(-3419.464 -577.46)" />
                <path d="M3578.552,614.284a1.117,1.117,0,0,1-.41-.078l-1.358-.535a.426.426,0,0,1,.312-.793l1.358.535a.267.267,0,0,0,.355-.179.267.267,0,0,0-.069-.259l-1.53-1.52a.426.426,0,1,1,.6-.6l1.53,1.521a1.118,1.118,0,0,1-.789,1.912Z" data-name="Path 622"
                    id="Path_622"
                    transform="translate(-3567.596 -608.224)" />
            </g>
            <g data-name="Group 154" id="Group_154" transform="translate(4.102 25.113)">
                <path d="M3465.718,648.438a.426.426,0,0,1-.392-.592,6.845,6.845,0,0,0,.552-2.033.426.426,0,0,1,.851.046,7.544,7.544,0,0,1-.618,2.319A.425.425,0,0,1,3465.718,648.438Z" data-name="Path 623"
                    id="Path_623"
                    transform="translate(-3465.292 -645.411)" />
                <path d="M3540.559,666.079a.432.432,0,0,1-.077-.007.426.426,0,0,1-.342-.5l.242-1.323a.426.426,0,1,1,.838.153l-.242,1.323A.426.426,0,0,1,3540.559,666.079Z" data-name="Path 624"
                    id="Path_624"
                    transform="translate(-3535.883 -662.853)" />
            </g>
            <g data-name="Group 155" id="Group_155" transform="translate(3.763 12.105)">
                <path d="M3460.04,418.711a.426.426,0,0,1-.4-.289,5.26,5.26,0,0,1-.3-1.663.426.426,0,0,1,.852.019,4.512,4.512,0,0,0,.259,1.37.426.426,0,0,1-.4.563Z" data-name="Path 625"
                    id="Path_625"
                    transform="translate(-3459.332 -416.344)" />
                <path d="M3531.008,417.767a.426.426,0,0,1-.426-.426v-.572a.426.426,0,0,1,.852,0v.572A.426.426,0,0,1,3531.008,417.767Z" data-name="Path 626"
                    id="Path_626"
                    transform="translate(-3526.536 -416.344)" />
            </g>
            <g data-name="Group 156" id="Group_156" transform="translate(9.485 18.175)">
                <path d="M3561.078,526.39a.426.426,0,0,1-.426-.426,3.185,3.185,0,0,0-.392-1.956.426.426,0,1,1,.519-.675c.121.093.724.657.724,2.631A.426.426,0,0,1,3561.078,526.39Z" data-name="Path 627"
                    id="Path_627"
                    transform="translate(-3560.094 -523.245)" />
            </g>
        </g>
        <g data-name="Group 56702" id="Group_56702" transform="translate(22021.816 3305.515)">
            <g data-name="Group 141" id="Group_141" transform="translate(0 0)">
                <path d="M2692.624,215.012a1.219,1.219,0,0,1-1.214-1.218v-2.508a1.734,1.734,0,0,1,1.307-1.682,10.916,10.916,0,0,1,5.368,0h0a1.734,1.734,0,0,1,1.308,1.682v2.508a1.217,1.217,0,0,1-1.517,1.18,10.064,10.064,0,0,0-4.948,0A1.23,1.23,0,0,1,2692.624,215.012Zm2.777-4.891a10.039,10.039,0,0,0-2.474.309.883.883,0,0,0-.666.856v2.508a.366.366,0,0,0,.456.354,10.918,10.918,0,0,1,5.368,0,.365.365,0,0,0,.456-.354v-2.508a.883.883,0,0,0-.665-.856h0A10.041,10.041,0,0,0,2695.4,210.121Z" data-name="Path 591"
                    id="Path_591"
                    transform="translate(-2689.189 -209.269)" />
                <path d="M2653.422,234.712a1.119,1.119,0,0,1-.556-2.09l1.872-1.071a.426.426,0,1,1,.423.739l-1.872,1.071a.268.268,0,0,0-.134.232.267.267,0,0,0,.3.265l1.45-.164a.426.426,0,0,1,.1.846l-1.45.164A1.107,1.107,0,0,1,2653.422,234.712Z" data-name="Path 592"
                    id="Path_592"
                    transform="translate(-2652.303 -230.233)" />
                <path d="M2818.941,234.712a1.107,1.107,0,0,1-.125-.007l-1.45-.164a.426.426,0,1,1,.1-.846l1.45.164a.267.267,0,0,0,.162-.5l-1.872-1.071a.426.426,0,1,1,.423-.739l1.872,1.071a1.119,1.119,0,0,1-.556,2.09Z" data-name="Path 593"
                    id="Path_593"
                    transform="translate(-2807.636 -230.233)" />
            </g>
            <g data-name="Group 142" id="Group_142" transform="translate(0 7.301)">
                <path d="M2692.624,343.589a1.219,1.219,0,0,1-1.214-1.218v-2.508a1.734,1.734,0,0,1,1.307-1.682,10.917,10.917,0,0,1,5.368,0h0a1.734,1.734,0,0,1,1.308,1.682v2.508a1.217,1.217,0,0,1-1.517,1.18,10.062,10.062,0,0,0-4.948,0A1.233,1.233,0,0,1,2692.624,343.589Zm2.777-1.2a10.889,10.889,0,0,1,2.684.335.365.365,0,0,0,.456-.354v-2.508a.883.883,0,0,0-.665-.856h0a10.063,10.063,0,0,0-4.948,0,.883.883,0,0,0-.666.856v2.508a.366.366,0,0,0,.456.354A10.893,10.893,0,0,1,2695.4,342.39Z" data-name="Path 594"
                    id="Path_594"
                    transform="translate(-2689.189 -337.847)" />
                <path d="M2653.422,363.289a1.119,1.119,0,0,1-.556-2.09l1.872-1.071a.426.426,0,1,1,.423.739l-1.872,1.071a.267.267,0,0,0-.134.232.267.267,0,0,0,.3.265l1.45-.164a.426.426,0,0,1,.1.846l-1.45.164A1.115,1.115,0,0,1,2653.422,363.289Z" data-name="Path 595"
                    id="Path_595"
                    transform="translate(-2652.303 -358.81)" />
                <path d="M2818.941,363.289a1.115,1.115,0,0,1-.125-.007l-1.45-.164a.426.426,0,1,1,.1-.846l1.45.164a.267.267,0,0,0,.3-.265.267.267,0,0,0-.135-.232l-1.872-1.071a.426.426,0,1,1,.423-.739l1.872,1.071a1.119,1.119,0,0,1-.556,2.09Z" data-name="Path 596"
                    id="Path_596"
                    transform="translate(-2807.636 -358.81)" />
            </g>
            <g data-name="Group 143" id="Group_143" transform="translate(0 14.602)">
                <path d="M2692.624,472.166a1.218,1.218,0,0,1-1.214-1.218V468.44a1.734,1.734,0,0,1,1.307-1.682,10.916,10.916,0,0,1,5.368,0h0a1.734,1.734,0,0,1,1.308,1.682v2.508a1.217,1.217,0,0,1-1.517,1.18,10.064,10.064,0,0,0-4.948,0A1.23,1.23,0,0,1,2692.624,472.166Zm2.777-4.891a10.038,10.038,0,0,0-2.474.309.883.883,0,0,0-.666.856v2.508a.366.366,0,0,0,.456.354,10.919,10.919,0,0,1,5.368,0,.365.365,0,0,0,.456-.354V468.44a.883.883,0,0,0-.665-.856h0A10.04,10.04,0,0,0,2695.4,467.275Z" data-name="Path 597"
                    id="Path_597"
                    transform="translate(-2689.189 -466.423)" />
                <path d="M2653.422,491.866a1.119,1.119,0,0,1-.556-2.09l1.872-1.071a.426.426,0,1,1,.423.739l-1.872,1.071a.268.268,0,0,0-.134.232.267.267,0,0,0,.3.265l1.45-.164a.426.426,0,0,1,.1.846l-1.45.164A1.114,1.114,0,0,1,2653.422,491.866Z" data-name="Path 598"
                    id="Path_598"
                    transform="translate(-2652.303 -487.387)" />
                <path d="M2818.941,491.866a1.107,1.107,0,0,1-.125-.007l-1.45-.164a.426.426,0,0,1,.1-.846l1.45.164a.267.267,0,0,0,.162-.5l-1.872-1.071a.426.426,0,1,1,.423-.739l1.872,1.071a1.119,1.119,0,0,1-.556,2.09Z" data-name="Path 599"
                    id="Path_599"
                    transform="translate(-2807.636 -487.387)" />
            </g>
            <g data-name="Group 144" id="Group_144" transform="translate(0 21.904)">
                <path d="M2692.624,600.743a1.219,1.219,0,0,1-1.214-1.218v-2.508a1.734,1.734,0,0,1,1.307-1.682,10.919,10.919,0,0,1,5.368,0h0a1.734,1.734,0,0,1,1.308,1.682v2.508a1.217,1.217,0,0,1-1.517,1.18,10.062,10.062,0,0,0-4.948,0A1.23,1.23,0,0,1,2692.624,600.743Zm2.777-1.2a10.894,10.894,0,0,1,2.684.335.365.365,0,0,0,.456-.354v-2.508a.883.883,0,0,0-.665-.856h0a10.064,10.064,0,0,0-4.948,0,.883.883,0,0,0-.666.856v2.508a.366.366,0,0,0,.456.354A10.9,10.9,0,0,1,2695.4,599.544Z" data-name="Path 600"
                    id="Path_600"
                    transform="translate(-2689.189 -595)" />
                <path d="M2653.422,620.442a1.119,1.119,0,0,1-.556-2.09l1.872-1.071a.426.426,0,1,1,.423.739l-1.872,1.071a.268.268,0,0,0-.134.232.267.267,0,0,0,.3.265l1.45-.164a.426.426,0,0,1,.1.846l-1.45.164A1.108,1.108,0,0,1,2653.422,620.442Z" data-name="Path 601"
                    id="Path_601"
                    transform="translate(-2652.303 -615.963)" />
                <path d="M2818.941,620.442a1.1,1.1,0,0,1-.125-.007l-1.45-.164a.426.426,0,1,1,.1-.846l1.45.164a.267.267,0,0,0,.3-.265.267.267,0,0,0-.135-.232l-1.872-1.071a.426.426,0,1,1,.423-.739l1.872,1.071a1.119,1.119,0,0,1-.556,2.09Z" data-name="Path 602"
                    id="Path_602"
                    transform="translate(-2807.636 -615.963)" />
            </g>
            <g data-name="Group 145" id="Group_145" transform="translate(3.763 4.745)">
                <path d="M2719,295.056a.426.426,0,0,1-.426-.426v-1.37a.426.426,0,0,1,.852,0v1.37A.426.426,0,0,1,2719,295.056Z" data-name="Path 603"
                    id="Path_603"
                    transform="translate(-2718.575 -292.834)" />
                <path d="M2790.249,295.056a.426.426,0,0,1-.426-.426v-1.37a.426.426,0,1,1,.852,0v1.37A.426.426,0,0,1,2790.249,295.056Z" data-name="Path 604"
                    id="Path_604"
                    transform="translate(-2785.777 -292.834)" />
            </g>
            <g data-name="Group 146" id="Group_146" transform="translate(3.763 12.135)">
                <path d="M2719,425.191a.426.426,0,0,1-.426-.426v-1.37a.426.426,0,0,1,.852,0v1.37A.426.426,0,0,1,2719,425.191Z" data-name="Path 605"
                    id="Path_605"
                    transform="translate(-2718.575 -422.969)" />
                <path d="M2790.249,425.191a.426.426,0,0,1-.426-.426v-1.37a.426.426,0,1,1,.852,0v1.37A.426.426,0,0,1,2790.249,425.191Z" data-name="Path 606"
                    id="Path_606"
                    transform="translate(-2785.777 -422.969)" />
            </g>
            <g data-name="Group 147" id="Group_147" transform="translate(3.763 19.379)">
                <path d="M2719,552.768a.426.426,0,0,1-.426-.426v-1.37a.426.426,0,0,1,.852,0v1.37A.426.426,0,0,1,2719,552.768Z" data-name="Path 607"
                    id="Path_607"
                    transform="translate(-2718.575 -550.546)" />
                <path d="M2790.249,552.768a.426.426,0,0,1-.426-.426v-1.37a.426.426,0,1,1,.852,0v1.37A.426.426,0,0,1,2790.249,552.768Z" data-name="Path 608"
                    id="Path_608"
                    transform="translate(-2785.777 -550.546)" />
            </g>
        </g>
        <g data-name="Group 56705" id="Group_56705" transform="translate(22011.666 3316.552)">
            <path d="M1457.818,766.63a.421.421,0,0,1-.126-.02,13.566,13.566,0,0,0-8.237,0,.418.418,0,1,1-.253-.8,14.4,14.4,0,0,1,8.744,0,.418.418,0,0,1-.127.817Z" data-name="Path 202942"
                id="Path_202942"
                transform="translate(-1448.909 -763.181)" />
            <path d="M1456.7,768.389a.418.418,0,0,1-.273-.734l2.214-1.912-1.708-2.274a.417.417,0,1,1,.667-.5l1.942,2.587a.417.417,0,0,1-.061.567l-2.509,2.167A.413.413,0,0,1,1456.7,768.389Z" data-name="Path 202943"
                id="Path_202943"
                transform="translate(-1450.117 -762.798)" />
        </g>
    </g>
</svg>
