<svg height="32.827" viewBox="0 0 32.795 32.827" width="32.795" xmlns="http://www.w3.org/2000/svg">
    <g id="整骨_整体_10" transform="translate(-1253.768 -750.349)">
        <g data-name="Group 56711" id="Group_56711" transform="translate(1265.526 758.919)">
            <path
                d="M.532,23.757a.36.36,0,0,1-.061,0,.5.5,0,0,1-.342-.19c-.3-.361-.021-.733.263-.983.754-.658,1.4-1.229,2.042-1.794a1,1,0,0,0,.116-.118l.194-.214-.1-.15c-1.365-1.982-1.419-4.143-.17-6.8A16.062,16.062,0,0,1,6.762,8.268,54.619,54.619,0,0,1,19.543.122,1.13,1.13,0,0,1,20.026,0a.527.527,0,0,1,.3.083.606.606,0,0,1,.2.576c-.5,6.386-1.9,11.24-4.419,15.278a13.808,13.808,0,0,1-6.356,5.589,6.337,6.337,0,0,1-2.87.688,6.529,6.529,0,0,1-2.938-.708.9.9,0,0,0-.19-.021.889.889,0,0,0-.561.2c-.365.3-.727.617-1.078.923l-.015.013-.177.154c-.247.218-.515.452-.8.694A.987.987,0,0,1,.532,23.757ZM9.71,13.487a.646.646,0,0,1,.362.11.589.589,0,0,1,.081.824l-.049.055a5.9,5.9,0,0,1-.465.6c-1.325,1.465-2.626,2.886-4,4.391l-.222.243-.524.571-.143.157.125.155a.409.409,0,0,0,.133.108,2.121,2.121,0,0,0,.251.1,5.294,5.294,0,0,0,1.622.256,5.176,5.176,0,0,0,2.377-.574,13.56,13.56,0,0,0,6.3-5.858A29.231,29.231,0,0,0,18.79,5.2c.136-.728.242-1.45.344-2.148v0c.021-.136.041-.271.061-.406l.005-.037c.029-.193.058-.389.089-.585l.044-.278-.283.013a1.68,1.68,0,0,0-.384.071l-.472.243-.058.03c-.55.285-1.119.58-1.667.888A45.565,45.565,0,0,0,5.8,10.8a10.517,10.517,0,0,0-2.923,4.953A4.354,4.354,0,0,0,3.5,19.474l.155.224.194-.189c.144-.144.291-.284.432-.421l.056-.054.23-.222c.476-.453,1.016-.967,1.516-1.514.781-.846,1.547-1.733,2.288-2.592l.013-.016,0,0,.795-.921A.625.625,0,0,1,9.71,13.487Z"
                data-name="Subtraction 91" id="Subtraction_91" stroke="rgba(0,0,0,0)"
                stroke-miterlimit="10" stroke-width="1" transform="translate(0)" />
        </g>
        <g data-name="Group 56712" id="Group_56712" transform="translate(1254.268 750.849)">
            <path
                d="M6.875,16.643a3.256,3.256,0,0,1-1.688-.477c-3.02-1.445-4.694-3.44-5.118-6.1A11.343,11.343,0,0,1,.128,7.113a.754.754,0,0,1,.3-.6.493.493,0,0,1,.214-.047,1.073,1.073,0,0,1,.5.155c.941.513,1.9,1.073,2.743,1.567L4,8.251l1.078.63c.079.047.161.1.265.168l.65.412-.049-.475C5.584,5.709,6.9,2.938,8.16.6c.2-.367.335-.591.687-.6h.017c.358,0,.511.233.721.617a16.771,16.771,0,0,1,2.195,6,21.164,21.164,0,0,1,.015,2.372l-.022.44.588-.366L12.476,9,12.7,8.86c.365-.211.726-.423,1.062-.621l.168-.1.065-.038.038-.022c.812-.479,1.652-.974,2.488-1.431a1.242,1.242,0,0,1,.568-.184.441.441,0,0,1,.183.036c.18.086.311.333.389.733a7.24,7.24,0,0,1-1.484,6.188,9.411,9.411,0,0,1-3.991,2.9,3.074,3.074,0,0,1-1.354.318,3.02,3.02,0,0,1-1.812-.6l-.135-.1-.138.1A3.167,3.167,0,0,1,6.875,16.643ZM16.716,7.8h0l-.787.455-.007,0c-2.214,1.275-4.305,2.48-5.82,4.47A3.824,3.824,0,0,0,9.523,13.9a1.117,1.117,0,0,0,1.014,1.563.652.652,0,0,0,.143-.013h.076a2.164,2.164,0,0,0,.672-.1c2.881-1.107,4.551-2.876,5.106-5.411A14.64,14.64,0,0,0,16.7,8.219l.017-.419ZM1.071,8.208h0l0,.355c0,.158,0,.272,0,.4a7.364,7.364,0,0,0,5.382,6.433A2.882,2.882,0,0,0,7,15.445c.061,0,.125,0,.177,0a1.21,1.21,0,0,0,.962-.485,1,1,0,0,0,.089-.9,4.63,4.63,0,0,0-1.014-1.816A33.076,33.076,0,0,0,3.984,9.574,16.716,16.716,0,0,0,2.305,8.527l-.189-.108c-.255-.146-.472-.271-.7-.407l-.118.2ZM8.7,2.074l-.116.113.022.044A13.828,13.828,0,0,0,7.036,7.219,5.712,5.712,0,0,0,7.545,10.4a1.422,1.422,0,0,0,2.623.036,3.717,3.717,0,0,0,.369-1.019c.6-2.682-.4-5.07-1.464-7.287L8.9,2.219l-.2-.145Z"
                data-name="Subtraction 92" id="Subtraction_92" stroke="rgba(0,0,0,0)"
                stroke-miterlimit="10" stroke-width="1" transform="translate(0)" />
        </g>
    </g>
</svg>
