<svg xmlns="http://www.w3.org/2000/svg" width="44.035" height="25.117" viewBox="0 0 44.035 25.117">
  <g id="整骨_整体_5" transform="translate(-2571.365 -4677.975)">
    <path id="Subtraction_34" data-name="Subtraction 34" d="M4941.972,7469.591l-9.377,0h-.005a2.852,2.852,0,0,1-2.079-.9l-.173-.186-.139.212a1.967,1.967,0,0,1-1.643.877h-3.817a1.969,1.969,0,0,1-1.972-1.969,1.985,1.985,0,0,1,1.408-1.892l.291-.084-.193-.232a3.164,3.164,0,0,1,2.443-5.174H4930a1.5,1.5,0,0,1,1.5,1.5,1.512,1.512,0,0,1-.056.409l-.373,1.339a.452.452,0,0,1-.437.325.458.458,0,0,1-.125-.018.448.448,0,0,1-.307-.547l.373-1.342a.593.593,0,0,0-.054-.452.6.6,0,0,0-.363-.286.568.568,0,0,0-.161-.021h-3.29a2.26,2.26,0,0,0-2.261,2.253,2.269,2.269,0,0,0,2.028,2.253h2.081a1.973,1.973,0,0,1,1.157.377,2.42,2.42,0,0,1,1.027,1.314,1.934,1.934,0,0,0,1.847,1.348h9.387a.863.863,0,0,0,.615-.283.876.876,0,0,0,.234-.633.893.893,0,0,0-.857-.85l-7.547,0a.452.452,0,0,1-.011-.9h7.557a1.785,1.785,0,0,1,0,3.57Zm-18.256-1.67h0a1.072,1.072,0,0,0,1.023.766h3.819a1.066,1.066,0,0,0,.647-1.916,1.531,1.531,0,0,0-.769-.208h-1.721c-.086,0-.181,0-.3-.011h-1.676a1.072,1.072,0,0,0-1.068,1.068v.323l.044-.022Zm21.73.514h0a.455.455,0,0,1-.426-.477.45.45,0,0,1,.415-.425h.667a2.925,2.925,0,0,0,2.908-2.728l.424-6.635a.452.452,0,0,1,.244-.371l7.055-3.6a.964.964,0,0,0-.437-1.824.94.94,0,0,0-.385.082l-7.461,3.287a2.542,2.542,0,0,0-1.389,1.263l-.139.285.317,0a1.614,1.614,0,0,1,.107,3.223l-4.752.39c-.022,0-.043,0-.065,0l-.034,0-.071,0a1.851,1.851,0,0,1-1.322-.549l-2.115-2.113a.452.452,0,0,1,0-.639.454.454,0,0,1,.639,0l2.113,2.115a.989.989,0,0,0,.708.283h.06l4.767-.394a.709.709,0,0,0,.654-.709.719.719,0,0,0-.755-.712l-4.1.278a.5.5,0,0,1-.362-.145l-2.315-2.5a.449.449,0,0,1-.13-.321.444.444,0,0,1,.134-.316.431.431,0,0,1,.307-.128.494.494,0,0,1,.354.158l2.165,2.332,2.782-.187.034-.145a3.111,3.111,0,0,1,1.1-1.749l.384-.3-3.116-.354a.455.455,0,0,1-.323-.2l-1.533-2.259-.162.092a2.719,2.719,0,0,1-1.365.367,2.825,2.825,0,0,1-2-.831l-.139-.142-.5.476a2.785,2.785,0,0,0-.857,2v8.313h7.883l.069-.439a.445.445,0,0,1,.445-.379.48.48,0,0,1,.074.006.455.455,0,0,1,.373.52l-.135.815a.448.448,0,0,1-.444.377h-12.766a.45.45,0,0,1-.329-.751.442.442,0,0,1,.309-.15h3.614v-8.312a3.693,3.693,0,0,1,1.136-2.657l.65-.617-.041-.12a2.646,2.646,0,0,1-.092-.365l-.326-1.678a2.872,2.872,0,0,1,2.274-3.369,2.885,2.885,0,0,1,3.369,2.274,2.594,2.594,0,0,1,.04.308l.145,1.7a2.78,2.78,0,0,1-.482,1.815l-.079.112,1.5,2.21,4.368.493.053.008,6.4-2.821a1.869,1.869,0,0,1,2.458.963,1.87,1.87,0,0,1-.855,2.405l-6.826,3.487-.407,6.376a3.813,3.813,0,0,1-1,2.336l-.311.335h15.344a.962.962,0,0,0,.049-1.923l-12.184-.645a.445.445,0,0,1-.313-.144.455.455,0,0,1-.12-.323.443.443,0,0,1,.429-.437.474.474,0,0,1,.057,0l12.176.643a1.866,1.866,0,0,1,1.762,1.963,1.869,1.869,0,0,1-1.856,1.764l-17.352,0a.43.43,0,0,1-.1-.009l-.028-.008-.03,0c-.107.009-.216.013-.334.013Zm-4.886-22.046h0l-.06.007a1.974,1.974,0,0,0-1.682,2.224l.005.033c0,.024.008.048.012.07l.324,1.68a1.882,1.882,0,0,0,1.843,1.517,1.957,1.957,0,0,0,.362-.034,1.876,1.876,0,0,0,1.513-2l-.145-1.7a1.964,1.964,0,0,0-1.957-1.806,1.918,1.918,0,0,0-.21.01l-.006,0Z" transform="translate(-2350.903 -2767)" stroke="rgba(0,0,0,0)" stroke-miterlimit="10" stroke-width="1"/>
  </g>
</svg>
